<?xml version="1.0" encoding="UTF-8" standalone="no"?>
<!-- Created with Inkscape (http://www.inkscape.org/) -->

<svg
   width="64"
   height="64"
   viewBox="0 0 16.933333 16.933334"
   version="1.1"
   id="svg8"
   inkscape:version="1.3.2 (091e20ef0f, 2023-11-25, custom)"
   sodipodi:docname="add-lens.svg"
   inkscape:export-filename="C:\Users\Ali\Documents\inkscape\freecad\pyrate\pyrate_logo_3_256x256.png"
   inkscape:export-xdpi="1536"
   inkscape:export-ydpi="1536"
   xmlns:inkscape="http://www.inkscape.org/namespaces/inkscape"
   xmlns:sodipodi="http://sodipodi.sourceforge.net/DTD/sodipodi-0.dtd"
   xmlns:xlink="http://www.w3.org/1999/xlink"
   xmlns="http://www.w3.org/2000/svg"
   xmlns:svg="http://www.w3.org/2000/svg"
   xmlns:rdf="http://www.w3.org/1999/02/22-rdf-syntax-ns#"
   xmlns:cc="http://creativecommons.org/ns#"
   xmlns:dc="http://purl.org/dc/elements/1.1/">
  <defs
     id="defs2">
    <linearGradient
       id="linearGradient1245"
       inkscape:collect="always">
      <stop
         id="stop1241"
         offset="0"
         style="stop-color:#aaccff;stop-opacity:1" />
      <stop
         id="stop1243"
         offset="1"
         style="stop-color:#d5f6ff;stop-opacity:1" />
    </linearGradient>
    <linearGradient
       id="linearGradient1167"
       inkscape:collect="always">
      <stop
         id="stop1161"
         offset="0"
         style="stop-color:#00112b;stop-opacity:1" />
      <stop
         id="stop1163"
         offset="1"
         style="stop-color:#2a7fff;stop-opacity:1" />
    </linearGradient>
    <linearGradient
       inkscape:collect="always"
       id="linearGradient1166">
      <stop
         style="stop-color:#41dcff;stop-opacity:1"
         offset="0"
         id="stop1162" />
      <stop
         style="stop-color:#40e0ff;stop-opacity:1"
         offset="1"
         id="stop1164" />
    </linearGradient>
    <linearGradient
       inkscape:collect="always"
       id="linearGradient1058">
      <stop
         style="stop-color:#5175ff;stop-opacity:1"
         offset="0"
         id="stop1054" />
      <stop
         style="stop-color:#40e0ff;stop-opacity:1"
         offset="1"
         id="stop1056" />
    </linearGradient>
    <linearGradient
       id="linearGradient1045"
       inkscape:collect="always">
      <stop
         id="stop1041"
         offset="0"
         style="stop-color:#293449;stop-opacity:1" />
      <stop
         id="stop1043"
         offset="1"
         style="stop-color:#485c80;stop-opacity:1" />
    </linearGradient>
    <linearGradient
       inkscape:collect="always"
       id="linearGradient2480">
      <stop
         style="stop-color:#cc0a08;stop-opacity:1"
         offset="0"
         id="stop2476" />
      <stop
         style="stop-color:#f67d89;stop-opacity:1"
         offset="1"
         id="stop2478" />
    </linearGradient>
    <linearGradient
       id="linearGradient942-5"
       inkscape:collect="always">
      <stop
         id="stop938"
         offset="0"
         style="stop-color:#002076;stop-opacity:1" />
      <stop
         id="stop940"
         offset="1"
         style="stop-color:#40e0ff;stop-opacity:1" />
    </linearGradient>
    <linearGradient
       gradientUnits="userSpaceOnUse"
       y2="31.377413"
       x2="86.543877"
       y1="282.62048"
       x1="20.010984"
       id="linearGradient944"
       xlink:href="#linearGradient942-5"
       inkscape:collect="always" />
    <linearGradient
       gradientUnits="userSpaceOnUse"
       y2="112.66277"
       x2="98.204803"
       y1="257.94366"
       x1="13.302045"
       id="linearGradient952"
       xlink:href="#linearGradient2480"
       inkscape:collect="always" />
    <linearGradient
       gradientTransform="translate(0,1.5875)"
       gradientUnits="userSpaceOnUse"
       y2="133.50244"
       x2="146.68025"
       y1="272.83194"
       x1="101.05925"
       id="linearGradient960"
       xlink:href="#linearGradient2480"
       inkscape:collect="always" />
    <filter
       id="filter1495"
       inkscape:label="Drop Shadow"
       style="color-interpolation-filters:sRGB">
      <feFlood
         id="feFlood1485"
         result="flood"
         flood-color="rgb(0,0,0)"
         flood-opacity="0.498039" />
      <feComposite
         id="feComposite1487"
         result="composite1"
         operator="in"
         in2="SourceGraphic"
         in="flood" />
      <feGaussianBlur
         id="feGaussianBlur1489"
         result="blur"
         stdDeviation="4"
         in="composite1" />
      <feOffset
         id="feOffset1491"
         result="offset"
         dy="4"
         dx="2" />
      <feComposite
         id="feComposite1493"
         result="composite2"
         operator="over"
         in2="offset"
         in="SourceGraphic" />
    </filter>
    <filter
       id="filter2066"
       inkscape:label="Drop Shadow"
       style="color-interpolation-filters:sRGB">
      <feFlood
         id="feFlood2056"
         result="flood"
         flood-color="rgb(0,0,0)"
         flood-opacity="0.498039" />
      <feComposite
         id="feComposite2058"
         result="composite1"
         operator="in"
         in2="SourceGraphic"
         in="flood" />
      <feGaussianBlur
         id="feGaussianBlur2060"
         result="blur"
         stdDeviation="20"
         in="composite1" />
      <feOffset
         id="feOffset2062"
         result="offset"
         dy="20"
         dx="6" />
      <feComposite
         id="feComposite2064"
         result="composite2"
         operator="over"
         in2="offset"
         in="SourceGraphic" />
    </filter>
    <filter
       id="filter2474"
       inkscape:label="Drop Shadow"
       style="color-interpolation-filters:sRGB">
      <feFlood
         id="feFlood2464"
         result="flood"
         flood-color="rgb(0,0,0)"
         flood-opacity="0.498039" />
      <feComposite
         id="feComposite2466"
         result="composite1"
         operator="in"
         in2="SourceGraphic"
         in="flood" />
      <feGaussianBlur
         id="feGaussianBlur2468"
         result="blur"
         stdDeviation="4"
         in="composite1" />
      <feOffset
         id="feOffset2470"
         result="offset"
         dy="4.8"
         dx="1.5" />
      <feComposite
         id="feComposite2472"
         result="composite2"
         operator="over"
         in2="offset"
         in="SourceGraphic" />
    </filter>
    <linearGradient
       gradientTransform="translate(0,290.28571)"
       gradientUnits="userSpaceOnUse"
       y2="398.20157"
       x2="-973.7356"
       y1="746.96252"
       x1="-1123.2253"
       id="linearGradient1033"
       xlink:href="#linearGradient1058"
       inkscape:collect="always" />
    <linearGradient
       gradientTransform="translate(0,213.65424)"
       gradientUnits="userSpaceOnUse"
       y2="851.35718"
       x2="-987.59387"
       y1="1234.0872"
       x1="-1127.1049"
       id="linearGradient1047"
       xlink:href="#linearGradient1045"
       inkscape:collect="always" />
    <linearGradient
       gradientTransform="translate(-19.199562,-44.652005)"
       gradientUnits="userSpaceOnUse"
       y2="1157.111"
       x2="-544.48077"
       y1="1495.4609"
       x1="-689.72717"
       id="linearGradient1134"
       xlink:href="#linearGradient1045"
       inkscape:collect="always" />
    <linearGradient
       y2="851.35718"
       x2="-987.59387"
       y1="1234.0872"
       x1="-1127.1049"
       gradientTransform="translate(0,213.65424)"
       gradientUnits="userSpaceOnUse"
       id="linearGradient1160"
       xlink:href="#linearGradient1166"
       inkscape:collect="always" />
    <linearGradient
       id="linearGradient3682-0">
      <stop
         style="stop-color:#a40000;stop-opacity:1"
         offset="0"
         id="stop3684-0" />
      <stop
         style="stop-color:#ef2929;stop-opacity:1"
         offset="1"
         id="stop3686-0" />
    </linearGradient>
    <linearGradient
       id="linearGradient3864-9">
      <stop
         id="stop3866-1"
         offset="0"
         style="stop-color:#204a87;stop-opacity:1" />
      <stop
         id="stop3868-1"
         offset="1"
         style="stop-color:#729fcf;stop-opacity:1" />
    </linearGradient>
    <linearGradient
       id="linearGradient3682-0-3">
      <stop
         style="stop-color:#ff390f;stop-opacity:1"
         offset="0"
         id="stop3684-0-7" />
      <stop
         style="stop-color:#ff1000;stop-opacity:1;"
         offset="1"
         id="stop3686-0-5" />
    </linearGradient>
    <linearGradient
       id="linearGradient3864-9-7">
      <stop
         id="stop3866-1-7"
         offset="0"
         style="stop-color:#316cab;stop-opacity:1" />
      <stop
         id="stop3868-1-4"
         offset="1"
         style="stop-color:#002ca8;stop-opacity:1" />
    </linearGradient>
    <linearGradient
       id="linearGradient3682">
      <stop
         id="stop3684"
         offset="0"
         style="stop-color:#ff6d0f;stop-opacity:1;" />
      <stop
         id="stop3686"
         offset="1"
         style="stop-color:#ff1000;stop-opacity:1;" />
    </linearGradient>
    <linearGradient
       id="linearGradient3864">
      <stop
         style="stop-color:#71b2f8;stop-opacity:1;"
         offset="0"
         id="stop3866" />
      <stop
         style="stop-color:#002795;stop-opacity:1;"
         offset="1"
         id="stop3868" />
    </linearGradient>
    <linearGradient
       gradientTransform="matrix(0.79118995,0,0,0.96421064,-462.08318,3.6442021)"
       gradientUnits="userSpaceOnUse"
       y2="-97.402824"
       x2="-2013.709"
       y1="301.0498"
       x1="-2412.1616"
       id="linearGradient1169"
       xlink:href="#linearGradient1167"
       inkscape:collect="always" />
    <linearGradient
       gradientUnits="userSpaceOnUse"
       y2="-9.260396"
       x2="-2055.4119"
       y1="284.23495"
       x1="-2302.6389"
       id="linearGradient1239"
       xlink:href="#linearGradient1245"
       inkscape:collect="always" />
    <linearGradient
       gradientUnits="userSpaceOnUse"
       y2="1276.7333"
       x2="4327.0557"
       y1="2126.7334"
       x1="3477.0554"
       id="linearGradient3835"
       xlink:href="#linearGradient1045"
       inkscape:collect="always" />
    <mask
       id="mask5747"
       maskUnits="userSpaceOnUse">
      <path
         inkscape:connector-curvature="0"
         id="path5749"
         d="m -1081.0913,3822.7064 -30.9051,-17.7313 -13.6473,4.7355 -13.0203,33.2785 -20.4811,-1.0774 -9.3432,-34.4101 -13.0752,-6.2608 -32.6113,14.2658 -13.7762,-15.3072 17.7314,-30.9049 -4.8453,-13.606 -33.2766,-13.0222 1.1905,-20.5206 34.4107,-9.3432 6.2607,-13.0752 -14.3755,-32.5713 15.3071,-13.7747 30.9051,17.7313 13.7154,-4.8866 12.9107,-33.2346 20.6323,1.1528 9.2335,34.4501 13.0752,6.2606 32.681,-14.4151 13.7747,15.3067 -17.7319,30.9052 4.7754,13.7554 33.2372,12.9128 -1.0398,20.5901 -34.4501,9.2334 -6.2622,13.0752 14.3073,32.721 z m -46.2858,-50.6793 6.3443,-3.6809 5.4951,-4.9832 4.4016,-5.9473 3.1652,-6.6122 1.8707,-7.1279 0.3036,-7.3064 -1.0584,-7.3012 -2.4077,-6.9339 -3.8305,-6.4135 -4.8341,-5.4277 -5.9468,-4.3992 -6.6122,-3.1652 -7.1283,-1.8709 -7.3452,-0.4154 -7.3041,1.0583 -6.9313,2.4077 -6.414,3.8307 -5.3875,4.9432 -4.441,5.8375 -3.1652,6.6122 -1.8143,7.2377 -0.4155,7.3456 1.0579,7.302 2.4078,6.9334 3.7905,6.3042 4.8741,5.5367 5.9468,4.3995 6.6122,3.1652 7.238,1.8142 7.3058,0.3038 7.302,-1.0584 6.9333,-2.4079 z"
         style="display:inline;overflow:visible;visibility:visible;fill:#ffffff;fill-opacity:1;fill-rule:evenodd;stroke:none;stroke-width:9.9998951;stroke-linecap:round;stroke-linejoin:round;stroke-miterlimit:4;stroke-dasharray:none;stroke-dashoffset:0;stroke-opacity:1;marker:none;enable-background:accumulate" />
    </mask>
    <mask
       id="mask2314"
       maskUnits="userSpaceOnUse">
      <path
         inkscape:connector-curvature="0"
         sodipodi:nodetypes="ccccccccccc"
         id="path2316"
         d="m -1868.9759,3355.7772 h -288.3976 v 59.668 h 119.3385 v 59.6685 h 59.668 v -59.6685 h 49.7232 v 99.4479 h 59.6679 z"
         style="display:inline;overflow:visible;visibility:visible;fill:#ffffff;fill-opacity:1;fill-rule:evenodd;stroke:none;stroke-width:9.99989414;stroke-linecap:butt;stroke-linejoin:miter;stroke-miterlimit:4;stroke-dasharray:none;stroke-dashoffset:0;stroke-opacity:1;marker:none;enable-background:accumulate" />
    </mask>
  </defs>
  <sodipodi:namedview
     id="base"
     pagecolor="#ffffff"
     bordercolor="#666666"
     borderopacity="1.0"
     inkscape:pageopacity="0.0"
     inkscape:pageshadow="2"
     inkscape:zoom="7.9195959"
     inkscape:cx="41.479389"
     inkscape:cy="35.165936"
     inkscape:document-units="px"
     inkscape:current-layer="layer1"
     showgrid="false"
     inkscape:window-width="3836"
     inkscape:window-height="2093"
     inkscape:window-x="0"
     inkscape:window-y="32"
     inkscape:window-maximized="1"
     units="px"
     inkscape:showpageshadow="2"
     inkscape:pagecheckerboard="0"
     inkscape:deskcolor="#d1d1d1" />
  <metadata
     id="metadata5">
    <rdf:RDF>
      <cc:Work
         rdf:about="">
        <dc:format>image/svg+xml</dc:format>
        <dc:type
           rdf:resource="http://purl.org/dc/dcmitype/StillImage" />
        <dc:title />
      </cc:Work>
    </rdf:RDF>
  </metadata>
  <g
     inkscape:label="Layer 1"
     inkscape:groupmode="layer"
     id="layer1"
     transform="translate(0,-280.06666)">
    <circle
       id="path16"
       style="fill:#000000;stroke:#000000;stroke-width:0.264583"
       cx="7.377893"
       cy="291.66391"
       r="0.0011125094" />
    <path
       style="fill:#000000;stroke-width:0.264583"
       id="path17"
       d="m 7.6371179,283.56943 c 0.1976025,-0.0545 0.4011555,-0.0762 0.6052813,-0.0847 0.259216,-0.006 0.5183116,0.0107 0.7762838,0.0346 0.2620984,0.0251 0.512981,0.10332 0.7598627,0.19077 0.044966,0.0181 0.090426,0.035 0.1348994,0.0543 0.042805,0.0186 0.085541,0.0375 0.1268409,0.0592 0.04462,0.0234 0.176541,0.097 0.130656,0.0761 -0.07711,-0.0351 -0.142256,-0.0991 -0.2246179,-0.11884 -0.053249,-0.0128 0.089275,0.0635 0.1327679,0.0968 0.0417,0.0319 0.08183,0.0658 0.122749,0.0987 0.241612,0.19945 0.399755,0.46698 0.539885,0.74209 0.163006,0.33119 0.293185,0.67683 0.41781,1.02383 0.127917,0.34432 0.210221,0.70101 0.272989,1.06202 0.05847,0.37238 0.08963,0.74821 0.103645,1.12467 0.0069,0.31353 -0.0224,0.62828 -0.107531,0.93084 -0.01492,0.053 -0.0335,0.10493 -0.05025,0.1574 -0.109113,0.31356 -0.29303,0.57964 -0.500411,0.83474 -0.206062,0.2368 -0.430462,0.45648 -0.659451,0.67083 -0.151453,0.13916 -0.3050235,0.27629 -0.4813804,0.38359 -0.1317755,0.0802 -0.1932827,0.10558 -0.3330909,0.17306 -0.3315539,0.15454 -0.6899799,0.22738 -1.0446996,0.30577 -0.3085166,0.075 -0.6203805,0.13152 -0.936026,0.16506 -0.1700205,0.0195 -0.3413316,0.0235 -0.5116944,0.0383 -0.212579,0.0252 0.1577816,0.1251 0.3277716,0.21384 0.00366,-0.021 0.00845,-0.0418 0.010975,-0.0629 0.014862,-0.12463 0.012499,-0.2517 0.017785,-0.3769 0.00526,-0.1246 0.011679,-0.24914 0.017449,-0.37371 0.019659,-0.54297 0.016888,-1.08639 0.00639,-1.62952 -0.011036,-0.48008 -0.078316,-0.95618 -0.1215758,-1.43386 -0.031008,-0.37867 -0.07449,-0.75597 -0.1011928,-1.13502 -0.0313,-0.33913 -0.038437,-0.67971 -0.060307,-1.01938 -0.016002,-0.29573 -0.034798,-0.59131 -0.016798,-0.88725 0.01977,-0.18876 0.039281,-0.37728 0.049061,-0.56687 0.00534,-0.15387 -0.00486,-0.30785 -0.026489,-0.46014 -0.021058,-0.11164 -0.032363,-0.22443 -0.046282,-0.337 -0.00848,-0.0323 0.00755,-0.0613 -0.01697,-0.0154 0.049913,-0.005 0.1854341,0.0193 0.2152156,-0.0248 0.017089,-0.0253 0.00212,-0.061 0.00317,-0.0915 0,0 -0.016169,-0.0118 -0.016169,-0.0118 v 0 c -0.085934,-0.0314 -0.1702422,-0.0677 -0.2578066,-0.0942 -0.1004043,-0.0304 -0.1995061,-0.032 -0.3022076,-0.0376 -0.039142,0.0253 -0.030845,0.0453 -0.01642,0.0843 0.025445,0.11368 0.043005,0.22921 0.063936,0.34375 0.018404,0.1505 0.033609,0.30218 0.030994,0.45395 -0.00921,0.19021 -0.035273,0.37887 -0.044991,0.56906 -0.010689,0.30008 0.010448,0.59868 0.029156,0.89814 0.014743,0.34021 0.032862,0.68035 0.058876,1.01988 0.03523,0.38208 0.072354,0.76411 0.1189037,1.14497 0.060011,0.47786 0.1181304,0.95662 0.1366782,1.43825 0.022312,0.54112 0.035476,1.08318 -0.011142,1.62363 -0.016129,0.25785 -0.013544,0.5247 -0.094801,0.77254 0.1994778,0.14331 0.2366187,0.28462 0.4122047,0.25502 0.1628529,-0.0211 0.326186,-0.0375 0.48954,-0.0544 0.3157678,-0.0389 0.6293178,-0.0922 0.9383729,-0.16872 0.3558034,-0.0787 0.7142303,-0.15822 1.0445279,-0.31764 0.1679866,-0.0815 0.3361925,-0.16368 0.4888305,-0.27257 0.120942,-0.0863 0.22298,-0.19542 0.333139,-0.29416 0.229298,-0.2154 0.450515,-0.43967 0.652541,-0.68116 0.03627,-0.0434 0.07395,-0.0856 0.108824,-0.1301 0.169761,-0.21659 0.300547,-0.4616 0.400483,-0.71738 0.0168,-0.0535 0.03546,-0.10641 0.05039,-0.16044 0.08488,-0.30712 0.112747,-0.62649 0.105575,-0.94427 -0.01337,-0.37669 -0.03533,-0.75363 -0.09527,-1.12625 -0.05816,-0.36455 -0.148649,-0.72232 -0.273418,-1.07011 -0.122695,-0.34578 -0.247971,-0.69169 -0.405305,-1.02353 -0.136684,-0.276 -0.286734,-0.54781 -0.522067,-0.75351 -0.06584,-0.0546 -0.180602,-0.15304 -0.252301,-0.19859 -0.164394,-0.10444 -0.33261,-0.20275 -0.4998165,-0.30262 -0.1311365,-0.0783 -0.2667895,-0.14559 -0.4117721,-0.19471 -0.2523665,-0.0875 -0.5083853,-0.16623 -0.7760523,-0.189 -0.2584977,-0.0214 -0.5178836,-0.0311 -0.7772919,-0.028 -0.2115288,0.01 -0.4212897,0.034 -0.6286257,0.0782 z" />
    <path
       style="fill:#000000;stroke-width:0.264583"
       id="path18"
       d="m 14.8168,280.62085 c -0.04587,0.14559 -0.124292,0.27663 -0.195222,0.41069 -0.06927,0.13093 -0.09204,0.17769 -0.159611,0.31154 -0.19844,0.39025 -0.378551,0.78947 -0.555774,1.1897 -0.150657,0.33633 -0.280447,0.68116 -0.381402,1.03555 -0.07422,0.31248 -0.182215,0.61433 -0.315757,0.90594 -0.108821,0.22121 -0.234116,0.43371 -0.339639,0.6566 -0.08162,0.1724 -0.08609,0.1912 -0.156634,0.36712 -0.133241,0.35173 -0.215423,0.7199 -0.311017,1.08307 -0.05234,0.20891 -0.116141,0.4152 -0.201334,0.61322 -0.01886,0.0439 -0.03987,0.0867 -0.0598,0.13011 -0.0205,0.0489 -0.04101,0.0979 -0.06151,0.14682 -0.09746,0.23912 -0.179837,0.48393 -0.251614,0.73186 -0.03772,0.13527 -0.06828,0.27192 -0.116651,0.40389 -0.002,0.0385 -0.07932,0.15063 -0.07498,0.18504 0.008,0.0637 0.0924,0.12623 0.127745,0.16062 0,0 0.01743,0.01 0.01743,0.01 v 0 c 0.03841,0.009 0.140363,0.0503 0.190754,0.0186 0.0237,-0.0149 0.06138,-0.15949 0.07769,-0.18617 0.04929,-0.13385 0.08518,-0.27023 0.112579,-0.41027 0.05954,-0.25052 0.133259,-0.49803 0.234347,-0.73525 0.125674,-0.29138 0.261714,-0.57937 0.333852,-0.89035 0.0901,-0.36289 0.183159,-0.72568 0.311467,-1.07735 0.06191,-0.15712 0.08076,-0.21206 0.152704,-0.36582 0.104614,-0.22359 0.231899,-0.43532 0.342054,-0.65607 0.02391,-0.0494 0.04947,-0.098 0.07173,-0.14813 0.109167,-0.24585 0.16985,-0.50903 0.239211,-0.7678 0.09449,-0.35675 0.20439,-0.70916 0.342185,-1.05189 0.166095,-0.40493 0.352063,-0.80056 0.546508,-1.19262 0.121318,-0.24207 0.246609,-0.48305 0.329223,-0.7419 z" />
    <path
       style="fill:#000000;stroke-width:0.264583"
       id="path19"
       d="m 16.117234,282.01686 c -0.152054,0.0988 -0.307829,0.1929 -0.451339,0.30421 -0.09835,0.0763 -0.221647,0.18493 -0.315091,0.26555 -0.329938,0.28078 -0.656375,0.56586 -0.995584,0.83546 -0.315863,0.24381 -0.63548,0.48272 -0.956431,0.71978 -0.213711,0.16786 -0.445594,0.30949 -0.674137,0.4556 -0.176955,0.10551 -0.344786,0.22519 -0.513868,0.34263 -0.153648,0.10496 -0.313964,0.19966 -0.474473,0.29362 -0.09263,0.0571 -0.180176,0.12174 -0.262826,0.19237 -0.04138,0.039 -0.03666,0.0555 0.0083,0.0948 0.02371,0.0207 0.04968,0.0387 0.07451,0.0581 0,0 0.01729,0.0101 0.01729,0.0101 v 0 c 0.07632,0.0338 0.134238,0.086 0.207665,0.0301 0.08436,-0.0652 0.167545,-0.13222 0.256379,-0.19132 0.153126,-0.10386 0.315231,-0.19378 0.466441,-0.30061 0.168995,-0.11687 0.338652,-0.23236 0.512514,-0.34192 0.228345,-0.14535 0.454212,-0.29529 0.665965,-0.46425 0.310748,-0.24627 0.61822,-0.49664 0.936368,-0.73344 0.333072,-0.27421 0.657967,-0.55801 0.977639,-0.84773 0.239724,-0.20486 0.480234,-0.41362 0.754934,-0.57103 z" />
    <path
       style="fill:#000000;stroke-width:0.264583"
       id="path20"
       d="m 16.199567,283.76741 c -0.245181,-0.0606 -0.496832,-0.0701 -0.748036,-0.0741 -0.313765,0.0157 -0.627103,0.0297 -0.941283,0.0334 -0.319361,9.8e-4 -0.638459,-0.0127 -0.957799,-0.0142 -0.29602,0.007 -0.591281,-0.009 -0.886373,-0.0298 -0.28081,-0.007 -0.560742,-0.0204 -0.839982,-0.0515 -0.220194,-0.0243 -0.439233,-0.0579 -0.657885,-0.0933 -0.138486,-0.0181 -0.275846,-0.0443 -0.414579,-0.0602 -0.145507,-0.0122 -0.290728,-0.0271 -0.435842,-0.0433 -0.07008,-0.004 -0.139159,-0.0197 -0.209098,-0.0252 -0.01124,-8.8e-4 -0.03523,-0.012 -0.03382,-7.7e-4 0.0027,0.0214 0.02673,0.0339 0.04009,0.0508 0.01982,0.0209 0.03963,0.0417 0.05945,0.0626 0,0 0.01606,0.0119 0.01606,0.0119 v 0 c 0.03856,0.0227 0.07712,0.0455 0.11568,0.0683 0.03619,0.0199 0.07086,0.043 0.108581,0.0598 0.05873,0.0263 0.184452,0.0146 0.249346,0.0296 0.143693,0.0138 0.287363,0.0278 0.431152,0.0406 0.130761,0.016 0.261936,0.0284 0.392559,0.0455 0.215645,0.0305 0.431353,0.0606 0.647975,0.0836 0.275712,0.0262 0.552464,0.0275 0.82893,0.0413 0.285788,0.0145 0.571523,0.0166 0.857553,0.006 0.313361,-0.002 0.626673,0.002 0.940036,8.2e-4 0.306831,-0.005 0.612044,-0.0341 0.918438,-0.0493 0.242013,-0.002 0.483738,0.0118 0.721361,0.0608 z" />
    <path
       style="fill:#000000;stroke-width:0.264583"
       id="path21"
       d="m 6.3983213,290.80399 c -0.038898,0.0319 -0.076898,0.065 -0.1166948,0.0958 -0.1148598,0.0889 -0.2336776,0.17263 -0.3491415,0.26077 -0.204102,0.15579 -0.4039815,0.31643 -0.6025997,0.47912 -0.3732355,0.29813 -0.7164924,0.63036 -1.0711714,0.94958 -0.3494202,0.28812 -0.7011107,0.57345 -1.0524906,0.85919 -0.3072448,0.24545 -0.6285321,0.47199 -0.930716,0.72378 -0.040676,0.038 -0.098926,0.0634 -0.1220288,0.114 -0.022797,0.05 -0.00179,0.10987 -0.00511,0.1647 -0.00242,0.0399 -0.00807,0.0795 -0.012106,0.11926 0,0 0.017042,0.0105 0.017042,0.0105 v 0 c 0.048863,-0.0121 0.097284,-0.0261 0.146588,-0.0362 0.2774869,-0.0569 0.1451203,0.0165 0.3396131,-0.14451 0.3017115,-0.24996 0.6203916,-0.47794 0.9208894,-0.72951 0.1793846,-0.14706 0.3588928,-0.29407 0.5402178,-0.43874 0.1190472,-0.095 0.2414696,-0.1857 0.3599567,-0.28137 0.05467,-0.0442 0.1074478,-0.0906 0.161172,-0.13588 0.3524517,-0.31547 0.67257,-0.66464 1.0330191,-0.97136 0.1963801,-0.16291 0.3943672,-0.32365 0.5927722,-0.48409 0.033929,-0.0274 0.2905993,-0.23578 0.3347807,-0.26941 0.041045,-0.0312 0.083988,-0.0599 0.1259819,-0.0899 z" />
    <path
       style="fill:#000000;stroke-width:0.264583"
       id="path22"
       d="m 6.1455246,288.18675 c -0.2747523,0.26536 -0.5856857,0.49123 -0.8893405,0.72208 -0.498964,0.38283 -1.0311493,0.71922 -1.5652256,1.05022 -0.458783,0.27381 -0.8984949,0.57733 -1.3448384,0.87051 -0.1607994,0.10561 -0.3254021,0.20531 -0.4867279,0.31009 -0.037482,0.0243 -0.085493,0.038 -0.1116025,0.0743 -0.047805,0.0664 2.936e-4,0.14492 0.022289,0.20378 0,0 0.016826,0.0108 0.016826,0.0108 v 0 c 0.1007487,0.0153 0.2115883,0.0444 0.3141833,0.0121 0.042978,-0.0135 0.076166,-0.0482 0.113774,-0.073 0.1581035,-0.10434 0.3125573,-0.21415 0.4672204,-0.32347 0.4327536,-0.30648 0.8741789,-0.5999 1.3223376,-0.88342 0.5264324,-0.34207 1.0596636,-0.67621 1.5583011,-1.05848 0.3025444,-0.23365 0.6115653,-0.46185 0.882658,-0.73261 z" />
    <path
       style="fill:#000000;stroke-width:0.264583"
       id="path23"
       d="m 6.1548834,284.4168 c -0.023352,0.0239 -0.046037,0.0484 -0.070052,0.0716 -0.1029832,0.0995 -0.1028102,0.0908 -0.2127568,0.1949 -0.1903492,0.1802 -0.3735752,0.36817 -0.5613783,0.55103 -0.4018699,0.40474 -0.8434899,0.76442 -1.3012624,1.10323 -0.4235297,0.31887 -0.8740032,0.59858 -1.3236973,0.87832 -0.2557613,0.16455 -0.5156687,0.32228 -0.781449,0.47006 -0.10733,0.0579 -0.2088239,0.12542 -0.3113663,0.19118 -0.012863,0.0124 -0.1452655,0.0823 -0.1359689,0.10518 0.099264,0.24426 0.1991518,0.10114 0.079235,0.22844 0,0 0.017084,0.0104 0.017084,0.0104 v 0 c 0.1224826,-0.12994 -0.00966,-0.0227 0.2985643,0.009 0.01824,0.002 0.1173386,-0.0858 0.1421133,-0.0955 0.099636,-0.0647 0.1971833,-0.13217 0.2943985,-0.20042 0.2494508,-0.1631 0.4949272,-0.33216 0.7446931,-0.49477 0.4467987,-0.28473 0.8950341,-0.56758 1.3203764,-0.88418 0.1709113,-0.12728 0.2789547,-0.20502 0.4447022,-0.33942 0.2978509,-0.24152 0.5778656,-0.50449 0.8497154,-0.77463 0.2768915,-0.27524 0.5647765,-0.53969 0.8246944,-0.8314 z" />
    <path
       style="fill:#000000;stroke-width:0.264583"
       id="path24"
       d="m 9.3281669,283.65763 c -0.023524,0.008 -0.094899,0.0287 -0.1112602,0.049 -0.013994,0.0173 -0.010935,0.0434 -0.019741,0.0638 -0.00829,0.0193 -0.020828,0.0364 -0.031243,0.0546 0,0 0.01655,0.0112 0.01655,0.0112 v 0 c 0.03942,0.002 0.078932,0.002 0.1182587,0.005 0.045084,0.004 0.089591,0.0142 0.1348028,0.0154 0.035827,9e-4 0.1106797,-0.0146 0.1489319,-0.0217 z" />
    <path
       style="fill:#000000;stroke-width:0.264583"
       id="path25"
       d="m 8.569965,283.87642 c -0.017042,0.005 -0.1543937,0.0482 -0.1634961,0.0578 -0.019592,0.0205 -0.015351,0.0546 -0.023027,0.0819 0,0 0.016457,0.0114 0.016457,0.0114 v 0 c 0.062239,0.0103 0.1237022,0.0279 0.186717,0.0309 0.017775,8.5e-4 0.1706491,-0.0274 0.1977953,-0.0323 z" />
    <path
       style="fill:#000000;stroke-width:0.264583"
       id="path26"
       d="m 7.4017584,284.08767 c -0.039873,0.061 -0.023746,0.0267 -0.045127,0.10432 0,0 0.016386,0.0115 0.016386,0.0115 v 0 c 0.1864727,0.0391 0.098785,0.0242 0.2626317,0.0473 z" />
    <path
       style="fill:#000000;stroke-width:0.264583"
       id="path27"
       d="m 10.53066,285.83963 c -0.06821,0.0978 -0.03867,0.0413 -0.08069,0.17356 0,0 0.01676,0.0109 0.01676,0.0109 v 0 c 0.216734,-0.0151 0.119325,-10e-4 0.293188,-0.0349 z" />
    <path
       style="fill:#000000;stroke-width:0.264583"
       id="path28"
       d="m 9.5271775,286.45244 c -0.2001875,0.0552 -0.4028512,0.11046 -0.5846755,0.21426 -0.040756,0.0233 -0.078436,0.0516 -0.1176544,0.0773 -0.018534,0.0384 -0.037068,0.0767 -0.055602,0.11511 0,0 0.016782,0.0109 0.016782,0.0109 v 0 c 0.062582,-0.009 0.1251649,-0.0189 0.1877476,-0.0284 0.2407221,-0.0992 0.481049,-0.20314 0.7349437,-0.26449 z" />
    <path
       style="fill:#000000;stroke-width:0.264583"
       id="path29"
       d="m 8.0900418,287.17494 c -0.040143,0.0902 -0.018775,0.0432 -0.064328,0.14071 0,0 0.016878,0.0107 0.016878,0.0107 v 0 c 0.1416521,-0.0363 0.074136,-0.0184 0.202628,-0.0535 z" />
    <path
       style="fill:#000000;stroke-width:0.264583"
       id="path30"
       d="m 10.821224,288.86161 c -0.08864,0.0416 -0.193371,0.0569 -0.276453,0.11051 -0.08019,0.0517 -0.12534,0.12257 -0.183279,0.19595 0,0 0.01665,0.0111 0.01665,0.0111 v 0 c 0.05565,-0.006 0.334559,-0.0343 0.40283,-0.0474 0.103873,-0.0201 0.201488,-0.0655 0.304053,-0.0905 z" />
    <path
       style="fill:#000000;stroke-width:0.264583"
       id="path31"
       d="m 8.6461208,289.57578 c -0.1098852,0.0591 -0.3138212,0.12234 -0.3878448,0.2225 -0.022212,0.0301 -0.03026,0.0683 -0.045389,0.10251 0,0 0.016772,0.0109 0.016772,0.0109 v 0 c 0.056572,-0.007 0.1139113,-0.009 0.1697172,-0.0211 0.1559894,-0.0325 0.2957759,-0.12105 0.4369303,-0.19001 z" />
    <path
       style="fill:#000000;stroke-width:0.264583"
       id="path32"
       d="m 7.6666888,290.34064 c 0.00614,0.0274 0.012282,0.0547 0.018423,0.0821 0,0 0.016981,0.0106 0.016981,0.0106 v 0 c 0.03781,-2.3e-4 0.075619,-4.7e-4 0.1134285,-7.1e-4 z" />
    <path
       style="fill:#000000;stroke-width:0.264583"
       id="path3"
       d="m 7.1681444,282.42605 c -0.1056426,-0.14439 -0.2136945,-0.28833 -0.3408701,-0.41478 -0.031037,-0.0308 -0.063922,-0.0598 -0.095883,-0.0897 -0.038457,-0.03 -0.075792,-0.0616 -0.11537,-0.0901 -0.040033,-0.0289 -0.080536,-0.0574 -0.1232897,-0.082 -0.3796332,-0.21904 -0.7582125,-0.44017 -1.1435813,-0.64896 -0.04783,-0.0259 -0.1013831,-0.0402 -0.1539833,-0.0541 -0.1186384,-0.0313 -0.2338909,-0.0376 -0.3554458,-0.0497 -0.063373,4.3e-4 -0.1269378,-0.004 -0.1901182,10e-4 -0.1688179,0.0132 -0.3057745,0.0445 -0.4693348,0.0879 -0.1634255,0.0433 -0.3092543,0.0904 -0.4669312,0.15116 -0.073792,0.0284 -0.1459849,0.0609 -0.2189773,0.0913 -0.2158617,0.10835 -0.4134933,0.24729 -0.5889419,0.41325 -0.058095,0.055 -0.1179613,0.10918 -0.1664441,0.17278 -0.1004178,0.13172 -0.1676807,0.29786 -0.236601,0.44621 -0.081574,0.2223 -0.1017917,0.25371 -0.1521831,0.48565 -0.017945,0.0826 -0.035294,0.16569 -0.043443,0.24982 -0.00881,0.091 -0.01,0.18269 -0.0073,0.27402 0.00217,0.0735 0.043351,0.48663 0.050663,0.56222 0.010563,0.0904 0.017556,0.18122 0.031689,0.2711 0.015008,0.0955 0.035215,0.19005 0.055667,0.28448 0.034843,0.16088 0.092793,0.3941 0.143464,0.55153 0.072271,0.22453 0.1092411,0.29511 0.2026709,0.50973 0.1483209,0.32466 0.3526732,0.62014 0.6202447,0.85819 0.3828384,0.34061 1.0799102,0.66616 1.3917991,0.84613 0.2472352,0.10497 0.5074984,0.17783 0.7749096,0.20722 0.1479611,0.0163 0.372695,0.019 0.5214496,0.012 0.082075,-0.004 0.1637361,-0.014 0.2456042,-0.0209 0.078161,-0.0206 0.1575536,-0.0369 0.2344825,-0.0616 0.079878,-0.0257 0.1579923,-0.0569 0.2352683,-0.0896 0.21478,-0.0909 0.423866,-0.20395 0.6014326,-0.35701 0.054526,-0.047 0.1023845,-0.10122 0.1535769,-0.15183 0.1324171,-0.14614 0.2537058,-0.3052 0.345807,-0.48031 0.094266,-0.17923 0.1570032,-0.37244 0.219697,-0.56409 0.031521,-0.10252 0.090311,-0.28512 0.1123797,-0.39086 0.014441,-0.0692 0.023169,-0.13948 0.032301,-0.20957 0.019362,-0.14861 0.029097,-0.27171 0.034124,-0.42141 0.00233,-0.069 0.00159,-0.13802 0.00238,-0.20702 -0.00268,-0.0676 -0.00214,-0.13541 -0.00805,-0.20281 -0.01156,-0.13162 -0.040503,-0.28655 -0.067536,-0.41579 -0.023654,-0.11309 -0.06022,-0.26709 -0.093962,-0.37838 -0.018891,-0.0623 -0.041499,-0.12344 -0.062248,-0.18516 -0.059077,-0.17358 -0.1283803,-0.34331 -0.2031122,-0.51066 -0.021609,-0.0484 -0.042323,-0.0972 -0.066203,-0.14455 -0.051383,-0.1018 -0.092327,-0.16355 -0.1516491,-0.25938 -0.1253892,-0.17884 -0.2815611,-0.33531 -0.4584362,-0.46344 -0.033485,-0.0242 -0.068454,-0.0464 -0.1026821,-0.0696 -0.4728393,-0.30005 -0.9684285,-0.57068 -1.4554978,-0.84141 -0.029917,-0.0166 -0.1102286,-0.0661 -0.096665,-0.0346 0.030693,0.0711 0.1046999,0.11417 0.156028,0.17217 0.040821,0.0461 0.080263,0.0935 0.120395,0.14019 0,0 0.047508,0.0366 0.047508,0.0366 v 0 c 0.1029803,0.0653 0.2071042,0.12885 0.3089413,0.19593 0.1238668,0.0816 0.243306,0.16983 0.3680872,0.25001 0.039456,0.0254 0.1645653,0.09 0.1241161,0.0663 -0.3389387,-0.1989 -0.679658,-0.39475 -1.0196717,-0.5918 -0.035074,-0.0203 0.069996,0.0409 0.1048515,0.0616 0.035598,0.0211 0.071005,0.0426 0.106507,0.0639 0.066854,0.0409 0.1508575,0.091 0.2150869,0.13542 0.1490708,0.10317 0.2826986,0.2262 0.3990052,0.36526 0.032233,0.0405 0.066364,0.0795 0.096699,0.12145 0.1723779,0.23822 0.2846676,0.51274 0.3920596,0.78437 0.051235,0.14599 0.07642,0.21068 0.1187561,0.3596 0.073225,0.25757 0.1170797,0.52187 0.1350314,0.78903 0.00177,0.0676 0.00612,0.13514 0.00531,0.20273 -0.00406,0.33733 -0.073261,0.67026 -0.1592112,0.99505 -0.050639,0.14835 -0.072296,0.22458 -0.1378611,0.36656 -0.1037059,0.22458 -0.2404608,0.43933 -0.3954161,0.6317 -0.046664,0.0474 -0.090613,0.0977 -0.1399913,0.1423 -0.2168605,0.19588 -0.4905534,0.35233 -0.7742135,0.42505 -0.077616,0.0199 -0.157729,0.0283 -0.2365933,0.0425 -0.1908424,0.02 -0.2719322,0.0351 -0.466661,0.0276 -0.3449749,-0.0133 -0.6820279,-0.0994 -0.9927125,-0.24903 0.2391529,0.143 0.4737227,0.29396 0.7174585,0.42901 0.077345,0.0428 -0.1480145,-0.0972 -0.2174296,-0.15197 -0.2839177,-0.22403 -0.5062966,-0.51295 -0.6735085,-0.83201 -0.031328,-0.0781 -0.065111,-0.1553 -0.093984,-0.23435 -0.1576068,-0.43154 -0.2596055,-0.88097 -0.3206639,-1.33583 -0.00588,-0.0886 -0.016542,-0.17708 -0.017632,-0.26591 -0.00106,-0.0856 0.00575,-0.17119 0.011224,-0.25665 0.00843,-0.13163 0.028937,-0.36416 0.054956,-0.49521 0.042741,-0.21527 0.069092,-0.25389 0.1502436,-0.45626 0.040393,-0.0688 0.076135,-0.1405 0.1211795,-0.20633 0.048328,-0.0706 0.2299134,-0.2884 0.294654,-0.34984 0.1702022,-0.16151 0.3773853,-0.27325 0.589557,-0.36868 0.070177,-0.0296 0.1395421,-0.0612 0.2105303,-0.0887 0.2181477,-0.0847 0.4435975,-0.15454 0.6739343,-0.19724 0.067676,-0.0125 0.1357008,-0.0251 0.2044044,-0.0293 0.059569,-0.004 0.1192868,0.004 0.17893,0.006 0.1658234,0.0228 0.1754111,0.016 0.3339312,0.0701 0.046332,0.0158 0.1775565,0.0813 0.1359752,0.0554 -0.2875169,-0.17857 -0.5836669,-0.34285 -0.8752957,-0.51463 -0.041349,-0.0244 0.083957,0.0466 0.1244558,0.0724 0.037502,0.0238 0.072899,0.0508 0.1093483,0.0763 0.031535,0.0266 0.064188,0.0519 0.094606,0.0797 0.1097682,0.10053 0.2064467,0.21742 0.2690418,0.35316 z" />
    <path
       style="fill:#000000;stroke-width:0.264583"
       id="path4"
       d="m 4.7684722,281.98219 c 0.013232,0.0632 -0.019722,0.1233 -0.018325,0.18537 0.00119,0.0529 0.0161,0.1047 0.022902,0.15723 0.00762,0.0589 0.013324,0.11794 0.02037,0.17686 0.00773,0.0647 0.019383,0.12896 0.023958,0.19393 0.00477,0.0677 0.00268,0.1356 0.00402,0.2034 0.00713,0.19786 0.00363,0.39612 -0.00354,0.59394 -0.00613,0.16919 -0.011967,0.17134 -0.012655,0.33983 -2.511e-4,0.0615 0.00185,0.12296 0.00279,0.18445 -0.00379,0.25352 0.0043,0.50701 0.00376,0.76052 -2.344e-4,0.11162 -0.0023,0.22322 -0.00304,0.33483 -0.00734,0.12722 -0.00679,0.25466 -0.00873,0.38202 -9.261e-4,0.0611 -0.00955,0.12583 0.015494,0.18472 0.014184,0.0333 0.039412,0.0608 0.059119,0.0913 0.4377593,0.27443 0.2357221,0.14868 0.6057533,0.37782 0,0 0.053673,0.0268 0.053673,0.0268 v 0 c 0.362477,0.13769 0.1643724,0.0626 0.5943933,0.22496 0.017261,-0.0111 0.041379,-0.0156 0.051784,-0.0333 0.020307,-0.0345 0.00417,-0.143 0.00259,-0.1704 -0.00757,-0.13085 -0.00757,-0.26206 -0.016473,-0.39285 -0.00546,-0.36697 -0.011435,-0.73393 -0.015692,-1.10092 0.012208,-0.38325 0.010726,-0.76716 -0.021254,-1.14956 -0.00931,-0.0736 -0.018627,-0.1473 -0.027941,-0.22095 -0.00636,-0.0651 -0.010946,-0.13048 -0.019076,-0.19542 -0.00767,-0.0612 -0.018926,-0.12193 -0.028293,-0.18291 -0.00806,-0.0525 -0.010615,-0.10612 -0.023998,-0.15752 -0.012729,-0.0489 -0.037729,-0.0938 -0.053889,-0.14167 -0.00944,-0.028 -0.015219,-0.0571 -0.022828,-0.0856 z" />
    <path
       style="fill:#000000;stroke-width:0.264583"
       id="path5"
       d="m 7.0632162,283.75292 c -0.023151,0.002 -0.046246,0.005 -0.069456,0.005 -0.021646,3.7e-4 -0.2076654,-0.005 -0.2215206,-0.005 -0.1457259,-0.005 -0.2912695,-0.0151 -0.4368903,-0.0226 -0.3364124,-0.0208 -0.6715866,-0.0578 -1.0080258,-0.0786 -0.2585937,-0.015 -0.5166219,0.009 -0.7738197,0.0323 -0.1989556,0.0199 -0.3974923,0.0438 -0.5965206,0.0628 -0.2094601,0.0183 -0.418052,0.0445 -0.6270112,0.0674 -0.1539341,0.0108 -0.3075996,0.0225 -0.4611399,0.0379 -0.064985,0.006 -0.1298782,0.0132 -0.1947516,0.0203 -0.012077,0.001 -0.026059,-0.002 -0.036182,0.004 -0.00616,0.004 -0.00231,0.0146 -0.00346,0.0219 0.4349852,0.32538 0.2678719,0.19934 0.5024592,0.37665 0,0 0.049777,0.0335 0.049777,0.0335 v 0 c 0.254672,0.17209 0.072761,0.0491 0.545629,0.369 0.018722,0.005 0.036912,0.0129 0.056168,0.0152 0.012256,0.002 0.024575,-0.002 0.03684,-0.004 0.063124,-0.007 0.126275,-0.0153 0.1888014,-0.0267 0.1418823,-0.0217 0.2847626,-0.0364 0.4260771,-0.062 0.2053897,-0.0273 0.4111098,-0.0524 0.6175933,-0.0697 0.071628,-0.007 0.1434335,-0.0114 0.2150449,-0.0183 0.1246947,-0.012 0.2481381,-0.0338 0.3712048,-0.0566 0.233257,-0.0375 0.4685679,-0.0636 0.7052821,-0.0542 0.074791,0.002 0.2211898,0.007 0.2941794,0.011 0.2302632,0.013 0.4598011,0.0375 0.6900085,0.0515 0.1578565,0.01 0.161513,0.0118 0.3110815,0.0149 0.05317,0.001 0.1863754,0.001 0.2416791,0.001 0.03336,-2.1e-4 0.066718,-0.002 0.1000742,-0.001 0.027864,4.5e-4 0.055659,0.003 0.083488,0.004 z" />
    <path
       style="fill:#000000;stroke-width:0.264583"
       id="path6"
       d="m 4.8453836,281.55052 c 0.035028,0.12587 0.0845,0.26384 0.1759919,0.36056 0.1166736,0.12335 0.2627701,0.21624 0.380809,0.33828 0.069951,0.0723 0.1202838,0.16133 0.1804254,0.242 0,0 0.054001,0.0262 0.054001,0.0262 v 0 c 0.2934163,-0.2738 -0.1611403,0.10599 0.4098033,-0.11611 0.079677,-0.031 0.016248,-0.2337 -0.00274,-0.28413 z" />
    <path
       style="fill:#000000;stroke-width:0.264583"
       id="path7"
       d="m 4.8857384,285.33734 c -0.00755,0.0154 -0.023074,0.0291 -0.022651,0.0463 0.00106,0.0423 0.01865,0.0825 0.026873,0.12405 0.011636,0.0587 0.018386,0.11847 0.032698,0.1766 0.018542,0.0753 0.014462,0.16502 0.06573,0.22323 0.1593649,0.18094 0.3885065,0.29149 0.5473716,0.47287 0.048402,0.0553 0.035974,0.14245 0.053961,0.21368 0,0 0.053649,0.0269 0.053649,0.0269 v 0 c 0.063501,-0.40843 -0.060598,0.01 0.5435402,-0.11393 0.057532,-0.0118 0.028603,-0.11418 0.036225,-0.17241 0.00692,-0.0528 0.00513,-0.10647 0.00725,-0.15972 0.00159,-0.0399 0.011464,-0.0805 0.00389,-0.11967 -0.00627,-0.0325 -0.02945,-0.0592 -0.044175,-0.0888 z" />
  </g>
</svg>
