<?xml version="1.0" encoding="UTF-8" standalone="no"?>
<!-- Created with Inkscape (http://www.inkscape.org/) -->

<svg
   width="64"
   height="64"
   viewBox="0 0 16.933333 16.933334"
   version="1.1"
   id="svg8"
   inkscape:version="1.3.2 (091e20ef0f, 2023-11-25, custom)"
   sodipodi:docname="fans.svg"
   inkscape:export-filename="C:\Users\Ali\Documents\inkscape\freecad\pyrate\pyrate_logo_3_256x256.png"
   inkscape:export-xdpi="1536"
   inkscape:export-ydpi="1536"
   xmlns:inkscape="http://www.inkscape.org/namespaces/inkscape"
   xmlns:sodipodi="http://sodipodi.sourceforge.net/DTD/sodipodi-0.dtd"
   xmlns:xlink="http://www.w3.org/1999/xlink"
   xmlns="http://www.w3.org/2000/svg"
   xmlns:svg="http://www.w3.org/2000/svg"
   xmlns:rdf="http://www.w3.org/1999/02/22-rdf-syntax-ns#"
   xmlns:cc="http://creativecommons.org/ns#"
   xmlns:dc="http://purl.org/dc/elements/1.1/">
  <defs
     id="defs2">
    <linearGradient
       id="linearGradient1245"
       inkscape:collect="always">
      <stop
         id="stop1241"
         offset="0"
         style="stop-color:#aaccff;stop-opacity:1" />
      <stop
         id="stop1243"
         offset="1"
         style="stop-color:#d5f6ff;stop-opacity:1" />
    </linearGradient>
    <linearGradient
       id="linearGradient1167"
       inkscape:collect="always">
      <stop
         id="stop1161"
         offset="0"
         style="stop-color:#00112b;stop-opacity:1" />
      <stop
         id="stop1163"
         offset="1"
         style="stop-color:#2a7fff;stop-opacity:1" />
    </linearGradient>
    <linearGradient
       inkscape:collect="always"
       id="linearGradient1166">
      <stop
         style="stop-color:#41dcff;stop-opacity:1"
         offset="0"
         id="stop1162" />
      <stop
         style="stop-color:#40e0ff;stop-opacity:1"
         offset="1"
         id="stop1164" />
    </linearGradient>
    <linearGradient
       inkscape:collect="always"
       id="linearGradient1058">
      <stop
         style="stop-color:#5175ff;stop-opacity:1"
         offset="0"
         id="stop1054" />
      <stop
         style="stop-color:#40e0ff;stop-opacity:1"
         offset="1"
         id="stop1056" />
    </linearGradient>
    <linearGradient
       id="linearGradient1045"
       inkscape:collect="always">
      <stop
         id="stop1041"
         offset="0"
         style="stop-color:#293449;stop-opacity:1" />
      <stop
         id="stop1043"
         offset="1"
         style="stop-color:#485c80;stop-opacity:1" />
    </linearGradient>
    <linearGradient
       inkscape:collect="always"
       id="linearGradient2480">
      <stop
         style="stop-color:#cc0a08;stop-opacity:1"
         offset="0"
         id="stop2476" />
      <stop
         style="stop-color:#f67d89;stop-opacity:1"
         offset="1"
         id="stop2478" />
    </linearGradient>
    <linearGradient
       id="linearGradient942-5"
       inkscape:collect="always">
      <stop
         id="stop938"
         offset="0"
         style="stop-color:#002076;stop-opacity:1" />
      <stop
         id="stop940"
         offset="1"
         style="stop-color:#40e0ff;stop-opacity:1" />
    </linearGradient>
    <linearGradient
       gradientUnits="userSpaceOnUse"
       y2="31.377413"
       x2="86.543877"
       y1="282.62048"
       x1="20.010984"
       id="linearGradient944"
       xlink:href="#linearGradient942-5"
       inkscape:collect="always" />
    <linearGradient
       gradientUnits="userSpaceOnUse"
       y2="112.66277"
       x2="98.204803"
       y1="257.94366"
       x1="13.302045"
       id="linearGradient952"
       xlink:href="#linearGradient2480"
       inkscape:collect="always" />
    <linearGradient
       gradientTransform="translate(0,1.5875)"
       gradientUnits="userSpaceOnUse"
       y2="133.50244"
       x2="146.68025"
       y1="272.83194"
       x1="101.05925"
       id="linearGradient960"
       xlink:href="#linearGradient2480"
       inkscape:collect="always" />
    <filter
       id="filter1495"
       inkscape:label="Drop Shadow"
       style="color-interpolation-filters:sRGB">
      <feFlood
         id="feFlood1485"
         result="flood"
         flood-color="rgb(0,0,0)"
         flood-opacity="0.498039" />
      <feComposite
         id="feComposite1487"
         result="composite1"
         operator="in"
         in2="SourceGraphic"
         in="flood" />
      <feGaussianBlur
         id="feGaussianBlur1489"
         result="blur"
         stdDeviation="4"
         in="composite1" />
      <feOffset
         id="feOffset1491"
         result="offset"
         dy="4"
         dx="2" />
      <feComposite
         id="feComposite1493"
         result="composite2"
         operator="over"
         in2="offset"
         in="SourceGraphic" />
    </filter>
    <filter
       id="filter2066"
       inkscape:label="Drop Shadow"
       style="color-interpolation-filters:sRGB">
      <feFlood
         id="feFlood2056"
         result="flood"
         flood-color="rgb(0,0,0)"
         flood-opacity="0.498039" />
      <feComposite
         id="feComposite2058"
         result="composite1"
         operator="in"
         in2="SourceGraphic"
         in="flood" />
      <feGaussianBlur
         id="feGaussianBlur2060"
         result="blur"
         stdDeviation="20"
         in="composite1" />
      <feOffset
         id="feOffset2062"
         result="offset"
         dy="20"
         dx="6" />
      <feComposite
         id="feComposite2064"
         result="composite2"
         operator="over"
         in2="offset"
         in="SourceGraphic" />
    </filter>
    <filter
       id="filter2474"
       inkscape:label="Drop Shadow"
       style="color-interpolation-filters:sRGB">
      <feFlood
         id="feFlood2464"
         result="flood"
         flood-color="rgb(0,0,0)"
         flood-opacity="0.498039" />
      <feComposite
         id="feComposite2466"
         result="composite1"
         operator="in"
         in2="SourceGraphic"
         in="flood" />
      <feGaussianBlur
         id="feGaussianBlur2468"
         result="blur"
         stdDeviation="4"
         in="composite1" />
      <feOffset
         id="feOffset2470"
         result="offset"
         dy="4.8"
         dx="1.5" />
      <feComposite
         id="feComposite2472"
         result="composite2"
         operator="over"
         in2="offset"
         in="SourceGraphic" />
    </filter>
    <linearGradient
       gradientTransform="translate(0,290.28571)"
       gradientUnits="userSpaceOnUse"
       y2="398.20157"
       x2="-973.7356"
       y1="746.96252"
       x1="-1123.2253"
       id="linearGradient1033"
       xlink:href="#linearGradient1058"
       inkscape:collect="always" />
    <linearGradient
       gradientTransform="translate(0,213.65424)"
       gradientUnits="userSpaceOnUse"
       y2="851.35718"
       x2="-987.59387"
       y1="1234.0872"
       x1="-1127.1049"
       id="linearGradient1047"
       xlink:href="#linearGradient1045"
       inkscape:collect="always" />
    <linearGradient
       gradientTransform="translate(-19.199562,-44.652005)"
       gradientUnits="userSpaceOnUse"
       y2="1157.111"
       x2="-544.48077"
       y1="1495.4609"
       x1="-689.72717"
       id="linearGradient1134"
       xlink:href="#linearGradient1045"
       inkscape:collect="always" />
    <linearGradient
       y2="851.35718"
       x2="-987.59387"
       y1="1234.0872"
       x1="-1127.1049"
       gradientTransform="translate(0,213.65424)"
       gradientUnits="userSpaceOnUse"
       id="linearGradient1160"
       xlink:href="#linearGradient1166"
       inkscape:collect="always" />
    <linearGradient
       id="linearGradient3682-0">
      <stop
         style="stop-color:#a40000;stop-opacity:1"
         offset="0"
         id="stop3684-0" />
      <stop
         style="stop-color:#ef2929;stop-opacity:1"
         offset="1"
         id="stop3686-0" />
    </linearGradient>
    <linearGradient
       id="linearGradient3864-9">
      <stop
         id="stop3866-1"
         offset="0"
         style="stop-color:#204a87;stop-opacity:1" />
      <stop
         id="stop3868-1"
         offset="1"
         style="stop-color:#729fcf;stop-opacity:1" />
    </linearGradient>
    <linearGradient
       id="linearGradient3682-0-3">
      <stop
         style="stop-color:#ff390f;stop-opacity:1"
         offset="0"
         id="stop3684-0-7" />
      <stop
         style="stop-color:#ff1000;stop-opacity:1;"
         offset="1"
         id="stop3686-0-5" />
    </linearGradient>
    <linearGradient
       id="linearGradient3864-9-7">
      <stop
         id="stop3866-1-7"
         offset="0"
         style="stop-color:#316cab;stop-opacity:1" />
      <stop
         id="stop3868-1-4"
         offset="1"
         style="stop-color:#002ca8;stop-opacity:1" />
    </linearGradient>
    <linearGradient
       id="linearGradient3682">
      <stop
         id="stop3684"
         offset="0"
         style="stop-color:#ff6d0f;stop-opacity:1;" />
      <stop
         id="stop3686"
         offset="1"
         style="stop-color:#ff1000;stop-opacity:1;" />
    </linearGradient>
    <linearGradient
       id="linearGradient3864">
      <stop
         style="stop-color:#71b2f8;stop-opacity:1;"
         offset="0"
         id="stop3866" />
      <stop
         style="stop-color:#002795;stop-opacity:1;"
         offset="1"
         id="stop3868" />
    </linearGradient>
    <linearGradient
       gradientTransform="matrix(0.79118995,0,0,0.96421064,-462.08318,3.6442021)"
       gradientUnits="userSpaceOnUse"
       y2="-97.402824"
       x2="-2013.709"
       y1="301.0498"
       x1="-2412.1616"
       id="linearGradient1169"
       xlink:href="#linearGradient1167"
       inkscape:collect="always" />
    <linearGradient
       gradientUnits="userSpaceOnUse"
       y2="-9.260396"
       x2="-2055.4119"
       y1="284.23495"
       x1="-2302.6389"
       id="linearGradient1239"
       xlink:href="#linearGradient1245"
       inkscape:collect="always" />
    <linearGradient
       gradientUnits="userSpaceOnUse"
       y2="1276.7333"
       x2="4327.0557"
       y1="2126.7334"
       x1="3477.0554"
       id="linearGradient3835"
       xlink:href="#linearGradient1045"
       inkscape:collect="always" />
    <mask
       id="mask5747"
       maskUnits="userSpaceOnUse">
      <path
         inkscape:connector-curvature="0"
         id="path5749"
         d="m -1081.0913,3822.7064 -30.9051,-17.7313 -13.6473,4.7355 -13.0203,33.2785 -20.4811,-1.0774 -9.3432,-34.4101 -13.0752,-6.2608 -32.6113,14.2658 -13.7762,-15.3072 17.7314,-30.9049 -4.8453,-13.606 -33.2766,-13.0222 1.1905,-20.5206 34.4107,-9.3432 6.2607,-13.0752 -14.3755,-32.5713 15.3071,-13.7747 30.9051,17.7313 13.7154,-4.8866 12.9107,-33.2346 20.6323,1.1528 9.2335,34.4501 13.0752,6.2606 32.681,-14.4151 13.7747,15.3067 -17.7319,30.9052 4.7754,13.7554 33.2372,12.9128 -1.0398,20.5901 -34.4501,9.2334 -6.2622,13.0752 14.3073,32.721 z m -46.2858,-50.6793 6.3443,-3.6809 5.4951,-4.9832 4.4016,-5.9473 3.1652,-6.6122 1.8707,-7.1279 0.3036,-7.3064 -1.0584,-7.3012 -2.4077,-6.9339 -3.8305,-6.4135 -4.8341,-5.4277 -5.9468,-4.3992 -6.6122,-3.1652 -7.1283,-1.8709 -7.3452,-0.4154 -7.3041,1.0583 -6.9313,2.4077 -6.414,3.8307 -5.3875,4.9432 -4.441,5.8375 -3.1652,6.6122 -1.8143,7.2377 -0.4155,7.3456 1.0579,7.302 2.4078,6.9334 3.7905,6.3042 4.8741,5.5367 5.9468,4.3995 6.6122,3.1652 7.238,1.8142 7.3058,0.3038 7.302,-1.0584 6.9333,-2.4079 z"
         style="display:inline;overflow:visible;visibility:visible;fill:#ffffff;fill-opacity:1;fill-rule:evenodd;stroke:none;stroke-width:9.9998951;stroke-linecap:round;stroke-linejoin:round;stroke-miterlimit:4;stroke-dasharray:none;stroke-dashoffset:0;stroke-opacity:1;marker:none;enable-background:accumulate" />
    </mask>
    <mask
       id="mask2314"
       maskUnits="userSpaceOnUse">
      <path
         inkscape:connector-curvature="0"
         sodipodi:nodetypes="ccccccccccc"
         id="path2316"
         d="m -1868.9759,3355.7772 h -288.3976 v 59.668 h 119.3385 v 59.6685 h 59.668 v -59.6685 h 49.7232 v 99.4479 h 59.6679 z"
         style="display:inline;overflow:visible;visibility:visible;fill:#ffffff;fill-opacity:1;fill-rule:evenodd;stroke:none;stroke-width:9.99989414;stroke-linecap:butt;stroke-linejoin:miter;stroke-miterlimit:4;stroke-dasharray:none;stroke-dashoffset:0;stroke-opacity:1;marker:none;enable-background:accumulate" />
    </mask>
  </defs>
  <sodipodi:namedview
     id="base"
     pagecolor="#ffffff"
     bordercolor="#666666"
     borderopacity="1.0"
     inkscape:pageopacity="0.0"
     inkscape:pageshadow="2"
     inkscape:zoom="15.839192"
     inkscape:cx="37.344077"
     inkscape:cy="23.138807"
     inkscape:document-units="px"
     inkscape:current-layer="layer1"
     showgrid="false"
     inkscape:window-width="3836"
     inkscape:window-height="2093"
     inkscape:window-x="0"
     inkscape:window-y="32"
     inkscape:window-maximized="1"
     units="px"
     inkscape:showpageshadow="2"
     inkscape:pagecheckerboard="0"
     inkscape:deskcolor="#d1d1d1" />
  <metadata
     id="metadata5">
    <rdf:RDF>
      <cc:Work
         rdf:about="">
        <dc:format>image/svg+xml</dc:format>
        <dc:type
           rdf:resource="http://purl.org/dc/dcmitype/StillImage" />
      </cc:Work>
    </rdf:RDF>
  </metadata>
  <g
     inkscape:label="Layer 1"
     inkscape:groupmode="layer"
     id="layer1"
     transform="translate(0,-280.06666)">
    <path
       style="fill:#000000;fill-opacity:1;stroke-width:0.264583"
       id="path31"
       d="m 14.71771,294.1559 c -0.135633,-0.10176 -0.257955,-0.21964 -0.383135,-0.33361 -0.29233,-0.26614 0.0054,0.007 -0.287495,-0.26251 -0.182434,-0.1709 -0.371333,-0.33391 -0.576633,-0.47692 -0.371483,-0.25878 -1.006021,-0.59305 -1.244579,-0.73054 -0.247714,-0.11843 -0.508674,-0.22486 -0.783371,-0.25948 -0.0507,-0.006 -0.101939,-0.007 -0.152908,-0.0109 -0.160412,-0.003 -0.320326,0.009 -0.475558,0.052 -0.06129,0.017 -0.121086,0.0391 -0.180951,0.0606 -0.147876,0.0531 -0.236749,0.092 -0.382321,0.15228 -0.06305,0.0289 -0.127247,0.0553 -0.189159,0.0866 -0.07937,0.04 -0.2977265,0.16657 -0.3737649,0.2109 -0.1366652,0.0797 -0.2489959,0.14423 -0.3796617,0.23451 -0.070009,0.0484 -0.1372362,0.10065 -0.2058546,0.15097 -0.2049573,0.15656 -0.4180922,0.30228 -0.6232776,0.45851 -0.065394,0.0498 -0.1287846,0.10216 -0.1936046,0.1527 -0.1741768,0.1358 -0.202233,0.15558 -0.3771401,0.28676 -0.3180177,0.22833 -0.655811,0.44636 -1.0389116,0.54694 -0.074528,0.0196 -0.1511702,0.0299 -0.2267553,0.0449 -0.2049158,0.0132 -0.2616055,0.0263 -0.4665959,0.002 -0.2492103,-0.0298 -0.4893511,-0.10943 -0.7214203,-0.20181 -0.080774,-0.0322 -0.1598616,-0.0684 -0.2397924,-0.10259 -0.077894,-0.0374 -0.1566252,-0.0731 -0.2336835,-0.11226 -0.1715646,-0.0871 -1.4264931,-0.78476 0.5596991,0.3298 0.073257,0.0411 -0.1441884,-0.0863 -0.2153246,-0.13093 -0.1556813,-0.0978 -0.2330685,-0.15257 -0.383681,-0.25527 -0.2220405,-0.15036 -0.4335087,-0.31514 -0.6408338,-0.48494 -0.044533,-0.0365 -0.084361,-0.0796 -0.1336556,-0.10934 -0.1396609,-0.0842 -0.2874457,-0.15412 -0.4311687,-0.23119 -0.1049055,-0.0605 -0.2098109,-0.12092 -0.3147163,-0.18138 0,0 -0.055449,-0.0229 -0.055449,-0.0229 v 0 c -0.044092,-5e-4 -0.088185,-10e-4 -0.1322774,-0.002 -0.069946,-0.009 -0.1564807,-0.0727 -0.2098392,-0.0266 -0.039971,0.0345 0.07711,0.0723 0.1173398,0.10648 0.04865,0.0414 0.098978,0.0808 0.1491893,0.12025 0.1739019,0.13672 0.3535886,0.26572 0.5345221,0.39291 0.1919398,0.13032 0.2085213,0.14359 0.4072244,0.27016 0.071227,0.0454 0.1418402,0.0918 0.2148025,0.13434 0.5535317,0.32262 1.0942601,0.67016 1.6834896,0.924 0.080478,0.032 0.1600814,0.0662 0.2414347,0.0959 0.2430568,0.0886 0.498361,0.16449 0.7578145,0.1837 0.1972686,0.0146 0.281862,-0.006 0.476812,-0.0308 0.077598,-0.0199 0.1568286,-0.0344 0.2327926,-0.0599 0.1264076,-0.0424 0.3071726,-0.13445 0.4228248,-0.19785 0.2106589,-0.11547 0.416047,-0.24331 0.5949834,-0.40479 0.1148919,-0.0944 0.2463438,-0.20342 0.3629398,-0.29527 0.064508,-0.0508 0.1304285,-0.0998 0.1951297,-0.15039 0.2009386,-0.15705 0.398489,-0.31903 0.6129668,-0.45785 0.374923,-0.23569 0.753526,-0.4682 1.15875,-0.64899 0.06217,-0.0256 0.123435,-0.0536 0.186527,-0.0769 0.208547,-0.077 0.452066,-0.13899 0.675687,-0.1464 0.04815,-0.002 0.09633,0.002 0.144487,0.003 0.04773,0.006 0.09577,0.01 0.143195,0.0176 0.260991,0.0437 0.508238,0.14852 0.741082,0.27081 -1.687654,-0.98372 -0.871849,-0.5196 -0.632736,-0.36212 0.206428,0.13595 0.39867,0.29231 0.578523,0.46169 0.188762,0.1785 0.370422,0.36434 0.550162,0.55188 z" />
    <path
       style="fill:#000000;fill-opacity:1;stroke-width:0.264583"
       id="path32"
       d="m 14.909292,291.26521 c -0.01449,-0.0206 -0.02939,-0.041 -0.04346,-0.0619 -0.07067,-0.10505 -0.136406,-0.21227 -0.211914,-0.31416 -0.08706,-0.11747 -0.135192,-0.17348 -0.228675,-0.28784 -0.133021,-0.15776 -0.273187,-0.30916 -0.42388,-0.45024 -0.05234,-0.049 -0.104634,-0.0982 -0.16018,-0.14355 -0.166213,-0.13566 -0.210075,-0.15476 -0.391778,-0.26752 -0.498159,-0.26632 -1.029002,-0.68772 -1.621492,-0.80231 -0.09231,-0.0179 -0.29044,-0.0358 -0.385261,-0.0334 -0.06726,0.002 -0.133978,0.0125 -0.200966,0.0187 -0.06975,0.01 -0.140403,0.0148 -0.209246,0.0298 -0.09466,0.0206 -0.399899,0.11796 -0.486015,0.14669 -0.145816,0.0486 -0.36643,0.12665 -0.507932,0.18711 -0.084833,0.0362 -0.1672104,0.078 -0.2508158,0.11699 -0.2674292,0.1278 -0.2400639,0.11264 -0.5033791,0.24677 -0.082255,0.0419 -0.1668362,0.0797 -0.2460935,0.127 -0.089939,0.0537 -0.1736259,0.11724 -0.2606384,0.17557 -0.5164206,0.34615 -0.042127,0.0255 -0.5581361,0.37548 -0.090912,0.061 -0.182535,0.12096 -0.2727365,0.183 -0.088732,0.061 -0.175051,0.12554 -0.2640275,0.18622 -0.2437151,0.16621 -0.5022979,0.33125 -0.7584747,0.47771 -0.083061,0.0475 -0.168062,0.0915 -0.2520929,0.13724 -0.3271583,0.16133 -0.6720917,0.29963 -1.0360012,0.34963 -0.2442935,0.0336 -0.3001748,0.0194 -0.5473695,0.008 -0.3795604,-0.0405 -0.7437265,-0.16003 -1.0800104,-0.33961 -0.089492,-0.0478 -0.3512902,-0.20302 -0.2617986,-0.15523 0.2836715,0.15149 0.5630143,0.31095 0.8445215,0.46642 -0.2378091,-0.17107 -0.4577617,-0.36429 -0.6664521,-0.56943 -0.05921,-0.0582 -0.1168352,-0.118 -0.1747488,-0.17749 -0.0515,-0.0529 -0.1004319,-0.10834 -0.1534851,-0.15969 -0.056091,-0.0543 -0.1158309,-0.10467 -0.1737466,-0.157 -0.4347673,-0.28406 -0.195471,-0.1381 -0.7225848,-0.43008 0,0 -0.055256,-0.0234 -0.055256,-0.0234 v 0 c -0.3024603,-0.0636 -0.1841768,-0.089 -0.3621998,-0.0229 0.030584,0.0418 0.057586,0.0864 0.091752,0.12534 0.04198,0.0478 0.3209132,0.3203 0.3556167,0.35376 0.088577,0.0854 0.3368508,0.32099 0.4293412,0.40055 0.076866,0.0661 0.1577131,0.12748 0.2365698,0.19121 0.4502812,0.27054 0.898779,0.54407 1.350844,0.81162 0.263702,0.15607 0.5440934,0.28889 0.8410168,0.36851 0.2243976,0.0602 0.320067,0.0599 0.5505789,0.0825 0.2307103,-0.004 0.3279018,0.004 0.5557189,-0.0404 0.085958,-0.0166 0.1702925,-0.0414 0.2538003,-0.0677 0.2664148,-0.084 0.5199253,-0.20441 0.765697,-0.33578 0.08419,-0.0482 0.1698855,-0.0939 0.2525713,-0.14458 0.251624,-0.15438 0.4854866,-0.33537 0.7266982,-0.5049 0.088505,-0.0622 0.1789422,-0.12163 0.267475,-0.18379 0.088122,-0.0619 0.1749753,-0.12555 0.262463,-0.18832 0.1740945,-0.11899 0.3754892,-0.2611 0.5576742,-0.36782 0.092663,-0.0543 0.1893564,-0.10137 0.2839846,-0.15215 0.07964,-0.0427 0.158451,-0.0871 0.23882,-0.1284 0.161205,-0.083 0.337852,-0.16451 0.50176,-0.2418 0.243753,-0.10431 0.485865,-0.21735 0.738664,-0.29875 0.226223,-0.0728 0.458662,-0.11874 0.695083,-0.14184 0.06571,-10e-4 0.131417,-0.006 0.197133,-0.004 0.131272,0.002 0.228001,0.0144 0.356682,0.0435 0.06004,0.0136 0.119625,0.0296 0.178025,0.049 0.382659,0.12742 0.705225,0.38166 -0.618978,-0.40953 0.06588,0.0369 0.133879,0.0704 0.197647,0.11085 0.283103,0.17977 0.513019,0.43096 0.729287,0.68358 0.144454,0.18296 0.289731,0.37268 0.375172,0.59174 z" />
    <path
       style="fill:#000000;fill-opacity:1;stroke-width:0.264583"
       id="path33"
       d="m 14.532197,285.1413 c -0.121518,-0.1363 -0.240613,-0.27495 -0.375995,-0.39805 -0.03923,-0.0357 -0.08024,-0.0693 -0.120366,-0.10399 -0.229887,-0.19675 -0.492178,-0.34962 -0.753797,-0.49939 -1.206531,-0.69073 -0.78349,-0.46425 -1.410183,-0.79475 -0.44691,-0.2303 -0.905505,-0.44109 -1.379249,-0.61059 -0.117382,-0.042 -0.236526,-0.0789 -0.354789,-0.11835 -0.4715477,-0.15504 -0.9488672,-0.2928 -1.4342236,-0.39771 -0.278841,-0.0603 -0.3597228,-0.0702 -0.6371207,-0.11589 -0.4856885,-0.063 -0.9754089,-0.10743 -1.4656065,-0.10779 -0.093825,-7e-5 -0.1876168,0.004 -0.2814251,0.005 -0.2943693,2.8e-4 -0.5842389,0.053 -0.8719582,0.10931 -0.1876473,0.0367 -0.4167547,0.0838 -0.6012958,0.13653 -0.090167,0.0258 -0.1782802,0.0582 -0.2674205,0.0874 -0.3191245,0.118 -0.6178169,0.2863 -0.8856408,0.496 -0.1614202,0.12638 -0.1980989,0.16905 -0.3458576,0.31139 -0.1846551,0.19169 -0.1357796,0.13808 -0.3129989,0.33333 -0.1318331,0.14524 -0.1607505,0.17158 -0.2748367,0.32817 -0.104416,0.14331 -0.1299259,0.1924 -0.2210088,0.34259 -0.00572,0.0113 -0.1825325,0.34923 -0.1712763,0.3718 0.4565466,0.91543 0.3713039,0.10625 0.4010198,0.6299 0,0 0.052015,0.0299 0.052015,0.0299 v 0 c 0.4510688,-0.24237 -0.2544478,0.0915 0.7372139,0.0265 0.019426,-10e-4 0.2291233,-0.32415 0.2342329,-0.33184 0.1017114,-0.17153 0.2007945,-0.34454 0.3068156,-0.51348 0.036908,-0.0588 0.071822,-0.11901 0.1121709,-0.17551 0.1040295,-0.14569 0.1642343,-0.20189 0.2863784,-0.3334 0.054792,-0.0521 0.1085366,-0.10531 0.1643761,-0.15628 0.1002726,-0.0915 0.2389527,-0.20819 0.3444158,-0.29304 0.1329323,-0.10695 0.2308884,-0.18467 0.3769096,-0.27391 0.066872,-0.0409 0.1372521,-0.0757 0.2058781,-0.11353 0.1889721,-0.0849 0.2808909,-0.13283 0.4817219,-0.19485 0.3778329,-0.11668 0.7687265,-0.14612 1.1618669,-0.15557 0.093523,-4.5e-4 0.1870472,-0.002 0.2805676,-0.001 0.4756611,0.004 0.9518389,0.0306 1.423301,0.0951 0.2679189,0.0403 0.3361669,0.0475 0.605618,0.10049 0.467877,0.0919 0.928489,0.21838 1.380002,0.37144 0.124859,0.0463 0.250491,0.0906 0.374577,0.13889 0.48727,0.18977 0.95993,0.41569 1.422111,0.65972 0.491429,0.26532 0.284335,0.15689 -0.463877,-0.28069 -0.0711,-0.0416 0.143232,0.0814 0.213912,0.12369 0.125436,0.0751 0.228912,0.13981 0.345285,0.22616 0.04242,0.0315 0.08258,0.0659 0.123871,0.0988 0.09621,0.0825 0.189897,0.16444 0.27577,0.25783 0.0378,0.0411 0.08009,0.0888 0.112335,0.13522 0.0096,0.0138 0.01703,0.029 0.02555,0.0435 z" />
    <path
       style="fill:#000000;fill-opacity:1;stroke-width:0.264583"
       id="path34"
       d="m 13.392647,284.58087 c -0.132849,0.10454 0.04126,-0.0312 -0.13264,0.0991 -0.03104,0.0233 -0.06054,0.0486 -0.09199,0.0713 -0.1279,0.0923 -0.263027,0.17461 -0.397612,0.25655 -0.251429,0.1413 -0.508189,0.27403 -0.771897,0.39105 -0.149057,0.0661 -0.309015,0.13042 -0.459863,0.19224 -0.115947,0.0445 -0.364808,0.14097 -0.479824,0.18132 -0.08595,0.0301 -0.173079,0.0568 -0.259463,0.0857 -0.272338,0.0911 -0.316158,0.11195 -0.601503,0.19029 -0.11151,0.0306 -0.2241913,0.0568 -0.3362868,0.0852 -0.3284974,0.0782 -0.6616086,0.13372 -0.996319,0.17704 -0.2461683,0.0319 -0.405267,0.0502 -0.6533737,0.063 -0.1080048,0.006 -0.216209,0.006 -0.3243136,0.009 -0.104843,-10e-4 -0.2097116,-10e-4 -0.314529,-0.004 -0.3117622,-0.008 -0.6208688,-0.0322 -0.9300149,-0.0734 -0.2466814,-0.0328 -0.3428683,-0.0525 -0.5895708,-0.096 -0.3814553,-0.0795 -0.7610835,-0.17399 -1.1272544,-0.30864 -0.2029031,-0.0746 -0.2658078,-0.10699 -0.4592103,-0.19427 -0.065622,-0.0333 -0.1320041,-0.0652 -0.1968656,-0.1 -0.060345,-0.0324 -0.238098,-0.13541 -0.1786523,-0.10142 0.3128214,0.17886 0.623601,0.36136 0.9387804,0.53604 0.053755,0.0298 -0.1033471,-0.0666 -0.1541339,-0.10118 -0.1143513,-0.0779 -0.1725903,-0.12324 -0.2826781,-0.20546 -0.1814881,-0.13651 -0.3585012,-0.2794 -0.5264259,-0.43239 -0.061481,-0.056 -0.1680655,-0.15875 -0.2279108,-0.21604 -0.3758419,-0.26982 -0.1334124,-0.10926 -0.7516971,-0.44263 0,0 -0.055133,-0.0237 -0.055133,-0.0237 v 0 c -0.4183335,-0.11004 -0.3294549,-0.2235 -0.4295449,-0.0495 0.030086,0.0353 0.058591,0.072 0.090257,0.10586 0.075924,0.0812 0.1584116,0.15418 0.2425608,0.22663 0.1383337,0.11911 0.2818138,0.23202 0.4270782,0.34251 0.1036804,0.0776 0.1909945,0.14414 0.2972679,0.21866 0.4645588,0.32572 0.8838067,0.53373 1.4360128,0.85004 0.05577,0.0319 0.1136505,0.0601 0.1714775,0.0882 0.06276,0.0305 0.1267963,0.0582 0.1901947,0.0873 0.2027045,0.0821 0.230563,0.0971 0.4431451,0.16735 0.3629657,0.11999 0.7366879,0.20292 1.111631,0.27555 0.1043197,0.0188 0.208134,0.0406 0.3129595,0.0564 0.1487956,0.0223 0.4330118,0.0481 0.5806385,0.0593 0.166792,0.0127 0.4672216,0.0306 0.6333265,0.0324 0.1031068,0.001 0.2061927,-0.004 0.3092892,-0.006 0.3298365,-0.0173 0.6604132,-0.0345 0.9876645,-0.0822 0.3300445,-0.0481 0.6548775,-0.12833 0.9801355,-0.20026 0.234711,-0.0561 0.45064,-0.10702 0.684625,-0.16575 0.103967,-0.0261 0.208334,-0.0508 0.311429,-0.0802 0.0897,-0.0255 0.178005,-0.0557 0.266736,-0.0845 0.303677,-0.0983 0.209851,-0.0664 0.496358,-0.1779 0.331102,-0.13575 0.135224,-0.0542 0.463724,-0.19379 0.275823,-0.1172 0.553412,-0.23087 0.815946,-0.37653 0.05733,-0.0297 0.25828,-0.13322 0.319134,-0.16681 0.04196,-0.0232 0.08283,-0.0482 0.124288,-0.0723 0.0368,-0.0213 0.07448,-0.0412 0.110479,-0.0639 0.01017,-0.006 0.119187,-0.0834 0.14039,-0.0984 z" />
    <path
       style="fill:#000000;fill-opacity:1;stroke-width:0.264583"
       id="path35"
       d="m 6.7430384,282.28203 c -0.019288,0.0888 -0.07645,0.1677 -0.090424,0.25764 -0.018177,0.11698 0.00555,0.43115 0.012917,0.53615 0.00736,0.10496 -0.00893,0.21514 0.025313,0.31462 0.054675,0.15886 0.1574731,0.29682 0.2362099,0.44523 0.1431227,0.17475 0.2862454,0.34951 0.4293683,0.52426 0,0 0.054032,0.0261 0.054032,0.0261 v 0 c 0.092237,-0.0588 0.1844733,-0.11767 0.2767102,-0.17651 0.045799,-0.0826 0.1142752,-0.15617 0.1373955,-0.24773 0.023686,-0.0938 -0.00829,-0.19371 -0.00153,-0.29021 0.02037,-0.29147 0.041878,-0.18781 0.094793,-0.44985 0.01094,-0.0542 0.0058,-0.11098 0.018489,-0.16477 0.00655,-0.0278 0.025614,-0.051 0.038422,-0.0765 z" />
    <path
       style="fill:#000000;fill-opacity:1;stroke-width:0.264583"
       id="path37"
       d="m 7.3713593,282.36234 c -0.1587264,0.15569 -0.3012953,0.32763 -0.42271,0.51416 -0.031221,0.048 -0.058995,0.0981 -0.088492,0.14714 -0.112858,0.2351 -0.1891358,0.48616 -0.2264249,0.7443 -0.023614,0.16347 -0.022691,0.23715 -0.029835,0.40177 0.00642,0.28804 0.017682,0.57713 0.055796,0.86302 0.021235,0.15928 0.043946,0.27229 0.072865,0.42972 0.056716,0.25235 0.1167281,0.50568 0.2141676,0.74601 0.051477,0.12696 0.08401,0.18607 0.1444664,0.30651 0.076966,0.13265 0.141546,0.27411 0.2316618,0.39884 0.029606,0.041 0.051301,0.0642 0.083727,0.10128 0.030764,0.0443 0.05146,0.0394 0.00983,0.0455 0.7335284,0.45253 1.0715239,1.11908 1.4795693,0.62434 0.018513,-0.0224 0.038007,-0.0444 0.053214,-0.0692 0.02168,-0.0354 0.03801,-0.0737 0.057015,-0.11061 0.084323,-0.18029 0.1955213,-0.3464 0.2846713,-0.5241 0.034808,-0.0694 0.070618,-0.13869 0.097112,-0.21165 0.011258,-0.031 0.1406697,-0.49918 0.1485643,-0.5276 0.03676,-0.16657 0.084891,-0.36263 0.103442,-0.53301 0.010049,-0.0923 0.013089,-0.18532 0.014933,-0.27815 0.00315,-0.15876 -0.0047,-0.38144 -0.025127,-0.53984 -0.011321,-0.0878 -0.031108,-0.17431 -0.046661,-0.26147 -0.063189,-0.28641 -0.1528513,-0.56904 -0.2791933,-0.83426 -0.052979,-0.11121 -0.093541,-0.17832 -0.1533824,-0.28332 -0.050833,-0.0899 -0.1117973,-0.17337 -0.1680568,-0.25979 -0.025082,-0.0385 -0.04939,-0.0766 -0.07607,-0.11406 -0.01392,-0.019 -0.027892,-0.0322 -0.026995,-0.056 0,0 -1.3937377,-0.552 -1.3937377,-0.552 v 0 c 0.00164,-0.003 0.00257,-0.007 0.00493,-0.01 0.00509,-0.006 0.040327,0.0366 0.046429,0.0398 0.1287008,0.12618 0.2535479,0.25659 0.3605673,0.40215 0.081964,0.11252 0.1220703,0.16245 0.194817,0.28459 0.1529344,0.25679 0.2667801,0.53389 0.3400213,0.82369 0.044639,0.21953 0.064743,0.28796 0.085233,0.51279 0.032373,0.35521 0.00635,0.7132 -0.080997,1.05918 -0.025278,0.085 -0.044264,0.17211 -0.075836,0.25497 -0.029742,0.0781 -0.069777,0.15183 -0.1075571,0.22633 -0.1208246,0.23825 -0.2625955,0.46993 -0.4584422,0.65422 -0.016634,0.0124 -0.1263103,0.0959 -0.1574787,0.11457 -0.01537,0.009 -0.031623,0.0173 -0.048645,0.0228 -0.029577,0.01 -0.034292,0.005 -0.060094,-8.7e-4 0.4372936,0.24803 0.8745872,0.49607 1.3118807,0.7441 -0.00492,1e-4 -0.00991,0.001 -0.014766,2.9e-4 -0.024191,-0.004 -0.052023,-0.0597 -0.074013,-0.0716 -0.036162,-0.0472 -0.016036,-0.0204 -0.059897,-0.0809 C 8.5895005,287.3716 8.4761909,287.2451 8.39113,287.09814 8.315988,286.9685 8.296488,286.94133 8.2320013,286.8028 c -0.1087956,-0.23371 -0.1876295,-0.47989 -0.2442181,-0.73118 -0.014409,-0.0688 -0.030731,-0.13721 -0.043225,-0.20638 -0.062455,-0.34574 -0.091211,-0.69837 -0.085583,-1.04952 0.00251,-0.0642 0.00335,-0.12852 0.00754,-0.19265 0.020021,-0.30617 0.071013,-0.61337 0.2292205,-0.88119 0.02894,-0.0456 0.056399,-0.0921 0.08682,-0.13672 0.086134,-0.12627 0.1838941,-0.24164 0.2970429,-0.34452 0.025834,-0.0235 0.052151,-0.0467 0.080639,-0.0669 0.019865,-0.0141 0.042547,-0.0237 0.063821,-0.0355 z" />
    <path
       style="fill:#000000;fill-opacity:1;stroke-width:0.264583"
       id="path38"
       d="m 3.7133322,285.67558 c -0.067999,0.36316 -0.050203,0.0899 0.4926764,0.65744 0,0 0.052467,0.0291 0.052467,0.0291 v 0 c 0.7038202,0.13497 0.5262491,0.30537 0.737384,0.0371 z" />
    <path
       style="fill:#000000;fill-opacity:1;stroke-width:0.264583"
       id="path39"
       d="m 6.6232751,286.46466 c -8.996e-4,0.12236 -0.014729,0.21806 0.081447,0.33118 0.1620716,0.19063 0.3988912,0.31321 0.5445298,0.51666 0.046683,0.0652 -0.00164,0.1604 -0.00246,0.2406 0,0 0.053433,0.0273 0.053433,0.0273 v 0 c 8.202e-4,-0.0802 -0.073714,-0.21538 0.00243,-0.2405 0.1773862,-0.0585 0.3715152,0.0723 0.557571,0.0558 0.098243,-0.009 0.1152676,-0.14517 0.1313434,-0.21045 z" />
    <path
       style="fill:#000000;fill-opacity:1;stroke-width:0.264583"
       id="path40"
       d="m 3.7040919,285.82056 c -0.015258,0.0244 -0.034836,0.0466 -0.045775,0.0732 -0.043556,0.10598 -0.045029,0.20693 -0.061321,0.32063 -0.036318,0.25344 -0.040405,0.23652 -0.071163,0.50101 -0.010856,0.0933 -0.018891,0.18699 -0.028337,0.28049 0.3378597,0.55792 0.1881084,0.29014 0.4554151,0.79986 0,0 0.053057,0.028 0.053057,0.028 v 0 c 0.3711654,-0.17404 0.1664467,-0.094 0.619175,-0.22697 0.023826,-0.0855 0.04854,-0.17083 0.071477,-0.2566 0.027494,-0.10283 0.088872,-0.35787 0.1232377,-0.46506 0.03285,-0.10246 0.080041,-0.18628 0.099422,-0.2917 0.00564,-0.0307 0.00295,-0.0623 0.00443,-0.0934 z" />
    <path
       style="fill:#000000;fill-opacity:1;stroke-width:0.264583"
       id="path41"
       d="m 6.4196792,286.76199 c -0.00217,0.0386 -0.00674,0.0771 -0.00648,0.11578 4.234e-4,0.0632 0.00678,0.12626 0.00856,0.18945 0.00591,0.21009 -0.010948,0.27433 0.046285,0.48792 0.026488,0.0989 0.042152,0.20747 0.1043607,0.28873 0.1326616,0.17328 0.3116964,0.30553 0.4675447,0.45829 0.012457,0.0684 0.02491,0.13686 0.037367,0.20529 0,0 0.053546,0.0271 0.053546,0.0271 v 0 c 0.00849,-0.0577 0.016968,-0.11548 0.025453,-0.17322 0.1543362,0.006 0.3139765,0.0588 0.4630089,0.0182 0.066816,-0.0182 0.083625,-0.11175 0.1122151,-0.17482 0.071798,-0.15839 0.058288,-0.24486 0.087411,-0.41142 0.00938,-0.0537 0.025239,-0.106 0.03658,-0.15929 0.00721,-0.0339 0.012716,-0.0681 0.019071,-0.10217 z" />
    <path
       style="fill:#000000;fill-opacity:1;stroke-width:0.264583"
       id="path42"
       d="m 10.13013,286.27138 c -0.0013,0.0204 -0.0082,0.0412 -0.0039,0.0611 0.0095,0.0439 0.02887,0.0851 0.0447,0.12715 0.04407,0.11702 0.0908,0.23302 0.135476,0.3498 0.02471,0.0646 0.03753,0.13521 0.0746,0.19359 0.0594,0.0935 0.140863,0.1711 0.211295,0.25665 0.544777,0.41457 0.345148,0.21327 0.645404,0.5539 0,0 0.05444,0.0252 0.05444,0.0252 v 0 c 0.132194,-0.18061 0.02671,-0.0864 0.421146,-0.0513 0.0309,-0.037 0.08385,-0.0637 0.09269,-0.11113 0.01104,-0.0592 -0.02605,-0.1175 -0.03907,-0.17625 -0.01251,-0.0565 -0.02549,-0.11284 -0.03753,-0.16941 -0.01052,-0.0495 -0.01893,-0.0994 -0.03016,-0.14869 -0.0092,-0.0405 -0.0162,-0.0819 -0.03116,-0.1207 -0.0123,-0.0319 -0.03331,-0.0597 -0.04997,-0.0895 z" />
    <path
       style="fill:#000000;fill-opacity:1;stroke-width:0.264583"
       id="path43"
       d="m 12.370349,285.69329 c 0.01384,0.0198 0.02574,0.0412 0.04153,0.0595 0.231595,0.26883 0.618173,0.42365 0.910699,0.58207 0,0 0.05528,0.0233 0.05528,0.0233 v 0 c 0.135548,0.0339 0.268028,0.0841 0.406644,0.10155 0.02034,0.003 0.04187,-0.0246 0.04181,-0.0451 -8.8e-5,-0.0283 -0.07752,-0.11462 -0.09326,-0.13356 z" />
    <path
       style="fill:#000000;fill-opacity:1;stroke-width:0.264583"
       id="path44"
       d="m 12.252536,281.96339 c -0.05863,0.17191 -0.160226,0.32371 -0.207655,0.50049 -0.02174,0.081 -0.08364,0.17463 -0.04298,0.24802 0.41798,0.75441 0.604119,0.26628 0.383889,0.69201 0,0 0.05207,0.0298 0.05207,0.0298 v 0 c 0.226352,-0.41951 -0.07403,0.0108 0.763355,-0.0399 0.08092,-0.005 0.116611,-0.11338 0.166447,-0.17732 0.106853,-0.13709 0.159989,-0.30884 0.283019,-0.43353 z" />
    <path
       style="fill:#000000;fill-opacity:1;stroke-width:0.264583"
       id="path45"
       d="m 9.1969,281.08475 c -0.00935,0.038 -0.022458,0.0753 -0.028055,0.11399 -0.014629,0.10122 -0.021183,0.29998 -0.00661,0.39401 0.013764,0.0888 0.023617,0.18262 0.067656,0.26095 0.076344,0.13579 0.1977514,0.24117 0.2866017,0.36912 0.060838,0.0876 0.1076894,0.18415 0.1615339,0.27622 0,0 0.052761,0.0286 0.052761,0.0286 v 0 c 0.082212,-0.0187 0.162827,-0.0469 0.2466359,-0.0562 0.1251535,-0.0138 0.2565485,0.0221 0.3775285,-0.0128 0.06802,-0.0196 0.114126,-0.0863 0.158143,-0.14177 0.05524,-0.0696 0.117441,-0.23244 0.141857,-0.32109 0.01041,-0.0378 0.01401,-0.0772 0.02101,-0.11576 z" />
    <path
       style="fill:#000000;fill-opacity:1;stroke-width:0.264583"
       id="path46"
       d="m 5.525105,280.73661 c 0.047173,0.16928 0.1166005,0.33163 0.2220769,0.47384 0.059799,0.0806 0.1202386,0.16299 0.1966786,0.22805 1.0312141,0.87774 0.1180825,-0.0122 0.6675297,0.53518 0,0 0.054072,0.026 0.054072,0.026 v 0 c 0.4342501,-0.10396 -0.3780186,0.0711 0.5419032,0.0375 0.045357,-0.002 0.082127,-0.0488 0.1029259,-0.0891 0.021265,-0.0412 0.017836,-0.0922 0.014422,-0.13846 -0.00667,-0.0904 -0.050308,-0.18986 -0.082059,-0.27378 z" />
    <path
       style="fill:#000000;fill-opacity:1;stroke-width:0.264583"
       id="path47"
       d="m 2.6744105,281.64672 c 0.014089,0.0217 0.027205,0.0442 0.042266,0.0652 0.039314,0.055 0.1545429,0.20197 0.18898,0.24786 0.03855,0.0514 0.076787,0.10301 0.1139767,0.15538 0.037956,0.0534 0.072003,0.10968 0.1114351,0.16205 0.046529,0.0618 0.097499,0.12012 0.1462487,0.18018 0.5342199,0.39123 0.2338067,0.18909 0.9112483,0.59128 0,0 0.054882,0.0242 0.054882,0.0242 v 0 c 0.4681225,0.11163 0.2694847,0.11708 0.5919087,0.0709 -0.019876,-0.0487 -0.035081,-0.0997 -0.059625,-0.14626 -0.029738,-0.0564 -0.068344,-0.10773 -0.1025768,-0.16156 -0.091942,-0.14458 -0.1801824,-0.29176 -0.2769299,-0.43313 z" />
  </g>
</svg>
