<?xml version="1.0" encoding="UTF-8" standalone="no"?>
<!-- Created with Inkscape (http://www.inkscape.org/) -->

<svg
   width="64"
   height="64"
   viewBox="0 0 16.933333 16.933334"
   version="1.1"
   id="svg8"
   inkscape:version="1.3.2 (091e20ef0f, 2023-11-25, custom)"
   sodipodi:docname="stop.svg"
   inkscape:export-filename="C:\Users\Ali\Documents\inkscape\freecad\pyrate\pyrate_logo_3_256x256.png"
   inkscape:export-xdpi="1536"
   inkscape:export-ydpi="1536"
   xmlns:inkscape="http://www.inkscape.org/namespaces/inkscape"
   xmlns:sodipodi="http://sodipodi.sourceforge.net/DTD/sodipodi-0.dtd"
   xmlns:xlink="http://www.w3.org/1999/xlink"
   xmlns="http://www.w3.org/2000/svg"
   xmlns:svg="http://www.w3.org/2000/svg"
   xmlns:rdf="http://www.w3.org/1999/02/22-rdf-syntax-ns#"
   xmlns:cc="http://creativecommons.org/ns#"
   xmlns:dc="http://purl.org/dc/elements/1.1/">
  <defs
     id="defs2">
    <linearGradient
       id="linearGradient1245"
       inkscape:collect="always">
      <stop
         id="stop1241"
         offset="0"
         style="stop-color:#aaccff;stop-opacity:1" />
      <stop
         id="stop1243"
         offset="1"
         style="stop-color:#d5f6ff;stop-opacity:1" />
    </linearGradient>
    <linearGradient
       id="linearGradient1167"
       inkscape:collect="always">
      <stop
         id="stop1161"
         offset="0"
         style="stop-color:#00112b;stop-opacity:1" />
      <stop
         id="stop1163"
         offset="1"
         style="stop-color:#2a7fff;stop-opacity:1" />
    </linearGradient>
    <linearGradient
       inkscape:collect="always"
       id="linearGradient1166">
      <stop
         style="stop-color:#41dcff;stop-opacity:1"
         offset="0"
         id="stop1162" />
      <stop
         style="stop-color:#40e0ff;stop-opacity:1"
         offset="1"
         id="stop1164" />
    </linearGradient>
    <linearGradient
       inkscape:collect="always"
       id="linearGradient1058">
      <stop
         style="stop-color:#5175ff;stop-opacity:1"
         offset="0"
         id="stop1054" />
      <stop
         style="stop-color:#40e0ff;stop-opacity:1"
         offset="1"
         id="stop1056" />
    </linearGradient>
    <linearGradient
       id="linearGradient1045"
       inkscape:collect="always">
      <stop
         id="stop1041"
         offset="0"
         style="stop-color:#293449;stop-opacity:1" />
      <stop
         id="stop1043"
         offset="1"
         style="stop-color:#485c80;stop-opacity:1" />
    </linearGradient>
    <linearGradient
       inkscape:collect="always"
       id="linearGradient2480">
      <stop
         style="stop-color:#cc0a08;stop-opacity:1"
         offset="0"
         id="stop2476" />
      <stop
         style="stop-color:#f67d89;stop-opacity:1"
         offset="1"
         id="stop2478" />
    </linearGradient>
    <linearGradient
       id="linearGradient942-5"
       inkscape:collect="always">
      <stop
         id="stop938"
         offset="0"
         style="stop-color:#002076;stop-opacity:1" />
      <stop
         id="stop940"
         offset="1"
         style="stop-color:#40e0ff;stop-opacity:1" />
    </linearGradient>
    <linearGradient
       gradientUnits="userSpaceOnUse"
       y2="31.377413"
       x2="86.543877"
       y1="282.62048"
       x1="20.010984"
       id="linearGradient944"
       xlink:href="#linearGradient942-5"
       inkscape:collect="always" />
    <linearGradient
       gradientUnits="userSpaceOnUse"
       y2="112.66277"
       x2="98.204803"
       y1="257.94366"
       x1="13.302045"
       id="linearGradient952"
       xlink:href="#linearGradient2480"
       inkscape:collect="always" />
    <linearGradient
       gradientTransform="translate(0,1.5875)"
       gradientUnits="userSpaceOnUse"
       y2="133.50244"
       x2="146.68025"
       y1="272.83194"
       x1="101.05925"
       id="linearGradient960"
       xlink:href="#linearGradient2480"
       inkscape:collect="always" />
    <filter
       id="filter1495"
       inkscape:label="Drop Shadow"
       style="color-interpolation-filters:sRGB">
      <feFlood
         id="feFlood1485"
         result="flood"
         flood-color="rgb(0,0,0)"
         flood-opacity="0.498039" />
      <feComposite
         id="feComposite1487"
         result="composite1"
         operator="in"
         in2="SourceGraphic"
         in="flood" />
      <feGaussianBlur
         id="feGaussianBlur1489"
         result="blur"
         stdDeviation="4"
         in="composite1" />
      <feOffset
         id="feOffset1491"
         result="offset"
         dy="4"
         dx="2" />
      <feComposite
         id="feComposite1493"
         result="composite2"
         operator="over"
         in2="offset"
         in="SourceGraphic" />
    </filter>
    <filter
       id="filter2066"
       inkscape:label="Drop Shadow"
       style="color-interpolation-filters:sRGB">
      <feFlood
         id="feFlood2056"
         result="flood"
         flood-color="rgb(0,0,0)"
         flood-opacity="0.498039" />
      <feComposite
         id="feComposite2058"
         result="composite1"
         operator="in"
         in2="SourceGraphic"
         in="flood" />
      <feGaussianBlur
         id="feGaussianBlur2060"
         result="blur"
         stdDeviation="20"
         in="composite1" />
      <feOffset
         id="feOffset2062"
         result="offset"
         dy="20"
         dx="6" />
      <feComposite
         id="feComposite2064"
         result="composite2"
         operator="over"
         in2="offset"
         in="SourceGraphic" />
    </filter>
    <filter
       id="filter2474"
       inkscape:label="Drop Shadow"
       style="color-interpolation-filters:sRGB">
      <feFlood
         id="feFlood2464"
         result="flood"
         flood-color="rgb(0,0,0)"
         flood-opacity="0.498039" />
      <feComposite
         id="feComposite2466"
         result="composite1"
         operator="in"
         in2="SourceGraphic"
         in="flood" />
      <feGaussianBlur
         id="feGaussianBlur2468"
         result="blur"
         stdDeviation="4"
         in="composite1" />
      <feOffset
         id="feOffset2470"
         result="offset"
         dy="4.8"
         dx="1.5" />
      <feComposite
         id="feComposite2472"
         result="composite2"
         operator="over"
         in2="offset"
         in="SourceGraphic" />
    </filter>
    <linearGradient
       gradientTransform="translate(0,290.28571)"
       gradientUnits="userSpaceOnUse"
       y2="398.20157"
       x2="-973.7356"
       y1="746.96252"
       x1="-1123.2253"
       id="linearGradient1033"
       xlink:href="#linearGradient1058"
       inkscape:collect="always" />
    <linearGradient
       gradientTransform="translate(0,213.65424)"
       gradientUnits="userSpaceOnUse"
       y2="851.35718"
       x2="-987.59387"
       y1="1234.0872"
       x1="-1127.1049"
       id="linearGradient1047"
       xlink:href="#linearGradient1045"
       inkscape:collect="always" />
    <linearGradient
       gradientTransform="translate(-19.199562,-44.652005)"
       gradientUnits="userSpaceOnUse"
       y2="1157.111"
       x2="-544.48077"
       y1="1495.4609"
       x1="-689.72717"
       id="linearGradient1134"
       xlink:href="#linearGradient1045"
       inkscape:collect="always" />
    <linearGradient
       y2="851.35718"
       x2="-987.59387"
       y1="1234.0872"
       x1="-1127.1049"
       gradientTransform="translate(0,213.65424)"
       gradientUnits="userSpaceOnUse"
       id="linearGradient1160"
       xlink:href="#linearGradient1166"
       inkscape:collect="always" />
    <linearGradient
       id="linearGradient3682-0">
      <stop
         style="stop-color:#a40000;stop-opacity:1"
         offset="0"
         id="stop3684-0" />
      <stop
         style="stop-color:#ef2929;stop-opacity:1"
         offset="1"
         id="stop3686-0" />
    </linearGradient>
    <linearGradient
       id="linearGradient3864-9">
      <stop
         id="stop3866-1"
         offset="0"
         style="stop-color:#204a87;stop-opacity:1" />
      <stop
         id="stop3868-1"
         offset="1"
         style="stop-color:#729fcf;stop-opacity:1" />
    </linearGradient>
    <linearGradient
       id="linearGradient3682-0-3">
      <stop
         style="stop-color:#ff390f;stop-opacity:1"
         offset="0"
         id="stop3684-0-7" />
      <stop
         style="stop-color:#ff1000;stop-opacity:1;"
         offset="1"
         id="stop3686-0-5" />
    </linearGradient>
    <linearGradient
       id="linearGradient3864-9-7">
      <stop
         id="stop3866-1-7"
         offset="0"
         style="stop-color:#316cab;stop-opacity:1" />
      <stop
         id="stop3868-1-4"
         offset="1"
         style="stop-color:#002ca8;stop-opacity:1" />
    </linearGradient>
    <linearGradient
       id="linearGradient3682">
      <stop
         id="stop3684"
         offset="0"
         style="stop-color:#ff6d0f;stop-opacity:1;" />
      <stop
         id="stop3686"
         offset="1"
         style="stop-color:#ff1000;stop-opacity:1;" />
    </linearGradient>
    <linearGradient
       id="linearGradient3864">
      <stop
         style="stop-color:#71b2f8;stop-opacity:1;"
         offset="0"
         id="stop3866" />
      <stop
         style="stop-color:#002795;stop-opacity:1;"
         offset="1"
         id="stop3868" />
    </linearGradient>
    <linearGradient
       gradientTransform="matrix(0.79118995,0,0,0.96421064,-462.08318,3.6442021)"
       gradientUnits="userSpaceOnUse"
       y2="-97.402824"
       x2="-2013.709"
       y1="301.0498"
       x1="-2412.1616"
       id="linearGradient1169"
       xlink:href="#linearGradient1167"
       inkscape:collect="always" />
    <linearGradient
       gradientUnits="userSpaceOnUse"
       y2="-9.260396"
       x2="-2055.4119"
       y1="284.23495"
       x1="-2302.6389"
       id="linearGradient1239"
       xlink:href="#linearGradient1245"
       inkscape:collect="always" />
    <linearGradient
       gradientUnits="userSpaceOnUse"
       y2="1276.7333"
       x2="4327.0557"
       y1="2126.7334"
       x1="3477.0554"
       id="linearGradient3835"
       xlink:href="#linearGradient1045"
       inkscape:collect="always" />
    <mask
       id="mask5747"
       maskUnits="userSpaceOnUse">
      <path
         inkscape:connector-curvature="0"
         id="path5749"
         d="m -1081.0913,3822.7064 -30.9051,-17.7313 -13.6473,4.7355 -13.0203,33.2785 -20.4811,-1.0774 -9.3432,-34.4101 -13.0752,-6.2608 -32.6113,14.2658 -13.7762,-15.3072 17.7314,-30.9049 -4.8453,-13.606 -33.2766,-13.0222 1.1905,-20.5206 34.4107,-9.3432 6.2607,-13.0752 -14.3755,-32.5713 15.3071,-13.7747 30.9051,17.7313 13.7154,-4.8866 12.9107,-33.2346 20.6323,1.1528 9.2335,34.4501 13.0752,6.2606 32.681,-14.4151 13.7747,15.3067 -17.7319,30.9052 4.7754,13.7554 33.2372,12.9128 -1.0398,20.5901 -34.4501,9.2334 -6.2622,13.0752 14.3073,32.721 z m -46.2858,-50.6793 6.3443,-3.6809 5.4951,-4.9832 4.4016,-5.9473 3.1652,-6.6122 1.8707,-7.1279 0.3036,-7.3064 -1.0584,-7.3012 -2.4077,-6.9339 -3.8305,-6.4135 -4.8341,-5.4277 -5.9468,-4.3992 -6.6122,-3.1652 -7.1283,-1.8709 -7.3452,-0.4154 -7.3041,1.0583 -6.9313,2.4077 -6.414,3.8307 -5.3875,4.9432 -4.441,5.8375 -3.1652,6.6122 -1.8143,7.2377 -0.4155,7.3456 1.0579,7.302 2.4078,6.9334 3.7905,6.3042 4.8741,5.5367 5.9468,4.3995 6.6122,3.1652 7.238,1.8142 7.3058,0.3038 7.302,-1.0584 6.9333,-2.4079 z"
         style="display:inline;overflow:visible;visibility:visible;fill:#ffffff;fill-opacity:1;fill-rule:evenodd;stroke:none;stroke-width:9.9998951;stroke-linecap:round;stroke-linejoin:round;stroke-miterlimit:4;stroke-dasharray:none;stroke-dashoffset:0;stroke-opacity:1;marker:none;enable-background:accumulate" />
    </mask>
    <mask
       id="mask2314"
       maskUnits="userSpaceOnUse">
      <path
         inkscape:connector-curvature="0"
         sodipodi:nodetypes="ccccccccccc"
         id="path2316"
         d="m -1868.9759,3355.7772 h -288.3976 v 59.668 h 119.3385 v 59.6685 h 59.668 v -59.6685 h 49.7232 v 99.4479 h 59.6679 z"
         style="display:inline;overflow:visible;visibility:visible;fill:#ffffff;fill-opacity:1;fill-rule:evenodd;stroke:none;stroke-width:9.99989414;stroke-linecap:butt;stroke-linejoin:miter;stroke-miterlimit:4;stroke-dasharray:none;stroke-dashoffset:0;stroke-opacity:1;marker:none;enable-background:accumulate" />
    </mask>
  </defs>
  <sodipodi:namedview
     id="base"
     pagecolor="#ffffff"
     bordercolor="#666666"
     borderopacity="1.0"
     inkscape:pageopacity="0.0"
     inkscape:pageshadow="2"
     inkscape:zoom="15.839192"
     inkscape:cx="37.344077"
     inkscape:cy="28.189569"
     inkscape:document-units="px"
     inkscape:current-layer="layer1"
     showgrid="false"
     inkscape:window-width="3836"
     inkscape:window-height="2093"
     inkscape:window-x="0"
     inkscape:window-y="32"
     inkscape:window-maximized="1"
     units="px"
     inkscape:showpageshadow="2"
     inkscape:pagecheckerboard="0"
     inkscape:deskcolor="#d1d1d1" />
  <metadata
     id="metadata5">
    <rdf:RDF>
      <cc:Work
         rdf:about="">
        <dc:format>image/svg+xml</dc:format>
        <dc:type
           rdf:resource="http://purl.org/dc/dcmitype/StillImage" />
      </cc:Work>
    </rdf:RDF>
  </metadata>
  <g
     inkscape:label="Layer 1"
     inkscape:groupmode="layer"
     id="layer1"
     transform="translate(0,-280.06666)">
    <circle
       id="path2"
       style="fill:#000000;stroke:#000000;stroke-width:0.264583"
       cx="4.6261697"
       cy="290.68927"
       r="0.0016687642" />
    <path
       style="fill:#000000;stroke-width:0.264583"
       id="path3"
       d="m 11.063139,286.84252 c 0.009,0.20571 -0.01751,0.41097 -0.01919,0.61665 -5.83e-4,0.0699 0.002,0.13971 0.003,0.20957 0.01813,0.35746 -0.0016,0.7152 -0.02393,1.07192 -0.02429,0.38883 -0.0086,0.17264 -0.03852,0.54746 -0.0144,0.27234 -0.0358,0.54422 -0.05377,0.81634 -0.0055,0.0826 -0.01256,0.16508 -0.01601,0.24778 -0.0034,0.0826 -0.0025,0.16524 -0.0047,0.24784 -0.0021,0.0783 -0.0054,0.15651 -0.0081,0.23476 -0.01054,0.2197 -0.0086,0.43969 -0.01271,0.65951 -0.0013,0.069 -0.0056,0.13784 -0.0061,0.2068 -9e-4,0.12346 0.0035,0.24689 0.0043,0.37035 0.0089,0.24148 -6.88e-4,0.48309 -2.3e-4,0.72465 1.27e-4,0.12064 0.0054,0.24113 0.0084,0.36169 -0.0016,0.0428 0.0052,0.0852 0.004,0.12795 -10e-4,0.0346 -0.0048,0.0575 0.0023,0.092 0.0053,0.005 -0.0018,0.0446 0.01072,0.045 0.01862,6.6e-4 0.03834,-0.0454 0.04442,-0.0596 0.0032,-0.007 0.0026,-0.0158 0.0038,-0.0238 -0.0051,-8.8e-4 -0.01011,-0.003 -0.01527,-0.003 -0.02874,8e-4 -0.05722,0.006 -0.08594,0.008 -0.08516,0.004 -0.170463,0.005 -0.255705,0.005 -0.3483,0.007 -0.6923319,-0.0546 -1.0335729,-0.11646 -0.07942,-0.0143 -0.1590633,-0.0274 -0.2382581,-0.0428 -0.087175,-0.017 -0.1737297,-0.0371 -0.2608006,-0.0547 -0.2700327,-0.0544 -0.5411915,-0.10777 -0.8131667,-0.15167 -0.085175,-0.0138 -0.1707309,-0.025 -0.2560963,-0.0375 -0.2366283,-0.0262 -0.4735966,-0.0548 -0.7114805,-0.0675 -0.2205093,-0.0117 -0.4420698,-0.007 -0.6627868,-0.008 -0.3589272,10e-4 -0.7177773,0.006 -1.0767077,0.006 -0.2270821,0.002 -0.4541083,0.004 -0.681201,0.003 -0.082974,-10e-4 -0.067783,-0.004 -0.1398643,0.003 -0.013438,10e-4 -0.026689,0.005 -0.040194,0.005 -0.012293,-9e-5 -0.0253,-4.7e-4 -0.036441,-0.006 -0.011787,-0.005 -0.041081,-0.0317 -0.029788,-0.0252 0.3868137,0.22108 0.7712663,0.44626 1.1568997,0.66939 -0.00709,-0.007 -0.017865,-0.0123 -0.021278,-0.0219 -0.00806,-0.0226 -0.00909,-0.0472 -0.011827,-0.0711 -0.010414,-0.0907 -0.011073,-0.15398 -0.011404,-0.24729 -3.969e-4,-0.11595 0.00161,-0.23189 0.00198,-0.34784 0.011676,-0.14314 0.010319,-0.28689 0.018576,-0.43018 0.00196,-0.034 0.034598,-0.43809 0.037309,-0.46442 0.011875,-0.11535 0.043048,-0.33329 0.058954,-0.44824 0.011636,-0.0716 0.022982,-0.1433 0.034913,-0.21488 0.031509,-0.18903 0.039121,-0.21359 0.063612,-0.40151 0.00884,-0.0678 0.015171,-0.13592 0.023609,-0.20377 0.018129,-0.14581 0.034293,-0.25398 0.055082,-0.39917 0.061947,-0.37891 0.1086591,-0.76012 0.1536425,-1.14138 0.024019,-0.15939 0.041089,-0.31972 0.062381,-0.47947 0.015687,-0.11769 0.034472,-0.23466 0.048137,-0.35262 0.00326,-0.0297 0.00639,-0.0593 0.00979,-0.089 0.0077,-0.0673 0.011319,-0.0808 0.013981,-0.14724 0.00259,-0.0646 -0.00254,-0.12886 -0.00338,-0.1934 -4.763e-4,-0.0435 -0.0074,-0.0911 0.00833,-0.13333 0.00296,-0.008 0.00807,-0.0149 0.012872,-0.0219 0.00279,-0.004 0.00545,-0.0132 0.00981,-0.011 0.00646,0.003 0.00541,0.0135 0.00811,0.0202 -0.00111,0.0101 -0.00673,0.0207 -0.00332,0.0303 0.00225,0.006 0.01106,0.008 0.017611,0.01 0.020029,0.005 0.078234,0.004 0.094593,0.004 0.048322,0.002 0.1006123,0.006 0.1486649,0.009 0.2242372,0.016 0.4477459,0.0408 0.6719723,0.0565 0.3007567,0.0323 0.6018348,0.0612 0.9030431,0.0893 0.2374445,0.0233 0.4759261,0.0327 0.7134751,0.0546 0.1230472,0.0113 0.24589,0.0248 0.368876,0.0368 0.3336108,0.0383 0.6676049,0.0733 1.0012243,0.11156 0.284291,0.0392 0.570937,0.0532 0.85701,0.0726 0.244349,0.0124 0.488454,0.0287 0.73272,0.0428 0.370063,0.0304 -0.151447,-0.0125 0.174138,0.0145 0.02152,0.002 0.0432,0.008 0.06459,0.005 0.0095,-10e-4 0.02876,-0.01 0.02288,-0.0176 -0.03733,-0.0483 -0.08652,-0.0864 -0.133416,-0.12545 -0.108258,-0.0902 -0.221126,-0.17474 -0.331688,-0.26211 0,0 -0.0489,-0.0348 -0.0489,-0.0348 v 0 c -0.06778,-0.0456 -0.449419,-0.30996 -0.586512,-0.38223 -0.04899,-0.0258 -0.07775,-0.0202 -0.12805,-0.0202 -0.08602,7e-5 -0.06155,5e-5 -0.154873,-0.002 -0.239056,-0.0115 -0.478379,-0.0172 -0.717247,-0.0324 -0.2794213,-0.0136 -0.5575523,-0.0402 -0.8361951,-0.0644 -0.3266406,-0.0288 -0.6524265,-0.0668 -0.9792158,-0.0941 -0.3636754,-0.0336 -0.7280677,-0.0593 -1.0912412,-0.0987 -0.1656093,-0.0176 -0.3311903,-0.0358 -0.4964287,-0.0567 -0.052294,-0.007 -0.1043673,-0.0149 -0.1567307,-0.021 -0.089627,-0.0103 -0.1799122,-0.0143 -0.2693612,-0.0265 -0.238147,-0.0312 -0.4772232,-0.055 -0.7152646,-0.0872 -0.090055,-0.0104 -0.083008,-0.0101 -0.1695629,-0.0183 -0.049445,-0.005 -0.1361144,-0.0173 -0.1826673,0.01 -0.018685,0.011 -0.030511,0.0308 -0.045766,0.0461 -0.0042,0.0168 -0.010522,0.0333 -0.01261,0.0505 -0.00309,0.0255 0.00719,0.051 0.01165,0.0753 0.00944,0.0514 0.012142,0.10386 0.018238,0.15569 0.011721,0.14426 0.00143,0.2895 0.016208,0.43376 0.00457,0.28643 -0.013229,0.57235 -0.042872,0.85723 -0.014549,0.12242 -0.027729,0.24501 -0.043273,0.36731 -0.032816,0.25819 -0.077995,0.51468 -0.1043215,0.77374 -0.00972,0.0675 -0.047658,0.33217 -0.057771,0.39869 -0.010115,0.0665 -0.021929,0.13283 -0.031545,0.19944 -0.024315,0.16848 -0.030542,0.2395 -0.047891,0.41086 -0.00752,0.0743 -0.014721,0.14864 -0.022082,0.22296 -0.00787,0.0764 -0.016298,0.15279 -0.023614,0.22926 -0.00732,0.0765 -0.012356,0.15316 -0.020288,0.22957 -0.00819,0.0788 -0.019272,0.15736 -0.028057,0.23614 -0.00831,0.0745 -0.014708,0.14926 -0.02323,0.22376 -0.061699,0.53935 0.00544,-0.10143 -0.047488,0.41568 -0.023466,0.15021 -0.044365,0.30106 -0.072742,0.45046 -0.016846,0.0887 -0.023651,0.10032 -0.034487,0.18511 -0.0031,0.0242 -0.00437,0.0486 -0.00655,0.073 0.397764,0.242 0.7920186,0.48987 1.1932918,0.72601 0.00955,0.006 0.021863,-0.005 0.032938,-0.004 0.017055,3.2e-4 0.033966,0.003 0.05083,0.006 0.079236,0.012 0.1579195,0.0302 0.2388338,0.0206 0.2172602,-0.006 0.4343662,-0.0181 0.6515129,-0.0271 0.3417689,-0.0182 0.6838093,-0.0327 1.0260238,-0.0387 0.07114,-6.3e-4 0.1422802,-0.002 0.2134211,-0.002 0.1558174,10e-4 0.2861244,0.008 0.4415184,0.0154 0.2284995,0.0112 0.4568976,0.0262 0.6834294,0.0598 0.2030516,0.0298 0.3065875,0.043 0.5100339,0.0807 0.3703492,0.0686 0.7361729,0.16014 1.1023889,0.24747 0.164619,0.0351 0.285255,0.0631 0.450468,0.0899 0.227777,0.037 0.458398,0.0534 0.687863,0.0758 0.09861,0.007 0.197201,0.0128 0.295862,0.0185 0.03648,0.002 0.07286,0.007 0.109399,0.007 0.0099,-10e-6 0.0197,-0.002 0.02955,-0.003 0.05427,-0.048 0.0092,-0.004 0.06958,-0.0823 0.02813,-0.0364 0.02466,-0.0129 0.02905,-0.0581 0.0064,-0.0376 -5.02e-4,-0.0575 -0.0041,-0.0951 -0.0041,-0.0429 -8.73e-4,-0.0859 -0.0045,-0.12882 -0.0065,-0.1242 -0.02162,-0.2478 -0.02918,-0.37195 -0.01803,-0.2522 -0.04439,-0.50368 -0.06042,-0.75599 -0.04367,-0.57754 0.017,0.24302 -0.02404,-0.37768 -0.0048,-0.0723 -0.01284,-0.1443 -0.01696,-0.2166 -0.01272,-0.22333 -0.01089,-0.44729 -0.01746,-0.67079 -0.0048,-0.42523 -0.0033,-0.0517 0.0029,-0.4839 0.0012,-0.0845 3.18e-4,-0.16912 0.0016,-0.25366 0.004,-0.27452 0.01393,-0.54907 0.03547,-0.82281 0.01776,-0.3641 0.008,-0.17943 0.0294,-0.554 0.01739,-0.35341 0.02615,-0.70749 0.05725,-1.06009 0.0035,-0.0676 0.0086,-0.13506 0.0105,-0.20269 0.0056,-0.20141 -0.0145,-0.40632 0.02659,-0.60517 z" />
    <path
       style="fill:#000000;stroke-width:0.264583"
       id="path4"
       d="m 9.0985467,283.30268 c -0.016465,0.01 -0.032666,0.0197 -0.049394,0.0288 -0.1192435,0.065 -0.045552,0.0196 -0.187877,0.0988 -0.1079008,0.0601 -0.1484995,0.089 -0.2580857,0.15165 -0.048386,0.0277 -0.097566,0.054 -0.1463495,0.081 -0.3627324,0.19088 0.06161,-0.0306 -0.308352,0.15666 -0.053618,0.0271 -0.1061458,0.0564 -0.1598531,0.0834 -0.1662766,0.0835 -0.3359166,0.16052 -0.5049393,0.2382 -0.05953,0.0286 -0.1188842,0.0576 -0.1785908,0.0858 -0.1543852,0.073 -0.2334861,0.10991 -0.3918736,0.17551 -0.2061459,0.0854 -0.4157623,0.16165 -0.6255798,0.23736 -0.29742,0.096 -0.600718,0.17599 -0.9088319,0.22952 -0.08108,0.0141 -0.162283,0.0282 -0.2441302,0.0368 -0.088105,0.009 -0.1768298,0.0111 -0.2652448,0.0166 -0.3447865,0.002 -0.6927951,-0.0317 -1.0254806,-0.12634 -0.2146081,-0.0611 -0.279337,-0.096 -0.482291,-0.18255 -0.6731661,-0.36349 0.4650767,0.27802 0.70485,0.40384 0.056824,0.0298 -0.1047247,-0.0744 -0.153975,-0.11556 -0.047137,-0.0394 -0.1974295,-0.18424 -0.2340311,-0.23738 -0.022537,-0.0327 -0.032262,-0.0726 -0.048393,-0.10891 -0.033338,-0.10752 -0.058242,-0.23616 -0.024159,-0.34768 0.015047,-0.0492 0.1055129,-0.21047 0.1316225,-0.24537 0.032832,-0.0439 0.074042,-0.0808 0.1110628,-0.12123 0.2776964,-0.22802 0.6061745,-0.3824 0.9529821,-0.47279 0.074457,-0.0194 0.1503387,-0.0329 0.2255081,-0.0493 0.2380732,-0.0347 0.4789255,-0.0607 0.719995,-0.0503 0.1483495,0.006 0.383734,0.0362 0.5304126,0.0605 0.084912,0.0141 0.1690254,0.0327 0.2535381,0.049 0.4170482,0.0898 0.8108344,0.25927 1.1895881,0.45215 0.071608,0.0365 0.141976,0.0753 0.2129639,0.11298 0.706032,0.40825 -0.4736197,-0.2746 -0.7151079,-0.40398 -0.069893,-0.0374 0.1316945,0.0884 0.1958515,0.13501 0.2024219,0.14702 0.3930169,0.309 0.5836759,0.47065 0.3274607,0.2728 0.662097,0.53787 1.0129131,0.78023 0.061843,0.0427 0.1248169,0.0838 0.1872255,0.12569 0.6093225,0.38563 0.3688398,0.23689 1.5974894,0.93207 0.05888,0.0333 0.121103,0.0605 0.183098,0.0876 0.106227,0.0464 0.239616,0.0958 0.352828,0.12404 0.0568,0.0141 0.114994,0.022 0.172491,0.033 0.08764,0.0108 0.251585,0.037 0.342206,0.0247 0.05681,-0.008 0.11061,-0.0304 0.165027,-0.0484 0.09312,-0.0309 0.265701,-0.0976 0.352668,-0.14064 0.05644,-0.0279 0.109596,-0.0621 0.164394,-0.0931 0.170959,-0.13398 0.163174,-0.11845 0.314556,-0.27475 0.04741,-0.0489 0.09659,-0.0968 0.137648,-0.15117 0.04148,-0.0549 0.07475,-0.11571 0.10891,-0.17549 0.09526,-0.16671 0.09762,-0.18796 0.170138,-0.36331 0.03238,-0.14433 0.06367,-0.25404 0.07096,-0.40234 0.0087,-0.17769 -0.0183,-0.39198 -0.07854,-0.56005 -0.02013,-0.0562 -0.04867,-0.10899 -0.07301,-0.16348 -0.03064,-0.0491 -0.05828,-0.10022 -0.09191,-0.14732 -0.09612,-0.13463 -0.22045,-0.26195 -0.36456,-0.34527 -1.306975,-0.75561 -0.856169,-0.60048 -1.513269,-0.80662 -0.153765,-0.0327 -0.223127,-0.0555 -0.382774,-0.0565 -0.07043,-4.5e-4 -0.140806,0.007 -0.21082,0.0143 -0.136913,0.015 -0.281558,0.0424 -0.414262,0.0797 -0.06714,0.0189 -0.132537,0.0436 -0.198806,0.0653 -0.1841035,0.0681 -0.3666112,0.14198 -0.5427047,0.22899 -0.128801,0.0636 -0.2164725,0.11636 -0.3431463,0.18602 -0.060284,0.0331 -0.1209524,0.0656 -0.1814285,0.0984 -0.025641,0.0143 -0.3108743,0.17101 -0.3372885,0.19522 -0.041655,0.0382 -0.095797,0.083 -0.096341,0.1395 -6.879e-4,0.0713 0.1799365,0.43889 0.2073751,0.49751 0,0 0.050437,0.0325 0.050437,0.0325 v 0 c 0.1059228,0.0211 0.6740803,0.1391 0.7798213,0.14086 0.1577142,0.003 0.2616356,-0.0755 0.3892955,-0.14627 0.057951,-0.0321 0.1160451,-0.064 0.1740681,-0.0959 0.0607,-0.0321 0.120921,-0.0652 0.18211,-0.0963 0.116914,-0.0596 0.235694,-0.1154 0.353143,-0.17391 0.112837,-0.0562 0.212096,-0.10863 0.327968,-0.15888 0.05857,-0.0254 0.118489,-0.0476 0.177734,-0.0714 0.162804,-0.0503 0.210722,-0.0713 0.379306,-0.0988 0.257795,-0.0419 0.507239,-0.0302 0.755642,0.0534 0.533994,0.21107 0.21081,0.0937 -0.829108,-0.52339 -0.04719,-0.028 0.09716,0.0515 0.142697,0.0821 0.08501,0.0572 0.173169,0.13664 0.240686,0.21348 0.03666,0.0417 0.06805,0.0878 0.102073,0.13168 0.07749,0.13257 0.100562,0.15368 0.144483,0.30234 0.05149,0.17429 0.0573,0.35507 0.02484,0.53365 -0.01108,0.061 -0.03109,0.11998 -0.04663,0.17996 -0.05502,0.14158 -0.07079,0.20569 -0.157658,0.33309 -0.03594,0.0527 -0.07915,0.10011 -0.12085,0.1484 -0.04162,0.0482 -0.08297,0.0969 -0.128982,0.14089 -0.116456,0.11141 -0.178876,0.14609 -0.310668,0.2359 -0.108141,0.0538 -0.208601,0.11008 -0.325872,0.14313 -0.149287,0.0421 -0.217646,0.0391 -0.37161,0.0339 -0.146069,-0.005 -0.165747,-0.0127 -0.311247,-0.0359 -0.05587,-0.0154 -0.112341,-0.0288 -0.167598,-0.0462 -0.108832,-0.0344 -0.2237205,-0.0808 -0.3267469,-0.12945 -0.057077,-0.027 -0.2229326,-0.11841 -0.1686928,-0.0861 0.2866589,0.17074 1.5547417,0.91032 0.8665607,0.501 -0.427924,-0.27522 -0.8469289,-0.56554 -1.2312412,-0.90011 -0.202053,-0.16917 -0.40259,-0.34135 -0.6152121,-0.49733 -0.070358,-0.0516 -0.1401154,-0.10454 -0.2149239,-0.14947 -0.4508601,-0.27075 -0.9068327,-0.53291 -1.361498,-0.79723 -0.073024,-0.0425 -0.1476801,-0.082 -0.22152,-0.12304 -0.075225,-0.0386 -0.1495219,-0.0791 -0.2256753,-0.11592 -0.3691017,-0.17825 -0.7613542,-0.30541 -1.1629444,-0.38608 -0.082469,-0.0117 -0.1646031,-0.0261 -0.2474055,-0.0352 -0.1942375,-0.0213 -0.3091302,-0.0238 -0.5042818,-0.0216 -0.1435899,0.002 -0.3673256,0.009 -0.5097958,0.0284 -0.075276,0.0102 -0.1490678,0.0293 -0.223602,0.044 -0.076996,0.0187 -0.1546254,0.035 -0.2309871,0.0562 -0.1839163,0.051 -0.268502,0.0822 -0.4416081,0.15921 -0.1334169,0.0593 -0.2914888,0.13542 -0.4123068,0.21889 -0.057197,0.0395 -0.1076944,0.088 -0.1615416,0.13193 -0.053111,0.0563 -0.193944,0.20015 -0.2372548,0.26692 -0.082802,0.12766 -0.1118093,0.27701 -0.094428,0.4271 0.00584,0.0505 0.021428,0.0993 0.032142,0.14899 0.042218,0.0835 0.093306,0.19538 0.1514304,0.27153 0.050842,0.0666 0.1929122,0.21432 0.2617227,0.25667 1.0663185,0.65626 0.8622655,0.5535 1.4691196,0.83588 0.076755,0.0285 0.1525786,0.0596 0.2302645,0.0855 0.1399072,0.0466 0.3876966,0.11581 0.5310116,0.14101 0.080611,0.0142 0.1625016,0.0202 0.2441094,0.0265 0.2210144,0.0169 0.3097832,0.0119 0.5337617,0.0108 0.2113828,-0.0106 0.3459874,-0.0119 0.5545466,-0.0437 0.313123,-0.0477 0.6121707,-0.15965 0.9162724,-0.24343 0.079734,-0.0241 0.160082,-0.0462 0.2392016,-0.0723 0.1521302,-0.0501 0.2678624,-0.0978 0.4157531,-0.15786 0.00594,-0.002 0.4025553,-0.16556 0.4091699,-0.16833 0.063178,-0.0265 0.1259938,-0.0538 0.1889906,-0.0807 0.3293999,-0.1558 0.6595306,-0.31017 0.9813684,-0.4812 0.1433719,-0.073 0.288779,-0.14139 0.4326429,-0.21331 0.05612,-0.0281 0.125932,-0.0675 0.185299,-0.0934 0.01838,-0.008 0.03757,-0.014 0.05635,-0.021 z" />
  </g>
</svg>
