<?xml version="1.0" encoding="UTF-8" standalone="no"?>
<!-- Created with Inkscape (http://www.inkscape.org/) -->

<svg
   width="64"
   height="64"
   viewBox="0 0 16.933333 16.933334"
   version="1.1"
   id="svg8"
   inkscape:version="1.3.2 (091e20ef0f, 2023-11-25, custom)"
   sodipodi:docname="vacuum.svg"
   inkscape:export-filename="C:\Users\Ali\Documents\inkscape\freecad\pyrate\pyrate_logo_3_256x256.png"
   inkscape:export-xdpi="1536"
   inkscape:export-ydpi="1536"
   xmlns:inkscape="http://www.inkscape.org/namespaces/inkscape"
   xmlns:sodipodi="http://sodipodi.sourceforge.net/DTD/sodipodi-0.dtd"
   xmlns:xlink="http://www.w3.org/1999/xlink"
   xmlns="http://www.w3.org/2000/svg"
   xmlns:svg="http://www.w3.org/2000/svg"
   xmlns:rdf="http://www.w3.org/1999/02/22-rdf-syntax-ns#"
   xmlns:cc="http://creativecommons.org/ns#"
   xmlns:dc="http://purl.org/dc/elements/1.1/">
  <defs
     id="defs2">
    <linearGradient
       id="linearGradient1245"
       inkscape:collect="always">
      <stop
         id="stop1241"
         offset="0"
         style="stop-color:#aaccff;stop-opacity:1" />
      <stop
         id="stop1243"
         offset="1"
         style="stop-color:#d5f6ff;stop-opacity:1" />
    </linearGradient>
    <linearGradient
       id="linearGradient1167"
       inkscape:collect="always">
      <stop
         id="stop1161"
         offset="0"
         style="stop-color:#00112b;stop-opacity:1" />
      <stop
         id="stop1163"
         offset="1"
         style="stop-color:#2a7fff;stop-opacity:1" />
    </linearGradient>
    <linearGradient
       inkscape:collect="always"
       id="linearGradient1166">
      <stop
         style="stop-color:#41dcff;stop-opacity:1"
         offset="0"
         id="stop1162" />
      <stop
         style="stop-color:#40e0ff;stop-opacity:1"
         offset="1"
         id="stop1164" />
    </linearGradient>
    <linearGradient
       inkscape:collect="always"
       id="linearGradient1058">
      <stop
         style="stop-color:#5175ff;stop-opacity:1"
         offset="0"
         id="stop1054" />
      <stop
         style="stop-color:#40e0ff;stop-opacity:1"
         offset="1"
         id="stop1056" />
    </linearGradient>
    <linearGradient
       id="linearGradient1045"
       inkscape:collect="always">
      <stop
         id="stop1041"
         offset="0"
         style="stop-color:#293449;stop-opacity:1" />
      <stop
         id="stop1043"
         offset="1"
         style="stop-color:#485c80;stop-opacity:1" />
    </linearGradient>
    <linearGradient
       inkscape:collect="always"
       id="linearGradient2480">
      <stop
         style="stop-color:#cc0a08;stop-opacity:1"
         offset="0"
         id="stop2476" />
      <stop
         style="stop-color:#f67d89;stop-opacity:1"
         offset="1"
         id="stop2478" />
    </linearGradient>
    <linearGradient
       id="linearGradient942-5"
       inkscape:collect="always">
      <stop
         id="stop938"
         offset="0"
         style="stop-color:#002076;stop-opacity:1" />
      <stop
         id="stop940"
         offset="1"
         style="stop-color:#40e0ff;stop-opacity:1" />
    </linearGradient>
    <linearGradient
       gradientUnits="userSpaceOnUse"
       y2="31.377413"
       x2="86.543877"
       y1="282.62048"
       x1="20.010984"
       id="linearGradient944"
       xlink:href="#linearGradient942-5"
       inkscape:collect="always" />
    <linearGradient
       gradientUnits="userSpaceOnUse"
       y2="112.66277"
       x2="98.204803"
       y1="257.94366"
       x1="13.302045"
       id="linearGradient952"
       xlink:href="#linearGradient2480"
       inkscape:collect="always" />
    <linearGradient
       gradientTransform="translate(0,1.5875)"
       gradientUnits="userSpaceOnUse"
       y2="133.50244"
       x2="146.68025"
       y1="272.83194"
       x1="101.05925"
       id="linearGradient960"
       xlink:href="#linearGradient2480"
       inkscape:collect="always" />
    <filter
       id="filter1495"
       inkscape:label="Drop Shadow"
       style="color-interpolation-filters:sRGB">
      <feFlood
         id="feFlood1485"
         result="flood"
         flood-color="rgb(0,0,0)"
         flood-opacity="0.498039" />
      <feComposite
         id="feComposite1487"
         result="composite1"
         operator="in"
         in2="SourceGraphic"
         in="flood" />
      <feGaussianBlur
         id="feGaussianBlur1489"
         result="blur"
         stdDeviation="4"
         in="composite1" />
      <feOffset
         id="feOffset1491"
         result="offset"
         dy="4"
         dx="2" />
      <feComposite
         id="feComposite1493"
         result="composite2"
         operator="over"
         in2="offset"
         in="SourceGraphic" />
    </filter>
    <filter
       id="filter2066"
       inkscape:label="Drop Shadow"
       style="color-interpolation-filters:sRGB">
      <feFlood
         id="feFlood2056"
         result="flood"
         flood-color="rgb(0,0,0)"
         flood-opacity="0.498039" />
      <feComposite
         id="feComposite2058"
         result="composite1"
         operator="in"
         in2="SourceGraphic"
         in="flood" />
      <feGaussianBlur
         id="feGaussianBlur2060"
         result="blur"
         stdDeviation="20"
         in="composite1" />
      <feOffset
         id="feOffset2062"
         result="offset"
         dy="20"
         dx="6" />
      <feComposite
         id="feComposite2064"
         result="composite2"
         operator="over"
         in2="offset"
         in="SourceGraphic" />
    </filter>
    <filter
       id="filter2474"
       inkscape:label="Drop Shadow"
       style="color-interpolation-filters:sRGB">
      <feFlood
         id="feFlood2464"
         result="flood"
         flood-color="rgb(0,0,0)"
         flood-opacity="0.498039" />
      <feComposite
         id="feComposite2466"
         result="composite1"
         operator="in"
         in2="SourceGraphic"
         in="flood" />
      <feGaussianBlur
         id="feGaussianBlur2468"
         result="blur"
         stdDeviation="4"
         in="composite1" />
      <feOffset
         id="feOffset2470"
         result="offset"
         dy="4.8"
         dx="1.5" />
      <feComposite
         id="feComposite2472"
         result="composite2"
         operator="over"
         in2="offset"
         in="SourceGraphic" />
    </filter>
    <linearGradient
       gradientTransform="translate(0,290.28571)"
       gradientUnits="userSpaceOnUse"
       y2="398.20157"
       x2="-973.7356"
       y1="746.96252"
       x1="-1123.2253"
       id="linearGradient1033"
       xlink:href="#linearGradient1058"
       inkscape:collect="always" />
    <linearGradient
       gradientTransform="translate(0,213.65424)"
       gradientUnits="userSpaceOnUse"
       y2="851.35718"
       x2="-987.59387"
       y1="1234.0872"
       x1="-1127.1049"
       id="linearGradient1047"
       xlink:href="#linearGradient1045"
       inkscape:collect="always" />
    <linearGradient
       gradientTransform="translate(-19.199562,-44.652005)"
       gradientUnits="userSpaceOnUse"
       y2="1157.111"
       x2="-544.48077"
       y1="1495.4609"
       x1="-689.72717"
       id="linearGradient1134"
       xlink:href="#linearGradient1045"
       inkscape:collect="always" />
    <linearGradient
       y2="851.35718"
       x2="-987.59387"
       y1="1234.0872"
       x1="-1127.1049"
       gradientTransform="translate(0,213.65424)"
       gradientUnits="userSpaceOnUse"
       id="linearGradient1160"
       xlink:href="#linearGradient1166"
       inkscape:collect="always" />
    <linearGradient
       id="linearGradient3682-0">
      <stop
         style="stop-color:#a40000;stop-opacity:1"
         offset="0"
         id="stop3684-0" />
      <stop
         style="stop-color:#ef2929;stop-opacity:1"
         offset="1"
         id="stop3686-0" />
    </linearGradient>
    <linearGradient
       id="linearGradient3864-9">
      <stop
         id="stop3866-1"
         offset="0"
         style="stop-color:#204a87;stop-opacity:1" />
      <stop
         id="stop3868-1"
         offset="1"
         style="stop-color:#729fcf;stop-opacity:1" />
    </linearGradient>
    <linearGradient
       id="linearGradient3682-0-3">
      <stop
         style="stop-color:#ff390f;stop-opacity:1"
         offset="0"
         id="stop3684-0-7" />
      <stop
         style="stop-color:#ff1000;stop-opacity:1;"
         offset="1"
         id="stop3686-0-5" />
    </linearGradient>
    <linearGradient
       id="linearGradient3864-9-7">
      <stop
         id="stop3866-1-7"
         offset="0"
         style="stop-color:#316cab;stop-opacity:1" />
      <stop
         id="stop3868-1-4"
         offset="1"
         style="stop-color:#002ca8;stop-opacity:1" />
    </linearGradient>
    <linearGradient
       id="linearGradient3682">
      <stop
         id="stop3684"
         offset="0"
         style="stop-color:#ff6d0f;stop-opacity:1;" />
      <stop
         id="stop3686"
         offset="1"
         style="stop-color:#ff1000;stop-opacity:1;" />
    </linearGradient>
    <linearGradient
       id="linearGradient3864">
      <stop
         style="stop-color:#71b2f8;stop-opacity:1;"
         offset="0"
         id="stop3866" />
      <stop
         style="stop-color:#002795;stop-opacity:1;"
         offset="1"
         id="stop3868" />
    </linearGradient>
    <linearGradient
       gradientTransform="matrix(0.79118995,0,0,0.96421064,-462.08318,3.6442021)"
       gradientUnits="userSpaceOnUse"
       y2="-97.402824"
       x2="-2013.709"
       y1="301.0498"
       x1="-2412.1616"
       id="linearGradient1169"
       xlink:href="#linearGradient1167"
       inkscape:collect="always" />
    <linearGradient
       gradientUnits="userSpaceOnUse"
       y2="-9.260396"
       x2="-2055.4119"
       y1="284.23495"
       x1="-2302.6389"
       id="linearGradient1239"
       xlink:href="#linearGradient1245"
       inkscape:collect="always" />
    <linearGradient
       gradientUnits="userSpaceOnUse"
       y2="1276.7333"
       x2="4327.0557"
       y1="2126.7334"
       x1="3477.0554"
       id="linearGradient3835"
       xlink:href="#linearGradient1045"
       inkscape:collect="always" />
    <mask
       id="mask5747"
       maskUnits="userSpaceOnUse">
      <path
         inkscape:connector-curvature="0"
         id="path5749"
         d="m -1081.0913,3822.7064 -30.9051,-17.7313 -13.6473,4.7355 -13.0203,33.2785 -20.4811,-1.0774 -9.3432,-34.4101 -13.0752,-6.2608 -32.6113,14.2658 -13.7762,-15.3072 17.7314,-30.9049 -4.8453,-13.606 -33.2766,-13.0222 1.1905,-20.5206 34.4107,-9.3432 6.2607,-13.0752 -14.3755,-32.5713 15.3071,-13.7747 30.9051,17.7313 13.7154,-4.8866 12.9107,-33.2346 20.6323,1.1528 9.2335,34.4501 13.0752,6.2606 32.681,-14.4151 13.7747,15.3067 -17.7319,30.9052 4.7754,13.7554 33.2372,12.9128 -1.0398,20.5901 -34.4501,9.2334 -6.2622,13.0752 14.3073,32.721 z m -46.2858,-50.6793 6.3443,-3.6809 5.4951,-4.9832 4.4016,-5.9473 3.1652,-6.6122 1.8707,-7.1279 0.3036,-7.3064 -1.0584,-7.3012 -2.4077,-6.9339 -3.8305,-6.4135 -4.8341,-5.4277 -5.9468,-4.3992 -6.6122,-3.1652 -7.1283,-1.8709 -7.3452,-0.4154 -7.3041,1.0583 -6.9313,2.4077 -6.414,3.8307 -5.3875,4.9432 -4.441,5.8375 -3.1652,6.6122 -1.8143,7.2377 -0.4155,7.3456 1.0579,7.302 2.4078,6.9334 3.7905,6.3042 4.8741,5.5367 5.9468,4.3995 6.6122,3.1652 7.238,1.8142 7.3058,0.3038 7.302,-1.0584 6.9333,-2.4079 z"
         style="display:inline;overflow:visible;visibility:visible;fill:#ffffff;fill-opacity:1;fill-rule:evenodd;stroke:none;stroke-width:9.9998951;stroke-linecap:round;stroke-linejoin:round;stroke-miterlimit:4;stroke-dasharray:none;stroke-dashoffset:0;stroke-opacity:1;marker:none;enable-background:accumulate" />
    </mask>
    <mask
       id="mask2314"
       maskUnits="userSpaceOnUse">
      <path
         inkscape:connector-curvature="0"
         sodipodi:nodetypes="ccccccccccc"
         id="path2316"
         d="m -1868.9759,3355.7772 h -288.3976 v 59.668 h 119.3385 v 59.6685 h 59.668 v -59.6685 h 49.7232 v 99.4479 h 59.6679 z"
         style="display:inline;overflow:visible;visibility:visible;fill:#ffffff;fill-opacity:1;fill-rule:evenodd;stroke:none;stroke-width:9.99989414;stroke-linecap:butt;stroke-linejoin:miter;stroke-miterlimit:4;stroke-dasharray:none;stroke-dashoffset:0;stroke-opacity:1;marker:none;enable-background:accumulate" />
    </mask>
  </defs>
  <sodipodi:namedview
     id="base"
     pagecolor="#ffffff"
     bordercolor="#666666"
     borderopacity="1.0"
     inkscape:pageopacity="0.0"
     inkscape:pageshadow="2"
     inkscape:zoom="15.839192"
     inkscape:cx="37.344077"
     inkscape:cy="28.18957"
     inkscape:document-units="px"
     inkscape:current-layer="layer1"
     showgrid="false"
     inkscape:window-width="3836"
     inkscape:window-height="2093"
     inkscape:window-x="0"
     inkscape:window-y="32"
     inkscape:window-maximized="1"
     units="px"
     inkscape:showpageshadow="2"
     inkscape:pagecheckerboard="0"
     inkscape:deskcolor="#d1d1d1" />
  <metadata
     id="metadata5">
    <rdf:RDF>
      <cc:Work
         rdf:about="">
        <dc:format>image/svg+xml</dc:format>
        <dc:type
           rdf:resource="http://purl.org/dc/dcmitype/StillImage" />
      </cc:Work>
    </rdf:RDF>
  </metadata>
  <g
     inkscape:label="Layer 1"
     inkscape:groupmode="layer"
     id="layer1"
     transform="translate(0,-280.06666)">
    <path
       style="fill:#000000;stroke-width:0.264583"
       id="path9"
       d="m 14.238965,295.99524 c 0.0021,-0.0313 0.0063,-0.0626 0.0062,-0.0939 -7.67e-4,-0.21916 -0.02751,-0.43932 -0.04453,-0.65747 -0.02277,-0.29196 -0.02383,-0.32677 -0.04297,-0.62826 -0.04647,-0.89253 0.01932,-1.78477 0.06193,-2.67597 0.04608,-0.81232 0.05523,-1.62575 0.05507,-2.43915 -0.01605,-0.59662 0.0338,-1.19331 0.01969,-1.78981 -0.0027,-0.11456 -0.01009,-0.22897 -0.01514,-0.34345 -0.02469,-0.44385 -0.05582,-0.88795 -0.04828,-1.33283 0.0039,-0.22836 0.01553,-0.35089 0.03157,-0.57636 0.02457,-0.34356 0.08929,-0.68235 0.129204,-1.02402 0.0036,-0.0307 0.04929,-0.50611 0.05222,-0.5364 0.04921,-0.48867 0.06982,-0.97993 0.0608,-1.47091 -0.01634,-0.31655 -0.06393,-0.62992 -0.10824,-0.94338 -0.03883,-0.16959 -0.05745,-0.34387 -0.107476,-0.51081 -0.126104,-0.23402 -0.47969,-0.28277 -0.721158,-0.3316 -0.401077,-0.06 -0.806337,-0.10307 -1.211961,-0.11548 -0.09891,-0.003 -0.197898,-10e-4 -0.296847,-0.002 -0.0993,0.003 -0.198645,0.006 -0.297897,0.0104 -0.100652,0.005 -0.201182,0.0118 -0.301773,0.0176 -0.104055,0.005 -0.208084,0.0108 -0.312163,0.0154 -0.274924,0.0121 -0.549983,0.0207 -0.824911,0.0328 -0.426848,0.0168 -0.852594,0.0511 -1.2787703,0.0789 -0.3315592,0.0253 -0.6641794,0.0128 -0.9960084,0.0295 -0.2454394,0.0275 -0.4925933,0.044 -0.7371697,0.0785 -0.101805,0.0162 -0.2018887,0.041 -0.3015866,0.0669 -0.064694,0.0167 -0.1211001,0.031 -0.1790245,0.0641 -0.01084,0.0154 -0.027138,0.0281 -0.032522,0.0462 -0.032299,0.10823 0.01806,0.28118 0.037488,0.38526 0.057504,0.30807 0.023752,0.11959 0.085252,0.47839 0.1067507,0.80026 0.188826,1.60358 0.2871357,2.4049 0.1109713,0.79236 0.1671624,1.59056 0.2289424,2.3878 0.059688,0.63629 0.046932,1.27555 0.051543,1.91369 0.00585,0.54783 -0.017518,1.09506 -0.054246,1.64149 -0.042056,0.55164 -0.086156,1.10318 -0.1363297,1.65415 -0.036905,0.4813 -0.095022,0.96022 -0.1565958,1.43884 -0.054798,0.4421 -0.111203,0.884 -0.1628095,1.32649 -0.016775,0.16031 -0.034371,0.32055 -0.050378,0.48095 -0.011192,0.11213 -0.032392,0.19008 0.020063,0.299 0.029952,0.0622 0.080491,0.11217 0.1207365,0.16825 0,0 0.017735,0.009 0.017735,0.009 v 0 c 0.046533,-0.0109 0.1003983,-0.005 0.1396,-0.0326 0.070512,-0.0491 0.066177,-0.18556 0.072646,-0.25029 0.016118,-0.16125 0.030414,-0.32269 0.043497,-0.48423 0.043658,-0.4449 0.088056,-0.88993 0.1484297,-1.33293 0.064693,-0.47973 0.1136327,-0.96116 0.1508884,-1.44382 0.045164,-0.55462 0.082983,-1.10966 0.1170517,-1.66507 0.033898,-0.55209 0.076404,-1.09911 0.038056,-1.65294 -0.013684,-0.64329 -0.015462,-1.28774 -0.07659,-1.92888 -0.072918,-0.80255 -0.1402945,-1.60601 -0.2578457,-2.40359 -0.011917,-0.0896 -0.1083535,-0.8098 -0.1184178,-0.90354 -0.052737,-0.49116 -0.059657,-0.98637 -0.1187185,-1.47703 -0.033924,-0.33259 -0.013815,-0.17732 -0.057269,-0.46586 -0.012174,-0.0808 -0.0541,-0.26369 -0.032328,-0.34915 0.00329,-0.0129 0.014854,-0.0221 0.02228,-0.0332 0.1311365,-0.0853 0.2956288,-0.10405 0.4455594,-0.13503 0.2446968,-0.0199 0.4868212,-0.0611 0.7315994,-0.0802 0.3236323,-0.021 0.6483972,-0.0152 0.9714149,-0.0477 0.4194836,-0.0332 0.8389014,-0.0672 1.2589574,-0.0925 0.571207,-0.0402 1.143538,-0.066 1.715625,-0.0892 0.09869,10e-4 0.197441,-2.3e-4 0.296077,0.003 0.413311,0.0147 0.826149,0.0686 1.233526,0.13717 0.05281,0.0121 0.193463,0.0435 0.25342,0.0595 0.02808,0.008 0.105889,0.0436 0.08354,0.0251 -0.06419,-0.0534 -0.141823,-0.0881 -0.212611,-0.13238 -0.01351,-0.008 0.02917,0.014 0.04079,0.0249 0.0098,0.009 0.01459,0.0226 0.02189,0.0339 0.06313,0.16 0.0845,0.33478 0.107121,0.50407 0.05125,0.31498 0.110133,0.62968 0.127752,0.94891 0.0097,0.20893 0.01421,0.24139 0.01138,0.45512 -0.0045,0.33979 -0.03774,0.67847 -0.06065,1.01729 -0.05278,0.52119 -0.136624,1.03869 -0.183653,1.56047 -0.0051,0.0941 -0.01198,0.1881 -0.01517,0.28227 -0.01845,0.54462 0.01546,1.0892 0.03794,1.63312 0.01438,0.71098 -0.0098,1.42179 -0.0033,2.13287 -9.79e-4,0.81437 -0.02127,1.62835 -0.04625,2.44233 -0.0331,0.8921 -0.06579,1.78481 -0.06446,2.67757 0.01959,0.54466 0.002,0.1098 0.02772,0.62107 0.01062,0.21073 0.02496,0.42291 0.0094,0.63382 -0.0021,0.0292 -0.0075,0.058 -0.0112,0.0871 z" />
    <path
       style="fill:#000000;stroke-width:0.264583"
       id="path16"
       d="m 6.8604118,294.99664 c 0.00217,0.26495 0.029005,0.52857 0.05135,0.79233 0.010679,0.0903 0.00956,0.19606 0.063987,0.27499 0.015809,0.0229 0.034779,0.0451 0.058519,0.0596 0.4109096,0.25197 0.3064569,0.212 0.5720782,0.28923 0.3220971,0.0813 0.6498492,0.13475 0.9798791,0.17011 0.2135386,0.0202 0.4280524,0.0194 0.6412333,-0.003 0.1779403,-0.0268 0.3548793,-0.0611 0.530674,-0.0996 0.031048,-0.0178 0.1360927,-0.0149 0.1639951,-0.0376 0.00664,-0.005 0.010792,-0.0189 0.00497,-0.0251 -0.040033,-0.043 -0.08964,-0.0759 -0.1344607,-0.11381 0,0 -0.01647,-0.0114 -0.01647,-0.0114 v 0 c -0.2243773,-0.12845 -0.1812245,-0.13131 -0.395277,-0.0737 -0.1734714,0.0403 -0.3483977,0.0763 -0.5255067,0.0962 -0.2076921,0.0183 -0.4167946,0.0222 -0.6247048,0.004 -0.3227472,-0.0321 -0.6453841,-0.0788 -0.9585597,-0.1651 -0.038706,-0.0134 -0.1478095,-0.0662 -0.1161175,-0.0403 0.083427,0.0683 0.1823538,0.11524 0.2750045,0.17044 0.023535,0.014 -0.048209,-0.0274 -0.067533,-0.0468 -0.07017,-0.0705 -0.071055,-0.17609 -0.086655,-0.26711 -0.033934,-0.26121 -0.055706,-0.52426 -0.051025,-0.78791 z" />
    <path
       style="fill:#000000;stroke-width:0.264583"
       id="path17"
       d="m 11.054285,296.38719 c 0.229977,0.025 0.458161,0.0588 0.685366,0.10222 0.288129,0.0626 0.578259,0.11429 0.869672,0.15889 0.214892,0.0335 0.432244,0.0363 0.64915,0.0353 0.117187,-0.003 0.234166,0.004 0.351168,0.009 0.120013,0.002 0.239914,-0.004 0.359911,-0.001 0.08861,0.011 0.171023,-9e-5 0.255539,-0.026 0.124816,-0.0429 0.157206,-0.0512 0.198117,-0.18445 0.01507,-0.13897 0.01362,-0.2768 -0.02477,-0.41302 -0.02326,-0.0825 -0.0594,-0.16085 -0.08921,-0.24123 -0.03063,-0.0826 -0.06141,-0.16513 -0.09211,-0.24769 0,0 -0.01792,-0.009 -0.01792,-0.009 v 0 c -0.0153,0.0596 -0.02871,0.1197 -0.04589,0.17877 -0.01644,0.0565 -0.04254,0.11031 -0.05494,0.16786 -0.02631,0.12215 -0.0087,0.24742 -0.02987,0.36989 -0.0053,0.017 -0.0083,0.0349 -0.0158,0.051 -0.02896,0.0622 -0.114358,0.0704 -0.170544,0.0931 -0.08265,0.0225 -0.164751,0.0209 -0.249831,0.0152 -0.118858,5e-4 -0.23774,0.008 -0.356566,0.002 -0.11722,-0.007 -0.234369,-0.0154 -0.351815,-0.007 -0.212772,0.005 -0.42612,2.7e-4 -0.636607,-0.0346 -0.287608,-0.0452 -0.574565,-0.0934 -0.859698,-0.15262 -0.22073,-0.0375 -0.44349,-0.0736 -0.667384,-0.0828 z" />
    <path
       style="fill:#000000;stroke-width:0.264583"
       id="path10"
       d="m 1.2484534,282.6905 c 0.2851361,-0.0573 0.575239,-0.0811 0.8650627,-0.0996 0.4136044,-0.021 0.8277563,-0.0234 1.2413528,-0.0446 0.3548692,-0.0214 0.7100699,-0.023 1.0650312,-0.005 0.2673716,0.0159 0.5344261,0.0354 0.8020675,0.0462 0.2270747,0.006 0.4542666,0.006 0.681128,-0.006 0.3180485,-0.0171 0.6353779,-0.0424 0.9537042,-0.054 0.3617306,-0.009 0.7234856,-0.0146 1.0845927,-0.0387 0.3940831,-0.0328 0.7897471,-0.0181 1.1842316,-0.003 0.3881012,0.0238 0.776818,0.031 1.1654129,0.0414 0.311953,0.007 0.623858,0.004 0.935312,-0.0151 0.282133,-0.014 0.562433,-0.0467 0.843059,-0.0774 0.265299,-0.03 0.531513,-0.051 0.797483,-0.074 0.205033,-0.0189 0.410766,-0.0221 0.616473,-0.0246 0.237221,-0.002 0.473675,-0.0243 0.70952,-0.0481 0.245361,-0.0304 0.491519,-0.0493 0.738445,-0.0598 0.201786,-0.007 0.403525,-0.0163 0.605165,-0.0268 0.171117,-0.009 0.342413,-0.0171 0.512967,-0.0342 0.135694,-0.0221 0.279125,-0.0206 0.407356,-0.0742 0.01023,-0.009 0.02721,-0.0127 0.03068,-0.0256 0.0103,-0.0382 -0.04357,-0.10506 -0.05581,-0.12467 0,0 -0.01644,-0.0114 -0.01644,-0.0114 v 0 c -0.104081,-0.0409 -0.20799,-0.0906 -0.321834,-0.0945 -0.15132,-0.003 -0.299521,0.0261 -0.449705,0.0414 -0.168966,0.0157 -0.33827,0.0264 -0.507732,0.0352 -0.200879,0.0102 -0.401804,0.0194 -0.602743,0.0283 -0.246937,0.0128 -0.492788,0.0376 -0.738749,0.0626 -0.236937,0.0224 -0.474297,0.0413 -0.712505,0.0407 -0.205559,0.002 -0.411083,0.008 -0.615665,0.03 -0.263997,0.0252 -0.528108,0.0494 -0.791603,0.0795 -0.280138,0.0326 -0.561096,0.0556 -0.84247,0.0747 -0.308789,0.0181 -0.618203,0.023 -0.9274707,0.0161 -0.3843054,-0.005 -0.7684516,-0.0152 -1.1523906,-0.033 -0.3981855,-0.0144 -0.7972351,-0.0349 -1.1950208,5.5e-4 -0.3608274,0.021 -0.7219876,0.0303 -1.0833188,0.038 -0.325165,0.0106 -0.6501619,0.0232 -0.9751385,0.0383 -0.2310461,0.003 -0.4621147,2.1e-4 -0.6930713,-0.007 -0.2658478,-0.009 -0.5310744,-0.0304 -0.7967817,-0.0427 -0.3524975,-0.0128 -0.7046513,-0.005 -1.0567532,0.017 -0.4161526,0.0166 -0.8325352,0.0233 -1.2486435,0.0405 -0.294211,0.0186 -0.5885638,0.0399 -0.87864206,0.0951 z" />
    <path
       style="fill:#000000;stroke-width:0.264583"
       id="path11"
       d="m 15.528251,281.3848 c 0.217298,0.1345 0.404697,0.30943 0.593451,0.48007 0.04621,0.0551 0.138951,0.10392 0.151502,0.18376 0.0099,0.0632 -0.05197,0.13071 -0.08279,0.17694 -0.06764,0.12484 -0.103096,0.27256 -0.09487,0.41556 0.0036,0.0633 0.02163,0.12484 0.03245,0.18727 0,0 0.01758,0.01 0.01758,0.01 v 0 c 0.03699,-0.036 0.07763,-0.0687 0.110978,-0.10811 0.03199,-0.0378 0.05553,-0.0821 0.08411,-0.12255 0.160079,-0.22678 0.0069,-7.6e-4 0.145644,-0.20795 0.03919,-0.0565 0.107361,-0.13106 0.09692,-0.20777 -0.01218,-0.0894 -0.110829,-0.14284 -0.163057,-0.20445 -0.182859,-0.17288 -0.372883,-0.33965 -0.58076,-0.48213 z" />
    <path
       style="fill:#000000;stroke-width:0.264583"
       id="path12"
       d="m 0.89015435,289.56391 c 0.27809975,-0.0249 0.55713165,-0.0371 0.83595155,-0.0509 0.586469,-0.0345 1.1714272,-0.0902 1.7579503,-0.12552 0.6453314,-0.037 1.2918702,-0.0413 1.9380264,-0.0498 0.6507969,-0.016 1.3018072,-0.0134 1.9526798,-0.005 0.6356416,0.007 1.2708782,0.0337 1.9060586,0.0576 0.5915441,0.0281 1.18337,0.004 1.771012,-0.0663 0.362386,-0.0422 0.719401,-0.12042 1.072949,-0.20892 0.299283,-0.0812 0.600882,-0.15095 0.906684,-0.20232 0.360992,-0.0516 0.725402,-0.0724 1.08898,-0.0967 0.297865,-0.0223 0.596645,-0.0276 0.894421,-0.0508 0.198949,-0.0161 0.396937,-0.0399 0.596554,-0.0449 0.1959,-0.005 0.386199,0.0447 0.574931,0.0906 0.05827,0.0129 0.115665,0.0294 0.173794,0.0428 0.02066,0.005 0.06784,0.0335 0.06227,0.013 -0.03704,-0.13581 -0.12065,-0.0586 -0.07181,-0.0999 0,0 -0.01588,-0.0121 -0.01588,-0.0121 v 0 c -0.226275,-0.10435 0.276927,0.13072 -0.246283,-0.14273 -0.0563,-0.0294 -0.179636,-0.0324 -0.23894,-0.058 -0.190536,-0.0435 -0.382617,-0.0907 -0.579745,-0.08 -0.195971,0.01 -0.390262,0.0378 -0.585665,0.0548 -0.294183,0.0235 -0.589004,0.0376 -0.883394,0.0583 -0.365079,0.027 -0.730899,0.0495 -1.09398,0.0975 -0.309395,0.0486 -0.613539,0.11869 -0.916049,0.19973 -0.34815,0.0842 -0.695835,0.17317 -1.052008,0.21774 -0.577928,0.071 -1.1591524,0.1059 -1.7416527,0.0805 -0.63563,-0.0193 -1.2707676,-0.0551 -1.9068505,-0.057 -0.6509587,-0.002 -1.3019011,0.003 -1.9528508,0.006 -0.6453285,0.011 -1.2912146,0.0156 -1.9356602,0.0537 -0.5928334,0.0404 -1.1854195,0.0876 -1.7793073,0.10931 -0.2794504,0.0112 -0.55852775,0.0271 -0.83718963,0.0512 z" />
    <path
       style="fill:#000000;stroke-width:0.264583"
       id="path13"
       d="m 15.429971,287.91292 c 0.195065,0.17253 0.375596,0.35893 0.547251,0.55452 0.04699,0.0701 0.223651,0.22003 0.196668,0.31518 -0.01398,0.0493 -0.07492,0.10353 -0.105103,0.13587 -0.131861,0.12591 -0.09741,0.044 -0.02242,0.26566 0,0 0.01706,0.0104 0.01706,0.0104 v 0 c 0.281211,0.004 0.179888,0.0557 0.33282,-0.0761 0.0449,-0.0447 0.107682,-0.0933 0.125771,-0.15972 0.03244,-0.11904 -0.146659,-0.26534 -0.208201,-0.34952 -0.176737,-0.19721 -0.355736,-0.39397 -0.559454,-0.56403 z" />
    <path
       style="fill:#000000;stroke-width:0.264583"
       id="path14"
       d="m 1.0941529,295.3069 c 0.4260455,-0.0368 0.8535101,-0.0421 1.2807585,-0.0501 0.472439,-0.0102 0.9444263,-0.0337 1.4167136,-0.049 0.3887494,-0.008 0.7767826,-0.028 1.1643295,-0.0587 0.42823,-0.0461 0.8578016,-0.065 1.2882647,-0.059 0.4221044,0.01 0.8410816,0.0653 1.2597816,0.11522 0.4033954,0.0513 0.8074808,0.0955 1.2128561,0.12753 0.1436719,0.0103 0.2876346,0.0163 0.4315783,0.0212 0.015859,5.3e-4 0.2140688,0.007 0.2347978,0.005 0.028404,-0.002 0.056204,-0.009 0.084306,-0.0134 -0.010253,-0.0326 -0.020503,-0.0652 -0.030755,-0.0978 0,0 -0.016171,-0.0118 -0.016171,-0.0118 v 0 c -0.079912,-0.0332 -0.1598253,-0.0664 -0.2397384,-0.0995 -0.042029,-0.006 -0.083812,-0.0137 -0.1260854,-0.0172 -0.030717,-0.003 -0.2027031,-0.003 -0.2316999,-0.004 -0.1398608,-0.002 -0.279645,-0.006 -0.4192971,-0.0143 -0.4006389,-0.0261 -0.7995925,-0.0717 -1.1982156,-0.11902 -0.4217625,-0.0528 -0.8438825,-0.11165 -1.2696783,-0.11741 -0.4331452,-0.005 -0.8648222,0.016 -1.2960888,0.0574 -0.3872799,0.026 -0.7751736,0.0393 -1.162843,0.0581 -0.4683728,0.0205 -0.9365508,0.0475 -1.4053577,0.0562 -0.4335049,0.007 -0.8663538,0.0325 -1.29985282,0.036 z" />
    <path
       style="fill:#000000;stroke-width:0.264583"
       id="path15"
       d="m 12.074997,294.73474 c 0.02599,0.002 0.05193,0.005 0.07797,0.006 0.130182,0.005 0.260713,10e-4 0.390978,0.006 0.197423,0.007 0.197627,0.008 0.402555,0.0222 0.0709,0.004 0.1418,0.009 0.2127,0.0129 0.09517,0.006 0.322494,0.0205 0.418869,0.0229 0.212067,0.005 0.424544,-0.003 0.636514,-0.008 0.299849,-0.006 0.597557,-0.044 0.895845,-0.0715 0.193937,-0.0138 0.385971,-0.0447 0.579705,-0.0605 0.08997,-0.003 0.179805,0.004 0.269141,0.0139 0.03625,0.004 0.07209,0.0159 0.108525,0.014 0.01875,-9.5e-4 0.04448,-0.005 0.05181,-0.0221 0.0085,-0.0199 -0.01045,-0.0421 -0.01568,-0.0631 0,0 -0.01601,-0.012 -0.01601,-0.012 v 0 c -0.114899,-0.0543 -0.217744,-0.11089 -0.341344,-0.14219 -0.0355,-0.009 -0.07269,-0.009 -0.10916,-0.0125 -0.08776,-0.008 -0.176206,-0.0116 -0.263943,-10e-4 -0.186061,0.0244 -0.36985,0.0662 -0.557906,0.0758 -0.291605,0.0335 -0.583138,0.0709 -0.876734,0.0821 -0.421817,0.0153 -0.843348,0.007 -1.26413,-0.0284 -0.391634,-0.0167 -0.02474,-0.001 -0.396662,-0.017 -0.132637,-0.006 -0.267379,-0.015 -0.400306,-0.0112 -0.0207,5.8e-4 -0.04122,0.004 -0.06183,0.006 z" />
    <path
       style="fill:#000000;stroke-width:0.264583"
       id="path18"
       d="m 16.014009,294.13111 c 0.02087,0.009 0.0423,0.0176 0.06261,0.0282 0.03023,0.0157 0.118695,0.0669 0.08886,0.0505 -0.08338,-0.0459 -0.162869,-0.0994 -0.249488,-0.13887 -0.03425,-0.0156 0.06163,0.0433 0.09109,0.0667 0.08544,0.0679 0.06908,0.0564 0.13154,0.13817 0.006,0.0253 0.01879,0.05 0.01811,0.076 -0.0029,0.1138 -0.105581,0.2232 -0.16989,0.3056 -0.302828,0.38802 0.102841,-0.14155 -0.175537,0.22327 -0.01968,0.0339 -0.05035,0.0635 -0.05903,0.10169 -0.02024,0.0892 0.02901,0.16271 0.06282,0.23803 0,0 0.0173,0.01 0.0173,0.01 v 0 c 0.157531,-0.0122 0.226544,-0.005 0.325753,-0.14291 0.09048,-0.11226 0.186337,-0.2226 0.269298,-0.34062 0.04437,-0.0631 0.09396,-0.13321 0.101861,-0.21374 0.0031,-0.0312 -0.0087,-0.0621 -0.01305,-0.0931 -0.01718,-0.0268 -0.03078,-0.0562 -0.05153,-0.0804 -0.02722,-0.0316 -0.138584,-0.12159 -0.171416,-0.14201 -0.193883,-0.12059 -0.395587,-0.25002 -0.607232,-0.34412 z" />
    <path
       style="fill:#000000;stroke-width:0.264583"
       id="path1"
       d="m 10.81309,296.1378 c -0.102518,0.0184 -0.206506,0.0258 -0.310277,0.033 -0.07184,0.007 -0.143208,0.0169 -0.214984,0.024 -0.06754,0.007 -0.134679,0.0161 -0.201767,0.0265 -0.08001,0.0128 -0.1600881,0.0252 -0.240641,0.034 -0.072274,0.008 -0.1443858,0.0175 -0.2170092,0.0223 -0.05026,4.2e-4 -0.1004874,0.002 -0.1507503,0.002 -0.028203,9.3e-4 -0.056422,7.4e-4 -0.084634,10e-4 -0.019317,2.6e-4 -0.036514,-6.9e-4 -0.0326,0.006 0.00728,0.0133 0.020989,0.0219 0.031483,0.0329 0.06314,0.0533 0.038293,0.031 0.075794,0.0654 0,0 0.016182,0.0118 0.016182,0.0118 v 0 c 0.055002,0.0328 0.019942,0.0115 0.1044392,0.0649 0.019508,0.0108 0.038176,0.0232 0.058526,0.0323 0.035467,0.0158 0.094288,-0.003 0.1325653,0.004 0.05023,-6.6e-4 0.1005549,-0.001 0.1506029,-0.006 0.072042,-0.007 0.1435131,-0.0188 0.2156031,-0.0252 0.07859,-0.0106 0.155795,-0.0283 0.234287,-0.0396 0.06668,-0.009 0.133493,-0.0173 0.200146,-0.0267 0.06708,-0.01 0.133219,-0.0257 0.200599,-0.0335 0.101204,-0.0147 0.202656,-0.028 0.30439,-0.0384 z" />
    <path
       style="fill:#000000;stroke-width:0.264583"
       id="path2"
       d="m 11.778157,294.62959 c -0.123028,0.0194 -0.239786,0.063 -0.355329,0.10776 -0.07978,0.0321 -0.15975,0.0636 -0.243122,0.085 -0.09391,0.0213 -0.188599,0.0387 -0.2832,0.0566 -0.113863,0.0232 -0.227933,0.045 -0.341355,0.0703 -0.107186,0.0257 -0.216157,0.0419 -0.326005,0.0499 -0.09176,0.003 -0.183655,0.004 -0.275458,0.002 -0.1179637,4.5e-4 -0.2355935,0.011 -0.3531315,0.0201 -0.1251945,0.01 -0.2505604,0.0109 -0.3758811,0.004 -0.048263,10e-4 -0.1083374,-0.0135 -0.1561605,-0.0106 -0.00862,5e-4 -0.02476,-0.001 -0.024876,0.007 -1.995e-4,0.0146 0.014325,0.0258 0.024281,0.0365 0.018195,0.0195 0.039708,0.0357 0.059562,0.0536 0.00607,0.005 0.012142,0.0106 0.018211,0.0159 0,0 0.016156,0.0118 0.016156,0.0118 v 0 c 0.00846,0.005 0.016917,0.0107 0.025373,0.016 0.052174,0.0323 0.1076336,0.0704 0.1656564,0.0928 0.058572,0.0226 0.1371627,0.007 0.1985381,0.0162 0.1242028,0.003 0.2485538,-0.001 0.3723531,-0.0119 0.1170265,-0.009 0.2340785,-0.0206 0.3515875,-0.0177 0.091,-0.002 0.182153,-0.002 0.272981,-0.008 0.108317,-0.0117 0.214575,-0.0345 0.320559,-0.0594 0.114499,-0.023 0.229287,-0.0446 0.343744,-0.0679 0.09507,-0.0192 0.190742,-0.0361 0.284947,-0.0592 0.08174,-0.025 0.1603,-0.0582 0.238212,-0.0933 0.10902,-0.0457 0.219977,-0.0857 0.334743,-0.11465 z" />
  </g>
</svg>
