<?xml version="1.0" encoding="UTF-8" standalone="no"?>
<!-- Created with Inkscape (http://www.inkscape.org/) -->

<svg
   width="64"
   height="64"
   viewBox="0 0 16.933333 16.933334"
   version="1.1"
   id="svg8"
   inkscape:version="1.3.2 (091e20ef0f, 2023-11-25, custom)"
   sodipodi:docname="add-absorber.svg"
   inkscape:export-filename="C:\Users\Ali\Documents\inkscape\freecad\pyrate\pyrate_logo_3_256x256.png"
   inkscape:export-xdpi="1536"
   inkscape:export-ydpi="1536"
   xmlns:inkscape="http://www.inkscape.org/namespaces/inkscape"
   xmlns:sodipodi="http://sodipodi.sourceforge.net/DTD/sodipodi-0.dtd"
   xmlns:xlink="http://www.w3.org/1999/xlink"
   xmlns="http://www.w3.org/2000/svg"
   xmlns:svg="http://www.w3.org/2000/svg"
   xmlns:rdf="http://www.w3.org/1999/02/22-rdf-syntax-ns#"
   xmlns:cc="http://creativecommons.org/ns#"
   xmlns:dc="http://purl.org/dc/elements/1.1/">
  <defs
     id="defs2">
    <linearGradient
       id="linearGradient1245"
       inkscape:collect="always">
      <stop
         id="stop1241"
         offset="0"
         style="stop-color:#aaccff;stop-opacity:1" />
      <stop
         id="stop1243"
         offset="1"
         style="stop-color:#d5f6ff;stop-opacity:1" />
    </linearGradient>
    <linearGradient
       id="linearGradient1167"
       inkscape:collect="always">
      <stop
         id="stop1161"
         offset="0"
         style="stop-color:#00112b;stop-opacity:1" />
      <stop
         id="stop1163"
         offset="1"
         style="stop-color:#2a7fff;stop-opacity:1" />
    </linearGradient>
    <linearGradient
       inkscape:collect="always"
       id="linearGradient1166">
      <stop
         style="stop-color:#41dcff;stop-opacity:1"
         offset="0"
         id="stop1162" />
      <stop
         style="stop-color:#40e0ff;stop-opacity:1"
         offset="1"
         id="stop1164" />
    </linearGradient>
    <linearGradient
       inkscape:collect="always"
       id="linearGradient1058">
      <stop
         style="stop-color:#5175ff;stop-opacity:1"
         offset="0"
         id="stop1054" />
      <stop
         style="stop-color:#40e0ff;stop-opacity:1"
         offset="1"
         id="stop1056" />
    </linearGradient>
    <linearGradient
       id="linearGradient1045"
       inkscape:collect="always">
      <stop
         id="stop1041"
         offset="0"
         style="stop-color:#293449;stop-opacity:1" />
      <stop
         id="stop1043"
         offset="1"
         style="stop-color:#485c80;stop-opacity:1" />
    </linearGradient>
    <linearGradient
       inkscape:collect="always"
       id="linearGradient2480">
      <stop
         style="stop-color:#cc0a08;stop-opacity:1"
         offset="0"
         id="stop2476" />
      <stop
         style="stop-color:#f67d89;stop-opacity:1"
         offset="1"
         id="stop2478" />
    </linearGradient>
    <linearGradient
       id="linearGradient942-5"
       inkscape:collect="always">
      <stop
         id="stop938"
         offset="0"
         style="stop-color:#002076;stop-opacity:1" />
      <stop
         id="stop940"
         offset="1"
         style="stop-color:#40e0ff;stop-opacity:1" />
    </linearGradient>
    <linearGradient
       gradientUnits="userSpaceOnUse"
       y2="31.377413"
       x2="86.543877"
       y1="282.62048"
       x1="20.010984"
       id="linearGradient944"
       xlink:href="#linearGradient942-5"
       inkscape:collect="always" />
    <linearGradient
       gradientUnits="userSpaceOnUse"
       y2="112.66277"
       x2="98.204803"
       y1="257.94366"
       x1="13.302045"
       id="linearGradient952"
       xlink:href="#linearGradient2480"
       inkscape:collect="always" />
    <linearGradient
       gradientTransform="translate(0,1.5875)"
       gradientUnits="userSpaceOnUse"
       y2="133.50244"
       x2="146.68025"
       y1="272.83194"
       x1="101.05925"
       id="linearGradient960"
       xlink:href="#linearGradient2480"
       inkscape:collect="always" />
    <filter
       id="filter1495"
       inkscape:label="Drop Shadow"
       style="color-interpolation-filters:sRGB">
      <feFlood
         id="feFlood1485"
         result="flood"
         flood-color="rgb(0,0,0)"
         flood-opacity="0.498039" />
      <feComposite
         id="feComposite1487"
         result="composite1"
         operator="in"
         in2="SourceGraphic"
         in="flood" />
      <feGaussianBlur
         id="feGaussianBlur1489"
         result="blur"
         stdDeviation="4"
         in="composite1" />
      <feOffset
         id="feOffset1491"
         result="offset"
         dy="4"
         dx="2" />
      <feComposite
         id="feComposite1493"
         result="composite2"
         operator="over"
         in2="offset"
         in="SourceGraphic" />
    </filter>
    <filter
       id="filter2066"
       inkscape:label="Drop Shadow"
       style="color-interpolation-filters:sRGB">
      <feFlood
         id="feFlood2056"
         result="flood"
         flood-color="rgb(0,0,0)"
         flood-opacity="0.498039" />
      <feComposite
         id="feComposite2058"
         result="composite1"
         operator="in"
         in2="SourceGraphic"
         in="flood" />
      <feGaussianBlur
         id="feGaussianBlur2060"
         result="blur"
         stdDeviation="20"
         in="composite1" />
      <feOffset
         id="feOffset2062"
         result="offset"
         dy="20"
         dx="6" />
      <feComposite
         id="feComposite2064"
         result="composite2"
         operator="over"
         in2="offset"
         in="SourceGraphic" />
    </filter>
    <filter
       id="filter2474"
       inkscape:label="Drop Shadow"
       style="color-interpolation-filters:sRGB">
      <feFlood
         id="feFlood2464"
         result="flood"
         flood-color="rgb(0,0,0)"
         flood-opacity="0.498039" />
      <feComposite
         id="feComposite2466"
         result="composite1"
         operator="in"
         in2="SourceGraphic"
         in="flood" />
      <feGaussianBlur
         id="feGaussianBlur2468"
         result="blur"
         stdDeviation="4"
         in="composite1" />
      <feOffset
         id="feOffset2470"
         result="offset"
         dy="4.8"
         dx="1.5" />
      <feComposite
         id="feComposite2472"
         result="composite2"
         operator="over"
         in2="offset"
         in="SourceGraphic" />
    </filter>
    <linearGradient
       gradientTransform="translate(0,290.28571)"
       gradientUnits="userSpaceOnUse"
       y2="398.20157"
       x2="-973.7356"
       y1="746.96252"
       x1="-1123.2253"
       id="linearGradient1033"
       xlink:href="#linearGradient1058"
       inkscape:collect="always" />
    <linearGradient
       gradientTransform="translate(0,213.65424)"
       gradientUnits="userSpaceOnUse"
       y2="851.35718"
       x2="-987.59387"
       y1="1234.0872"
       x1="-1127.1049"
       id="linearGradient1047"
       xlink:href="#linearGradient1045"
       inkscape:collect="always" />
    <linearGradient
       gradientTransform="translate(-19.199562,-44.652005)"
       gradientUnits="userSpaceOnUse"
       y2="1157.111"
       x2="-544.48077"
       y1="1495.4609"
       x1="-689.72717"
       id="linearGradient1134"
       xlink:href="#linearGradient1045"
       inkscape:collect="always" />
    <linearGradient
       y2="851.35718"
       x2="-987.59387"
       y1="1234.0872"
       x1="-1127.1049"
       gradientTransform="translate(0,213.65424)"
       gradientUnits="userSpaceOnUse"
       id="linearGradient1160"
       xlink:href="#linearGradient1166"
       inkscape:collect="always" />
    <linearGradient
       id="linearGradient3682-0">
      <stop
         style="stop-color:#a40000;stop-opacity:1"
         offset="0"
         id="stop3684-0" />
      <stop
         style="stop-color:#ef2929;stop-opacity:1"
         offset="1"
         id="stop3686-0" />
    </linearGradient>
    <linearGradient
       id="linearGradient3864-9">
      <stop
         id="stop3866-1"
         offset="0"
         style="stop-color:#204a87;stop-opacity:1" />
      <stop
         id="stop3868-1"
         offset="1"
         style="stop-color:#729fcf;stop-opacity:1" />
    </linearGradient>
    <linearGradient
       id="linearGradient3682-0-3">
      <stop
         style="stop-color:#ff390f;stop-opacity:1"
         offset="0"
         id="stop3684-0-7" />
      <stop
         style="stop-color:#ff1000;stop-opacity:1;"
         offset="1"
         id="stop3686-0-5" />
    </linearGradient>
    <linearGradient
       id="linearGradient3864-9-7">
      <stop
         id="stop3866-1-7"
         offset="0"
         style="stop-color:#316cab;stop-opacity:1" />
      <stop
         id="stop3868-1-4"
         offset="1"
         style="stop-color:#002ca8;stop-opacity:1" />
    </linearGradient>
    <linearGradient
       id="linearGradient3682">
      <stop
         id="stop3684"
         offset="0"
         style="stop-color:#ff6d0f;stop-opacity:1;" />
      <stop
         id="stop3686"
         offset="1"
         style="stop-color:#ff1000;stop-opacity:1;" />
    </linearGradient>
    <linearGradient
       id="linearGradient3864">
      <stop
         style="stop-color:#71b2f8;stop-opacity:1;"
         offset="0"
         id="stop3866" />
      <stop
         style="stop-color:#002795;stop-opacity:1;"
         offset="1"
         id="stop3868" />
    </linearGradient>
    <linearGradient
       gradientTransform="matrix(0.79118995,0,0,0.96421064,-462.08318,3.6442021)"
       gradientUnits="userSpaceOnUse"
       y2="-97.402824"
       x2="-2013.709"
       y1="301.0498"
       x1="-2412.1616"
       id="linearGradient1169"
       xlink:href="#linearGradient1167"
       inkscape:collect="always" />
    <linearGradient
       gradientUnits="userSpaceOnUse"
       y2="-9.260396"
       x2="-2055.4119"
       y1="284.23495"
       x1="-2302.6389"
       id="linearGradient1239"
       xlink:href="#linearGradient1245"
       inkscape:collect="always" />
    <linearGradient
       gradientUnits="userSpaceOnUse"
       y2="1276.7333"
       x2="4327.0557"
       y1="2126.7334"
       x1="3477.0554"
       id="linearGradient3835"
       xlink:href="#linearGradient1045"
       inkscape:collect="always" />
    <mask
       id="mask5747"
       maskUnits="userSpaceOnUse">
      <path
         inkscape:connector-curvature="0"
         id="path5749"
         d="m -1081.0913,3822.7064 -30.9051,-17.7313 -13.6473,4.7355 -13.0203,33.2785 -20.4811,-1.0774 -9.3432,-34.4101 -13.0752,-6.2608 -32.6113,14.2658 -13.7762,-15.3072 17.7314,-30.9049 -4.8453,-13.606 -33.2766,-13.0222 1.1905,-20.5206 34.4107,-9.3432 6.2607,-13.0752 -14.3755,-32.5713 15.3071,-13.7747 30.9051,17.7313 13.7154,-4.8866 12.9107,-33.2346 20.6323,1.1528 9.2335,34.4501 13.0752,6.2606 32.681,-14.4151 13.7747,15.3067 -17.7319,30.9052 4.7754,13.7554 33.2372,12.9128 -1.0398,20.5901 -34.4501,9.2334 -6.2622,13.0752 14.3073,32.721 z m -46.2858,-50.6793 6.3443,-3.6809 5.4951,-4.9832 4.4016,-5.9473 3.1652,-6.6122 1.8707,-7.1279 0.3036,-7.3064 -1.0584,-7.3012 -2.4077,-6.9339 -3.8305,-6.4135 -4.8341,-5.4277 -5.9468,-4.3992 -6.6122,-3.1652 -7.1283,-1.8709 -7.3452,-0.4154 -7.3041,1.0583 -6.9313,2.4077 -6.414,3.8307 -5.3875,4.9432 -4.441,5.8375 -3.1652,6.6122 -1.8143,7.2377 -0.4155,7.3456 1.0579,7.302 2.4078,6.9334 3.7905,6.3042 4.8741,5.5367 5.9468,4.3995 6.6122,3.1652 7.238,1.8142 7.3058,0.3038 7.302,-1.0584 6.9333,-2.4079 z"
         style="display:inline;overflow:visible;visibility:visible;fill:#ffffff;fill-opacity:1;fill-rule:evenodd;stroke:none;stroke-width:9.9998951;stroke-linecap:round;stroke-linejoin:round;stroke-miterlimit:4;stroke-dasharray:none;stroke-dashoffset:0;stroke-opacity:1;marker:none;enable-background:accumulate" />
    </mask>
    <mask
       id="mask2314"
       maskUnits="userSpaceOnUse">
      <path
         inkscape:connector-curvature="0"
         sodipodi:nodetypes="ccccccccccc"
         id="path2316"
         d="m -1868.9759,3355.7772 h -288.3976 v 59.668 h 119.3385 v 59.6685 h 59.668 v -59.6685 h 49.7232 v 99.4479 h 59.6679 z"
         style="display:inline;overflow:visible;visibility:visible;fill:#ffffff;fill-opacity:1;fill-rule:evenodd;stroke:none;stroke-width:9.99989414;stroke-linecap:butt;stroke-linejoin:miter;stroke-miterlimit:4;stroke-dasharray:none;stroke-dashoffset:0;stroke-opacity:1;marker:none;enable-background:accumulate" />
    </mask>
  </defs>
  <sodipodi:namedview
     id="base"
     pagecolor="#ffffff"
     bordercolor="#666666"
     borderopacity="1.0"
     inkscape:pageopacity="0.0"
     inkscape:pageshadow="2"
     inkscape:zoom="15.839192"
     inkscape:cx="27.179417"
     inkscape:cy="27.242552"
     inkscape:document-units="px"
     inkscape:current-layer="layer1"
     showgrid="false"
     inkscape:window-width="3836"
     inkscape:window-height="2093"
     inkscape:window-x="0"
     inkscape:window-y="32"
     inkscape:window-maximized="1"
     units="px"
     inkscape:showpageshadow="2"
     inkscape:pagecheckerboard="0"
     inkscape:deskcolor="#d1d1d1" />
  <metadata
     id="metadata5">
    <rdf:RDF>
      <cc:Work
         rdf:about="">
        <dc:format>image/svg+xml</dc:format>
        <dc:type
           rdf:resource="http://purl.org/dc/dcmitype/StillImage" />
      </cc:Work>
    </rdf:RDF>
  </metadata>
  <g
     inkscape:label="Layer 1"
     inkscape:groupmode="layer"
     id="layer1"
     transform="translate(0,-280.06666)">
    <path
       style="fill:#000000;stroke-width:0.264583"
       id="path9"
       d="m 14.238965,295.99524 c 0.0021,-0.0313 0.0063,-0.0626 0.0062,-0.0939 -7.67e-4,-0.21916 -0.02751,-0.43932 -0.04453,-0.65747 -0.02277,-0.29196 -0.02383,-0.32677 -0.04297,-0.62826 -0.04647,-0.89253 0.01932,-1.78477 0.06193,-2.67597 0.04608,-0.81232 0.05523,-1.62575 0.05507,-2.43915 -0.01605,-0.59662 0.0338,-1.19331 0.01969,-1.78981 -0.0027,-0.11456 -0.01009,-0.22897 -0.01514,-0.34345 -0.02469,-0.44385 -0.05582,-0.88795 -0.04828,-1.33283 0.0039,-0.22836 0.01553,-0.35089 0.03157,-0.57636 0.02457,-0.34356 0.08929,-0.68235 0.129204,-1.02402 0.0036,-0.0307 0.04929,-0.50611 0.05222,-0.5364 0.04921,-0.48867 0.06982,-0.97993 0.0608,-1.47091 -0.01634,-0.31655 -0.06393,-0.62992 -0.10824,-0.94338 -0.03883,-0.16959 -0.05745,-0.34387 -0.107476,-0.51081 -0.126104,-0.23402 -0.47969,-0.28277 -0.721158,-0.3316 -0.401077,-0.06 -0.806337,-0.10307 -1.211961,-0.11548 -0.09891,-0.003 -0.197898,-10e-4 -0.296847,-0.002 -0.0993,0.003 -0.198645,0.006 -0.297897,0.0104 -0.100652,0.005 -0.201182,0.0118 -0.301773,0.0176 -0.104055,0.005 -0.208084,0.0108 -0.312163,0.0154 -0.274924,0.0121 -0.549983,0.0207 -0.824911,0.0328 -0.426848,0.0168 -0.852594,0.0511 -1.2787703,0.0789 -0.3315592,0.0253 -0.6641794,0.0128 -0.9960084,0.0295 -0.2454394,0.0275 -0.4925933,0.044 -0.7371697,0.0785 -0.101805,0.0162 -0.2018887,0.041 -0.3015866,0.0669 -0.064694,0.0167 -0.1211001,0.031 -0.1790245,0.0641 -0.01084,0.0154 -0.027138,0.0281 -0.032522,0.0462 -0.032299,0.10823 0.01806,0.28118 0.037488,0.38526 0.057504,0.30807 0.023752,0.11959 0.085252,0.47839 0.1067507,0.80026 0.188826,1.60358 0.2871357,2.4049 0.1109713,0.79236 0.1671624,1.59056 0.2289424,2.3878 0.059688,0.63629 0.046932,1.27555 0.051543,1.91369 0.00585,0.54783 -0.017518,1.09506 -0.054246,1.64149 -0.042056,0.55164 -0.086156,1.10318 -0.1363297,1.65415 -0.036905,0.4813 -0.095022,0.96022 -0.1565958,1.43884 -0.054798,0.4421 -0.111203,0.884 -0.1628095,1.32649 -0.016775,0.16031 -0.034371,0.32055 -0.050378,0.48095 -0.011192,0.11213 -0.032392,0.19008 0.020063,0.299 0.029952,0.0622 0.080491,0.11217 0.1207365,0.16825 0,0 0.017735,0.009 0.017735,0.009 v 0 c 0.046533,-0.0109 0.1003983,-0.005 0.1396,-0.0326 0.070512,-0.0491 0.066177,-0.18556 0.072646,-0.25029 0.016118,-0.16125 0.030414,-0.32269 0.043497,-0.48423 0.043658,-0.4449 0.088056,-0.88993 0.1484297,-1.33293 0.064693,-0.47973 0.1136327,-0.96116 0.1508884,-1.44382 0.045164,-0.55462 0.082983,-1.10966 0.1170517,-1.66507 0.033898,-0.55209 0.076404,-1.09911 0.038056,-1.65294 -0.013684,-0.64329 -0.015462,-1.28774 -0.07659,-1.92888 -0.072918,-0.80255 -0.1402945,-1.60601 -0.2578457,-2.40359 -0.011917,-0.0896 -0.1083535,-0.8098 -0.1184178,-0.90354 -0.052737,-0.49116 -0.059657,-0.98637 -0.1187185,-1.47703 -0.033924,-0.33259 -0.013815,-0.17732 -0.057269,-0.46586 -0.012174,-0.0808 -0.0541,-0.26369 -0.032328,-0.34915 0.00329,-0.0129 0.014854,-0.0221 0.02228,-0.0332 0.1311365,-0.0853 0.2956288,-0.10405 0.4455594,-0.13503 0.2446968,-0.0199 0.4868212,-0.0611 0.7315994,-0.0802 0.3236323,-0.021 0.6483972,-0.0152 0.9714149,-0.0477 0.4194836,-0.0332 0.8389014,-0.0672 1.2589574,-0.0925 0.571207,-0.0402 1.143538,-0.066 1.715625,-0.0892 0.09869,10e-4 0.197441,-2.3e-4 0.296077,0.003 0.413311,0.0147 0.826149,0.0686 1.233526,0.13717 0.05281,0.0121 0.193463,0.0435 0.25342,0.0595 0.02808,0.008 0.105889,0.0436 0.08354,0.0251 -0.06419,-0.0534 -0.141823,-0.0881 -0.212611,-0.13238 -0.01351,-0.008 0.02917,0.014 0.04079,0.0249 0.0098,0.009 0.01459,0.0226 0.02189,0.0339 0.06313,0.16 0.0845,0.33478 0.107121,0.50407 0.05125,0.31498 0.110133,0.62968 0.127752,0.94891 0.0097,0.20893 0.01421,0.24139 0.01138,0.45512 -0.0045,0.33979 -0.03774,0.67847 -0.06065,1.01729 -0.05278,0.52119 -0.136624,1.03869 -0.183653,1.56047 -0.0051,0.0941 -0.01198,0.1881 -0.01517,0.28227 -0.01845,0.54462 0.01546,1.0892 0.03794,1.63312 0.01438,0.71098 -0.0098,1.42179 -0.0033,2.13287 -9.79e-4,0.81437 -0.02127,1.62835 -0.04625,2.44233 -0.0331,0.8921 -0.06579,1.78481 -0.06446,2.67757 0.01959,0.54466 0.002,0.1098 0.02772,0.62107 0.01062,0.21073 0.02496,0.42291 0.0094,0.63382 -0.0021,0.0292 -0.0075,0.058 -0.0112,0.0871 z" />
    <path
       style="fill:#000000;stroke-width:0.264583"
       id="path10"
       d="m 1.0717525,293.71107 c 0.3460627,-0.0582 0.6971302,-0.07 1.0471546,-0.0805 0.4170399,-0.006 0.8339776,0.0105 1.251079,0.006 0.4503103,-0.0184 0.9009232,-0.0303 1.35118,-0.0499 0.3698113,-0.0303 0.7385521,-0.0714 1.1087447,-0.0972 0.2867266,-0.0214 0.5738516,-0.0341 0.8613378,-0.0366 0.1311675,-9.5e-4 0.2623236,0.002 0.3934431,0.005 0.017209,4.2e-4 0.1569982,0.007 0.1704687,-0.002 0.011787,-0.008 -7.673e-4,-0.0287 -0.00114,-0.0431 -0.023405,-0.0282 -0.046812,-0.0565 -0.070218,-0.0847 0,0 -0.016224,-0.0117 -0.016224,-0.0117 v 0 c -0.05237,-0.0272 -0.1047401,-0.0543 -0.1571101,-0.0815 -0.040418,-0.0154 -0.079403,-0.0353 -0.1212535,-0.0462 -0.040873,-0.0107 -0.1488485,-0.01 -0.1880233,-0.0102 -0.1299654,-0.002 -0.2599224,-10e-4 -0.3898963,-10e-4 -0.2869682,0.004 -0.5740953,0.0121 -0.8597609,0.042 -0.3630796,0.0365 -0.7253389,0.0814 -1.0892164,0.10916 -0.4489119,0.0234 -0.8983133,0.0347 -1.3475359,0.0504 -0.4088682,0.002 -0.8179602,-0.0161 -1.2263342,0.0129 -0.3583039,0.0138 -0.7163391,0.0312 -1.07338414,0.0653 z" />
    <path
       style="fill:#000000;stroke-width:0.264583"
       id="path11"
       d="m 6.2892905,292.63987 c 0.1319609,0.14186 0.2260512,0.31157 0.3090661,0.48519 0.015296,0.0401 0.034752,0.0754 0.031181,0.11987 -0.00845,0.10538 -0.2129208,0.23786 -0.2862458,0.29522 -0.1486607,0.1552 -0.1154856,0.0602 -0.066717,0.29449 0,0 0.016865,0.0108 0.016865,0.0108 v 0 c 0.3376319,0.0209 0.1954284,0.0583 0.4369949,-0.0599 0.09831,-0.0683 0.3148986,-0.1933 0.3285304,-0.32821 0.00464,-0.0459 -0.018135,-0.0963 -0.032372,-0.13754 -0.084524,-0.17725 -0.1783006,-0.35579 -0.3114469,-0.50156 z" />
    <path
       style="fill:#000000;stroke-width:0.264583"
       id="path12"
       d="m 1.4807495,288.80113 c 0.098658,0.008 0.2256832,0.0191 0.3200182,0.0213 0.4670482,0.0106 0.9357638,-0.0145 1.4024486,-0.0288 0.590881,-0.017 1.1818009,-0.033 1.7722615,-0.0615 0.3597958,-0.0102 0.7131069,-0.0779 1.0647053,-0.14909 0.3050892,-0.0653 0.6132381,-0.11562 0.9252871,-0.12643 0.1621404,-5.6e-4 0.324612,9.3e-4 0.4864812,0.0112 0.018156,-0.002 0.1655485,0.0188 0.138662,-0.039 -0.016539,-0.0356 -0.050095,-0.0604 -0.075143,-0.0906 0,0 -0.0162,-0.0117 -0.0162,-0.0117 v 0 c -0.1566143,-0.0807 -0.2431061,-0.13491 -0.4182123,-0.13175 -0.1645854,-0.011 -0.3294537,-0.0203 -0.4944224,-0.0102 -0.3072178,0.0223 -0.6095953,0.0795 -0.9102874,0.1452 -0.3476747,0.0705 -0.6971268,0.13453 -1.052426,0.15015 -0.5769576,0.039 -1.1546533,0.0647 -1.7323996,0.0889 -0.58951,0.0194 -1.1851681,0.048 -1.7709767,-0.0375 z" />
    <path
       style="fill:#000000;stroke-width:0.264583"
       id="path13"
       d="m 7.0360674,288.00743 c 0.023656,0.009 0.047544,0.0177 0.07097,0.0274 0.027374,0.0114 0.054488,0.0234 0.081393,0.0358 0.027686,0.0128 0.1085048,0.0556 0.082354,0.0399 -0.6987558,-0.41934 -0.2945286,-0.1829 -0.2335331,-0.11791 0.015843,0.0169 0.025958,0.0383 0.038936,0.0575 0.00332,0.0244 0.012753,0.0488 0.00997,0.0733 -0.014264,0.12554 -0.1033584,0.22819 -0.1574435,0.33665 -0.019188,0.0385 -0.05431,0.0766 -0.049178,0.11926 0.00783,0.0652 0.056585,0.11847 0.084877,0.17771 0,0 0.01723,0.0102 0.01723,0.0102 v 0 c 0.070759,-0.001 0.1448168,0.018 0.2122776,-0.003 0.042508,-0.0135 0.066874,-0.0596 0.095122,-0.0941 0.065673,-0.0802 0.16554,-0.24852 0.1859076,-0.35165 0.00589,-0.0298 -0.00101,-0.0608 -0.00151,-0.0912 -0.011949,-0.0239 -0.019807,-0.0503 -0.035845,-0.0717 -0.016774,-0.0223 -0.03737,-0.0426 -0.061071,-0.0574 -0.2255145,-0.14077 -0.4474403,-0.27698 -0.6962876,-0.36744 z" />
    <path
       style="fill:#000000;stroke-width:0.264583"
       id="path14"
       d="m 1.0391096,283.8556 c 0.316959,0.0142 0.6326028,0.0431 0.9498679,0.0532 0.6463352,-0.009 1.2919414,-0.0377 1.9384251,-0.0393 0.4065093,-0.004 0.8118978,0.0277 1.2183372,0.0159 0.2821213,-0.0192 0.5635808,-0.0463 0.8456092,-0.0669 0.2451819,-0.0227 0.4905052,-0.0323 0.7364016,-0.0198 0.1499375,0.008 0.2985442,0.0278 0.4463539,0.0534 0.025837,0.004 0.07011,0.0116 0.096513,0.015 0.01238,0.002 0.043515,0.0147 0.037242,0.004 -0.01047,-0.018 -0.1206307,-0.11165 -0.1431002,-0.13113 0,0 -0.015891,-0.0121 -0.015891,-0.0121 v 0 c -0.057067,-0.0384 -0.1774989,-0.121 -0.2301899,-0.14838 -0.039195,-0.0204 -0.094723,-0.006 -0.1356087,-0.0208 -0.1459918,-0.0209 -0.2927842,-0.0367 -0.4402897,-0.0414 -0.2458839,-0.004 -0.491634,0.0113 -0.7370027,0.0256 -0.2808674,0.0208 -0.5608344,0.0528 -0.8421251,0.0667 -0.4004313,0.0102 -0.8008369,-0.005 -1.2013317,-0.005 -0.6492328,0.0108 -1.2984497,0.0492 -1.9478068,0.0295 -0.3240607,-0.0175 -0.6467448,-0.0513 -0.97077721,-0.0672 z" />
    <path
       style="fill:#000000;stroke-width:0.264583"
       id="path15"
       d="m 6.4403744,283.00073 c 0.088304,0.0653 0.1725451,0.13763 0.2473249,0.2183 0.014769,0.0159 0.032246,0.0304 0.042128,0.0497 0.00936,0.0183 0.00932,0.0401 0.013988,0.0601 -0.013187,0.11969 -0.08518,0.22468 -0.1453745,0.32578 -0.029812,0.0501 -0.089157,0.0903 -0.092278,0.14849 -0.025281,0.47147 0.1808113,0.0575 -0.00551,0.3672 0,0 0.017224,0.0102 0.017224,0.0102 v 0 c 0.246762,-0.29611 -0.1167604,0.0885 0.3611105,-0.15935 0.05235,-0.0272 0.06762,-0.0967 0.1001038,-0.14587 0.071803,-0.10878 0.1481783,-0.21787 0.1615265,-0.35121 -0.00212,-0.0278 0.0032,-0.0571 -0.00632,-0.0833 -0.00794,-0.0218 -0.028352,-0.0369 -0.043718,-0.0543 -0.071219,-0.0808 -0.1523987,-0.15286 -0.2349841,-0.22168 z" />
    <path
       style="fill:#000000;stroke-width:0.264583"
       id="path16"
       d="m 6.8604118,294.99664 c 0.00217,0.26495 0.029005,0.52857 0.05135,0.79233 0.010679,0.0903 0.00956,0.19606 0.063987,0.27499 0.015809,0.0229 0.034779,0.0451 0.058519,0.0596 0.4109096,0.25197 0.3064569,0.212 0.5720782,0.28923 0.3220971,0.0813 0.6498492,0.13475 0.9798791,0.17011 0.2135386,0.0202 0.4280524,0.0194 0.6412333,-0.003 0.1779403,-0.0268 0.3548793,-0.0611 0.530674,-0.0996 0.031048,-0.0178 0.1360927,-0.0149 0.1639951,-0.0376 0.00664,-0.005 0.010792,-0.0189 0.00497,-0.0251 -0.040033,-0.043 -0.08964,-0.0759 -0.1344607,-0.11381 0,0 -0.01647,-0.0114 -0.01647,-0.0114 v 0 c -0.2243773,-0.12845 -0.1812245,-0.13131 -0.395277,-0.0737 -0.1734714,0.0403 -0.3483977,0.0763 -0.5255067,0.0962 -0.2076921,0.0183 -0.4167946,0.0222 -0.6247048,0.004 -0.3227472,-0.0321 -0.6453841,-0.0788 -0.9585597,-0.1651 -0.038706,-0.0134 -0.1478095,-0.0662 -0.1161175,-0.0403 0.083427,0.0683 0.1823538,0.11524 0.2750045,0.17044 0.023535,0.014 -0.048209,-0.0274 -0.067533,-0.0468 -0.07017,-0.0705 -0.071055,-0.17609 -0.086655,-0.26711 -0.033934,-0.26121 -0.055706,-0.52426 -0.051025,-0.78791 z" />
    <path
       style="fill:#000000;stroke-width:0.264583"
       id="path17"
       d="m 11.054285,296.38719 c 0.229977,0.025 0.458161,0.0588 0.685366,0.10222 0.288129,0.0626 0.578259,0.11429 0.869672,0.15889 0.214892,0.0335 0.432244,0.0363 0.64915,0.0353 0.117187,-0.003 0.234166,0.004 0.351168,0.009 0.120013,0.002 0.239914,-0.004 0.359911,-0.001 0.08861,0.011 0.171023,-9e-5 0.255539,-0.026 0.124816,-0.0429 0.157206,-0.0512 0.198117,-0.18445 0.01507,-0.13897 0.01362,-0.2768 -0.02477,-0.41302 -0.02326,-0.0825 -0.0594,-0.16085 -0.08921,-0.24123 -0.03063,-0.0826 -0.06141,-0.16513 -0.09211,-0.24769 0,0 -0.01792,-0.009 -0.01792,-0.009 v 0 c -0.0153,0.0596 -0.02871,0.1197 -0.04589,0.17877 -0.01644,0.0565 -0.04254,0.11031 -0.05494,0.16786 -0.02631,0.12215 -0.0087,0.24742 -0.02987,0.36989 -0.0053,0.017 -0.0083,0.0349 -0.0158,0.051 -0.02896,0.0622 -0.114358,0.0704 -0.170544,0.0931 -0.08265,0.0225 -0.164751,0.0209 -0.249831,0.0152 -0.118858,5e-4 -0.23774,0.008 -0.356566,0.002 -0.11722,-0.007 -0.234369,-0.0154 -0.351815,-0.007 -0.212772,0.005 -0.42612,2.7e-4 -0.636607,-0.0346 -0.287608,-0.0452 -0.574565,-0.0934 -0.859698,-0.15262 -0.22073,-0.0375 -0.44349,-0.0736 -0.667384,-0.0828 z" />
    <path
       style="fill:#000000;stroke-width:0.264583"
       id="path18"
       d="m 11.768318,281.23236 c 0.159353,0.39115 0.349637,0.76891 0.550217,1.1403 0.135616,0.23103 0.265694,0.471 0.437595,0.67823 0.03958,0.0477 0.08266,0.0924 0.123993,0.13865 0.209935,0.22872 0.429636,0.44776 0.653101,0.66312 0.08083,0.077 0.04263,0.0409 0.114512,0.10858 0,0 0.915429,0.3762 0.915429,0.3762 v 0 c -0.0743,-0.0706 -0.0344,-0.0338 -0.120135,-0.10993 -0.225327,-0.21686 -0.455679,-0.42856 -0.66493,-0.66156 -0.0403,-0.0426 -0.08226,-0.0838 -0.120895,-0.1279 -0.177866,-0.20322 -0.314647,-0.44047 -0.454699,-0.66977 -0.203596,-0.36119 -0.393042,-0.73238 -0.539672,-1.12071 z" />
    <path
       style="fill:#000000;stroke-width:0.264583"
       id="path19"
       d="m 9.0181959,280.91064 c 0.3233655,0.50743 0.6179574,1.03256 0.9222169,1.55155 0.3341352,0.5734 0.6657702,1.1483 0.9899742,1.72739 0.182194,0.31954 0.348127,0.64811 0.533505,0.96586 0.143162,0.24539 0.159465,0.26443 0.315582,0.50589 0.290154,0.43157 0.613484,0.83906 0.951735,1.23357 0.19758,0.2271 0.401914,0.44813 0.607236,0.66821 0.01507,0.0161 0.03013,0.0321 0.0452,0.0482 0,0 0.913716,0.3815 0.913716,0.3815 v 0 c -0.01591,-0.0167 -0.03182,-0.0335 -0.04774,-0.0502 -0.215106,-0.2168 -0.422458,-0.44148 -0.62474,-0.67023 -0.345358,-0.39103 -0.675361,-0.79577 -0.969998,-1.22683 -0.164346,-0.25086 -0.164349,-0.24426 -0.314613,-0.49926 -0.187091,-0.31749 -0.351568,-0.64738 -0.536044,-0.96635 -0.327014,-0.58103 -0.663752,-1.15649 -0.998761,-1.73293 -0.2958,-0.51183 -0.591967,-1.02343 -0.8839848,-1.53741 z" />
    <path
       style="fill:#000000;stroke-width:0.264583"
       id="path20"
       d="m 7.5501433,283.28544 c 0.4040434,0.54347 0.8500581,1.05359 1.2980401,1.5608 0.5787498,0.64755 1.1972066,1.25826 1.8177916,1.86535 0.552047,0.53464 1.062177,1.10962 1.564876,1.69015 0.162036,0.18323 0.302671,0.3836 0.441465,0.58456 0.04822,0.0708 0.09203,0.1437 0.120522,0.22459 0,0 0.897404,0.42666 0.897404,0.42666 v 0 c -0.02082,-0.0934 -0.05693,-0.17748 -0.112328,-0.25622 -0.14148,-0.20946 -0.290198,-0.41561 -0.458125,-0.60472 -0.516056,-0.57746 -1.034317,-1.1532 -1.578945,-1.70412 -0.626643,-0.60443 -1.250311,-1.21347 -1.8307286,-1.86299 -0.4377917,-0.49506 -0.8733443,-0.99415 -1.2571172,-1.53307 z" />
    <path
       style="fill:#000000;stroke-width:0.264583"
       id="path21"
       d="m 8.2282635,286.94278 c 0.4199412,0.59241 0.8586426,1.17092 1.3112007,1.73872 0.2673604,0.33301 0.5413968,0.66084 0.8334278,0.97257 0.09378,0.10005 0.18839,0.19925 0.284308,0.29725 0,0 0.912055,0.37923 0.912055,0.37923 v 0 c -0.0967,-0.0999 -0.197724,-0.19545 -0.290615,-0.29907 -0.305806,-0.31171 -0.593863,-0.64036 -0.869621,-0.97888 -0.4500007,-0.55158 -0.8864408,-1.11512 -1.2750452,-1.7122 z" />
    <path
       style="fill:#000000;stroke-width:0.264583"
       id="path22"
       d="m 7.3934309,290.01235 c 0.2265764,0.15161 0.4528254,0.30381 0.6767245,0.45936 0.081512,0.0583 0.1657191,0.11561 0.2335908,0.19007 0.00676,0.008 0.013515,0.0168 0.020272,0.0252 0,0 0.9142863,0.39307 0.9142863,0.39307 v 0 c -0.0066,-0.009 -0.013203,-0.0182 -0.019804,-0.0272 -0.062789,-0.0896 -0.139373,-0.15963 -0.2313048,-0.22015 -0.2226607,-0.15554 -0.4511374,-0.30259 -0.6722502,-0.46039 z" />
    <path
       style="fill:#000000;stroke-width:0.264583"
       id="path23"
       d="m 11.47565,294.40745 c 0.189815,0.25096 0.389387,0.49445 0.593933,0.7335 0.141708,0.17157 0.295334,0.33265 0.440822,0.50091 0.08108,0.0974 0.169938,0.18796 0.258325,0.27868 0.03285,0.0343 0.06366,0.0706 0.100378,0.1008 0,0 0.916862,0.38646 0.916862,0.38646 v 0 c -0.02704,-0.0409 -0.06646,-0.0691 -0.101207,-0.10407 -0.08487,-0.0949 -0.180617,-0.1797 -0.264254,-0.27588 -0.144227,-0.17483 -0.307711,-0.33224 -0.452122,-0.50695 -0.203682,-0.23307 -0.402793,-0.47106 -0.584505,-0.72169 z" />
    <path
       style="fill:#000000;stroke-width:0.264583"
       id="path24"
       d="m 7.1673415,293.96128 c 0.3329591,0.3244 0.6593734,0.65541 0.9905061,0.98167 0.1180465,0.11678 0.2344539,0.23517 0.3524091,0.35205 0,0 0.9067398,0.37367 0.9067398,0.37367 v 0 c -0.1244843,-0.117 -0.2453793,-0.23754 -0.3670758,-0.35745 -0.3292755,-0.31884 -0.6507702,-0.64568 -0.9718804,-0.97272 z" />
    <circle
       id="path2"
       style="fill:#000000;stroke:#000000;stroke-width:0.264583"
       cx="13.880595"
       cy="291.94226"
       r="0.00078666297" />
    <path
       style="fill:#000000;stroke-width:0.264583"
       id="path3"
       d="m 10.421435,289.80031 c 0.01255,0.0188 0.02553,0.0374 0.03765,0.0565 0.106934,0.16872 -0.02081,-0.027 0.098,0.16362 0.07361,0.11811 0.153452,0.2323 0.233278,0.34622 0.116449,0.15692 0.237449,0.31057 0.365437,0.45829 0.25594,0.29538 -0.03833,-0.052 0.191861,0.22123 0.134196,0.15649 0.256618,0.32229 0.381042,0.48646 0.09753,0.13109 0.206693,0.25277 0.313474,0.37623 0.0953,0.10801 0.189536,0.21696 0.283734,0.32593 0.08427,0.10137 0.179301,0.19299 0.273613,0.28485 0.119512,0.11095 0.223275,0.23719 0.333149,0.35743 0.01716,0.0182 0.03274,0.038 0.05149,0.0545 0.167792,0.14778 0.367227,0.1945 0.581931,0.29324 0,0 0.03702,0.0152 0.03702,0.0152 v 0 c 0.136201,0.0488 0.269536,0.10655 0.408603,0.14649 0.03541,0.0102 -0.131417,-0.16396 -0.0679,-0.0872 -0.119616,-0.12259 -0.240248,-0.24433 -0.355518,-0.37102 -0.09547,-0.0948 -0.193365,-0.1871 -0.286907,-0.28383 -0.102617,-0.10812 -0.20222,-0.21907 -0.299781,-0.33178 -0.111196,-0.12078 -0.221469,-0.24258 -0.322174,-0.37239 -0.140259,-0.17518 -0.284547,-0.34706 -0.434002,-0.5145 -0.263012,-0.29722 0.07147,0.0825 -0.190579,-0.22069 -0.127155,-0.14713 -0.259591,-0.29025 -0.370843,-0.45035 -0.07674,-0.10734 -0.146925,-0.20706 -0.209484,-0.32353 -0.026,-0.0484 -0.04893,-0.0933 -0.06717,-0.14485 -0.005,-0.0142 -0.0079,-0.0291 -0.01192,-0.0436 z" />
    <path
       style="fill:#000000;stroke-width:0.264583"
       id="path4"
       d="m 12.505854,294.94859 c -0.115588,-0.10599 -0.213663,-0.22852 -0.312791,-0.34946 -0.112275,-0.13697 -0.102147,-0.1247 -0.215098,-0.26302 -0.198203,-0.24881 -0.404754,-0.49067 -0.612304,-0.73168 -0.03007,-0.0342 -0.06025,-0.0684 -0.0902,-0.10274 -0.07477,-0.0858 -0.148744,-0.17195 -0.227137,-0.25446 -0.06413,-0.0675 -0.09312,-0.0947 -0.16196,-0.16239 -0.181972,-0.18372 -0.357889,-0.37326 -0.534274,-0.5623 -0.02611,-0.0281 -0.05133,-0.0571 -0.07832,-0.0844 -0.03317,-0.0335 -0.0682,-0.0651 -0.102091,-0.0979 -0.08759,-0.0847 -0.102661,-0.10126 -0.1899764,-0.18455 -0.1503796,-0.14344 -0.048576,-0.0414 -0.1860913,-0.18275 -0.1476581,-0.1604 -0.2905114,-0.3252 -0.433202,-0.49002 -0.1207021,-0.14552 -0.257792,-0.2759 -0.3910343,-0.40958 -0.074992,-0.0738 -0.1392431,-0.15689 -0.2182567,-0.22679 -0.029763,-0.0263 -0.061443,-0.0504 -0.092458,-0.0753 -0.026307,-0.0211 -0.050116,-0.046 -0.079504,-0.0625 -0.09748,-0.0548 -0.199825,-0.10034 -0.2997374,-0.15052 -0.0058,-0.008 -0.01161,-0.0166 -0.017418,-0.0249 0,0 -0.036679,-0.016 -0.036679,-0.016 v 0 c 0.00578,0.008 0.011562,0.0167 0.017343,0.025 -0.082613,-0.0277 -0.1627804,-0.0641 -0.2478386,-0.083 -0.00894,-0.002 -0.00674,0.0173 -0.00769,0.0264 -0.0013,0.0124 -0.00342,0.0256 0.00103,0.0372 0.00823,0.0215 0.022164,0.0405 0.035852,0.059 0.012512,0.0169 0.1169296,0.13711 0.1299215,0.15214 0.1293344,0.13662 0.2653776,0.26661 0.3921255,0.40574 0.1478171,0.16245 0.285759,0.33345 0.4350453,0.49462 0.057194,0.0601 0.1130914,0.12146 0.1715958,0.18028 0.1499116,0.15073 0.035869,0.0279 0.1863154,0.18108 0.028093,0.0286 0.054702,0.0586 0.082439,0.0876 0.027965,0.0292 0.056439,0.0579 0.084659,0.0868 0.1798225,0.18677 0.3572933,0.37572 0.5350232,0.56448 0.172007,0.18096 0.35542,0.35078 0.52507,0.53408 0.03511,0.0379 0.07077,0.0754 0.10533,0.1138 0.180183,0.20036 0.347774,0.41173 0.520289,0.6186 0.09458,0.11986 0.187441,0.2406 0.27757,0.36385 0.219449,0.30011 -0.05315,-0.0727 0.120274,0.16986 0.01158,0.0162 0.02404,0.0317 0.03605,0.0476 z" />
    <circle
       id="path5"
       style="fill:#000000;stroke:#000000;stroke-width:0.264583"
       cx="7.5411701"
       cy="291.94446"
       r="0.0011125094" />
    <path
       style="fill:#000000;stroke-width:0.264583"
       id="path6"
       d="m 12.983872,293.16642 c -0.152539,0.10215 -0.311891,0.19406 -0.463082,0.29829 -0.04612,0.0318 -0.09096,0.0654 -0.136434,0.0981 -0.213835,0.15194 -0.420679,0.31415 -0.619753,0.48501 -0.05417,0.0465 -0.263378,0.23568 -0.31595,0.28308 -0.05145,0.0466 -0.103159,0.0929 -0.154351,0.13981 -0.05059,0.0463 -0.100112,0.0938 -0.151001,0.13986 -0.182679,0.16517 -0.371708,0.32315 -0.554805,0.48787 -0.12155,0.11741 -0.2527,0.22498 -0.370897,0.34592 -0.04966,0.0508 -0.168689,0.14735 -0.116826,0.24663 0.05311,0.10168 0.150247,0.1734 0.225371,0.2601 0,0 0.03413,0.0209 0.03413,0.0209 v 0 c 0.125105,0.0357 0.246014,0.0927 0.375314,0.10697 0.124555,0.0137 0.196817,-0.0757 0.273174,-0.14816 0.121364,-0.11521 0.235721,-0.23792 0.362862,-0.34706 0.282722,-0.25768 0.564479,-0.51646 0.843231,-0.77842 0.294613,-0.27186 0.597162,-0.53688 0.938861,-0.74906 0.210814,-0.12596 0.421898,-0.25548 0.649481,-0.34929 z" />
    <path
       style="fill:#000000;stroke-width:0.264583"
       id="path7"
       d="m 12.910148,289.56431 c -0.138616,0.14014 -0.284023,0.2734 -0.424098,0.41204 -0.137531,0.13613 -0.235832,0.24116 -0.371989,0.38354 -0.317984,0.31717 -0.650123,0.6195 -0.978523,0.92569 -0.07879,0.0735 -0.159575,0.14493 -0.235354,0.2215 -0.08036,0.0812 -0.155194,0.16771 -0.232792,0.25156 -0.220743,0.23457 -0.444079,0.46699 -0.657641,0.70821 -0.064088,0.0724 -0.1260094,0.14667 -0.1893435,0.21972 -0.1159946,0.13379 -0.2326611,0.26699 -0.3486869,0.40075 -0.053651,0.0595 -0.1074852,0.11883 -0.1609535,0.17849 -0.1731214,0.19317 -0.138139,0.15882 -0.3146676,0.3459 -0.1538989,0.1631 -0.3115758,0.32249 -0.4696675,0.48149 -0.1721149,0.17361 -0.3489947,0.34256 -0.5304642,0.50638 -0.1099873,0.0993 -0.2673985,0.18443 -0.2570173,0.3669 0.00605,0.10632 0.071336,0.20067 0.1070039,0.30101 0,0 0.033957,0.0211 0.033957,0.0211 v 0 c 0.1405128,0.009 0.2813164,0.0409 0.4215384,0.0279 0.2333548,-0.0216 0.2899175,-0.11091 0.4471302,-0.25078 0.1848208,-0.16444 0.3686186,-0.33013 0.5458868,-0.50275 0.1567844,-0.16072 0.3103176,-0.324 0.4633537,-0.48828 0.051574,-0.0554 0.2717865,-0.2906 0.3204455,-0.34573 0.05294,-0.06 0.10333,-0.12218 0.154994,-0.18328 0.380226,-0.45288 0.744934,-0.91993 1.155979,-1.34589 0.08257,-0.0799 0.165818,-0.15919 0.247703,-0.23984 0.258445,-0.25453 0.19754,-0.2053 0.465581,-0.46008 0.185148,-0.17599 0.320596,-0.2959 0.51061,-0.46653 0.08057,-0.0723 0.161265,-0.14456 0.241897,-0.21685 0.07633,-0.066 0.153466,-0.13109 0.228984,-0.19803 0.149711,-0.13269 0.185044,-0.16981 0.322693,-0.3014 0.07293,-0.0697 0.14756,-0.13765 0.220397,-0.20747 0.02251,-0.0216 0.04402,-0.0442 0.06603,-0.0663 z" />
    <path
       style="fill:#000000;stroke-width:0.264583"
       id="path8"
       d="m 12.981162,285.38213 c -0.198012,0.12226 -0.404065,0.23084 -0.603059,0.35143 -0.208059,0.12608 -0.250233,0.15847 -0.458629,0.2991 -0.355437,0.2345 -0.693167,0.49422 -1.037022,0.745 -0.85517,0.62368 0.311988,-0.23517 -0.53196,0.38707 -0.07284,0.0565 -0.4338351,0.33485 -0.5040492,0.39653 -0.089936,0.079 -0.1725052,0.16604 -0.2595557,0.24822 -0.3616137,0.34137 -0.1885723,0.17086 -0.5478235,0.51321 -0.09215,0.0878 -0.1832317,0.17675 -0.2748476,0.26512 -0.1784729,0.19728 -0.3759208,0.37603 -0.5594258,0.56836 -0.081366,0.0853 -0.196056,0.15151 -0.2377345,0.26176 -0.3609348,0.9548 0.3265316,-0.0942 -0.1433327,0.56492 0,0 0.033953,0.0211 0.033953,0.0211 v 0 c 0.8496408,-0.46882 -0.610933,0.29689 0.7316007,-0.20084 0.1166207,-0.0432 0.2003676,-0.14758 0.296863,-0.22605 0.055694,-0.0453 0.5665484,-0.49143 0.6164064,-0.53489 0.2715194,-0.26065 0.5390539,-0.52777 0.8266829,-0.77096 0.09322,-0.0788 0.19181,-0.15108 0.285967,-0.22878 0.648581,-0.53516 -0.178881,0.12825 0.487216,-0.40193 0.223641,-0.16916 0.295701,-0.22621 0.525153,-0.38942 0.09047,-0.0643 0.18284,-0.12601 0.2734,-0.19024 0.255133,-0.18094 0.505137,-0.36904 0.754717,-0.55752 0.07922,-0.0537 0.157264,-0.10915 0.237659,-0.16106 0.270034,-0.17436 0.554279,-0.3248 0.838867,-0.47348 z" />
    <path
       style="fill:#000000;stroke-width:0.264583"
       id="path25"
       d="m 12.78717,280.87294 c -0.123899,0.12853 -0.27887,0.21964 -0.425773,0.31863 -0.04225,0.0285 -0.08392,0.0578 -0.125885,0.0867 -0.201501,0.13109 -0.394895,0.27402 -0.5994,0.4005 -0.132903,0.0822 -0.234422,0.13921 -0.369841,0.21717 -0.244109,0.13383 -0.495406,0.25543 -0.729468,0.40697 -0.136817,0.0886 -0.209577,0.14661 -0.33987,0.24428 -0.187711,0.1393 -0.3643353,0.29298 -0.5505157,0.43421 -0.06845,0.0519 -0.1392606,0.10066 -0.2084507,0.15159 -0.197744,0.14556 -0.1948971,0.14517 -0.3861657,0.29322 -0.3019386,0.26498 -0.5977467,0.53679 -0.8953469,0.8066 -0.040439,0.0348 -0.081416,0.0691 -0.121318,0.10451 -0.040425,0.0359 -0.079369,0.0735 -0.1196372,0.10956 -0.1522791,0.13648 -0.3077401,0.26947 -0.4605327,0.4054 -0.028139,0.0283 -0.081801,0.0451 -0.084416,0.085 -0.0086,0.13092 0.2181151,0.2907 0.262023,0.35287 0.00842,0.0119 -0.02113,0.0201 -0.031693,0.0302 0,0 0.034055,0.021 0.034055,0.021 v 0 c 0.01057,-0.0101 0.017444,-0.0333 0.031714,-0.0302 0.1480288,0.0322 0.3336941,0.15358 0.5027038,0.11947 0.039494,-0.008 0.060913,-0.0528 0.09137,-0.0791 0.1093002,-0.10132 0.2200005,-0.20052 0.3335488,-0.29709 0.084146,-0.0716 0.1716929,-0.13909 0.2552542,-0.21134 0.040417,-0.0349 0.07874,-0.0722 0.1181095,-0.10836 0.1197602,-0.11159 0.1334084,-0.1218 0.2497291,-0.24061 0.1961319,-0.20034 0.3843787,-0.4093 0.6012376,-0.58821 0.1917769,-0.17185 0.1538374,-0.14032 0.3544209,-0.30982 0.0639,-0.054 0.126919,-0.1091 0.192488,-0.16106 0.06376,-0.0505 0.130598,-0.0971 0.195351,-0.1463 0.170467,-0.12964 0.195673,-0.15152 0.361189,-0.28412 0.123513,-0.0979 0.193247,-0.15597 0.321805,-0.24686 0.22081,-0.15613 0.456338,-0.29056 0.68805,-0.42942 0.185693,-0.10749 0.37006,-0.21692 0.55377,-0.32777 0.05649,-0.0341 0.113823,-0.0668 0.169367,-0.10246 0.09023,-0.0579 0.174547,-0.12464 0.265787,-0.18102 0.197585,-0.12819 0.388198,-0.26678 0.589022,-0.3899 z" />
    <path
       style="fill:#000000;stroke-width:0.264583"
       id="path26"
       d="m 8.2099975,280.91051 c -0.020722,0.0299 -0.041446,0.0599 -0.062169,0.0898 -0.032917,0.052 -0.063991,0.10515 -0.09875,0.1559 -0.042931,0.0627 -0.089754,0.12261 -0.1342001,0.18423 -0.046573,0.0646 -0.1093941,0.12037 -0.1388544,0.19433 -0.079291,0.19905 -0.019151,0.31774 0.024723,0.51542 0,0 0.034313,0.0206 0.034313,0.0206 v 0 c 0.2224256,-0.0307 0.3857577,-0.026 0.5794515,-0.15197 0.068723,-0.0447 0.1163468,-0.11555 0.1733135,-0.17451 0.054149,-0.056 0.1059905,-0.11428 0.1600009,-0.17045 0.1996136,-0.20762 0.070602,-0.0615 0.2066401,-0.21977 z" />
    <circle
       id="path27"
       style="fill:#000000;stroke:#000000;stroke-width:0.264583"
       cx="-2.32815"
       cy="287.45068"
       r="0.0011125094" />
    <circle
       id="path28"
       style="fill:#000000;stroke:#000000;stroke-width:0.264583"
       cx="-10.175141"
       cy="285.77567"
       r="0.0011125094" />
    <path
       style="fill:#000000;stroke-width:0.264583"
       id="path3-5"
       d="m 7.2512269,282.55574 c -0.1056426,-0.14439 -0.2136945,-0.28833 -0.3408701,-0.41478 -0.031037,-0.0308 -0.063922,-0.0598 -0.095883,-0.0897 -0.038457,-0.03 -0.075792,-0.0616 -0.11537,-0.0901 -0.040033,-0.0289 -0.080536,-0.0574 -0.1232897,-0.082 -0.3796332,-0.21904 -0.7582125,-0.44017 -1.1435813,-0.64896 -0.04783,-0.0259 -0.1013831,-0.0402 -0.1539833,-0.0541 -0.1186384,-0.0313 -0.2338909,-0.0376 -0.3554458,-0.0497 -0.063373,4.3e-4 -0.1269378,-0.004 -0.1901182,0.001 -0.1688179,0.0132 -0.3057745,0.0445 -0.4693348,0.0879 -0.1634255,0.0433 -0.3092543,0.0904 -0.4669312,0.15116 -0.073792,0.0284 -0.1459849,0.0609 -0.2189773,0.0913 -0.2158617,0.10835 -0.4134933,0.24729 -0.5889419,0.41325 -0.058095,0.055 -0.1179613,0.10918 -0.1664441,0.17278 -0.1004178,0.13172 -0.1676807,0.29786 -0.236601,0.44621 -0.081574,0.2223 -0.1017917,0.25371 -0.1521831,0.48565 -0.017945,0.0826 -0.035294,0.16569 -0.043443,0.24982 -0.00881,0.091 -0.01,0.18269 -0.0073,0.27402 0.00217,0.0735 0.043351,0.48663 0.050663,0.56222 0.010563,0.0904 0.017556,0.18122 0.031689,0.2711 0.015008,0.0955 0.035215,0.19005 0.055667,0.28448 0.034843,0.16088 0.092793,0.3941 0.143464,0.55153 0.072271,0.22453 0.1092411,0.29511 0.2026709,0.50973 0.1483209,0.32466 0.3526732,0.62014 0.6202447,0.85819 0.3828384,0.34061 1.0799102,0.66616 1.3917991,0.84613 0.2472352,0.10497 0.5074984,0.17783 0.7749096,0.20722 0.1479611,0.0163 0.372695,0.019 0.5214496,0.012 0.082075,-0.004 0.1637361,-0.014 0.2456042,-0.0209 0.078161,-0.0206 0.1575536,-0.0369 0.2344825,-0.0616 0.079878,-0.0257 0.1579923,-0.0569 0.2352683,-0.0896 0.21478,-0.0909 0.423866,-0.20395 0.6014326,-0.35701 0.054526,-0.047 0.1023845,-0.10122 0.1535769,-0.15183 0.1324171,-0.14614 0.2537058,-0.3052 0.345807,-0.48031 0.094266,-0.17923 0.1570032,-0.37244 0.219697,-0.56409 0.031521,-0.10252 0.090311,-0.28512 0.1123797,-0.39086 0.014441,-0.0692 0.023169,-0.13948 0.032301,-0.20957 0.019362,-0.14861 0.029097,-0.27171 0.034124,-0.42141 0.00233,-0.069 0.00159,-0.13802 0.00238,-0.20702 -0.00268,-0.0676 -0.00214,-0.13541 -0.00805,-0.20281 -0.01156,-0.13162 -0.040503,-0.28655 -0.067536,-0.41579 -0.023654,-0.11309 -0.06022,-0.26709 -0.093962,-0.37838 -0.018891,-0.0623 -0.041499,-0.12344 -0.062248,-0.18516 -0.059077,-0.17358 -0.1283803,-0.34331 -0.2031122,-0.51066 -0.021609,-0.0484 -0.042323,-0.0972 -0.066203,-0.14455 -0.051383,-0.1018 -0.092327,-0.16355 -0.1516491,-0.25938 -0.1253892,-0.17884 -0.2815611,-0.33531 -0.4584362,-0.46344 -0.033485,-0.0242 -0.068454,-0.0464 -0.1026821,-0.0696 -0.4728393,-0.30005 -0.9684285,-0.57068 -1.4554978,-0.84141 -0.029917,-0.0166 -0.1102286,-0.0661 -0.096665,-0.0346 0.030693,0.0711 0.1046999,0.11417 0.156028,0.17217 0.040821,0.0461 0.080263,0.0935 0.120395,0.14019 0,0 0.047508,0.0366 0.047508,0.0366 v 0 c 0.1029803,0.0653 0.2071042,0.12885 0.3089413,0.19593 0.1238668,0.0816 0.243306,0.16983 0.3680872,0.25001 0.039456,0.0254 0.1645653,0.09 0.1241161,0.0663 -0.3389387,-0.1989 -0.679658,-0.39475 -1.0196717,-0.5918 -0.035074,-0.0203 0.069996,0.0409 0.1048515,0.0616 0.035598,0.0211 0.071005,0.0426 0.106507,0.0639 0.066854,0.0409 0.1508575,0.091 0.2150869,0.13542 0.1490708,0.10317 0.2826986,0.2262 0.3990052,0.36526 0.032233,0.0405 0.066364,0.0795 0.096699,0.12145 0.1723779,0.23822 0.2846676,0.51274 0.3920596,0.78437 0.051235,0.14599 0.07642,0.21068 0.1187561,0.3596 0.073225,0.25757 0.1170797,0.52187 0.1350314,0.78903 0.00177,0.0676 0.00612,0.13514 0.00531,0.20273 -0.00406,0.33733 -0.073261,0.67026 -0.1592112,0.99505 -0.050639,0.14835 -0.072296,0.22458 -0.1378611,0.36656 -0.1037059,0.22458 -0.2404608,0.43933 -0.3954161,0.6317 -0.046664,0.0474 -0.090613,0.0977 -0.1399913,0.1423 -0.2168605,0.19588 -0.4905534,0.35233 -0.7742135,0.42505 -0.077616,0.0199 -0.157729,0.0283 -0.2365933,0.0425 -0.1908424,0.02 -0.2719322,0.0351 -0.466661,0.0276 -0.3449749,-0.0133 -0.6820279,-0.0994 -0.9927125,-0.24903 0.2391529,0.143 0.4737227,0.29396 0.7174585,0.42901 0.077345,0.0428 -0.1480145,-0.0972 -0.2174296,-0.15197 -0.2839177,-0.22403 -0.5062966,-0.51295 -0.6735085,-0.83201 -0.031328,-0.0781 -0.065111,-0.1553 -0.093984,-0.23435 -0.1576068,-0.43154 -0.2596055,-0.88097 -0.3206639,-1.33583 -0.00588,-0.0886 -0.016542,-0.17708 -0.017632,-0.26591 -0.00106,-0.0856 0.00575,-0.17119 0.011224,-0.25665 0.00843,-0.13163 0.028937,-0.36416 0.054956,-0.49521 0.042741,-0.21527 0.069092,-0.25389 0.1502436,-0.45626 0.040393,-0.0688 0.076135,-0.1405 0.1211795,-0.20633 0.048328,-0.0706 0.2299134,-0.2884 0.294654,-0.34984 0.1702022,-0.16151 0.3773853,-0.27325 0.589557,-0.36868 0.070177,-0.0296 0.1395421,-0.0612 0.2105303,-0.0887 0.2181477,-0.0847 0.4435975,-0.15454 0.6739343,-0.19724 0.067676,-0.0125 0.1357008,-0.0251 0.2044044,-0.0293 0.059569,-0.004 0.1192868,0.004 0.17893,0.006 0.1658234,0.0228 0.1754111,0.016 0.3339312,0.0701 0.046332,0.0158 0.1775565,0.0813 0.1359752,0.0554 -0.2875169,-0.17857 -0.5836669,-0.34285 -0.8752957,-0.51463 -0.041349,-0.0244 0.083957,0.0466 0.1244558,0.0724 0.037502,0.0238 0.072899,0.0508 0.1093483,0.0763 0.031535,0.0266 0.064188,0.0519 0.094606,0.0797 0.1097682,0.10053 0.2064467,0.21742 0.2690418,0.35316 z" />
    <path
       style="fill:#000000;stroke-width:0.264583"
       id="path4-6"
       d="m 4.8515547,282.11188 c 0.013232,0.0632 -0.019722,0.1233 -0.018325,0.18537 0.00119,0.0529 0.0161,0.1047 0.022902,0.15723 0.00762,0.0589 0.013324,0.11794 0.02037,0.17686 0.00773,0.0647 0.019383,0.12896 0.023958,0.19393 0.00477,0.0677 0.00268,0.1356 0.00402,0.2034 0.00713,0.19786 0.00363,0.39612 -0.00354,0.59394 -0.00613,0.16919 -0.011967,0.17134 -0.012655,0.33983 -2.511e-4,0.0615 0.00185,0.12296 0.00279,0.18445 -0.00379,0.25352 0.0043,0.50701 0.00376,0.76052 -2.344e-4,0.11162 -0.0023,0.22322 -0.00304,0.33483 -0.00734,0.12722 -0.00679,0.25466 -0.00873,0.38202 -9.261e-4,0.0611 -0.00955,0.12583 0.015494,0.18472 0.014184,0.0333 0.039412,0.0608 0.059119,0.0913 0.4377593,0.27443 0.2357221,0.14868 0.6057533,0.37782 0,0 0.053673,0.0268 0.053673,0.0268 v 0 c 0.362477,0.13769 0.1643724,0.0626 0.5943933,0.22496 0.017261,-0.0111 0.041379,-0.0156 0.051784,-0.0333 0.020307,-0.0345 0.00417,-0.143 0.00259,-0.1704 -0.00757,-0.13085 -0.00757,-0.26206 -0.016473,-0.39285 -0.00546,-0.36697 -0.011435,-0.73393 -0.015692,-1.10092 0.012208,-0.38325 0.010726,-0.76716 -0.021254,-1.14956 -0.00931,-0.0736 -0.018627,-0.1473 -0.027941,-0.22095 -0.00636,-0.0651 -0.010946,-0.13048 -0.019076,-0.19542 -0.00767,-0.0612 -0.018926,-0.12193 -0.028293,-0.18291 -0.00806,-0.0525 -0.010615,-0.10612 -0.023998,-0.15752 -0.012729,-0.0489 -0.037729,-0.0938 -0.053889,-0.14167 -0.00944,-0.028 -0.015219,-0.0571 -0.022828,-0.0856 z" />
    <path
       style="fill:#000000;stroke-width:0.264583"
       id="path5-2"
       d="m 7.1462987,283.88261 c -0.023151,0.002 -0.046246,0.005 -0.069456,0.005 -0.021646,3.7e-4 -0.2076654,-0.005 -0.2215206,-0.005 -0.1457259,-0.005 -0.2912695,-0.0151 -0.4368903,-0.0226 -0.3364124,-0.0208 -0.6715866,-0.0578 -1.0080258,-0.0786 -0.2585937,-0.015 -0.5166219,0.009 -0.7738197,0.0323 -0.1989556,0.0199 -0.3974923,0.0438 -0.5965206,0.0628 -0.2094601,0.0183 -0.418052,0.0445 -0.6270112,0.0674 -0.1539341,0.0108 -0.3075996,0.0225 -0.4611399,0.0379 -0.064985,0.006 -0.1298782,0.0132 -0.1947516,0.0203 -0.012077,10e-4 -0.026059,-0.002 -0.036182,0.004 -0.00616,0.004 -0.00231,0.0146 -0.00346,0.0219 0.4349852,0.32538 0.2678719,0.19934 0.5024592,0.37665 0,0 0.049777,0.0335 0.049777,0.0335 v 0 c 0.254672,0.17209 0.072761,0.0491 0.545629,0.369 0.018722,0.005 0.036912,0.0129 0.056168,0.0152 0.012256,0.002 0.024575,-0.002 0.03684,-0.004 0.063124,-0.007 0.126275,-0.0153 0.1888014,-0.0267 0.1418823,-0.0217 0.2847626,-0.0364 0.4260771,-0.062 0.2053897,-0.0273 0.4111098,-0.0524 0.6175933,-0.0697 0.071628,-0.007 0.1434335,-0.0114 0.2150449,-0.0183 0.1246947,-0.012 0.2481381,-0.0338 0.3712048,-0.0566 0.233257,-0.0375 0.4685679,-0.0636 0.7052821,-0.0542 0.074791,0.002 0.2211898,0.007 0.2941794,0.011 0.2302632,0.013 0.4598011,0.0375 0.6900085,0.0515 0.1578565,0.01 0.161513,0.0118 0.3110815,0.0149 0.05317,0.001 0.1863754,0.001 0.2416791,0.001 0.03336,-2.1e-4 0.066718,-0.002 0.1000742,-0.001 0.027864,4.5e-4 0.055659,0.003 0.083488,0.004 z" />
    <path
       style="fill:#000000;stroke-width:0.264583"
       id="path6-9"
       d="m 4.9284661,281.68021 c 0.035028,0.12587 0.0845,0.26384 0.1759919,0.36056 0.1166736,0.12335 0.2627701,0.21624 0.380809,0.33828 0.069951,0.0723 0.1202838,0.16133 0.1804254,0.242 0,0 0.054001,0.0262 0.054001,0.0262 v 0 c 0.2934163,-0.2738 -0.1611403,0.10599 0.4098033,-0.11611 0.079677,-0.031 0.016248,-0.2337 -0.00274,-0.28413 z" />
    <path
       style="fill:#000000;stroke-width:0.264583"
       id="path7-1"
       d="m 4.9688209,285.46703 c -0.00755,0.0154 -0.023074,0.0291 -0.022651,0.0463 0.00106,0.0423 0.01865,0.0825 0.026873,0.12405 0.011636,0.0587 0.018386,0.11847 0.032698,0.1766 0.018542,0.0753 0.014462,0.16502 0.06573,0.22323 0.1593649,0.18094 0.3885065,0.29149 0.5473716,0.47287 0.048402,0.0553 0.035974,0.14245 0.053961,0.21368 0,0 0.053649,0.0269 0.053649,0.0269 v 0 c 0.063501,-0.40843 -0.060598,0.01 0.5435402,-0.11393 0.057532,-0.0118 0.028603,-0.11418 0.036225,-0.17241 0.00692,-0.0528 0.00513,-0.10647 0.00725,-0.15972 0.00159,-0.0399 0.011464,-0.0805 0.00389,-0.11967 -0.00627,-0.0325 -0.02945,-0.0592 -0.044175,-0.0888 z" />
  </g>
</svg>
