<?xml version="1.0" encoding="UTF-8" standalone="no"?>
<!-- Created with Inkscape (http://www.inkscape.org/) -->

<svg
   width="64"
   height="64"
   viewBox="0 0 16.933333 16.933334"
   version="1.1"
   id="svg8"
   inkscape:version="1.3.2 (091e20ef0f, 2023-11-25, custom)"
   sodipodi:docname="add-mirror.svg"
   inkscape:export-filename="C:\Users\Ali\Documents\inkscape\freecad\pyrate\pyrate_logo_3_256x256.png"
   inkscape:export-xdpi="1536"
   inkscape:export-ydpi="1536"
   xmlns:inkscape="http://www.inkscape.org/namespaces/inkscape"
   xmlns:sodipodi="http://sodipodi.sourceforge.net/DTD/sodipodi-0.dtd"
   xmlns:xlink="http://www.w3.org/1999/xlink"
   xmlns="http://www.w3.org/2000/svg"
   xmlns:svg="http://www.w3.org/2000/svg"
   xmlns:rdf="http://www.w3.org/1999/02/22-rdf-syntax-ns#"
   xmlns:cc="http://creativecommons.org/ns#"
   xmlns:dc="http://purl.org/dc/elements/1.1/">
  <defs
     id="defs2">
    <linearGradient
       id="linearGradient1245"
       inkscape:collect="always">
      <stop
         id="stop1241"
         offset="0"
         style="stop-color:#aaccff;stop-opacity:1" />
      <stop
         id="stop1243"
         offset="1"
         style="stop-color:#d5f6ff;stop-opacity:1" />
    </linearGradient>
    <linearGradient
       id="linearGradient1167"
       inkscape:collect="always">
      <stop
         id="stop1161"
         offset="0"
         style="stop-color:#00112b;stop-opacity:1" />
      <stop
         id="stop1163"
         offset="1"
         style="stop-color:#2a7fff;stop-opacity:1" />
    </linearGradient>
    <linearGradient
       inkscape:collect="always"
       id="linearGradient1166">
      <stop
         style="stop-color:#41dcff;stop-opacity:1"
         offset="0"
         id="stop1162" />
      <stop
         style="stop-color:#40e0ff;stop-opacity:1"
         offset="1"
         id="stop1164" />
    </linearGradient>
    <linearGradient
       inkscape:collect="always"
       id="linearGradient1058">
      <stop
         style="stop-color:#5175ff;stop-opacity:1"
         offset="0"
         id="stop1054" />
      <stop
         style="stop-color:#40e0ff;stop-opacity:1"
         offset="1"
         id="stop1056" />
    </linearGradient>
    <linearGradient
       id="linearGradient1045"
       inkscape:collect="always">
      <stop
         id="stop1041"
         offset="0"
         style="stop-color:#293449;stop-opacity:1" />
      <stop
         id="stop1043"
         offset="1"
         style="stop-color:#485c80;stop-opacity:1" />
    </linearGradient>
    <linearGradient
       inkscape:collect="always"
       id="linearGradient2480">
      <stop
         style="stop-color:#cc0a08;stop-opacity:1"
         offset="0"
         id="stop2476" />
      <stop
         style="stop-color:#f67d89;stop-opacity:1"
         offset="1"
         id="stop2478" />
    </linearGradient>
    <linearGradient
       id="linearGradient942-5"
       inkscape:collect="always">
      <stop
         id="stop938"
         offset="0"
         style="stop-color:#002076;stop-opacity:1" />
      <stop
         id="stop940"
         offset="1"
         style="stop-color:#40e0ff;stop-opacity:1" />
    </linearGradient>
    <linearGradient
       gradientUnits="userSpaceOnUse"
       y2="31.377413"
       x2="86.543877"
       y1="282.62048"
       x1="20.010984"
       id="linearGradient944"
       xlink:href="#linearGradient942-5"
       inkscape:collect="always" />
    <linearGradient
       gradientUnits="userSpaceOnUse"
       y2="112.66277"
       x2="98.204803"
       y1="257.94366"
       x1="13.302045"
       id="linearGradient952"
       xlink:href="#linearGradient2480"
       inkscape:collect="always" />
    <linearGradient
       gradientTransform="translate(0,1.5875)"
       gradientUnits="userSpaceOnUse"
       y2="133.50244"
       x2="146.68025"
       y1="272.83194"
       x1="101.05925"
       id="linearGradient960"
       xlink:href="#linearGradient2480"
       inkscape:collect="always" />
    <filter
       id="filter1495"
       inkscape:label="Drop Shadow"
       style="color-interpolation-filters:sRGB">
      <feFlood
         id="feFlood1485"
         result="flood"
         flood-color="rgb(0,0,0)"
         flood-opacity="0.498039" />
      <feComposite
         id="feComposite1487"
         result="composite1"
         operator="in"
         in2="SourceGraphic"
         in="flood" />
      <feGaussianBlur
         id="feGaussianBlur1489"
         result="blur"
         stdDeviation="4"
         in="composite1" />
      <feOffset
         id="feOffset1491"
         result="offset"
         dy="4"
         dx="2" />
      <feComposite
         id="feComposite1493"
         result="composite2"
         operator="over"
         in2="offset"
         in="SourceGraphic" />
    </filter>
    <filter
       id="filter2066"
       inkscape:label="Drop Shadow"
       style="color-interpolation-filters:sRGB">
      <feFlood
         id="feFlood2056"
         result="flood"
         flood-color="rgb(0,0,0)"
         flood-opacity="0.498039" />
      <feComposite
         id="feComposite2058"
         result="composite1"
         operator="in"
         in2="SourceGraphic"
         in="flood" />
      <feGaussianBlur
         id="feGaussianBlur2060"
         result="blur"
         stdDeviation="20"
         in="composite1" />
      <feOffset
         id="feOffset2062"
         result="offset"
         dy="20"
         dx="6" />
      <feComposite
         id="feComposite2064"
         result="composite2"
         operator="over"
         in2="offset"
         in="SourceGraphic" />
    </filter>
    <filter
       id="filter2474"
       inkscape:label="Drop Shadow"
       style="color-interpolation-filters:sRGB">
      <feFlood
         id="feFlood2464"
         result="flood"
         flood-color="rgb(0,0,0)"
         flood-opacity="0.498039" />
      <feComposite
         id="feComposite2466"
         result="composite1"
         operator="in"
         in2="SourceGraphic"
         in="flood" />
      <feGaussianBlur
         id="feGaussianBlur2468"
         result="blur"
         stdDeviation="4"
         in="composite1" />
      <feOffset
         id="feOffset2470"
         result="offset"
         dy="4.8"
         dx="1.5" />
      <feComposite
         id="feComposite2472"
         result="composite2"
         operator="over"
         in2="offset"
         in="SourceGraphic" />
    </filter>
    <linearGradient
       gradientTransform="translate(0,290.28571)"
       gradientUnits="userSpaceOnUse"
       y2="398.20157"
       x2="-973.7356"
       y1="746.96252"
       x1="-1123.2253"
       id="linearGradient1033"
       xlink:href="#linearGradient1058"
       inkscape:collect="always" />
    <linearGradient
       gradientTransform="translate(0,213.65424)"
       gradientUnits="userSpaceOnUse"
       y2="851.35718"
       x2="-987.59387"
       y1="1234.0872"
       x1="-1127.1049"
       id="linearGradient1047"
       xlink:href="#linearGradient1045"
       inkscape:collect="always" />
    <linearGradient
       gradientTransform="translate(-19.199562,-44.652005)"
       gradientUnits="userSpaceOnUse"
       y2="1157.111"
       x2="-544.48077"
       y1="1495.4609"
       x1="-689.72717"
       id="linearGradient1134"
       xlink:href="#linearGradient1045"
       inkscape:collect="always" />
    <linearGradient
       y2="851.35718"
       x2="-987.59387"
       y1="1234.0872"
       x1="-1127.1049"
       gradientTransform="translate(0,213.65424)"
       gradientUnits="userSpaceOnUse"
       id="linearGradient1160"
       xlink:href="#linearGradient1166"
       inkscape:collect="always" />
    <linearGradient
       id="linearGradient3682-0">
      <stop
         style="stop-color:#a40000;stop-opacity:1"
         offset="0"
         id="stop3684-0" />
      <stop
         style="stop-color:#ef2929;stop-opacity:1"
         offset="1"
         id="stop3686-0" />
    </linearGradient>
    <linearGradient
       id="linearGradient3864-9">
      <stop
         id="stop3866-1"
         offset="0"
         style="stop-color:#204a87;stop-opacity:1" />
      <stop
         id="stop3868-1"
         offset="1"
         style="stop-color:#729fcf;stop-opacity:1" />
    </linearGradient>
    <linearGradient
       id="linearGradient3682-0-3">
      <stop
         style="stop-color:#ff390f;stop-opacity:1"
         offset="0"
         id="stop3684-0-7" />
      <stop
         style="stop-color:#ff1000;stop-opacity:1;"
         offset="1"
         id="stop3686-0-5" />
    </linearGradient>
    <linearGradient
       id="linearGradient3864-9-7">
      <stop
         id="stop3866-1-7"
         offset="0"
         style="stop-color:#316cab;stop-opacity:1" />
      <stop
         id="stop3868-1-4"
         offset="1"
         style="stop-color:#002ca8;stop-opacity:1" />
    </linearGradient>
    <linearGradient
       id="linearGradient3682">
      <stop
         id="stop3684"
         offset="0"
         style="stop-color:#ff6d0f;stop-opacity:1;" />
      <stop
         id="stop3686"
         offset="1"
         style="stop-color:#ff1000;stop-opacity:1;" />
    </linearGradient>
    <linearGradient
       id="linearGradient3864">
      <stop
         style="stop-color:#71b2f8;stop-opacity:1;"
         offset="0"
         id="stop3866" />
      <stop
         style="stop-color:#002795;stop-opacity:1;"
         offset="1"
         id="stop3868" />
    </linearGradient>
    <linearGradient
       gradientTransform="matrix(0.79118995,0,0,0.96421064,-462.08318,3.6442021)"
       gradientUnits="userSpaceOnUse"
       y2="-97.402824"
       x2="-2013.709"
       y1="301.0498"
       x1="-2412.1616"
       id="linearGradient1169"
       xlink:href="#linearGradient1167"
       inkscape:collect="always" />
    <linearGradient
       gradientUnits="userSpaceOnUse"
       y2="-9.260396"
       x2="-2055.4119"
       y1="284.23495"
       x1="-2302.6389"
       id="linearGradient1239"
       xlink:href="#linearGradient1245"
       inkscape:collect="always" />
    <linearGradient
       gradientUnits="userSpaceOnUse"
       y2="1276.7333"
       x2="4327.0557"
       y1="2126.7334"
       x1="3477.0554"
       id="linearGradient3835"
       xlink:href="#linearGradient1045"
       inkscape:collect="always" />
    <mask
       id="mask5747"
       maskUnits="userSpaceOnUse">
      <path
         inkscape:connector-curvature="0"
         id="path5749"
         d="m -1081.0913,3822.7064 -30.9051,-17.7313 -13.6473,4.7355 -13.0203,33.2785 -20.4811,-1.0774 -9.3432,-34.4101 -13.0752,-6.2608 -32.6113,14.2658 -13.7762,-15.3072 17.7314,-30.9049 -4.8453,-13.606 -33.2766,-13.0222 1.1905,-20.5206 34.4107,-9.3432 6.2607,-13.0752 -14.3755,-32.5713 15.3071,-13.7747 30.9051,17.7313 13.7154,-4.8866 12.9107,-33.2346 20.6323,1.1528 9.2335,34.4501 13.0752,6.2606 32.681,-14.4151 13.7747,15.3067 -17.7319,30.9052 4.7754,13.7554 33.2372,12.9128 -1.0398,20.5901 -34.4501,9.2334 -6.2622,13.0752 14.3073,32.721 z m -46.2858,-50.6793 6.3443,-3.6809 5.4951,-4.9832 4.4016,-5.9473 3.1652,-6.6122 1.8707,-7.1279 0.3036,-7.3064 -1.0584,-7.3012 -2.4077,-6.9339 -3.8305,-6.4135 -4.8341,-5.4277 -5.9468,-4.3992 -6.6122,-3.1652 -7.1283,-1.8709 -7.3452,-0.4154 -7.3041,1.0583 -6.9313,2.4077 -6.414,3.8307 -5.3875,4.9432 -4.441,5.8375 -3.1652,6.6122 -1.8143,7.2377 -0.4155,7.3456 1.0579,7.302 2.4078,6.9334 3.7905,6.3042 4.8741,5.5367 5.9468,4.3995 6.6122,3.1652 7.238,1.8142 7.3058,0.3038 7.302,-1.0584 6.9333,-2.4079 z"
         style="display:inline;overflow:visible;visibility:visible;fill:#ffffff;fill-opacity:1;fill-rule:evenodd;stroke:none;stroke-width:9.9998951;stroke-linecap:round;stroke-linejoin:round;stroke-miterlimit:4;stroke-dasharray:none;stroke-dashoffset:0;stroke-opacity:1;marker:none;enable-background:accumulate" />
    </mask>
    <mask
       id="mask2314"
       maskUnits="userSpaceOnUse">
      <path
         inkscape:connector-curvature="0"
         sodipodi:nodetypes="ccccccccccc"
         id="path2316"
         d="m -1868.9759,3355.7772 h -288.3976 v 59.668 h 119.3385 v 59.6685 h 59.668 v -59.6685 h 49.7232 v 99.4479 h 59.6679 z"
         style="display:inline;overflow:visible;visibility:visible;fill:#ffffff;fill-opacity:1;fill-rule:evenodd;stroke:none;stroke-width:9.99989414;stroke-linecap:butt;stroke-linejoin:miter;stroke-miterlimit:4;stroke-dasharray:none;stroke-dashoffset:0;stroke-opacity:1;marker:none;enable-background:accumulate" />
    </mask>
  </defs>
  <sodipodi:namedview
     id="base"
     pagecolor="#ffffff"
     bordercolor="#666666"
     borderopacity="1.0"
     inkscape:pageopacity="0.0"
     inkscape:pageshadow="2"
     inkscape:zoom="7.9195959"
     inkscape:cx="20.013647"
     inkscape:cy="29.736366"
     inkscape:document-units="px"
     inkscape:current-layer="layer1"
     showgrid="false"
     inkscape:window-width="3836"
     inkscape:window-height="2093"
     inkscape:window-x="0"
     inkscape:window-y="32"
     inkscape:window-maximized="1"
     units="px"
     inkscape:showpageshadow="2"
     inkscape:pagecheckerboard="0"
     inkscape:deskcolor="#d1d1d1" />
  <metadata
     id="metadata5">
    <rdf:RDF>
      <cc:Work
         rdf:about="">
        <dc:format>image/svg+xml</dc:format>
        <dc:type
           rdf:resource="http://purl.org/dc/dcmitype/StillImage" />
        <dc:title />
      </cc:Work>
    </rdf:RDF>
  </metadata>
  <g
     inkscape:label="Layer 1"
     inkscape:groupmode="layer"
     id="layer1"
     transform="translate(0,-280.06666)">
    <path
       style="fill:#000000;stroke-width:0.264583"
       id="path2"
       d="m 15.580184,286.97185 c -0.04301,0.1614 -0.129726,0.30612 -0.211072,0.45035 -0.122352,0.21693 -0.04843,0.0876 -0.174401,0.30582 -0.18157,0.31549 -0.365353,0.62971 -0.536756,0.95088 -0.191964,0.37081 -0.394489,0.73565 -0.61555,1.08988 -0.235172,0.34933 -0.450639,0.71119 -0.671346,1.06971 -0.200143,0.33337 -0.391267,0.67225 -0.567743,1.01875 -0.167313,0.33811 -0.335696,0.67561 -0.510151,1.01009 -0.144153,0.29944 -0.304651,0.58859 -0.497092,0.85961 -0.214262,0.28335 -0.450775,0.54893 -0.686227,0.81464 -0.211816,0.23232 -0.411912,0.47483 -0.605967,0.72207 -0.130675,0.16576 -0.254383,0.33667 -0.376943,0.50843 -0.02038,0.0429 -0.113761,0.12508 -0.09705,0.17707 0.01912,0.0595 0.108697,0.10337 0.145031,0.12948 0,0 0.01723,0.0102 0.01723,0.0102 v 0 c 0.04085,0.0183 0.12481,0.0746 0.186447,0.0616 0.05159,-0.0109 0.08034,-0.12807 0.116665,-0.16209 0.113085,-0.1763 0.227222,-0.35219 0.35604,-0.5176 0.191065,-0.24765 0.382883,-0.49473 0.592067,-0.72761 0.23494,-0.26856 0.473841,-0.53436 0.694831,-0.81459 0.189804,-0.27474 0.348537,-0.56712 0.492863,-0.86819 0.171328,-0.33621 0.342456,-0.67233 0.506362,-1.01225 0.179535,-0.34387 0.360863,-0.68708 0.562094,-1.01892 0.21667,-0.36113 0.4416,-0.71668 0.673419,-1.06826 0.216852,-0.35779 0.416574,-0.72468 0.60629,-1.09759 0.175702,-0.31846 0.354266,-0.63526 0.534897,-0.95095 0.141413,-0.24822 0.299508,-0.49359 0.387148,-0.76717 z" />
    <path
       style="fill:#000000;stroke-width:0.264583"
       id="path3"
       d="m 10.311943,294.01816 c -0.4242252,0.0297 -0.8502658,0.0345 -1.2753705,0.0475 -0.6809523,0.0267 -1.3625928,0.0196 -2.0439198,0.0285 -0.524709,0.009 -1.0483075,-0.0238 -1.570958,-0.0658 -0.5091803,-0.0476 -1.0184101,-0.0924 -1.5288589,-0.12396 -0.4828698,-0.0392 -0.9667589,-0.0328 -1.4503099,-0.0149 -0.2202663,0.0145 -0.4421777,0.0195 -0.6615962,0.0455 -0.064399,0.008 -0.1294035,0.014 -0.1921707,0.0303 -0.4310026,0.11196 0.162517,0.009 -0.2819505,0.0775 0,0 0.016212,0.0117 0.016212,0.0117 v 0 c 0.284294,0.0195 0.1310545,0.005 0.4592411,0.0495 0.3021818,0.0233 0.6044083,-0.0329 0.906111,-0.0373 0.485076,-0.0186 0.9703726,-0.014 1.4547252,0.022 0.5120984,0.0338 1.0231356,0.0774 1.5338251,0.12808 0.5157404,0.0368 1.0324246,0.0643 1.5497181,0.0469 0.6846512,-0.009 1.3693241,-0.0203 2.0540366,-0.0217 0.356864,-0.007 0.7127458,-0.008 1.0695924,-0.005 0.120419,9.8e-4 0.151419,-0.001 0.261967,-0.005 z" />
    <path
       style="fill:#000000;stroke-width:0.264583"
       id="path4"
       d="m 10.47283,294.27828 c -0.200769,-0.2934 -0.444766,-0.54116 -0.6922192,-0.79474 C 9.1128516,292.813 8.4659914,292.12222 7.8178617,291.43283 7.1522793,290.72437 6.4812467,290.02088 5.8010654,289.3264 5.3288191,288.84814 4.8504545,288.37603 4.392634,287.88382 4.0411319,287.48674 3.7010325,287.08 3.3442231,286.68761 c -0.0055,-0.006 -0.2679671,-0.28902 -0.2849089,-0.3029 -0.083897,-0.0688 -0.1775653,-0.12467 -0.2663479,-0.187 0,0 -0.018457,-0.008 -0.018457,-0.008 v 0 c -0.00946,0.0213 -0.038764,0.043 -0.028383,0.0638 0.061168,0.12282 0.2236385,0.17563 0.2809237,0.30085 0.3682603,0.39547 0.7144028,0.81026 1.0787907,1.20923 0.4689282,0.49791 0.9524529,0.98125 1.4430322,1.45782 0.6890825,0.69323 1.3705481,1.39404 2.033277,2.11262 0.6422702,0.68201 1.2833199,1.36528 1.9339975,2.03929 0.2561419,0.26122 0.5239836,0.51595 0.7422576,0.81074 z" />
    <path
       style="fill:#000000;stroke-width:0.264583"
       id="path5"
       d="m 12.178923,291.20143 c -0.368995,-0.0324 -0.739831,-0.0272 -1.109854,-0.0306 -0.342581,-0.008 -0.685175,-0.0155 -1.027744,-0.0243 -0.130005,-0.003 -0.2599655,-0.01 -0.3900129,-0.0101 -0.2826203,-0.001 -0.6002338,0.0128 -0.8823979,0.0227 -0.7263882,0.027 -1.4520048,0.0714 -2.1785136,0.095 -0.5395267,0.0125 -1.0773548,-0.037 -1.6126476,-0.0985 -0.4670418,-0.0513 -0.9326928,-0.11474 -1.400781,-0.15592 -0.4148312,-0.0312 -0.8305522,-0.0443 -1.2446003,-0.0853 -0.2049002,-0.0204 -0.4085591,-0.0515 -0.6129609,-0.0758 -0.056941,-0.007 -0.115306,-0.0303 -0.171149,-0.0173 -0.02488,0.006 -0.025717,0.0442 -0.038576,0.0662 0,0 0.015983,0.012 0.015983,0.012 v 0 c 0.096406,0.0404 0.1896998,0.0892 0.2892195,0.12122 0.062477,0.0201 0.129047,0.024 0.1939054,0.034 0.2040562,0.0314 0.4097815,0.0536 0.6149923,0.0756 0.1614147,0.015 0.2788204,0.0272 0.4400955,0.0372 0.2663357,0.0165 0.5335691,0.0188 0.7994164,0.044 0.4664908,0.0411 0.9312077,0.0987 1.3962497,0.15349 0.5277575,0.0549 1.0578089,0.0988 1.58896,0.0748 0.7074598,-0.0391 1.4144871,-0.0822 2.120986,-0.13615 0.4239001,-0.0153 0.4649827,-0.0227 0.8908521,-0.0144 0.4773303,0.009 0.9540203,0.049 1.4316973,0.0438 0.229571,10e-4 0.32729,1.2e-4 0.553647,0.009 0.163954,0.006 0.328266,0.0226 0.492422,0.0236 0.02093,1.2e-4 0.04183,-0.001 0.06275,-0.002 z" />
    <path
       style="fill:#000000;stroke-width:0.264583"
       id="path6"
       d="m 12.399483,291.17505 c -0.311546,-0.34909 -0.64175,-0.68097 -0.964283,-1.01987 -0.612771,-0.65834 -1.23263,-1.30995 -1.8607198,-1.95368 -0.6075505,-0.62011 -1.1896847,-1.26421 -1.7955882,-1.88585 -0.3430442,-0.34776 -0.6912951,-0.69024 -1.0334511,-1.03888 -0.2968834,-0.30022 -0.5853486,-0.6085 -0.8714177,-0.91898 -0.1755555,-0.19412 -0.3474172,-0.39156 -0.517566,-0.59043 -0.046626,-0.0545 -0.088809,-0.1131 -0.1397193,-0.16362 -0.07161,-0.0711 -0.151302,-0.13348 -0.226953,-0.20022 -0.051522,-0.0534 -0.1030444,-0.1068 -0.1545667,-0.1602 0,0 -0.018391,-0.008 -0.018391,-0.008 v 0 c 0.024548,0.0419 0.049095,0.0838 0.073642,0.12572 0.047491,0.17832 0.00802,0.094 0.1601827,0.27677 0.1689407,0.20287 0.3479597,0.3972 0.523616,0.59418 0.2868832,0.31348 0.5806964,0.62054 0.8788715,0.92329 0.3505309,0.35506 0.706523,0.70452 1.0646371,1.05193 0.6293935,0.62541 1.2365096,1.27261 1.8539426,1.90974 0.6115891,0.64121 1.2235189,1.28209 1.8208349,1.93671 0.146469,0.15752 0.294536,0.31886 0.444949,0.47286 0.151378,0.15498 0.308942,0.30448 0.457368,0.46238 0.02751,0.0293 0.05298,0.0604 0.07946,0.0906 z" />
    <path
       style="fill:#000000;stroke-width:0.264583"
       id="path7"
       d="m 14.076412,287.78327 c -0.354781,-0.0879 -0.719459,-0.12268 -1.081664,-0.16487 -0.940667,-0.094 -1.87172,-0.2592 -2.801714,-0.42524 -0.169288,-0.031 -0.3386545,-0.0616 -0.5078627,-0.0931 -0.1205225,-0.0224 -0.8620509,-0.16366 -0.9899489,-0.18452 -0.5220459,-0.0851 -1.0483257,-0.14032 -1.5741745,-0.19499 -0.785757,-0.0826 -1.5762002,-0.0715 -2.3632817,-0.0199 -0.4146979,0.0252 -0.8285298,0.0627 -1.238957,0.12738 -0.324231,0.0593 -0.6523464,0.0815 -0.9812844,0.0894 -0.1583234,-0.003 -0.3166198,0.004 -0.4748734,0.005 -0.051028,3.7e-4 -0.102054,-0.003 -0.1530746,-0.002 -0.043378,7.6e-4 -0.092788,-0.0154 -0.129969,0.007 -0.022937,0.0138 -0.00888,0.0528 -0.013314,0.0792 -0.032484,-2e-4 -0.064968,-4e-4 -0.097452,-6.1e-4 0,0 0.01613,0.0118 0.01613,0.0118 v 0 c 0.035933,0.003 0.071866,0.005 0.1077993,0.008 0.079761,0.0285 0.1570016,0.0653 0.2392833,0.0854 0.060118,0.0146 0.243497,0.01 0.3050327,0.0106 0.1630518,0.003 0.3260856,0.0112 0.4892358,0.004 0.3285268,-0.0111 0.6575672,-0.0339 0.9810208,-0.0953 0.3960202,-0.0658 0.7946705,-0.111 1.1934842,-0.15623 0.2341528,-0.0204 0.383233,-0.0358 0.6217044,-0.0458 0.566578,-0.0238 1.1347725,-0.009 1.6995598,0.0411 0.4487582,0.0447 0.5915586,0.0542 1.0438167,0.11866 0.6831029,0.0974 1.3585646,0.23971 2.0371622,0.36307 0.944751,0.16661 1.890497,0.33067 2.842086,0.45371 0.362474,0.0492 0.726362,0.0932 1.084128,0.17092 z" />
    <path
       style="fill:#000000;stroke-width:0.264583"
       id="path8"
       d="m 14.051502,287.86779 c -0.109601,-0.3934 -0.346949,-0.73888 -0.565316,-1.07846 -0.487842,-0.72909 -1.019864,-1.427 -1.542846,-2.13088 -0.471137,-0.65444 -0.97285,-1.28552 -1.479542,-1.9125 -0.30356,-0.37329 -0.6203273,-0.73698 -0.9029647,-1.12672 -0.1938264,-0.26144 -0.39556,-0.51627 -0.6142723,-0.7573 -0.1154893,-0.14186 -0.2660711,-0.23721 -0.4168336,-0.33644 0,0 -0.018476,-0.008 -0.018476,-0.008 v 0 c -0.011015,0.0105 -0.035284,0.0165 -0.033048,0.0315 0.00588,0.0396 0.134646,0.16717 0.1429423,0.17612 0.2261142,0.24425 0.4334764,0.50319 0.6385734,0.76518 0.336486,0.38456 0.6614097,0.77939 0.9952149,1.16631 0.517165,0.62575 1.015767,1.26607 1.497835,1.9193 0.524443,0.69976 1.055452,1.3961 1.536908,2.12653 0.06245,0.10033 0.126757,0.19952 0.187337,0.30099 0.119911,0.20085 0.136884,0.24243 0.236365,0.43807 0.05567,0.10948 0.113339,0.21677 0.147691,0.33532 z" />
    <path
       style="fill:#000000;stroke-width:0.264583"
       id="path3-3"
       d="m 7.5158103,283.0849 c -0.1056426,-0.14439 -0.2136945,-0.28833 -0.3408701,-0.41478 -0.031037,-0.0308 -0.063922,-0.0598 -0.095883,-0.0897 -0.038457,-0.03 -0.075792,-0.0616 -0.11537,-0.0901 -0.040033,-0.0289 -0.080536,-0.0574 -0.1232897,-0.082 -0.3796332,-0.21904 -0.7582125,-0.44017 -1.1435813,-0.64896 -0.04783,-0.0259 -0.1013831,-0.0402 -0.1539833,-0.0541 -0.1186384,-0.0313 -0.2338909,-0.0376 -0.3554458,-0.0497 -0.063373,4.3e-4 -0.1269378,-0.004 -0.1901182,0.001 -0.1688179,0.0132 -0.3057745,0.0445 -0.4693348,0.0879 -0.1634255,0.0433 -0.3092543,0.0904 -0.4669312,0.15116 -0.073792,0.0284 -0.1459849,0.0609 -0.2189773,0.0913 -0.2158617,0.10835 -0.4134933,0.24729 -0.5889419,0.41325 -0.058095,0.055 -0.1179613,0.10918 -0.1664441,0.17278 -0.1004178,0.13172 -0.1676807,0.29786 -0.236601,0.44621 -0.081574,0.2223 -0.1017917,0.25371 -0.1521831,0.48565 -0.017945,0.0826 -0.035294,0.16569 -0.043443,0.24982 -0.00881,0.091 -0.01,0.18269 -0.0073,0.27402 0.00217,0.0735 0.043351,0.48663 0.050663,0.56222 0.010563,0.0904 0.017556,0.18122 0.031689,0.2711 0.015008,0.0955 0.035215,0.19005 0.055667,0.28448 0.034843,0.16088 0.092793,0.3941 0.143464,0.55153 0.072271,0.22453 0.1092411,0.29511 0.2026709,0.50973 0.1483209,0.32466 0.3526732,0.62014 0.6202447,0.85819 0.3828384,0.34061 1.0799102,0.66616 1.3917991,0.84613 0.2472352,0.10497 0.5074984,0.17783 0.7749096,0.20722 0.1479611,0.0163 0.372695,0.019 0.5214496,0.012 0.082075,-0.004 0.1637361,-0.014 0.2456042,-0.0209 0.078161,-0.0206 0.1575536,-0.0369 0.2344825,-0.0616 0.079878,-0.0257 0.1579923,-0.0569 0.2352683,-0.0896 0.21478,-0.0909 0.423866,-0.20395 0.6014326,-0.35701 0.054526,-0.047 0.1023845,-0.10122 0.1535769,-0.15183 0.1324171,-0.14614 0.2537058,-0.3052 0.345807,-0.48031 0.094266,-0.17923 0.1570032,-0.37244 0.219697,-0.56409 0.031521,-0.10252 0.090311,-0.28512 0.1123797,-0.39086 0.014441,-0.0692 0.023169,-0.13948 0.032301,-0.20957 0.019362,-0.14861 0.029097,-0.27171 0.034124,-0.42141 0.00233,-0.069 0.00159,-0.13802 0.00238,-0.20702 -0.00268,-0.0676 -0.00214,-0.13541 -0.00805,-0.20281 -0.01156,-0.13162 -0.040503,-0.28655 -0.067536,-0.41579 -0.023654,-0.11309 -0.06022,-0.26709 -0.093962,-0.37838 -0.018891,-0.0623 -0.041499,-0.12344 -0.062248,-0.18516 -0.059077,-0.17358 -0.1283803,-0.34331 -0.2031122,-0.51066 -0.021609,-0.0484 -0.042323,-0.0972 -0.066203,-0.14455 -0.051383,-0.1018 -0.092327,-0.16355 -0.1516491,-0.25938 -0.1253892,-0.17884 -0.2815611,-0.33531 -0.4584362,-0.46344 -0.033485,-0.0242 -0.068454,-0.0464 -0.1026821,-0.0696 -0.4728393,-0.30005 -0.9684285,-0.57068 -1.4554978,-0.84141 -0.029917,-0.0166 -0.1102286,-0.0661 -0.096665,-0.0346 0.030693,0.0711 0.1046999,0.11417 0.156028,0.17217 0.040821,0.0461 0.080263,0.0935 0.120395,0.14019 0,0 0.047508,0.0366 0.047508,0.0366 v 0 c 0.1029803,0.0653 0.2071042,0.12885 0.3089413,0.19593 0.1238668,0.0816 0.243306,0.16983 0.3680872,0.25001 0.039456,0.0254 0.1645653,0.09 0.1241161,0.0663 -0.3389387,-0.1989 -0.679658,-0.39475 -1.0196717,-0.5918 -0.035074,-0.0203 0.069996,0.0409 0.1048515,0.0616 0.035598,0.0211 0.071005,0.0426 0.106507,0.0639 0.066854,0.0409 0.1508575,0.091 0.2150869,0.13542 0.1490708,0.10317 0.2826986,0.2262 0.3990052,0.36526 0.032233,0.0405 0.066364,0.0795 0.096699,0.12145 0.1723779,0.23822 0.2846676,0.51274 0.3920596,0.78437 0.051235,0.14599 0.07642,0.21068 0.1187561,0.3596 0.073225,0.25757 0.1170797,0.52187 0.1350314,0.78903 0.00177,0.0676 0.00612,0.13514 0.00531,0.20273 -0.00406,0.33733 -0.073261,0.67026 -0.1592112,0.99505 -0.050639,0.14835 -0.072296,0.22458 -0.1378611,0.36656 -0.1037059,0.22458 -0.2404608,0.43933 -0.3954161,0.6317 -0.046664,0.0474 -0.090613,0.0977 -0.1399913,0.1423 -0.2168605,0.19588 -0.4905534,0.35233 -0.7742135,0.42505 -0.077616,0.0199 -0.157729,0.0283 -0.2365933,0.0425 -0.1908424,0.02 -0.2719322,0.0351 -0.466661,0.0276 -0.3449749,-0.0133 -0.6820279,-0.0994 -0.9927125,-0.24903 0.2391529,0.143 0.4737227,0.29396 0.7174585,0.42901 0.077345,0.0428 -0.1480145,-0.0972 -0.2174296,-0.15197 -0.2839177,-0.22403 -0.5062966,-0.51295 -0.6735085,-0.83201 -0.031328,-0.0781 -0.065111,-0.1553 -0.093984,-0.23435 -0.1576068,-0.43154 -0.2596055,-0.88097 -0.3206639,-1.33583 -0.00588,-0.0886 -0.016542,-0.17708 -0.017632,-0.26591 -0.00106,-0.0856 0.00575,-0.17119 0.011224,-0.25665 0.00843,-0.13163 0.028937,-0.36416 0.054956,-0.49521 0.042741,-0.21527 0.069092,-0.25389 0.1502436,-0.45626 0.040393,-0.0688 0.076135,-0.1405 0.1211795,-0.20633 0.048328,-0.0706 0.2299134,-0.2884 0.294654,-0.34984 0.1702022,-0.16151 0.3773853,-0.27325 0.589557,-0.36868 0.070177,-0.0296 0.1395421,-0.0612 0.2105303,-0.0887 0.2181477,-0.0847 0.4435975,-0.15454 0.6739343,-0.19724 0.067676,-0.0125 0.1357008,-0.0251 0.2044044,-0.0293 0.059569,-0.004 0.1192868,0.004 0.17893,0.006 0.1658234,0.0228 0.1754111,0.016 0.3339312,0.0701 0.046332,0.0158 0.1775565,0.0813 0.1359752,0.0554 -0.2875169,-0.17857 -0.5836669,-0.34285 -0.8752957,-0.51463 -0.041349,-0.0244 0.083957,0.0466 0.1244558,0.0724 0.037502,0.0238 0.072899,0.0508 0.1093483,0.0763 0.031535,0.0266 0.064188,0.0519 0.094606,0.0797 0.1097682,0.10053 0.2064467,0.21742 0.2690418,0.35316 z" />
    <path
       style="fill:#000000;stroke-width:0.264583"
       id="path4-6"
       d="m 5.1161381,282.64104 c 0.013232,0.0632 -0.019722,0.1233 -0.018325,0.18537 0.00119,0.0529 0.0161,0.1047 0.022902,0.15723 0.00762,0.0589 0.013324,0.11794 0.02037,0.17686 0.00773,0.0647 0.019383,0.12896 0.023958,0.19393 0.00477,0.0677 0.00268,0.1356 0.00402,0.2034 0.00713,0.19786 0.00363,0.39612 -0.00354,0.59394 -0.00613,0.16919 -0.011967,0.17134 -0.012655,0.33983 -2.511e-4,0.0615 0.00185,0.12296 0.00279,0.18445 -0.00379,0.25352 0.0043,0.50701 0.00376,0.76052 -2.344e-4,0.11162 -0.0023,0.22322 -0.00304,0.33483 -0.00734,0.12722 -0.00679,0.25466 -0.00873,0.38202 -9.261e-4,0.0611 -0.00955,0.12583 0.015494,0.18472 0.014184,0.0333 0.039412,0.0608 0.059119,0.0913 0.4377593,0.27443 0.2357221,0.14868 0.6057533,0.37782 0,0 0.053673,0.0268 0.053673,0.0268 v 0 c 0.362477,0.13769 0.1643724,0.0626 0.5943933,0.22496 0.017261,-0.0111 0.041379,-0.0156 0.051784,-0.0333 0.020307,-0.0345 0.00417,-0.143 0.00259,-0.1704 -0.00757,-0.13085 -0.00757,-0.26206 -0.016473,-0.39285 -0.00546,-0.36697 -0.011435,-0.73393 -0.015692,-1.10092 0.012208,-0.38325 0.010726,-0.76716 -0.021254,-1.14956 -0.00931,-0.0736 -0.018627,-0.1473 -0.027941,-0.22095 -0.00636,-0.0651 -0.010946,-0.13048 -0.019076,-0.19542 -0.00767,-0.0612 -0.018926,-0.12193 -0.028293,-0.18291 -0.00806,-0.0525 -0.010615,-0.10612 -0.023998,-0.15752 -0.012729,-0.0489 -0.037729,-0.0938 -0.053889,-0.14167 -0.00944,-0.028 -0.015219,-0.0571 -0.022828,-0.0856 z" />
    <path
       style="fill:#000000;stroke-width:0.264583"
       id="path5-7"
       d="m 7.4108821,284.41177 c -0.023151,0.002 -0.046246,0.005 -0.069456,0.005 -0.021646,3.7e-4 -0.2076654,-0.005 -0.2215206,-0.005 -0.1457259,-0.005 -0.2912695,-0.0151 -0.4368903,-0.0226 -0.3364124,-0.0208 -0.6715866,-0.0578 -1.0080258,-0.0786 -0.2585937,-0.015 -0.5166219,0.009 -0.7738197,0.0323 -0.1989556,0.0199 -0.3974923,0.0438 -0.5965206,0.0628 -0.2094601,0.0183 -0.418052,0.0445 -0.6270112,0.0674 -0.1539341,0.0108 -0.3075996,0.0225 -0.4611399,0.0379 -0.064985,0.006 -0.1298782,0.0132 -0.1947516,0.0203 -0.012077,10e-4 -0.026059,-0.002 -0.036182,0.004 -0.00616,0.004 -0.00231,0.0146 -0.00346,0.0219 0.4349852,0.32538 0.2678719,0.19934 0.5024592,0.37665 0,0 0.049777,0.0335 0.049777,0.0335 v 0 c 0.254672,0.17209 0.072761,0.0491 0.545629,0.369 0.018722,0.005 0.036912,0.0129 0.056168,0.0152 0.012256,0.002 0.024575,-0.002 0.03684,-0.004 0.063124,-0.007 0.126275,-0.0153 0.1888014,-0.0267 0.1418823,-0.0217 0.2847626,-0.0364 0.4260771,-0.062 0.2053897,-0.0273 0.4111098,-0.0524 0.6175933,-0.0697 0.071628,-0.007 0.1434335,-0.0114 0.2150449,-0.0183 0.1246947,-0.012 0.2481381,-0.0338 0.3712048,-0.0566 0.233257,-0.0375 0.4685679,-0.0636 0.7052821,-0.0542 0.074791,0.002 0.2211898,0.007 0.2941794,0.011 0.2302632,0.013 0.4598011,0.0375 0.6900085,0.0515 0.1578565,0.01 0.161513,0.0118 0.3110815,0.0149 0.05317,10e-4 0.1863754,10e-4 0.2416791,10e-4 0.03336,-2.1e-4 0.066718,-0.002 0.1000742,-10e-4 0.027864,4.5e-4 0.055659,0.003 0.083488,0.004 z" />
    <path
       style="fill:#000000;stroke-width:0.264583"
       id="path6-5"
       d="m 5.1930495,282.20937 c 0.035028,0.12587 0.0845,0.26384 0.1759919,0.36056 0.1166736,0.12335 0.2627701,0.21624 0.380809,0.33828 0.069951,0.0723 0.1202838,0.16133 0.1804254,0.242 0,0 0.054001,0.0262 0.054001,0.0262 v 0 c 0.2934163,-0.2738 -0.1611403,0.10599 0.4098033,-0.11611 0.079677,-0.031 0.016248,-0.2337 -0.00274,-0.28413 z" />
    <path
       style="fill:#000000;stroke-width:0.264583"
       id="path7-3"
       d="m 5.2334043,285.99619 c -0.00755,0.0154 -0.023074,0.0291 -0.022651,0.0463 0.00106,0.0423 0.01865,0.0825 0.026873,0.12405 0.011636,0.0587 0.018386,0.11847 0.032698,0.1766 0.018542,0.0753 0.014462,0.16502 0.06573,0.22323 0.1593649,0.18094 0.3885065,0.29149 0.5473716,0.47287 0.048402,0.0553 0.035974,0.14245 0.053961,0.21368 0,0 0.053649,0.0269 0.053649,0.0269 v 0 c 0.063501,-0.40843 -0.060598,0.01 0.5435402,-0.11393 0.057532,-0.0118 0.028603,-0.11418 0.036225,-0.17241 0.00692,-0.0528 0.00513,-0.10647 0.00725,-0.15972 0.00159,-0.0399 0.011464,-0.0805 0.00389,-0.11967 -0.00627,-0.0325 -0.02945,-0.0592 -0.044175,-0.0888 z" />
  </g>
</svg>
