<?xml version="1.0" encoding="UTF-8" standalone="no"?>
<!-- Created with Inkscape (http://www.inkscape.org/) -->

<svg
   width="64"
   height="64"
   viewBox="0 0 16.933333 16.933334"
   version="1.1"
   id="svg8"
   inkscape:version="1.4.2 (ebf0e940d0, 2025-05-08)"
   sodipodi:docname="add-surfacesource.svg"
   inkscape:export-filename="C:\Users\Ali\Documents\inkscape\freecad\pyrate\pyrate_logo_3_256x256.png"
   inkscape:export-xdpi="1536"
   inkscape:export-ydpi="1536"
   xmlns:inkscape="http://www.inkscape.org/namespaces/inkscape"
   xmlns:sodipodi="http://sodipodi.sourceforge.net/DTD/sodipodi-0.dtd"
   xmlns:xlink="http://www.w3.org/1999/xlink"
   xmlns="http://www.w3.org/2000/svg"
   xmlns:svg="http://www.w3.org/2000/svg"
   xmlns:rdf="http://www.w3.org/1999/02/22-rdf-syntax-ns#"
   xmlns:cc="http://creativecommons.org/ns#"
   xmlns:dc="http://purl.org/dc/elements/1.1/">
  <defs
     id="defs2">
    <inkscape:path-effect
       effect="bspline"
       id="path-effect20"
       is_visible="true"
       lpeversion="1.3"
       weight="33.333333"
       steps="2"
       helper_size="0"
       apply_no_weight="true"
       apply_with_weight="true"
       only_selected="false"
       uniform="false" />
    <inkscape:path-effect
       effect="bspline"
       id="path-effect19"
       is_visible="true"
       lpeversion="1.3"
       weight="33.333333"
       steps="2"
       helper_size="0"
       apply_no_weight="true"
       apply_with_weight="true"
       only_selected="false"
       uniform="false" />
    <inkscape:path-effect
       effect="bspline"
       id="path-effect18"
       is_visible="true"
       lpeversion="1.3"
       weight="33.333333"
       steps="2"
       helper_size="0"
       apply_no_weight="true"
       apply_with_weight="true"
       only_selected="false"
       uniform="false" />
    <inkscape:path-effect
       effect="bspline"
       id="path-effect17"
       is_visible="true"
       lpeversion="1.3"
       weight="33.333333"
       steps="2"
       helper_size="0"
       apply_no_weight="true"
       apply_with_weight="true"
       only_selected="false"
       uniform="false" />
    <inkscape:path-effect
       effect="bspline"
       id="path-effect16"
       is_visible="true"
       lpeversion="1.3"
       weight="33.333333"
       steps="2"
       helper_size="0"
       apply_no_weight="true"
       apply_with_weight="true"
       only_selected="false"
       uniform="false" />
    <inkscape:path-effect
       effect="bspline"
       id="path-effect15"
       is_visible="true"
       lpeversion="1.3"
       weight="33.333333"
       steps="2"
       helper_size="0"
       apply_no_weight="true"
       apply_with_weight="true"
       only_selected="false"
       uniform="false" />
    <inkscape:path-effect
       effect="bspline"
       id="path-effect14"
       is_visible="true"
       lpeversion="1.3"
       weight="33.333333"
       steps="2"
       helper_size="0"
       apply_no_weight="true"
       apply_with_weight="true"
       only_selected="false"
       uniform="false" />
    <inkscape:path-effect
       effect="bspline"
       id="path-effect13"
       is_visible="true"
       lpeversion="1.3"
       weight="33.333333"
       steps="2"
       helper_size="0"
       apply_no_weight="true"
       apply_with_weight="true"
       only_selected="false"
       uniform="false" />
    <inkscape:path-effect
       effect="bspline"
       id="path-effect12"
       is_visible="true"
       lpeversion="1.3"
       weight="33.333333"
       steps="2"
       helper_size="0"
       apply_no_weight="true"
       apply_with_weight="true"
       only_selected="false"
       uniform="false" />
    <inkscape:path-effect
       effect="bspline"
       id="path-effect11"
       is_visible="true"
       lpeversion="1.3"
       weight="33.333333"
       steps="2"
       helper_size="0"
       apply_no_weight="true"
       apply_with_weight="true"
       only_selected="false"
       uniform="false" />
    <inkscape:path-effect
       effect="bspline"
       id="path-effect10"
       is_visible="true"
       lpeversion="1.3"
       weight="33.333333"
       steps="2"
       helper_size="0"
       apply_no_weight="true"
       apply_with_weight="true"
       only_selected="false"
       uniform="false" />
    <inkscape:path-effect
       effect="bspline"
       id="path-effect9"
       is_visible="true"
       lpeversion="1.3"
       weight="33.333333"
       steps="2"
       helper_size="0"
       apply_no_weight="true"
       apply_with_weight="true"
       only_selected="false"
       uniform="false" />
    <inkscape:path-effect
       effect="bspline"
       id="path-effect7"
       is_visible="true"
       lpeversion="1.3"
       weight="33.333333"
       steps="2"
       helper_size="0"
       apply_no_weight="true"
       apply_with_weight="true"
       only_selected="false"
       uniform="false" />
    <inkscape:path-effect
       effect="bspline"
       id="path-effect6"
       is_visible="true"
       lpeversion="1.3"
       weight="33.333333"
       steps="2"
       helper_size="0"
       apply_no_weight="true"
       apply_with_weight="true"
       only_selected="false"
       uniform="false" />
    <inkscape:path-effect
       effect="bspline"
       id="path-effect5"
       is_visible="true"
       lpeversion="1.3"
       weight="33.333333"
       steps="2"
       helper_size="0"
       apply_no_weight="true"
       apply_with_weight="true"
       only_selected="false"
       uniform="false" />
    <inkscape:path-effect
       effect="bspline"
       id="path-effect4"
       is_visible="true"
       lpeversion="1.3"
       weight="33.333333"
       steps="2"
       helper_size="0"
       apply_no_weight="true"
       apply_with_weight="true"
       only_selected="false"
       uniform="false" />
    <inkscape:path-effect
       effect="bspline"
       id="path-effect3"
       is_visible="true"
       lpeversion="1.3"
       weight="33.333333"
       steps="2"
       helper_size="0"
       apply_no_weight="true"
       apply_with_weight="true"
       only_selected="false"
       uniform="false" />
    <inkscape:path-effect
       effect="bspline"
       id="path-effect2"
       is_visible="true"
       lpeversion="1.3"
       weight="33.333333"
       steps="2"
       helper_size="0"
       apply_no_weight="true"
       apply_with_weight="true"
       only_selected="false"
       uniform="false" />
    <inkscape:path-effect
       effect="bspline"
       id="path-effect1"
       is_visible="true"
       lpeversion="1.3"
       weight="33.333333"
       steps="2"
       helper_size="0"
       apply_no_weight="true"
       apply_with_weight="true"
       only_selected="false"
       uniform="false" />
    <inkscape:path-effect
       effect="bspline"
       id="path-effect8"
       is_visible="true"
       lpeversion="1.3"
       weight="33.333333"
       steps="2"
       helper_size="0"
       apply_no_weight="true"
       apply_with_weight="true"
       only_selected="false"
       uniform="false" />
    <linearGradient
       id="linearGradient1245"
       inkscape:collect="always">
      <stop
         id="stop1241"
         offset="0"
         style="stop-color:#aaccff;stop-opacity:1" />
      <stop
         id="stop1243"
         offset="1"
         style="stop-color:#d5f6ff;stop-opacity:1" />
    </linearGradient>
    <linearGradient
       id="linearGradient1167"
       inkscape:collect="always">
      <stop
         id="stop1161"
         offset="0"
         style="stop-color:#00112b;stop-opacity:1" />
      <stop
         id="stop1163"
         offset="1"
         style="stop-color:#2a7fff;stop-opacity:1" />
    </linearGradient>
    <linearGradient
       inkscape:collect="always"
       id="linearGradient1166">
      <stop
         style="stop-color:#41dcff;stop-opacity:1"
         offset="0"
         id="stop1162" />
      <stop
         style="stop-color:#40e0ff;stop-opacity:1"
         offset="1"
         id="stop1164" />
    </linearGradient>
    <linearGradient
       inkscape:collect="always"
       id="linearGradient1058">
      <stop
         style="stop-color:#5175ff;stop-opacity:1"
         offset="0"
         id="stop1054" />
      <stop
         style="stop-color:#40e0ff;stop-opacity:1"
         offset="1"
         id="stop1056" />
    </linearGradient>
    <linearGradient
       id="linearGradient1045"
       inkscape:collect="always">
      <stop
         id="stop1041"
         offset="0"
         style="stop-color:#293449;stop-opacity:1" />
      <stop
         id="stop1043"
         offset="1"
         style="stop-color:#485c80;stop-opacity:1" />
    </linearGradient>
    <linearGradient
       inkscape:collect="always"
       id="linearGradient2480">
      <stop
         style="stop-color:#cc0a08;stop-opacity:1"
         offset="0"
         id="stop2476" />
      <stop
         style="stop-color:#f67d89;stop-opacity:1"
         offset="1"
         id="stop2478" />
    </linearGradient>
    <linearGradient
       id="linearGradient942-5"
       inkscape:collect="always">
      <stop
         id="stop938"
         offset="0"
         style="stop-color:#002076;stop-opacity:1" />
      <stop
         id="stop940"
         offset="1"
         style="stop-color:#40e0ff;stop-opacity:1" />
    </linearGradient>
    <linearGradient
       gradientUnits="userSpaceOnUse"
       y2="31.377413"
       x2="86.543877"
       y1="282.62048"
       x1="20.010984"
       id="linearGradient944"
       xlink:href="#linearGradient942-5"
       inkscape:collect="always" />
    <linearGradient
       gradientUnits="userSpaceOnUse"
       y2="112.66277"
       x2="98.204803"
       y1="257.94366"
       x1="13.302045"
       id="linearGradient952"
       xlink:href="#linearGradient2480"
       inkscape:collect="always" />
    <linearGradient
       gradientTransform="translate(0,1.5875)"
       gradientUnits="userSpaceOnUse"
       y2="133.50244"
       x2="146.68025"
       y1="272.83194"
       x1="101.05925"
       id="linearGradient960"
       xlink:href="#linearGradient2480"
       inkscape:collect="always" />
    <filter
       id="filter1495"
       inkscape:label="Drop Shadow"
       style="color-interpolation-filters:sRGB">
      <feFlood
         id="feFlood1485"
         result="flood"
         flood-color="rgb(0,0,0)"
         flood-opacity="0.498039" />
      <feComposite
         id="feComposite1487"
         result="composite1"
         operator="in"
         in2="SourceGraphic"
         in="flood" />
      <feGaussianBlur
         id="feGaussianBlur1489"
         result="blur"
         stdDeviation="4"
         in="composite1" />
      <feOffset
         id="feOffset1491"
         result="offset"
         dy="4"
         dx="2" />
      <feComposite
         id="feComposite1493"
         result="composite2"
         operator="over"
         in2="offset"
         in="SourceGraphic" />
    </filter>
    <filter
       id="filter2066"
       inkscape:label="Drop Shadow"
       style="color-interpolation-filters:sRGB">
      <feFlood
         id="feFlood2056"
         result="flood"
         flood-color="rgb(0,0,0)"
         flood-opacity="0.498039" />
      <feComposite
         id="feComposite2058"
         result="composite1"
         operator="in"
         in2="SourceGraphic"
         in="flood" />
      <feGaussianBlur
         id="feGaussianBlur2060"
         result="blur"
         stdDeviation="20"
         in="composite1" />
      <feOffset
         id="feOffset2062"
         result="offset"
         dy="20"
         dx="6" />
      <feComposite
         id="feComposite2064"
         result="composite2"
         operator="over"
         in2="offset"
         in="SourceGraphic" />
    </filter>
    <filter
       id="filter2474"
       inkscape:label="Drop Shadow"
       style="color-interpolation-filters:sRGB">
      <feFlood
         id="feFlood2464"
         result="flood"
         flood-color="rgb(0,0,0)"
         flood-opacity="0.498039" />
      <feComposite
         id="feComposite2466"
         result="composite1"
         operator="in"
         in2="SourceGraphic"
         in="flood" />
      <feGaussianBlur
         id="feGaussianBlur2468"
         result="blur"
         stdDeviation="4"
         in="composite1" />
      <feOffset
         id="feOffset2470"
         result="offset"
         dy="4.8"
         dx="1.5" />
      <feComposite
         id="feComposite2472"
         result="composite2"
         operator="over"
         in2="offset"
         in="SourceGraphic" />
    </filter>
    <linearGradient
       gradientTransform="translate(0,290.28571)"
       gradientUnits="userSpaceOnUse"
       y2="398.20157"
       x2="-973.7356"
       y1="746.96252"
       x1="-1123.2253"
       id="linearGradient1033"
       xlink:href="#linearGradient1058"
       inkscape:collect="always" />
    <linearGradient
       gradientTransform="translate(0,213.65424)"
       gradientUnits="userSpaceOnUse"
       y2="851.35718"
       x2="-987.59387"
       y1="1234.0872"
       x1="-1127.1049"
       id="linearGradient1047"
       xlink:href="#linearGradient1045"
       inkscape:collect="always" />
    <linearGradient
       gradientTransform="translate(-19.199562,-44.652005)"
       gradientUnits="userSpaceOnUse"
       y2="1157.111"
       x2="-544.48077"
       y1="1495.4609"
       x1="-689.72717"
       id="linearGradient1134"
       xlink:href="#linearGradient1045"
       inkscape:collect="always" />
    <linearGradient
       y2="851.35718"
       x2="-987.59387"
       y1="1234.0872"
       x1="-1127.1049"
       gradientTransform="translate(0,213.65424)"
       gradientUnits="userSpaceOnUse"
       id="linearGradient1160"
       xlink:href="#linearGradient1166"
       inkscape:collect="always" />
    <linearGradient
       id="linearGradient3682-0">
      <stop
         style="stop-color:#a40000;stop-opacity:1"
         offset="0"
         id="stop3684-0" />
      <stop
         style="stop-color:#ef2929;stop-opacity:1"
         offset="1"
         id="stop3686-0" />
    </linearGradient>
    <linearGradient
       id="linearGradient3864-9">
      <stop
         id="stop3866-1"
         offset="0"
         style="stop-color:#204a87;stop-opacity:1" />
      <stop
         id="stop3868-1"
         offset="1"
         style="stop-color:#729fcf;stop-opacity:1" />
    </linearGradient>
    <linearGradient
       id="linearGradient3682-0-3">
      <stop
         style="stop-color:#ff390f;stop-opacity:1"
         offset="0"
         id="stop3684-0-7" />
      <stop
         style="stop-color:#ff1000;stop-opacity:1;"
         offset="1"
         id="stop3686-0-5" />
    </linearGradient>
    <linearGradient
       id="linearGradient3864-9-7">
      <stop
         id="stop3866-1-7"
         offset="0"
         style="stop-color:#316cab;stop-opacity:1" />
      <stop
         id="stop3868-1-4"
         offset="1"
         style="stop-color:#002ca8;stop-opacity:1" />
    </linearGradient>
    <linearGradient
       id="linearGradient3682">
      <stop
         id="stop3684"
         offset="0"
         style="stop-color:#ff6d0f;stop-opacity:1;" />
      <stop
         id="stop3686"
         offset="1"
         style="stop-color:#ff1000;stop-opacity:1;" />
    </linearGradient>
    <linearGradient
       id="linearGradient3864">
      <stop
         style="stop-color:#71b2f8;stop-opacity:1;"
         offset="0"
         id="stop3866" />
      <stop
         style="stop-color:#002795;stop-opacity:1;"
         offset="1"
         id="stop3868" />
    </linearGradient>
    <linearGradient
       gradientTransform="matrix(0.79118995,0,0,0.96421064,-462.08318,3.6442021)"
       gradientUnits="userSpaceOnUse"
       y2="-97.402824"
       x2="-2013.709"
       y1="301.0498"
       x1="-2412.1616"
       id="linearGradient1169"
       xlink:href="#linearGradient1167"
       inkscape:collect="always" />
    <linearGradient
       gradientUnits="userSpaceOnUse"
       y2="-9.260396"
       x2="-2055.4119"
       y1="284.23495"
       x1="-2302.6389"
       id="linearGradient1239"
       xlink:href="#linearGradient1245"
       inkscape:collect="always" />
    <linearGradient
       gradientUnits="userSpaceOnUse"
       y2="1276.7333"
       x2="4327.0557"
       y1="2126.7334"
       x1="3477.0554"
       id="linearGradient3835"
       xlink:href="#linearGradient1045"
       inkscape:collect="always" />
    <mask
       id="mask5747"
       maskUnits="userSpaceOnUse">
      <path
         inkscape:connector-curvature="0"
         id="path5749"
         d="m -1081.0913,3822.7064 -30.9051,-17.7313 -13.6473,4.7355 -13.0203,33.2785 -20.4811,-1.0774 -9.3432,-34.4101 -13.0752,-6.2608 -32.6113,14.2658 -13.7762,-15.3072 17.7314,-30.9049 -4.8453,-13.606 -33.2766,-13.0222 1.1905,-20.5206 34.4107,-9.3432 6.2607,-13.0752 -14.3755,-32.5713 15.3071,-13.7747 30.9051,17.7313 13.7154,-4.8866 12.9107,-33.2346 20.6323,1.1528 9.2335,34.4501 13.0752,6.2606 32.681,-14.4151 13.7747,15.3067 -17.7319,30.9052 4.7754,13.7554 33.2372,12.9128 -1.0398,20.5901 -34.4501,9.2334 -6.2622,13.0752 14.3073,32.721 z m -46.2858,-50.6793 6.3443,-3.6809 5.4951,-4.9832 4.4016,-5.9473 3.1652,-6.6122 1.8707,-7.1279 0.3036,-7.3064 -1.0584,-7.3012 -2.4077,-6.9339 -3.8305,-6.4135 -4.8341,-5.4277 -5.9468,-4.3992 -6.6122,-3.1652 -7.1283,-1.8709 -7.3452,-0.4154 -7.3041,1.0583 -6.9313,2.4077 -6.414,3.8307 -5.3875,4.9432 -4.441,5.8375 -3.1652,6.6122 -1.8143,7.2377 -0.4155,7.3456 1.0579,7.302 2.4078,6.9334 3.7905,6.3042 4.8741,5.5367 5.9468,4.3995 6.6122,3.1652 7.238,1.8142 7.3058,0.3038 7.302,-1.0584 6.9333,-2.4079 z"
         style="display:inline;overflow:visible;visibility:visible;fill:#ffffff;fill-opacity:1;fill-rule:evenodd;stroke:none;stroke-width:9.9998951;stroke-linecap:round;stroke-linejoin:round;stroke-miterlimit:4;stroke-dasharray:none;stroke-dashoffset:0;stroke-opacity:1;marker:none;enable-background:accumulate" />
    </mask>
    <mask
       id="mask2314"
       maskUnits="userSpaceOnUse">
      <path
         inkscape:connector-curvature="0"
         sodipodi:nodetypes="ccccccccccc"
         id="path2316"
         d="m -1868.9759,3355.7772 h -288.3976 v 59.668 h 119.3385 v 59.6685 h 59.668 v -59.6685 h 49.7232 v 99.4479 h 59.6679 z"
         style="display:inline;overflow:visible;visibility:visible;fill:#ffffff;fill-opacity:1;fill-rule:evenodd;stroke:none;stroke-width:9.99989414;stroke-linecap:butt;stroke-linejoin:miter;stroke-miterlimit:4;stroke-dasharray:none;stroke-dashoffset:0;stroke-opacity:1;marker:none;enable-background:accumulate" />
    </mask>
  </defs>
  <sodipodi:namedview
     id="base"
     pagecolor="#ffffff"
     bordercolor="#666666"
     borderopacity="1.0"
     inkscape:pageopacity="0.0"
     inkscape:pageshadow="2"
     inkscape:zoom="11.2"
     inkscape:cx="40.089286"
     inkscape:cy="9.9107143"
     inkscape:document-units="px"
     inkscape:current-layer="layer1"
     showgrid="false"
     inkscape:window-width="1916"
     inkscape:window-height="2104"
     inkscape:window-x="1920"
     inkscape:window-y="0"
     inkscape:window-maximized="1"
     units="px"
     inkscape:showpageshadow="2"
     inkscape:pagecheckerboard="0"
     inkscape:deskcolor="#d1d1d1" />
  <metadata
     id="metadata5">
    <rdf:RDF>
      <cc:Work
         rdf:about="">
        <dc:format>image/svg+xml</dc:format>
        <dc:type
           rdf:resource="http://purl.org/dc/dcmitype/StillImage" />
        <dc:title />
      </cc:Work>
    </rdf:RDF>
  </metadata>
  <path
     style="fill:#f9f9f9;fill-opacity:1;stroke:none;stroke-width:0.493466"
     d="m 11.106988,281.0746 c -1.7757009,0.0158 -3.9726868,0.18898 -5.8232102,0.49609 -1.8505234,0.30711 -3.3545252,0.74808 -4.0711039,2.13008 -0.7165786,1.382 -0.64570959,3.70493 -0.40553301,5.83894 0.24017661,2.13401 0.64964241,4.07897 1.97258151,5.1499 1.3229391,1.07094 3.5592537,1.2678 5.8586322,1.23236 2.2993784,-0.0354 4.6616814,-0.30317 5.9531034,-1.39774 1.291421,-1.09457 1.511904,-3.01592 1.500089,-5.35073 -0.01181,-2.33482 -0.25592,-5.08297 -1.055195,-6.52794 -0.799276,-1.44497 -2.153663,-1.58671 -3.929364,-1.57096 z"
     id="path1"
     inkscape:path-effect="#path-effect20"
     inkscape:original-d="m 11.528274,280.91711 c -2.1969866,0.17324 -4.3939731,0.34647 -6.59096,0.51971 -1.5040602,0.44098 -3.0080605,0.88195 -4.51209076,1.32292 0.070872,2.32303 0.14174105,4.64596 0.2126116,6.96894 0.40948236,1.94504 0.81894846,3.89 1.22842266,5.835 2.2364038,0.19687 4.4727183,0.39373 6.7090775,0.59059 2.362398,-0.26774 4.724702,-0.53546 7.087054,-0.8032 0.22049,-1.92141 0.440972,-3.84276 0.661458,-5.76413 -0.244114,-2.74826 -0.488219,-5.49641 -0.732329,-8.24461 -1.354442,-0.14174 -2.708829,-0.28348 -4.063244,-0.42522 z"
     transform="translate(0,-280.06665)" />
  <g
     inkscape:groupmode="layer"
     id="layer2"
     inkscape:label="Layer 2" />
  <g
     inkscape:label="Layer 1"
     inkscape:groupmode="layer"
     id="layer1"
     transform="translate(0,-280.06666)">
    <path
       style="fill:#000000;stroke-width:0.264583"
       id="path4-7"
       d="m 4.7324711,282.27276 c 0.013232,0.0632 -0.019722,0.1233 -0.018325,0.18537 0.00119,0.0529 0.0161,0.1047 0.022902,0.15723 0.00762,0.0589 0.013324,0.11794 0.02037,0.17686 0.00773,0.0647 0.019383,0.12896 0.023958,0.19393 0.00477,0.0677 0.00268,0.1356 0.00402,0.2034 0.00713,0.19786 0.00363,0.39612 -0.00354,0.59394 -0.00613,0.16919 -0.011967,0.17134 -0.012655,0.33983 -2.511e-4,0.0615 0.00185,0.12296 0.00279,0.18445 -0.00379,0.25352 0.0043,0.50701 0.00376,0.76052 -2.344e-4,0.11162 -0.0023,0.22322 -0.00304,0.33483 -0.00734,0.12722 -0.00679,0.25466 -0.00873,0.38202 -9.261e-4,0.0611 -0.00955,0.12583 0.015494,0.18472 0.014184,0.0333 0.039412,0.0608 0.059119,0.0913 0.4377592,0.27443 0.235722,0.14868 0.6057532,0.37782 0,0 0.053673,0.0268 0.053673,0.0268 v 0 c 0.362477,0.13769 0.1643724,0.0626 0.5943933,0.22496 0.017261,-0.0111 0.041379,-0.0156 0.051784,-0.0333 0.020307,-0.0345 0.00417,-0.143 0.00259,-0.1704 -0.00757,-0.13085 -0.00757,-0.26206 -0.016473,-0.39285 -0.00546,-0.36697 -0.011435,-0.73393 -0.015692,-1.10092 0.012208,-0.38325 0.010726,-0.76716 -0.021254,-1.14956 -0.00931,-0.0736 -0.018627,-0.1473 -0.027941,-0.22095 -0.00636,-0.0651 -0.010946,-0.13048 -0.019076,-0.19542 -0.00767,-0.0612 -0.018926,-0.12193 -0.028293,-0.18291 -0.00806,-0.0525 -0.010615,-0.10612 -0.023998,-0.15752 -0.012729,-0.0489 -0.037729,-0.0938 -0.053889,-0.14167 -0.00944,-0.028 -0.015219,-0.0571 -0.022828,-0.0856 z" />
    <path
       style="fill:#000000;stroke-width:0.264583"
       id="path5-0"
       d="m 7.027215,284.04349 c -0.023151,0.002 -0.046246,0.005 -0.069456,0.005 -0.021646,3.7e-4 -0.2076654,-0.005 -0.2215206,-0.005 -0.1457259,-0.005 -0.2912695,-0.0151 -0.4368903,-0.0226 -0.3364124,-0.0208 -0.6715866,-0.0578 -1.0080258,-0.0786 -0.2585936,-0.015 -0.5166218,0.009 -0.7738196,0.0323 -0.1989556,0.0199 -0.3974923,0.0438 -0.5965206,0.0628 -0.2094601,0.0183 -0.418052,0.0445 -0.6270112,0.0674 -0.1539341,0.0108 -0.3075996,0.0225 -0.4611399,0.0379 -0.064985,0.006 -0.1298782,0.0132 -0.1947516,0.0203 -0.012077,0.001 -0.026059,-0.002 -0.036182,0.004 -0.00616,0.004 -0.00231,0.0146 -0.00346,0.0219 0.4349852,0.32538 0.2678719,0.19934 0.5024592,0.37665 0,0 0.049777,0.0335 0.049777,0.0335 v 0 c 0.254672,0.17209 0.072761,0.0491 0.545629,0.369 0.018722,0.005 0.036912,0.0129 0.056168,0.0152 0.012256,0.002 0.024575,-0.002 0.03684,-0.004 0.063124,-0.007 0.126275,-0.0153 0.1888014,-0.0267 0.1418823,-0.0217 0.2847626,-0.0364 0.4260771,-0.062 0.2053897,-0.0273 0.4111098,-0.0524 0.6175933,-0.0697 0.071628,-0.007 0.1434334,-0.0114 0.2150448,-0.0183 0.1246947,-0.012 0.2481381,-0.0338 0.3712048,-0.0566 0.233257,-0.0375 0.4685679,-0.0636 0.7052821,-0.0542 0.074791,0.002 0.2211898,0.007 0.2941794,0.011 0.2302632,0.013 0.4598011,0.0375 0.6900086,0.0515 0.1578565,0.01 0.161513,0.0118 0.3110815,0.0149 0.05317,0.001 0.1863754,0.001 0.2416791,0.001 0.03336,-2.1e-4 0.066718,-0.002 0.1000742,-0.001 0.027864,4.5e-4 0.055659,0.003 0.083488,0.004 z" />
    <path
       style="fill:none;fill-opacity:0.466161;stroke:#000000;stroke-width:0.493466;stroke-opacity:1"
       d="m 12.213356,292.89423 c -0.15749,-0.0315 -0.31498,-0.063 -0.559091,-0.0827 -0.244111,-0.0197 -0.574837,-0.0276 -0.771706,-0.0394 -0.196869,-0.0118 -0.259845,-0.0276 -0.362221,-0.0394 -0.102376,-0.0118 -0.244108,-0.0197 -0.370103,-0.0315 -0.125996,-0.0118 -0.2362296,-0.0276 -0.3582848,-0.0433 -0.1220552,-0.0158 -0.2559295,-0.0315 -0.4842898,-0.0433 -0.2283603,-0.0118 -0.551211,-0.0197 -0.7795739,-0.0315 -0.2283629,-0.0118 -0.3622218,-0.0276 -0.6023976,-0.0394 -0.2401758,-0.0118 -0.5866503,-0.0197 -0.8386323,-0.0354 -0.2519819,-0.0158 -0.409482,-0.0394 -0.5590951,-0.0512 -0.1496131,-0.0118 -0.2913541,-0.0118 -0.3779894,-0.0158 -0.086635,-0.004 -0.1181177,-0.0118 -0.2756018,-0.0118 -0.1574841,10e-6 -0.4409618,0.008 -0.5669542,-0.16142 -0.1259925,-0.1693 -0.094495,-0.51576 -0.082683,-0.91341 0.011812,-0.39766 0.00394,-0.84651 0.00787,-1.13786 0.00394,-0.29136 0.019687,-0.42523 0.027561,-0.5709 0.00787,-0.14568 0.00787,-0.30317 0.00787,-0.47641 0,-0.17324 0,-0.36223 0.00788,-0.47642 0.00788,-0.1142 0.023603,-0.15351 0.031485,-0.19291 0.00788,-0.0394 0.00788,-0.0787 0.01182,-0.11416 0.00394,-0.0355 0.011812,-0.067 0.3031689,-0.24807 0.2913568,-0.18112 0.8661956,-0.51185 1.2441704,-0.7284 0.3779748,-0.21655 0.5590899,-0.31891 0.7323289,-0.42522 0.173239,-0.1063 0.3386066,-0.21655 0.496107,-0.31105 0.1575003,-0.0945 0.3070925,-0.17323 0.4606475,-0.25985 0.1535549,-0.0866 0.3110392,-0.18111 0.476406,-0.27955 0.1653668,-0.0984 0.3386029,-0.20079 0.5984632,-0.41341 0.2598602,-0.21261 0.6063353,-0.53546 0.9016293,-0.79532 0.295295,-0.25986 0.539405,-0.45672 0.692953,-0.58271 0.153548,-0.12599 0.216555,-0.18112 0.271671,-0.23623 0.05512,-0.0551 0.102375,-0.11025 0.169308,-0.16931 0.06693,-0.0591 0.153554,-0.12206 0.196862,-0.11025 0.04331,0.0118 0.04331,0.0984 0.06693,0.31893 0.02362,0.22048 0.07087,0.57483 0.106305,0.99611 0.03543,0.42129 0.05906,0.90951 0.07087,1.25993 0.01181,0.35041 0.01181,0.56303 0.04725,0.96069 0.03543,0.39766 0.106305,0.98037 0.14174,1.35835 0.03544,0.37798 0.03544,0.55122 0.063,0.89376 0.02756,0.34254 0.08268,0.85438 0.122055,1.2166 0.03937,0.36223 0.063,0.57485 0.07874,0.76384 0.01575,0.18898 0.02362,0.35435 0.01967,0.46068 -0.0039,0.10632 -0.01968,0.15353 -0.02756,0.2047 -0.0079,0.0512 -0.0079,0.10632 -0.01185,0.13785 -0.004,0.0315 -0.01176,0.0393 -0.0157,0.055 -0.0039,0.0157 -0.0039,0.0394 -0.0079,0.0552 -0.004,0.0158 -0.01175,0.0236 -0.05113,0.0551 -0.03937,0.0315 -0.110258,0.0866 -0.181127,0.14175"
       id="path2"
       inkscape:path-effect="#path-effect2"
       inkscape:original-d="m 12.213356,292.89423 c -0.15749,-0.0315 -0.31498,-0.063 -0.47247,-0.0945 -0.330729,-0.008 -0.661459,-0.0157 -0.992188,-0.0236 -0.063,-0.0158 -0.125992,-0.0315 -0.188988,-0.0473 -0.141741,-0.008 -0.283482,-0.0157 -0.425223,-0.0236 -0.110243,-0.0158 -0.2204863,-0.0315 -0.3307292,-0.0473 -0.1338667,-0.0157 -0.2677332,-0.0315 -0.4015996,-0.0472 -0.3228549,-0.008 -0.6457096,-0.0157 -0.9685642,-0.0236 -0.1338665,-0.0158 -0.2677332,-0.0315 -0.4015997,-0.0473 -0.3464782,-0.008 -0.6929565,-0.0157 -1.0394344,-0.0236 -0.1574901,-0.0236 -0.3149804,-0.0473 -0.4724705,-0.0709 -0.141741,0 -0.283482,0 -0.4252233,0 -0.031498,-0.008 -0.062996,-0.0158 -0.094494,-0.0236 -0.2834822,0.008 -0.5669645,0.0157 -0.8504465,0.0236 0.031498,-0.34646 0.062996,-0.69292 0.094494,-1.03938 -0.00787,-0.44885 -0.015749,-0.8977 -0.023624,-1.34654 0.015749,-0.13387 0.031498,-0.26774 0.047247,-0.4016 0,-0.15749 0,-0.31498 0,-0.47247 0,-0.18899 0,-0.37798 0,-0.56697 0.015749,-0.0394 0.031498,-0.0787 0.047247,-0.11812 0,-0.0394 0,-0.0787 0,-0.11811 0.00787,-0.0315 0.015749,-0.063 0.023624,-0.0945 0.5748389,-0.33073 1.1496777,-0.66146 1.7245166,-0.99219 0.1811136,-0.10236 0.3622272,-0.20473 0.5433408,-0.3071 0.1653645,-0.11024 0.3307291,-0.22049 0.4960937,-0.33073 0.1496156,-0.0788 0.2992312,-0.15749 0.4488467,-0.23624 0.1574901,-0.0945 0.3149802,-0.18898 0.4724703,-0.28348 0.1732391,-0.10237 0.3464782,-0.20473 0.5197173,-0.3071 0.3464781,-0.32286 0.692956,-0.64571 1.039435,-0.96857 0.244109,-0.19686 0.488219,-0.39372 0.732328,-0.59058 0.063,-0.0551 0.125992,-0.11025 0.188988,-0.16537 0.04725,-0.0551 0.0945,-0.11024 0.141742,-0.16536 0.08662,-0.063 0.173239,-0.126 0.259858,-0.18899 0,0.0866 0,0.17324 0,0.25986 0.04725,0.35435 0.09449,0.7087 0.141741,1.06305 0.02362,0.48822 0.04725,0.97644 0.07087,1.46466 0,0.21261 0,0.42523 0,0.63784 0.07087,0.58271 0.141741,1.16542 0.212611,1.74814 0,0.17324 0,0.34648 0,0.51971 0.05512,0.51185 0.110243,1.02369 0.165365,1.53553 0.02362,0.21261 0.04725,0.42523 0.07087,0.63784 0.0079,0.16536 0.01575,0.33073 0.02362,0.49609 -0.01575,0.0473 -0.0315,0.0945 -0.04725,0.14174 0,0.0551 0,0.11025 0,0.16537 -0.0079,0.008 -0.01575,0.0157 -0.02362,0.0236 0,0.0236 0,0.0473 0,0.0709 -0.0079,0.008 -0.01575,0.0157 -0.02362,0.0236 -0.07087,0.0551 -0.141741,0.11025 -0.212612,0.16537" />
    <path
       style="fill:none;fill-opacity:0.466161;stroke:#000000;stroke-width:0.493466;stroke-opacity:1"
       d="m 13.229167,283.65743 c 0.251984,0.0315 0.503968,0.063 0.842571,0.10631 0.338602,0.0433 0.763828,0.0984 1.043373,0.12599 0.279545,0.0276 0.413411,0.0276 0.539408,0.0236 0.125997,-0.004 0.244103,-0.0118 0.366156,-0.004 0.122053,0.008 0.248039,0.0315 0.374043,0.0551"
       id="path3"
       inkscape:path-effect="#path-effect3"
       inkscape:original-d="m 13.229167,283.65743 c 0.251984,0.0315 0.503968,0.063 0.755952,0.0945 0.425224,0.0551 0.850447,0.11024 1.27567,0.16536 0.133867,0 0.267733,0 0.4016,0 0.118118,-0.008 0.236235,-0.0157 0.354353,-0.0236 0.125992,0.0236 0.251984,0.0472 0.377976,0.0709" />
    <path
       style="fill:none;fill-opacity:0.466161;stroke:#000000;stroke-width:0.493466;stroke-opacity:1"
       d="m 13.512649,287.05922 c 0.724455,0 1.448909,0 1.921378,-0.0118 0.472468,-0.0118 0.692951,-0.0354 0.834697,-0.0473 0.141747,-0.0118 0.204739,-0.0118 0.275614,-0.0157 0.07087,-0.004 0.149618,-0.0118 0.228356,-0.0197"
       id="path4"
       inkscape:path-effect="#path-effect4"
       inkscape:original-d="m 13.512649,287.05922 c 0.724455,0 1.448909,0 2.173363,0 0.220487,-0.0236 0.440973,-0.0472 0.661459,-0.0709 0.063,0 0.125992,0 0.188988,0 0.07874,-0.008 0.15749,-0.0158 0.236235,-0.0236" />
    <path
       style="fill:none;fill-opacity:0.466161;stroke:#000000;stroke-width:0.493466;stroke-opacity:1"
       d="m 13.394532,290.1539 c 0.259862,0.008 0.519716,0.0157 0.685077,0.0118 0.165362,-0.004 0.236247,-0.0197 0.358297,-0.0197 0.122049,0 0.295294,0.0157 0.452781,0.0315 0.157486,0.0157 0.299236,0.0315 0.496096,0.0393 0.196861,0.008 0.448845,0.008 0.700829,0.008"
       id="path5"
       inkscape:path-effect="#path-effect5"
       inkscape:original-d="m 13.394532,290.1539 c 0.259858,0.008 0.519717,0.0157 0.779576,0.0236 0.07087,-0.0157 0.141741,-0.0315 0.212611,-0.0472 0.173239,0.0157 0.346478,0.0315 0.519717,0.0472 0.141741,0.0157 0.283483,0.0315 0.425224,0.0472 0.251984,0 0.503968,0 0.755952,0" />
    <path
       style="fill:none;fill-opacity:0.466161;stroke:#000000;stroke-width:0.493466;stroke-opacity:1"
       d="m 13.158297,292.79973 c 0.05511,0.0236 0.110219,0.0473 0.153541,0.0591 0.04332,0.0118 0.07482,0.0118 0.09847,0.0158 0.02365,0.004 0.03933,0.0118 0.10627,0.0157 0.06694,0.004 0.185058,0.004 0.444917,0.004 0.259859,0 0.661458,0 0.956753,0.008 0.295296,0.008 0.484278,0.0237 0.704766,0.0315 0.220488,0.008 0.472472,0.008 0.724456,0.008"
       id="path6"
       inkscape:path-effect="#path-effect6"
       inkscape:original-d="m 13.158297,292.79973 c 0.05512,0.0236 0.110243,0.0472 0.165364,0.0709 0.0315,0 0.063,0 0.09449,0 0.01575,0.008 0.0315,0.0157 0.04725,0.0236 0.118118,0 0.236235,0 0.354353,0 0.4016,0 0.803199,0 1.204799,0 0.188988,0.0158 0.377976,0.0315 0.566964,0.0473 0.251985,0 0.503969,0 0.755953,0" />
    <path
       style="fill:none;fill-opacity:0.466161;stroke:#000000;stroke-width:0.493466;stroke-opacity:1"
       d="m 11.693639,294.09903 c -0.07874,0.32285 -0.157491,0.64571 -0.232298,0.93706 -0.07481,0.29136 -0.145678,0.55122 -0.196862,0.73627 -0.05118,0.18505 -0.08268,0.29529 -0.114177,0.40554"
       id="path7"
       inkscape:path-effect="#path-effect7"
       inkscape:original-d="m 11.693639,294.09903 c -0.07874,0.32285 -0.15749,0.64571 -0.236235,0.96856 -0.07087,0.25986 -0.141742,0.51972 -0.212612,0.77958 -0.0315,0.11024 -0.063,0.22048 -0.09449,0.33073" />
    <path
       style="fill:none;fill-opacity:0.466161;stroke:#000000;stroke-width:0.493466;stroke-opacity:1"
       d="m 9.4494051,293.91004 c -0.039374,0.10237 -0.078747,0.20474 -0.1378056,0.36616 -0.059058,0.16143 -0.1378043,0.38192 -0.1968631,0.53941 -0.059059,0.15749 -0.09843,0.25198 -0.1653629,0.48034 -0.066933,0.22836 -0.1614268,0.59059 -0.2559209,0.95282"
       id="path8"
       inkscape:path-effect="#path-effect9"
       inkscape:original-d="m 9.4494051,293.91004 c -0.039373,0.10237 -0.078745,0.20474 -0.1181177,0.3071 -0.078745,0.22049 -0.1574901,0.44098 -0.2362351,0.66146 -0.039372,0.0945 -0.078745,0.18899 -0.1181174,0.28348 -0.094494,0.36223 -0.1889882,0.72446 -0.2834823,1.08669" />
    <path
       style="fill:none;fill-opacity:0.466161;stroke:#000000;stroke-width:0.493466;stroke-opacity:1"
       d="m 6.9453127,293.72105 c -0.1181183,0.51972 -0.2362345,1.03943 -0.3110428,1.48041 -0.074808,0.44097 -0.1063066,0.8032 -0.1338676,1.07487 -0.027561,0.27167 -0.051184,0.45278 -0.074807,0.63389"
       id="path9"
       inkscape:path-effect="#path-effect10"
       inkscape:original-d="m 6.9453127,293.72105 c -0.1181174,0.51972 -0.2362351,1.03943 -0.3543528,1.55915 -0.031498,0.36223 -0.062996,0.72446 -0.094494,1.08668 -0.023625,0.18112 -0.047247,0.36223 -0.070871,0.54334" />
    <path
       style="fill:none;fill-opacity:0.466161;stroke:#000000;stroke-width:0.493466;stroke-opacity:1"
       d="m 5.1971727,293.43757 c -0.023633,0.0709 -0.047247,0.14174 -0.059059,0.20082 -0.011812,0.0591 -0.011812,0.10629 -0.035435,0.25196 -0.023623,0.14568 -0.07087,0.38979 -0.129929,0.72445 -0.059058,0.33467 -0.1299302,0.7599 -0.1771771,1.11819 -0.047247,0.35829 -0.07087,0.64964 -0.090556,0.84257 -0.019687,0.19293 -0.035435,0.28742 -0.051184,0.38191"
       id="path10"
       inkscape:path-effect="#path-effect11"
       inkscape:original-d="m 5.1971727,293.43757 c -0.023625,0.0709 -0.047247,0.14174 -0.070871,0.21261 0,0.0473 0,0.0945 0,0.14174 -0.047247,0.24411 -0.094494,0.48822 -0.141741,0.73233 -0.07087,0.42522 -0.141741,0.85045 -0.2126118,1.27567 -0.023625,0.29136 -0.047247,0.58271 -0.07087,0.87407 -0.015748,0.0945 -0.031498,0.18899 -0.047247,0.28348" />
    <path
       style="fill:none;fill-opacity:0.466161;stroke:#000000;stroke-width:0.493466;stroke-opacity:1"
       d="m 4.3467265,292.58712 c -0.1102432,0 -0.2204863,0 -0.3543513,0.008 -0.1338649,0.008 -0.2913616,0.0236 -0.5669675,0.0315 -0.275606,0.008 -0.6693312,0.008 -0.9882497,0.0158 -0.3189185,0.008 -0.5630239,0.0236 -0.736264,0.0315 -0.1732402,0.008 -0.2756087,0.008 -0.3582992,0.0118 -0.08269,0.004 -0.145666,0.0118 -0.2086662,0.0197"
       id="path11"
       inkscape:path-effect="#path-effect12"
       inkscape:original-d="m 4.3467265,292.58712 c -0.1102432,0 -0.2204863,0 -0.3307292,0 -0.1574903,0.0157 -0.3149804,0.0315 -0.4724705,0.0472 -0.3937251,0 -0.7874503,0 -1.1811755,0 -0.2441097,0.0158 -0.4882193,0.0315 -0.7323289,0.0473 -0.1023686,0 -0.2047371,0 -0.3071057,0 -0.062996,0.008 -0.125992,0.0157 -0.1889881,0.0236" />
    <path
       style="fill:none;fill-opacity:0.466161;stroke:#000000;stroke-width:0.493466;stroke-opacity:1"
       d="m 3.9687501,290.29564 c -0.7402048,0.008 -1.4804075,0.0157 -2.0946179,0.0118 -0.6142104,-0.004 -1.10243185,-0.0197 -1.59065004,-0.0354"
       id="path12"
       inkscape:path-effect="#path-effect13"
       inkscape:original-d="m 3.9687501,290.29564 c -0.7402034,0.008 -1.4804068,0.0158 -2.2206102,0.0236 -0.4882192,-0.0157 -0.97643848,-0.0315 -1.46465774,-0.0472" />
    <path
       style="fill:none;fill-opacity:0.466161;stroke:#000000;stroke-width:0.493466;stroke-opacity:1"
       d="m 4.653832,288.40576 c -0.5039704,-0.008 -1.007936,-0.0157 -1.3189791,-0.0197 -0.3110431,-0.004 -0.4291608,-0.004 -0.5039843,-0.008 -0.074823,-0.004 -0.1062824,-0.0118 -0.1377882,-0.0197"
       id="path13"
       inkscape:path-effect="#path-effect14"
       inkscape:original-d="m 4.653832,288.40576 c -0.5039683,-0.008 -1.0079365,-0.0157 -1.5119048,-0.0236 -0.1181174,0 -0.2362351,0 -0.3543528,0 -0.031498,-0.008 -0.062996,-0.0157 -0.094494,-0.0236" />
    <path
       style="fill:none;fill-opacity:0.466161;stroke:#000000;stroke-width:0.493466;stroke-opacity:1"
       d="m 4.8191966,286.5395 c -0.1811238,-0.0709 -0.3622273,-0.14174 -0.5590907,-0.28742 -0.1968634,-0.14568 -0.4094716,-0.36616 -0.6181476,-0.61421 -0.208676,-0.24805 -0.4134099,-0.52365 -0.531525,-0.70476 -0.1181151,-0.1811 -0.1496195,-0.26774 -0.1771723,-0.32286 -0.027553,-0.0551 -0.051209,-0.0788 -0.074821,-0.11814 -0.023612,-0.0394 -0.047242,-0.0945 -0.086615,-0.15356 -0.039373,-0.0591 -0.094497,-0.12206 -0.1338875,-0.15749 -0.039391,-0.0354 -0.062964,-0.0433 -0.094475,-0.0669 -0.031511,-0.0236 -0.070848,-0.063 -0.1102409,-0.10235"
       id="path15"
       inkscape:path-effect="#path-effect15"
       inkscape:original-d="m 4.8191966,286.5395 c -0.1811136,-0.0709 -0.3622273,-0.14174 -0.5433409,-0.21261 -0.2126115,-0.22049 -0.425223,-0.44097 -0.6378348,-0.66146 -0.2047369,-0.27561 -0.4094742,-0.55121 -0.6142111,-0.82682 -0.031498,-0.0866 -0.062996,-0.17324 -0.094494,-0.25986 -0.023625,-0.0236 -0.047247,-0.0473 -0.070871,-0.0709 -0.023625,-0.0551 -0.047247,-0.11024 -0.07087,-0.16536 -0.055121,-0.063 -0.1102429,-0.126 -0.1653645,-0.18899 -0.023624,-0.008 -0.047247,-0.0157 -0.070871,-0.0236 -0.039372,-0.0394 -0.078745,-0.0787 -0.1181176,-0.11811" />
    <path
       style="fill:none;fill-opacity:0.466161;stroke:#000000;stroke-width:0.493466;stroke-opacity:1"
       d="m 7.3469123,285.00397 c -0.2677345,-0.17324 -0.5354646,-0.34647 -0.8701318,-0.59058 -0.3346672,-0.24411 -0.7362668,-0.55909 -0.9685647,-0.76776 -0.2322978,-0.20868 -0.295294,-0.31105 -0.3779755,-0.44492 -0.082682,-0.13386 -0.1850531,-0.29923 -0.2795465,-0.44097 -0.094493,-0.14174 -0.1811127,-0.25986 -0.3031667,-0.4016 -0.122054,-0.14174 -0.2795426,-0.3071 -0.437036,-0.47247"
       id="path16"
       inkscape:path-effect="#path-effect16"
       inkscape:original-d="M 7.3469123,285.00397 C 7.0791794,284.83073 6.8114462,284.6575 6.543713,284.48426 6.1421133,284.16928 5.7405137,283.8543 5.338914,283.53932 5.275918,283.43695 5.2129218,283.33458 5.1499258,283.23221 5.0475572,283.06685 4.9451886,282.90148 4.8428202,282.73612 4.7562002,282.618 4.6695811,282.49988 4.5829615,282.38176 4.4254715,282.2164 4.2679812,282.05104 4.1104911,281.88567" />
    <path
       style="fill:none;fill-opacity:0.466161;stroke:#000000;stroke-width:0.493466;stroke-opacity:1"
       d="m 9.4730287,283.98816 c -0.1417412,-0.12599 -0.2834823,-0.25198 -0.4449088,-0.42128 -0.1614265,-0.1693 -0.3425434,-0.38192 -0.5275934,-0.55122 -0.18505,-0.1693 -0.3740381,-0.29529 -0.5000422,-0.38192 -0.1260041,-0.0866 -0.1889761,-0.13386 -0.2559092,-0.17323 -0.066933,-0.0394 -0.1378041,-0.0709 -0.2637969,-0.13781 -0.1259927,-0.0669 -0.3071078,-0.16931 -0.5079076,-0.28349 -0.2007998,-0.11418 -0.4212845,-0.24017 -0.6417691,-0.36616"
       id="path17"
       inkscape:path-effect="#path-effect17"
       inkscape:original-d="m 9.4730287,283.98816 c -0.1417413,-0.12599 -0.2834823,-0.25198 -0.4252233,-0.37797 -0.1811136,-0.21261 -0.3622273,-0.42523 -0.5433409,-0.63784 -0.1889879,-0.12599 -0.3779761,-0.25198 -0.5669643,-0.37797 -0.062996,-0.0473 -0.1259919,-0.0945 -0.1889882,-0.14175 -0.07087,-0.0315 -0.141741,-0.063 -0.2126115,-0.0945 -0.1811136,-0.10237 -0.3622273,-0.20474 -0.5433406,-0.3071 -0.2204863,-0.126 -0.4409724,-0.25199 -0.6614584,-0.37798" />
    <path
       style="fill:none;fill-opacity:0.466161;stroke:#000000;stroke-width:0.493466;stroke-opacity:1"
       d="m 11.36291,282.78336 c -0.063,-0.0945 -0.12599,-0.18898 -0.212618,-0.27167 -0.08663,-0.0827 -0.196857,-0.15355 -0.295283,-0.23229 -0.09843,-0.0787 -0.185056,-0.16537 -0.232298,-0.21654 -0.04724,-0.0512 -0.05514,-0.0669 -0.07087,-0.0827 -0.01573,-0.0157 -0.03939,-0.0315 -0.07088,-0.0708 -0.03149,-0.0394 -0.07086,-0.10235 -0.12991,-0.17321 -0.05905,-0.0709 -0.137812,-0.14963 -0.196863,-0.22836 -0.05905,-0.0787 -0.09844,-0.15751 -0.145695,-0.21657 -0.047253,-0.0591 -0.102387,-0.0984 -0.1456906,-0.13782 -0.043304,-0.0394 -0.074766,-0.0787 -0.1023301,-0.10626 -0.027564,-0.0276 -0.051219,-0.0433 -0.078778,-0.0709 -0.027559,-0.0276 -0.05907,-0.0669 -0.082707,-0.0906 -0.023637,-0.0236 -0.03936,-0.0315 -0.047221,-0.0472 -0.00786,-0.0157 -0.00786,-0.0394 -0.00786,-0.063"
       id="path18"
       inkscape:path-effect="#path-effect18"
       inkscape:original-d="m 11.36291,282.78336 c -0.063,-0.0945 -0.125993,-0.18898 -0.188989,-0.28348 -0.110243,-0.0709 -0.220486,-0.14174 -0.330729,-0.21261 -0.08662,-0.0866 -0.173239,-0.17324 -0.259858,-0.25986 -0.0079,-0.0157 -0.01575,-0.0315 -0.02362,-0.0472 -0.02362,-0.0157 -0.04725,-0.0315 -0.07087,-0.0472 -0.03937,-0.063 -0.07875,-0.12599 -0.118118,-0.18899 -0.07875,-0.0787 -0.15749,-0.15749 -0.236235,-0.23624 -0.03937,-0.0787 -0.07874,-0.15749 -0.118118,-0.23623 -0.055121,-0.0394 -0.1102428,-0.0788 -0.1653642,-0.11812 -0.031498,-0.0394 -0.062996,-0.0787 -0.094494,-0.11812 -0.023623,-0.0157 -0.047247,-0.0315 -0.07087,-0.0472 -0.031498,-0.0394 -0.062996,-0.0788 -0.094494,-0.11812 -0.015748,-0.008 -0.031498,-0.0158 -0.047247,-0.0236 0,-0.0236 0,-0.0473 0,-0.0709" />
    <path
       style="fill:none;fill-opacity:0.466161;stroke:#000000;stroke-width:0.493466;stroke-opacity:1"
       d="m 12.733073,282.57075 c 0.05512,-0.11812 0.110242,-0.23623 0.149606,-0.3071 0.03936,-0.0709 0.06302,-0.0945 0.09057,-0.1339 0.02755,-0.0394 0.05905,-0.0945 0.137796,-0.19686 0.07874,-0.10237 0.204739,-0.25199 0.334669,-0.38192 0.12993,-0.12993 0.263796,-0.24017 0.35434,-0.3189 0.09055,-0.0787 0.13782,-0.12601 0.165388,-0.15753 0.02757,-0.0315 0.03541,-0.0472 0.04331,-0.0551 0.0079,-0.008 0.01575,-0.008 0.02756,-0.0237 0.01181,-0.0157 0.02756,-0.0473 0.04724,-0.0748 0.01968,-0.0275 0.04329,-0.0512 0.06694,-0.0748"
       id="path19"
       inkscape:path-effect="#path-effect19"
       inkscape:original-d="m 12.733073,282.57075 c 0.05512,-0.11812 0.110243,-0.23623 0.165365,-0.35435 0.02362,-0.0236 0.04725,-0.0473 0.07087,-0.0709 0.0315,-0.0551 0.063,-0.11024 0.09449,-0.16537 0.125993,-0.14961 0.251985,-0.29923 0.377977,-0.44884 0.133866,-0.11025 0.267733,-0.22049 0.401599,-0.33073 0.04725,-0.0472 0.0945,-0.0945 0.141741,-0.14174 0.0079,-0.0158 0.01575,-0.0315 0.02363,-0.0473 0.0079,0 0.01575,0 0.02362,0 0.01575,-0.0315 0.0315,-0.063 0.04725,-0.0945 0.02362,-0.0236 0.04725,-0.0472 0.07087,-0.0709" />
  </g>
</svg>
