<?xml version="1.0" encoding="UTF-8" standalone="no"?>
<!-- Created with Inkscape (http://www.inkscape.org/) -->

<svg
   width="64"
   height="64"
   viewBox="0 0 16.933333 16.933334"
   version="1.1"
   id="svg8"
   inkscape:version="1.3.2 (091e20ef0f, 2023-11-25, custom)"
   sodipodi:docname="clear.svg"
   inkscape:export-filename="C:\Users\Ali\Documents\inkscape\freecad\pyrate\pyrate_logo_3_256x256.png"
   inkscape:export-xdpi="1536"
   inkscape:export-ydpi="1536"
   xmlns:inkscape="http://www.inkscape.org/namespaces/inkscape"
   xmlns:sodipodi="http://sodipodi.sourceforge.net/DTD/sodipodi-0.dtd"
   xmlns:xlink="http://www.w3.org/1999/xlink"
   xmlns="http://www.w3.org/2000/svg"
   xmlns:svg="http://www.w3.org/2000/svg"
   xmlns:rdf="http://www.w3.org/1999/02/22-rdf-syntax-ns#"
   xmlns:cc="http://creativecommons.org/ns#"
   xmlns:dc="http://purl.org/dc/elements/1.1/">
  <defs
     id="defs2">
    <linearGradient
       id="linearGradient1245"
       inkscape:collect="always">
      <stop
         id="stop1241"
         offset="0"
         style="stop-color:#aaccff;stop-opacity:1" />
      <stop
         id="stop1243"
         offset="1"
         style="stop-color:#d5f6ff;stop-opacity:1" />
    </linearGradient>
    <linearGradient
       id="linearGradient1167"
       inkscape:collect="always">
      <stop
         id="stop1161"
         offset="0"
         style="stop-color:#00112b;stop-opacity:1" />
      <stop
         id="stop1163"
         offset="1"
         style="stop-color:#2a7fff;stop-opacity:1" />
    </linearGradient>
    <linearGradient
       inkscape:collect="always"
       id="linearGradient1166">
      <stop
         style="stop-color:#41dcff;stop-opacity:1"
         offset="0"
         id="stop1162" />
      <stop
         style="stop-color:#40e0ff;stop-opacity:1"
         offset="1"
         id="stop1164" />
    </linearGradient>
    <linearGradient
       inkscape:collect="always"
       id="linearGradient1058">
      <stop
         style="stop-color:#5175ff;stop-opacity:1"
         offset="0"
         id="stop1054" />
      <stop
         style="stop-color:#40e0ff;stop-opacity:1"
         offset="1"
         id="stop1056" />
    </linearGradient>
    <linearGradient
       id="linearGradient1045"
       inkscape:collect="always">
      <stop
         id="stop1041"
         offset="0"
         style="stop-color:#293449;stop-opacity:1" />
      <stop
         id="stop1043"
         offset="1"
         style="stop-color:#485c80;stop-opacity:1" />
    </linearGradient>
    <linearGradient
       inkscape:collect="always"
       id="linearGradient2480">
      <stop
         style="stop-color:#cc0a08;stop-opacity:1"
         offset="0"
         id="stop2476" />
      <stop
         style="stop-color:#f67d89;stop-opacity:1"
         offset="1"
         id="stop2478" />
    </linearGradient>
    <linearGradient
       id="linearGradient942-5"
       inkscape:collect="always">
      <stop
         id="stop938"
         offset="0"
         style="stop-color:#002076;stop-opacity:1" />
      <stop
         id="stop940"
         offset="1"
         style="stop-color:#40e0ff;stop-opacity:1" />
    </linearGradient>
    <linearGradient
       gradientUnits="userSpaceOnUse"
       y2="31.377413"
       x2="86.543877"
       y1="282.62048"
       x1="20.010984"
       id="linearGradient944"
       xlink:href="#linearGradient942-5"
       inkscape:collect="always" />
    <linearGradient
       gradientUnits="userSpaceOnUse"
       y2="112.66277"
       x2="98.204803"
       y1="257.94366"
       x1="13.302045"
       id="linearGradient952"
       xlink:href="#linearGradient2480"
       inkscape:collect="always" />
    <linearGradient
       gradientTransform="translate(0,1.5875)"
       gradientUnits="userSpaceOnUse"
       y2="133.50244"
       x2="146.68025"
       y1="272.83194"
       x1="101.05925"
       id="linearGradient960"
       xlink:href="#linearGradient2480"
       inkscape:collect="always" />
    <filter
       id="filter1495"
       inkscape:label="Drop Shadow"
       style="color-interpolation-filters:sRGB">
      <feFlood
         id="feFlood1485"
         result="flood"
         flood-color="rgb(0,0,0)"
         flood-opacity="0.498039" />
      <feComposite
         id="feComposite1487"
         result="composite1"
         operator="in"
         in2="SourceGraphic"
         in="flood" />
      <feGaussianBlur
         id="feGaussianBlur1489"
         result="blur"
         stdDeviation="4"
         in="composite1" />
      <feOffset
         id="feOffset1491"
         result="offset"
         dy="4"
         dx="2" />
      <feComposite
         id="feComposite1493"
         result="composite2"
         operator="over"
         in2="offset"
         in="SourceGraphic" />
    </filter>
    <filter
       id="filter2066"
       inkscape:label="Drop Shadow"
       style="color-interpolation-filters:sRGB">
      <feFlood
         id="feFlood2056"
         result="flood"
         flood-color="rgb(0,0,0)"
         flood-opacity="0.498039" />
      <feComposite
         id="feComposite2058"
         result="composite1"
         operator="in"
         in2="SourceGraphic"
         in="flood" />
      <feGaussianBlur
         id="feGaussianBlur2060"
         result="blur"
         stdDeviation="20"
         in="composite1" />
      <feOffset
         id="feOffset2062"
         result="offset"
         dy="20"
         dx="6" />
      <feComposite
         id="feComposite2064"
         result="composite2"
         operator="over"
         in2="offset"
         in="SourceGraphic" />
    </filter>
    <filter
       id="filter2474"
       inkscape:label="Drop Shadow"
       style="color-interpolation-filters:sRGB">
      <feFlood
         id="feFlood2464"
         result="flood"
         flood-color="rgb(0,0,0)"
         flood-opacity="0.498039" />
      <feComposite
         id="feComposite2466"
         result="composite1"
         operator="in"
         in2="SourceGraphic"
         in="flood" />
      <feGaussianBlur
         id="feGaussianBlur2468"
         result="blur"
         stdDeviation="4"
         in="composite1" />
      <feOffset
         id="feOffset2470"
         result="offset"
         dy="4.8"
         dx="1.5" />
      <feComposite
         id="feComposite2472"
         result="composite2"
         operator="over"
         in2="offset"
         in="SourceGraphic" />
    </filter>
    <linearGradient
       gradientTransform="translate(0,290.28571)"
       gradientUnits="userSpaceOnUse"
       y2="398.20157"
       x2="-973.7356"
       y1="746.96252"
       x1="-1123.2253"
       id="linearGradient1033"
       xlink:href="#linearGradient1058"
       inkscape:collect="always" />
    <linearGradient
       gradientTransform="translate(0,213.65424)"
       gradientUnits="userSpaceOnUse"
       y2="851.35718"
       x2="-987.59387"
       y1="1234.0872"
       x1="-1127.1049"
       id="linearGradient1047"
       xlink:href="#linearGradient1045"
       inkscape:collect="always" />
    <linearGradient
       gradientTransform="translate(-19.199562,-44.652005)"
       gradientUnits="userSpaceOnUse"
       y2="1157.111"
       x2="-544.48077"
       y1="1495.4609"
       x1="-689.72717"
       id="linearGradient1134"
       xlink:href="#linearGradient1045"
       inkscape:collect="always" />
    <linearGradient
       y2="851.35718"
       x2="-987.59387"
       y1="1234.0872"
       x1="-1127.1049"
       gradientTransform="translate(0,213.65424)"
       gradientUnits="userSpaceOnUse"
       id="linearGradient1160"
       xlink:href="#linearGradient1166"
       inkscape:collect="always" />
    <linearGradient
       id="linearGradient3682-0">
      <stop
         style="stop-color:#a40000;stop-opacity:1"
         offset="0"
         id="stop3684-0" />
      <stop
         style="stop-color:#ef2929;stop-opacity:1"
         offset="1"
         id="stop3686-0" />
    </linearGradient>
    <linearGradient
       id="linearGradient3864-9">
      <stop
         id="stop3866-1"
         offset="0"
         style="stop-color:#204a87;stop-opacity:1" />
      <stop
         id="stop3868-1"
         offset="1"
         style="stop-color:#729fcf;stop-opacity:1" />
    </linearGradient>
    <linearGradient
       id="linearGradient3682-0-3">
      <stop
         style="stop-color:#ff390f;stop-opacity:1"
         offset="0"
         id="stop3684-0-7" />
      <stop
         style="stop-color:#ff1000;stop-opacity:1;"
         offset="1"
         id="stop3686-0-5" />
    </linearGradient>
    <linearGradient
       id="linearGradient3864-9-7">
      <stop
         id="stop3866-1-7"
         offset="0"
         style="stop-color:#316cab;stop-opacity:1" />
      <stop
         id="stop3868-1-4"
         offset="1"
         style="stop-color:#002ca8;stop-opacity:1" />
    </linearGradient>
    <linearGradient
       id="linearGradient3682">
      <stop
         id="stop3684"
         offset="0"
         style="stop-color:#ff6d0f;stop-opacity:1;" />
      <stop
         id="stop3686"
         offset="1"
         style="stop-color:#ff1000;stop-opacity:1;" />
    </linearGradient>
    <linearGradient
       id="linearGradient3864">
      <stop
         style="stop-color:#71b2f8;stop-opacity:1;"
         offset="0"
         id="stop3866" />
      <stop
         style="stop-color:#002795;stop-opacity:1;"
         offset="1"
         id="stop3868" />
    </linearGradient>
    <linearGradient
       gradientTransform="matrix(0.79118995,0,0,0.96421064,-462.08318,3.6442021)"
       gradientUnits="userSpaceOnUse"
       y2="-97.402824"
       x2="-2013.709"
       y1="301.0498"
       x1="-2412.1616"
       id="linearGradient1169"
       xlink:href="#linearGradient1167"
       inkscape:collect="always" />
    <linearGradient
       gradientUnits="userSpaceOnUse"
       y2="-9.260396"
       x2="-2055.4119"
       y1="284.23495"
       x1="-2302.6389"
       id="linearGradient1239"
       xlink:href="#linearGradient1245"
       inkscape:collect="always" />
    <linearGradient
       gradientUnits="userSpaceOnUse"
       y2="1276.7333"
       x2="4327.0557"
       y1="2126.7334"
       x1="3477.0554"
       id="linearGradient3835"
       xlink:href="#linearGradient1045"
       inkscape:collect="always" />
    <mask
       id="mask5747"
       maskUnits="userSpaceOnUse">
      <path
         inkscape:connector-curvature="0"
         id="path5749"
         d="m -1081.0913,3822.7064 -30.9051,-17.7313 -13.6473,4.7355 -13.0203,33.2785 -20.4811,-1.0774 -9.3432,-34.4101 -13.0752,-6.2608 -32.6113,14.2658 -13.7762,-15.3072 17.7314,-30.9049 -4.8453,-13.606 -33.2766,-13.0222 1.1905,-20.5206 34.4107,-9.3432 6.2607,-13.0752 -14.3755,-32.5713 15.3071,-13.7747 30.9051,17.7313 13.7154,-4.8866 12.9107,-33.2346 20.6323,1.1528 9.2335,34.4501 13.0752,6.2606 32.681,-14.4151 13.7747,15.3067 -17.7319,30.9052 4.7754,13.7554 33.2372,12.9128 -1.0398,20.5901 -34.4501,9.2334 -6.2622,13.0752 14.3073,32.721 z m -46.2858,-50.6793 6.3443,-3.6809 5.4951,-4.9832 4.4016,-5.9473 3.1652,-6.6122 1.8707,-7.1279 0.3036,-7.3064 -1.0584,-7.3012 -2.4077,-6.9339 -3.8305,-6.4135 -4.8341,-5.4277 -5.9468,-4.3992 -6.6122,-3.1652 -7.1283,-1.8709 -7.3452,-0.4154 -7.3041,1.0583 -6.9313,2.4077 -6.414,3.8307 -5.3875,4.9432 -4.441,5.8375 -3.1652,6.6122 -1.8143,7.2377 -0.4155,7.3456 1.0579,7.302 2.4078,6.9334 3.7905,6.3042 4.8741,5.5367 5.9468,4.3995 6.6122,3.1652 7.238,1.8142 7.3058,0.3038 7.302,-1.0584 6.9333,-2.4079 z"
         style="display:inline;overflow:visible;visibility:visible;fill:#ffffff;fill-opacity:1;fill-rule:evenodd;stroke:none;stroke-width:9.9998951;stroke-linecap:round;stroke-linejoin:round;stroke-miterlimit:4;stroke-dasharray:none;stroke-dashoffset:0;stroke-opacity:1;marker:none;enable-background:accumulate" />
    </mask>
    <mask
       id="mask2314"
       maskUnits="userSpaceOnUse">
      <path
         inkscape:connector-curvature="0"
         sodipodi:nodetypes="ccccccccccc"
         id="path2316"
         d="m -1868.9759,3355.7772 h -288.3976 v 59.668 h 119.3385 v 59.6685 h 59.668 v -59.6685 h 49.7232 v 99.4479 h 59.6679 z"
         style="display:inline;overflow:visible;visibility:visible;fill:#ffffff;fill-opacity:1;fill-rule:evenodd;stroke:none;stroke-width:9.99989414;stroke-linecap:butt;stroke-linejoin:miter;stroke-miterlimit:4;stroke-dasharray:none;stroke-dashoffset:0;stroke-opacity:1;marker:none;enable-background:accumulate" />
    </mask>
  </defs>
  <sodipodi:namedview
     id="base"
     pagecolor="#ffffff"
     bordercolor="#666666"
     borderopacity="1.0"
     inkscape:pageopacity="0.0"
     inkscape:pageshadow="2"
     inkscape:zoom="15.839192"
     inkscape:cx="37.344077"
     inkscape:cy="28.189569"
     inkscape:document-units="px"
     inkscape:current-layer="layer1"
     showgrid="false"
     inkscape:window-width="3836"
     inkscape:window-height="2093"
     inkscape:window-x="0"
     inkscape:window-y="32"
     inkscape:window-maximized="1"
     units="px"
     inkscape:showpageshadow="2"
     inkscape:pagecheckerboard="0"
     inkscape:deskcolor="#d1d1d1" />
  <metadata
     id="metadata5">
    <rdf:RDF>
      <cc:Work
         rdf:about="">
        <dc:format>image/svg+xml</dc:format>
        <dc:type
           rdf:resource="http://purl.org/dc/dcmitype/StillImage" />
      </cc:Work>
    </rdf:RDF>
  </metadata>
  <g
     inkscape:label="Layer 1"
     inkscape:groupmode="layer"
     id="layer1"
     transform="translate(0,-280.06666)">
    <path
       style="fill:#000000;fill-opacity:1;stroke-width:0.264583"
       id="path1"
       d="m 13.355365,288.04174 c 0.04871,0.10781 0.112442,0.20798 0.165602,0.31345 0.02249,0.0446 0.0421,0.0907 0.06345,0.13585 0.116188,0.24597 0.02628,0.0498 0.139281,0.29985 0.04736,0.10326 0.08996,0.19284 0.132392,0.29798 0.01805,0.0447 0.03319,0.0906 0.05093,0.13539 0.01655,0.0418 0.03511,0.0828 0.05193,0.12455 0.02507,0.0622 0.04766,0.12405 0.07098,0.1868 0.01719,0.0471 0.02322,0.0691 0.0457,0.11195 0.0068,0.013 0.01576,0.0248 0.02273,0.0376 0.0074,0.0138 0.0097,0.0269 0.01552,0.0407 0.003,-0.009 0.0061,-0.017 0.0091,-0.0255 0.01215,-0.0237 0.02645,-0.0464 0.03645,-0.0711 8.99e-4,-0.002 -0.0047,-0.003 -0.0067,-0.002 -0.0095,0.005 -0.01692,0.0138 -0.02565,0.0204 -0.04362,0.0328 -0.04102,0.0295 -0.09197,0.0611 -0.202889,0.12822 -0.415684,0.23967 -0.625043,0.35673 -0.164219,0.0904 -0.332128,0.17403 -0.495124,0.26671 -0.0598,0.034 -0.118374,0.0701 -0.177894,0.10462 -0.07282,0.0422 -0.302145,0.17222 -0.374755,0.21346 -0.191359,0.11243 -0.386174,0.21878 -0.576851,0.33239 -0.07403,0.0441 -0.146831,0.0902 -0.22096,0.13419 -0.07815,0.0463 -0.15723,0.0911 -0.235845,0.13658 -0.08195,0.0491 -0.16391,0.0981 -0.245864,0.1472 -0.319664,0.18866 -0.64573,0.36681 -0.96072,0.56335 -0.1472332,0.0919 -0.2921087,0.18747 -0.4387548,0.28027 -0.1399122,0.0951 -0.2888755,0.17555 -0.4318246,0.26571 -0.07227,0.0456 -0.1423556,0.0946 -0.2141263,0.14092 -0.2119722,0.13694 -0.4279871,0.2674 -0.643273,0.39902 -0.4144134,0.2502 -0.00964,0.008 -0.4235892,0.25018 -0.072917,0.0427 -0.1443511,0.088 -0.2179825,0.12945 -0.2161114,0.12172 -0.4392425,0.2317 -0.6618216,0.3409 -0.3327723,0.15905 -0.6626543,0.32493 -0.9806245,0.51203 -0.1433322,0.0806 -0.2779937,0.17504 -0.4153543,0.26503 -0.1033946,0.0677 -0.042932,0.019 -0.1220835,0.089 -0.012274,0.016 -0.079757,0.0704 -0.1028316,0.0362 -0.00726,-0.0108 -0.016481,-0.0449 -0.00509,-0.0386 1.2229264,0.66817 1.4804364,1.11897 1.1938437,0.64401 -0.012004,-0.0326 -0.024821,-0.065 -0.036015,-0.0979 -0.013557,-0.0399 -0.024889,-0.0804 -0.03822,-0.12035 -0.073484,-0.22007 -0.1537546,-0.43795 -0.2371746,-0.65441 -0.067291,-0.15795 -0.1473684,-0.30983 -0.2197695,-0.4654 -0.016105,-0.0346 -0.033344,-0.0688 -0.047174,-0.10433 -0.02722,-0.0915 -0.01157,-0.0492 -0.045255,-0.12754 -0.020225,4.2e-4 -0.010073,-0.0454 -0.028705,-0.0527 -0.00378,-0.001 -0.00732,0.004 -0.010459,0.006 -4.763e-4,4e-4 2.91e-4,0.002 7.408e-4,0.002 0.00826,-0.008 0.015576,-0.0171 0.023529,-0.0254 0.01461,-0.0154 0.029436,-0.0306 0.044154,-0.0459 0.097806,-0.0973 0.2070719,-0.18193 0.3188973,-0.2623 0.056587,-0.0407 0.1126003,-0.0824 0.1717431,-0.11922 0.1380773,-0.0861 0.2796942,-0.15317 0.4247746,-0.22631 0.1559705,-0.0667 0.3053609,-0.14733 0.4595476,-0.21776 0.076603,-0.035 0.1552959,-0.0653 0.2319359,-0.10018 0.076621,-0.0349 0.1515081,-0.0735 0.2277594,-0.10921 0.1096333,-0.0513 0.3532333,-0.16078 0.4640027,-0.21075 0.3058946,-0.13798 0.6055159,-0.28956 0.9011383,-0.44826 0.069579,-0.0374 0.1397908,-0.0737 0.2077101,-0.11395 0.069472,-0.0412 0.1361581,-0.0869 0.2042369,-0.13043 0.2657399,-0.17044 0.5238546,-0.35271 0.7895666,-0.52317 0.143109,-0.0918 0.25802,-0.1586 0.404691,-0.24603 0.07221,-0.04 0.1437,-0.0814 0.216636,-0.12003 0.147631,-0.0783 0.298545,-0.15022 0.446677,-0.22755 0.109379,-0.0571 0.291932,-0.15487 0.399399,-0.21859 0.06312,-0.0374 0.12448,-0.0778 0.18672,-0.11665 0.250089,-0.17336 0.514634,-0.32429 0.774796,-0.48166 0.119552,-0.0723 0.237887,-0.14663 0.356916,-0.2198 0.270783,-0.1657 0.55255,-0.31177 0.837495,-0.45125 0.06914,-0.0364 0.143452,-0.0615 0.213743,-0.0954 0.16435,-0.0792 0.03321,-0.0272 0.197472,-0.0984 0.06709,-0.0291 0.102676,-0.0402 0.169832,-0.0635 0.01978,-0.007 0.04005,-0.0134 0.05932,-0.0219 0.0034,-0.002 0.04288,-0.0363 0.05296,-0.009 0.0048,0.013 0.0082,0.0482 -0.0039,0.0414 -0.931641,-0.5179 -1.609304,-0.9966 -1.194242,-0.70398 0.004,0.0148 0.0094,0.0292 0.01189,0.0443 0.0053,0.0323 0.0053,0.0887 0.0063,0.12029 6.88e-4,0.0227 0.0025,0.0454 0.0023,0.0681 -2.65e-4,0.0393 -0.0053,0.0856 -0.0089,0.12471 -0.0082,0.021 -0.01405,0.043 -0.02454,0.0629 -0.09119,0.17309 -0.261529,0.29567 -0.41305,0.41118 -0.323498,0.2351 -0.695086,0.38977 -1.063795,0.53842 -0.428457,0.16335 -0.866012,0.30084 -1.30094,0.44551 -0.50411,0.15661 -0.9881023,0.36951 -1.4732148,0.57591 -0.2623476,0.11635 -0.1944671,0.0837 -0.451299,0.20775 -0.071454,0.0345 -0.1435354,0.0678 -0.2138854,0.10454 -0.1646952,0.086 -0.2683703,0.15395 -0.4324901,0.24216 -0.070841,0.0381 -0.1432967,0.0731 -0.2149451,0.10959 -0.1952413,0.10641 -0.3944744,0.2057 -0.5885635,0.31424 -0.1782837,0.0997 -0.352742,0.20634 -0.5262415,0.31405 -0.1749139,0.10893 -0.3548073,0.21021 -0.5287161,0.32076 -0.2609109,0.16585 -0.075438,0.0585 -0.3336663,0.22038 -0.051821,0.0325 -0.105011,0.0627 -0.1575165,0.0941 -0.1424707,0.0857 -0.2933457,0.16229 -0.4147886,0.278 -0.019772,0.0188 -0.039455,0.038 -0.056229,0.0596 -0.014962,0.0192 -0.025667,0.0414 -0.038501,0.0621 -0.00763,0.0216 -0.017462,0.0425 -0.022892,0.0648 -0.013758,0.0564 -0.018177,0.13762 -0.015409,0.19594 0.00177,0.0372 0.00745,0.0741 0.010956,0.11111 0.00646,0.0494 -7.408e-4,0.0981 -0.00841,0.14684 -0.00289,0.0183 -0.0042,0.037 -0.00887,0.055 -0.00712,0.0274 -0.031356,0.083 -0.042195,0.10907 -0.052851,0.12441 0.00413,-0.0293 -0.017735,0.10069 -0.00355,0.0211 -0.063611,0.0924 -0.043602,0.10493 1.193296,0.74861 0.8532045,0.9548 1.3013616,0.64729 0.099109,-0.0591 0.2008645,-0.11357 0.3005471,-0.1716 0.045187,-0.0263 0.089245,-0.0546 0.1346385,-0.0805 0.021426,-0.0122 0.2847676,-0.15576 0.3042208,-0.16638 0.2736671,-0.14051 0.5353286,-0.3027 0.8090562,-0.4431 0.057735,-0.0296 0.1163423,-0.0575 0.1745136,-0.0862 0.08308,-0.0401 0.3117125,-0.15138 0.3904531,-0.18567 0.074688,-0.0325 0.1514086,-0.0602 0.2265325,-0.0917 0.084832,-0.0356 0.168329,-0.0743 0.2533036,-0.10951 0.095382,-0.0395 0.4419693,-0.17487 0.539015,-0.21291 0.4478899,-0.17069 0.8808029,-0.37701 1.3106139,-0.58835 0.222827,-0.11239 0.443949,-0.22953 0.652542,-0.36701 0.126257,-0.0832 0.140984,-0.0978 0.259642,-0.18858 0.07674,-0.0728 0.158187,-0.14038 0.235314,-0.21271 0.127265,-0.11934 0.112018,-0.11795 0.24798,-0.22778 0.116157,-0.0938 0.133417,-0.0994 0.257506,-0.17669 0.102316,-0.0624 0.208864,-0.11856 0.319597,-0.16459 0.02755,-0.0115 0.05648,-0.0195 0.08381,-0.0315 0.02092,-0.009 0.04017,-0.0218 0.06065,-0.0319 0.01666,-0.008 0.03381,-0.0154 0.05072,-0.023 0.04262,-0.0189 0.09282,-0.0281 0.1292,-0.0592 0.0048,-0.004 0.01219,-0.008 0.01273,-0.0138 7.14e-4,-0.008 -0.0063,-0.0155 -0.0095,-0.0233 -0.308641,-0.21852 -0.130949,-0.0942 -0.534532,-0.37079 0,0 -0.05061,-0.0322 -0.05061,-0.0322 v 0 c -0.436203,-0.25548 -0.239487,-0.14631 -0.58712,-0.33291 -0.0119,-7.4e-4 -0.0239,-0.004 -0.03571,-0.002 -0.01386,0.002 -0.07238,0.08 -0.08284,0.0688 -0.01649,0.008 -0.03277,0.0168 -0.04947,0.0245 -0.02227,0.0103 -0.04584,0.0179 -0.06743,0.0296 -0.02485,0.0134 -0.04767,0.0303 -0.07147,0.0456 -0.100188,0.0642 -0.198898,0.1306 -0.288577,0.20928 -0.116234,0.10812 -0.231818,0.21711 -0.350358,0.32271 -0.04256,0.0379 -0.08656,0.0742 -0.12885,0.11241 -0.0378,0.0342 -0.07313,0.071 -0.111389,0.10469 -0.03878,0.0341 -0.07974,0.0657 -0.119608,0.0985 -0.03911,0.0312 -0.0776,0.0633 -0.117342,0.0937 -0.230999,0.17692 -0.480408,0.32824 -0.7299102,0.47715 -0.4012325,0.22829 -0.8109247,0.44162 -1.2357953,0.623 -0.2339266,0.0961 -0.2975615,0.12551 -0.5383972,0.21101 -0.092534,0.0328 -0.1868275,0.0606 -0.2792182,0.0939 -0.078304,0.0282 -0.1549866,0.0607 -0.2327296,0.0904 -0.3381288,0.12914 -0.1182391,0.0385 -0.4259562,0.17022 -0.3410839,0.16419 -0.6799916,0.33282 -1.0120027,0.51478 -0.074823,0.0375 -0.2396731,0.12099 -0.3166721,0.15562 -0.050879,0.0229 -0.1028311,0.0433 -0.1544807,0.0644 -0.088465,0.0361 -0.160042,0.066 -0.2513042,0.0921 -0.031534,0.009 -0.063922,0.0147 -0.095882,0.0221 -0.5209956,-0.0533 0.05372,-0.003 1.1132098,0.68302 0.017613,0.0114 -0.027103,0.0353 -0.047068,0.0418 -0.00908,0.003 -7.937e-4,-0.0206 0.00501,-0.0282 0.086105,-0.11199 -0.00151,0.0631 0.062682,-0.0814 0.015647,-0.0394 0.029929,-0.0794 0.046823,-0.11825 0.00888,-0.0204 0.020873,-0.0395 0.028636,-0.0604 0.021714,-0.0584 0.02594,-0.12118 0.030445,-0.18263 -0.0019,-0.0353 -0.00338,-0.0718 -0.00717,-0.10697 -0.00678,-0.0629 -0.020164,-0.12477 0.00311,-0.18634 0.01747,-0.0386 0.022982,-0.0573 0.052682,-0.0913 0.039218,-0.045 0.090648,-0.0811 0.1375968,-0.11659 0.1071042,-0.0809 0.1100836,-0.0816 0.2264281,-0.16419 0.049599,-0.033 0.098329,-0.0673 0.1487971,-0.099 0.1384607,-0.0868 0.2120289,-0.1223 0.3530013,-0.20669 0.1758754,-0.10527 0.347622,-0.21757 0.5224479,-0.32456 0.3589131,-0.21636 0.7150674,-0.4375 1.0813796,-0.64136 0.06757,-0.0389 0.1340792,-0.0797 0.2027089,-0.11673 0.1288503,-0.0695 0.3203459,-0.15936 0.4515099,-0.22567 0.213357,-0.10787 0.424454,-0.22032 0.642154,-0.31949 0.19507,-0.0903 0.2744,-0.1295 0.474919,-0.21181 0.115424,-0.0474 0.382955,-0.14963 0.502006,-0.1911 0.0841,-0.0293 0.169249,-0.0555 0.253914,-0.0831 0.07858,-0.0256 0.15721,-0.0511 0.235815,-0.0767 0.442459,-0.13593 0.886804,-0.27073 1.313431,-0.4516 0.156636,-0.0686 0.227346,-0.0975 0.381167,-0.17328 0.240792,-0.11856 0.473036,-0.25379 0.706526,-0.38585 0.04463,-0.0301 0.09059,-0.0582 0.133885,-0.0902 0.126079,-0.093 0.274633,-0.22914 0.351585,-0.36743 0.01609,-0.0289 0.02648,-0.0607 0.03972,-0.091 0.006,-0.0253 0.01425,-0.0502 0.01788,-0.0759 0.0031,-0.0222 0.0012,-0.0449 0.0023,-0.0674 0.0011,-0.0229 0.0035,-0.0458 0.0043,-0.0687 0.002,-0.0599 -0.0037,-0.12011 0.005,-0.17969 0.106034,-0.52682 0.03573,-0.0903 -1.228145,-0.81195 -0.01387,-0.008 -0.0254,0.0194 -0.0384,0.0286 -0.0099,0.007 -0.01927,0.0152 -0.03027,0.0203 -0.109925,0.0515 0.01974,-0.0274 -0.09253,0.0456 -0.05257,0.0357 -0.07701,0.054 -0.135122,0.0857 -0.127517,0.0696 -0.06388,0.0285 -0.202928,0.0935 -0.03159,0.0148 -0.176865,0.0923 -0.204667,0.10707 -0.103369,0.0565 -0.125457,0.067 -0.226983,0.129 -0.19129,0.11681 -0.376196,0.24396 -0.564409,0.36556 -0.24023,0.15418 -0.479981,0.30901 -0.719241,0.46468 -0.06413,0.0417 -0.126979,0.0854 -0.191851,0.12598 -0.06659,0.0416 -0.134968,0.0804 -0.202452,0.12053 -0.400476,0.23878 -0.802176,0.47548 -1.204874,0.71049 -0.070799,0.0428 -0.1426488,0.0838 -0.2123969,0.1283 -0.064104,0.0409 -0.1261809,0.0848 -0.1890319,0.12758 -0.2579309,0.17549 -0.5070734,0.36405 -0.7737073,0.52647 -0.075345,0.0435 -0.3326945,0.19249 -0.4116459,0.23607 -0.2913967,0.16083 -0.5928953,0.30243 -0.894547,0.44271 -0.196333,0.0868 -0.2728449,0.12205 -0.472408,0.20418 -0.081549,0.0336 -0.1645729,0.0635 -0.2455915,0.0984 -0.076569,0.0329 -0.1509358,0.0707 -0.2270141,0.10478 -0.4503722,0.20145 -0.042779,0.009 -0.470544,0.21467 -0.1505559,0.0721 -0.3001259,0.1463 -0.4516041,0.21645 -0.071207,0.033 -0.1437174,0.0631 -0.2150118,0.0959 -0.1451052,0.0667 -0.2894097,0.13619 -0.4302668,0.2115 -0.066109,0.0407 -0.129558,0.0759 -0.1638443,0.14974 -0.00891,0.0192 -0.016304,0.04 -0.016907,0.0612 -0.00116,0.0411 0.026693,0.0652 0.049327,0.0943 0.017746,0.0218 0.035151,0.0439 0.05324,0.0654 0.02636,0.0314 0.055313,0.0606 0.080096,0.0933 0.1267989,0.16696 0.2129602,0.36049 0.2854314,0.55582 0.051046,0.13283 0.075254,0.18839 0.1162172,0.32413 0.049783,0.16497 0.079892,0.33486 0.1130001,0.50369 0.069318,0.57687 -0.00673,0.12065 1.2909833,0.8771 0.01442,0.008 0.02944,-0.0157 0.043835,-0.0242 0.046368,-0.0272 0.088302,-0.0588 0.1429279,-0.0692 0.024961,-0.0106 0.051082,-0.0188 0.074886,-0.0317 0.025675,-0.014 0.048515,-0.0327 0.072884,-0.0488 0.1333185,-0.0884 0.2639859,-0.18064 0.395573,-0.27164 0.087052,-0.0571 0.1649,-0.10881 0.2533991,-0.16409 0.2143795,-0.13392 0.4369091,-0.2544 0.6553087,-0.38152 0.2161593,-0.11935 0.4336711,-0.2364 0.6519039,-0.35192 0.07815,-0.0414 0.1581492,-0.0793 0.2354168,-0.12225 0.094558,-0.0526 0.3305159,-0.20013 0.4218138,-0.25663 0.2097395,-0.1364 0.4178144,-0.27554 0.6303354,-0.4076 0.07365,-0.0458 0.148914,-0.0889 0.222273,-0.13515 0.141802,-0.0894 0.278306,-0.18702 0.423002,-0.27189 0.147117,-0.093 0.295573,-0.18383 0.442517,-0.27708 0.307852,-0.19536 0.610206,-0.39987 0.929345,-0.57695 0.07542,-0.0411 0.418098,-0.22819 0.498923,-0.27034 0.07969,-0.0416 0.160849,-0.0802 0.240777,-0.12133 0.200954,-0.10331 0.398449,-0.21305 0.595772,-0.32308 0.0084,-0.005 0.358338,-0.21009 0.368741,-0.21597 0.223311,-0.12617 0.451348,-0.24442 0.681176,-0.35818 0.229705,-0.10573 0.458797,-0.2127 0.688405,-0.31864 0.04516,-0.0203 0.05727,-0.0286 0.102852,-0.0396 0.0171,-0.004 0.04134,-9.8e-4 0.05439,-0.0177 0.04807,-0.0614 0.04354,-0.0583 0.05756,-0.11213 -0.0076,-0.0172 -0.01904,-0.0323 -0.02582,-0.0499 -0.0038,-0.01 -0.0052,-0.0207 -0.0091,-0.0306 -0.01688,-0.0426 -0.03825,-0.078 -0.06038,-0.11868 -0.03309,-0.0611 -0.07806,-0.14334 -0.108919,-0.20366 -0.02203,-0.0431 -0.04247,-0.0869 -0.06454,-0.12996 -0.02545,-0.0496 -0.05289,-0.0982 -0.07803,-0.148 -0.03468,-0.0687 -0.114453,-0.23895 -0.14685,-0.30759 -0.03551,-0.0701 -0.122853,-0.24353 -0.160544,-0.31374 -0.02612,-0.0487 -0.05482,-0.0959 -0.08074,-0.14467 -0.05336,-0.10037 -0.09855,-0.20492 -0.152046,-0.30523 z" />
    <path
       style="fill:#000000;fill-opacity:1;stroke-width:0.264583"
       id="path2"
       d="m 10.41007,291.90856 c -0.04701,-0.0642 -0.09061,-0.13104 -0.139697,-0.19368 -0.03071,-0.0392 -0.06364,-0.0766 -0.0949,-0.11534 -0.09919,-0.12298 -0.122292,-0.15504 -0.2205434,-0.28361 -0.044254,-0.0584 -0.088054,-0.1172 -0.1327629,-0.17528 -0.057067,-0.0741 -0.1163405,-0.14657 -0.172557,-0.22135 -0.2406798,-0.32016 -0.4606351,-0.65612 -0.6845128,-0.98805 -0.055642,-0.0816 -0.1113253,-0.16325 -0.1669273,-0.24492 -0.1574104,-0.2312 -0.3129211,-0.46333 -0.4619553,-0.70006 -0.1223346,-0.19431 -0.148399,-0.24035 -0.2643577,-0.43428 -0.1882304,-0.30889 -0.3707559,-0.62115 -0.5518034,-0.93428 -0.044021,-0.0761 -0.087122,-0.15281 -0.1320852,-0.22839 -0.044894,-0.0755 -0.091644,-0.14982 -0.1374662,-0.22473 -0.2506255,-0.40043 -0.5070729,-0.79709 -0.758898,-1.19675 -0.1970625,-0.3095 -0.4008604,-0.61462 -0.5946939,-0.9262 -0.1538619,-0.24776 -0.2994158,-0.50052 -0.4478147,-0.75156 -0.1230244,-0.1994 -0.2478244,-0.3977 -0.3744892,-0.59481 -0.1096415,-0.15759 -0.2078331,-0.3226 -0.3130653,-0.48308 -0.1021072,-0.13676 -0.1923725,-0.28149 -0.2899421,-0.42143 -0.075849,-0.10793 -0.1595488,-0.21057 -0.2507001,-0.30591 -0.059287,-0.0627 -0.1240626,-0.11964 -0.1887292,-0.1766 -0.055687,-0.0512 -0.098033,-0.11394 -0.1355812,-0.17923 -0.023079,-0.037 -0.03944,-0.0774 -0.058794,-0.11625 -0.00629,-0.0127 -0.013856,-0.0247 -0.019561,-0.0376 -0.00257,-0.006 -0.017322,-0.051 -0.019804,-0.0586 -0.015851,-0.0573 -0.015938,-0.10173 0.00734,-0.15664 0.040078,-0.0748 0.1153189,-0.11433 0.1904576,-0.14664 0.012102,-0.003 0.024114,-0.006 0.036306,-0.009 0.02186,-0.005 0.030014,-0.009 0.048007,0.009 0.00693,0.007 0.023746,0.0301 0.015105,0.0254 -1.2718254,-0.69132 -1.4450936,-0.76792 -1.0398128,-0.58576 0.013129,0.0118 0.027197,0.0226 0.039387,0.0353 0.011957,0.0125 0.093361,0.11197 0.09794,0.11753 0.087397,0.10612 0.1719183,0.21424 0.2564612,0.32265 0.2470647,0.31666 0.500471,0.62824 0.7521451,0.94121 0.1840817,0.2374 0.3724135,0.47152 0.5542804,0.71064 0.042794,0.0563 0.084742,0.11316 0.1271127,0.16974 0.048077,0.0629 0.096155,0.12573 0.1442326,0.18859 0.2588871,0.35922 0.4946237,0.73437 0.7319743,1.10796 0.1973379,0.26184 0.3569287,0.54854 0.5302086,0.82607 0.442895,0.70936 -0.1757241,-0.29047 0.2460141,0.39244 0.2101609,0.35133 0.4207751,0.70221 0.6431711,1.04598 0.1427438,0.22331 0.2998134,0.43689 0.4465789,0.65748 0.060407,0.0908 0.1628828,0.25075 0.2224468,0.34329 0.2170279,0.32207 0.4302395,0.64659 0.6378557,0.9748 0.096757,0.14755 0.1917943,0.29616 0.2845366,0.44626 0.028805,0.0466 0.056045,0.0942 0.086064,0.14007 0.036171,0.0552 0.075528,0.10833 0.1124371,0.16309 0.036088,0.0535 0.071028,0.10783 0.1065419,0.16174 0.062289,0.10586 0.1319869,0.20704 0.1968725,0.31125 0.03027,0.0486 0.058563,0.0984 0.088646,0.14718 0.027811,0.0451 0.057908,0.0887 0.085022,0.13416 0.031821,0.0534 0.074675,0.13734 0.1044848,0.19463 0.01729,0.0244 0.034581,0.0488 0.051872,0.0732 0.012798,0.0173 0.025924,0.0343 0.03839,0.0519 0.00484,0.007 0.00543,0.019 0.013507,0.0211 0.00576,10e-4 0.00727,-0.01 0.00975,-0.015 0.025821,-0.0564 0.022627,-0.0351 0.00254,-0.0902 1.8049667,1.00223 1.1124157,0.73015 0.8263437,0.43683 -0.08289,-0.085 -0.15193,-0.18087 -0.221827,-0.2764 -0.192651,-0.2479 -0.3424765,-0.52488 -0.4882146,-0.80188 -0.090898,-0.1761 -0.17145,-0.35732 -0.26085,-0.53415 -0.032096,-0.0635 -0.1010333,-0.19238 -0.1345102,-0.25535 -0.1387237,-0.27359 -0.2918352,-0.53958 -0.4457335,-0.80484 -0.1914351,-0.30132 -0.3871008,-0.59997 -0.5815106,-0.89939 -0.1692873,-0.26527 -0.3299195,-0.53597 -0.494198,-0.80437 -0.1336617,-0.2219 -0.2733138,-0.44017 -0.4143269,-0.65745 -0.1831584,-0.26279 -0.3702955,-0.52274 -0.5559436,-0.78376 -0.1532744,-0.21702 -0.3006357,-0.4377 -0.4405527,-0.66354 -0.1472303,-0.23072 -0.3146073,-0.44743 -0.4817933,-0.6638 -0.1592212,-0.21358 -0.328373,-0.4194 -0.4907867,-0.63051 -0.1431343,-0.18689 -0.2902255,-0.3707 -0.4405413,-0.55185 -0.026555,-0.0308 -0.070738,-0.0815 -0.097783,-0.1145 -0.00789,-0.01 -0.038054,-0.0424 -0.041326,-0.0618 -6.615e-4,-0.004 0.00348,-0.007 0.00521,-0.0107 -0.00135,-0.004 -0.00269,-0.007 -0.00403,-0.0111 0.1502283,-0.4202 0.022344,-0.0469 -1.1926536,-0.50094 -0.016354,-0.006 0.014436,0.0318 0.023006,0.0471 0.023482,0.0417 0.067567,0.10513 0.092206,0.14236 0.026109,0.0395 0.051984,0.0791 0.077977,0.1186 0.031254,0.0497 0.062836,0.0992 0.093763,0.14918 0.1371963,0.22149 0.077027,0.13135 0.2260608,0.3624 0.146675,0.22739 0.300704,0.44989 0.4518308,0.67432 0.3017552,0.46897 0.6128769,0.93176 0.9226778,1.39545 0.1391846,0.21453 0.2865046,0.42361 0.4288301,0.63604 0.045772,0.0683 0.092513,0.13603 0.1360167,0.20581 0.046858,0.0752 0.089011,0.15318 0.1349793,0.22889 0.050122,0.0826 0.1021808,0.16391 0.153271,0.24587 0.2560445,0.44154 0.5114751,0.88349 0.7648896,1.32656 0.038624,0.0681 0.076634,0.1365 0.1158716,0.20422 0.082278,0.14202 0.1669074,0.28266 0.2492621,0.42462 0.1164069,0.20067 0.2308926,0.40231 0.3439303,0.60489 0.03859,0.0686 0.077877,0.13675 0.1157703,0.2057 0.2305082,0.41947 -0.013338,-0.0142 0.2124377,0.39516 0.1153694,0.20917 0.2333582,0.41682 0.3478149,0.62651 0.096019,0.17075 0.1713897,0.35202 0.2619362,0.5255 0.027721,0.0531 0.043006,0.11678 0.087323,0.1571 0.1206426,0.10975 0.2670739,0.18734 0.398081,0.28449 0.089491,0.0664 0.1755095,0.13728 0.2632644,0.20592 0,0 0.054554,0.025 0.054554,0.025 v 0 c 0.055825,-0.003 0.1115822,-0.0109 0.1674744,-0.009 0.092694,0.002 0.197077,0.0676 0.27737,0.0213 0.04582,-0.0265 -0.03677,-0.0994 -0.05918,-0.14729 -0.08952,-0.19147 -0.2087763,-0.36729 -0.3096384,-0.55255 -0.2353996,-0.41212 -0.4730727,-0.82303 -0.7007768,-1.23947 -0.159589,-0.27542 -0.3228356,-0.5487 -0.4823063,-0.82418 -0.04054,-0.07 -0.079771,-0.14082 -0.1204846,-0.21075 -0.040533,-0.0696 -0.082164,-0.13859 -0.1232456,-0.20789 -0.2677237,-0.44904 -0.5348902,-0.89841 -0.8041214,-1.34656 -0.049065,-0.0818 -0.095758,-0.16513 -0.1471957,-0.2455 -0.05345,-0.0835 -0.1116505,-0.16387 -0.1673378,-0.24591 -0.1927352,-0.28391 -0.3800753,-0.57157 -0.5802996,-0.85033 -0.1071411,-0.15079 -0.2155457,-0.30068 -0.3219087,-0.45202 -0.2215949,-0.3153 -0.432221,-0.63826 -0.6449822,-0.95952 -0.1612588,-0.25754 -0.1261232,-0.19907 -0.2782422,-0.4509 -0.1065036,-0.17632 -0.2131881,-0.35315 -0.3071927,-0.53659 -0.022892,-0.0447 -0.043418,-0.0905 -0.065127,-0.13578 -0.271404,-0.63064 -0.00776,-0.18765 -1.3238805,-0.78663 -0.00616,-0.003 0.012787,-0.004 0.01918,-0.007 0.1101463,0.0673 0.1983584,0.15208 0.2849878,0.24749 0.1704824,0.17757 0.3269453,0.36773 0.4800325,0.56039 0.1657315,0.20862 0.3244392,0.42264 0.4920956,0.62977 0.1598255,0.21118 0.3211378,0.42197 0.4631627,0.64571 0.1507257,0.22648 0.294614,0.45769 0.4565126,0.67651 0.1837632,0.25619 0.3729638,0.50886 0.5437344,0.77404 0.1477946,0.21938 0.2932827,0.44025 0.4353396,0.66341 0.1731729,0.27281 0.3456421,0.54603 0.5204042,0.81783 0.1882497,0.29284 0.3845052,0.58073 0.5568749,0.8835 0.059082,0.0991 0.1058606,0.17624 0.1626748,0.27654 0.096171,0.16977 0.1809086,0.34557 0.2730677,0.51751 0.1365391,0.26802 0.2822456,0.53112 0.4183214,0.79938 0.1381321,0.27319 0.2884829,0.53942 0.4469212,0.80135 0.06773,0.0966 0.1372132,0.19143 0.2085435,0.28541 0.0027,0.004 0.086289,0.11558 0.099117,0.12349 0.3479639,0.21448 0.7033686,0.41664 1.0550526,0.62497 0.01916,-0.002 0.04003,0.003 0.05747,-0.006 0.03833,-0.0179 0.0714,-0.0567 0.08611,-0.0962 0.0049,-0.0132 0.0047,-0.0277 0.0064,-0.0417 0.0019,-0.015 0.0052,-0.0301 0.0044,-0.0453 -0.0012,-0.0209 -0.0071,-0.0413 -0.01062,-0.0619 -0.06895,-0.12854 -0.0319,-0.0608 -0.111576,-0.20308 -0.02286,-0.0425 -0.04294,-0.0865 -0.06663,-0.12859 -0.02865,-0.0509 -0.06011,-0.10017 -0.09029,-0.15018 -0.122503,-0.20295 -0.06739,-0.11512 -0.198823,-0.31401 -0.03296,-0.0527 -0.06592,-0.10535 -0.09888,-0.15803 -0.02964,-0.0507 -0.05811,-0.10209 -0.08893,-0.15208 -0.02979,-0.0483 -0.0621,-0.0951 -0.092845,-0.14278 -0.095598,-0.1484 -0.1876562,-0.29897 -0.282602,-0.44778 -0.220182,-0.32737 -0.4403841,-0.6547 -0.6569956,-0.98445 -0.2297115,-0.33455 -0.4530977,-0.67328 -0.6842556,-1.00683 -0.2357724,-0.35105 -0.4646338,-0.70661 -0.6907827,-1.06393 -0.084256,-0.13163 -0.1668232,-0.26434 -0.2516116,-0.39563 -0.178434,-0.27628 -0.3706977,-0.5439 -0.5334297,-0.83013 -0.017954,-0.0259 -0.2363602,-0.3413 -0.2518052,-0.3641 -0.1741133,-0.25698 -0.3411236,-0.51882 -0.5244683,-0.76949 -0.043845,-0.0619 -0.086091,-0.12507 -0.1315347,-0.18585 -0.044665,-0.0598 -0.092471,-0.11708 -0.1386967,-0.17563 -0.1915046,-0.24255 -0.3822885,-0.48574 -0.5795661,-0.72365 -0.2493065,-0.30619 -0.5007215,-0.61103 -0.7344288,-0.92944 -0.1076931,-0.14731 -0.2157876,-0.29562 -0.3051535,-0.45492 -0.188763,-0.43041 -0.022801,-0.0725 -1.1412416,-0.67166 -0.00683,-0.004 -0.055803,0.0307 -0.059895,0.033 -0.061392,0.0341 -0.00825,-0.004 -0.064409,0.0399 -0.082116,0.0608 -0.1654103,0.12503 -0.2207702,0.21244 -0.01125,0.0205 -0.032823,0.0577 -0.040613,0.0803 -0.016314,0.0472 -0.014811,0.10015 -0.01189,0.14908 0.013753,0.0823 0.045092,0.15971 0.07804,0.2361 0.011448,0.0253 0.021905,0.0511 0.034168,0.076 0.021436,0.0436 0.01797,0.0312 0.041677,0.0735 0.00634,0.0113 0.010829,0.0237 0.017968,0.0345 0.00672,0.0102 0.015576,0.0188 0.023365,0.0281 0.060677,0.0711 0.1385094,0.12346 0.2070418,0.18654 0.093893,0.088 0.1813483,0.18133 0.2563373,0.28628 0.098867,0.1326 0.1974019,0.26582 0.2793791,0.40976 0.1022699,0.16156 0.2020671,0.32476 0.3088709,0.4834 0.1366102,0.19756 0.2732622,0.39537 0.3989295,0.60014 0.1593593,0.25285 0.3094926,0.51122 0.4697574,0.76353 0.2043692,0.3158 0.4140012,0.62818 0.623938,0.94027 0.085953,0.12914 0.1702758,0.25479 0.2542892,0.38527 0.04257,0.0661 0.083466,0.13331 0.1261957,0.19932 0.1357551,0.20973 0.2786597,0.41479 0.412695,0.62565 0.1004938,0.15498 0.2025391,0.30895 0.3017295,0.46476 0.2020689,0.31741 0.3933632,0.64164 0.5983394,0.95723 0.3145022,0.47728 0.6324121,0.95218 0.9667742,1.4159 0.2281714,0.32643 0.4566847,0.65325 0.6755829,0.98602 0.044513,0.0677 0.086114,0.13723 0.1311082,0.20458 0.038433,0.0575 0.079415,0.11331 0.119122,0.16997 0.097807,0.13765 0.1008129,0.14141 0.1937129,0.27386 0.025336,0.0361 0.049153,0.0734 0.07581,0.10851 0.0553,0.0729 0.1190406,0.1389 0.1778434,0.20889 z" />
    <path
       style="fill:#000000;fill-opacity:1;stroke-width:0.264583"
       id="path3"
       d="m 14.007495,290.0715 c 0.06196,0.1646 0.121019,0.33093 0.194021,0.49112 0.05703,0.12513 0.136127,0.27812 0.197741,0.39987 0.05122,0.0772 0.09192,0.16249 0.153672,0.23153 0.20282,0.22678 0.52133,0.45881 0.753366,0.64192 0,0 0.05463,0.0248 0.05463,0.0248 v 0 c 0.06003,-0.007 0.340449,-5e-4 0.384781,-0.1233 0.02043,-0.0566 -0.02482,-0.11774 -0.03723,-0.17661 -0.112089,-0.28288 -0.218039,-0.56814 -0.328198,-0.85173 z" />
    <path
       style="fill:#000000;fill-opacity:1;stroke-width:0.264583"
       id="path4"
       d="m 12.637474,290.67883 c 0.02793,0.0774 0.06598,0.15073 0.100195,0.22547 0.01803,0.0394 0.03424,0.0796 0.05338,0.11844 0.02129,0.0432 0.148638,0.27961 0.166141,0.31224 0.01902,0.0371 0.18661,0.36595 0.204129,0.3912 0.06544,0.0943 0.144125,0.17879 0.218333,0.2664 0.0774,0.0914 0.150452,0.18713 0.23643,0.27049 0.600193,0.58188 0.179173,0.0796 0.520124,0.5062 0,0 0.05457,0.0249 0.05457,0.0249 v 0 c 0.03197,-0.25994 -0.03968,0.0307 0.211392,-0.17241 0.03847,-0.0311 0.03544,-0.0927 0.04727,-0.14072 0.01253,-0.0509 0.03261,-0.10321 0.02559,-0.15516 -0.0049,-0.0363 -0.132713,-0.33283 -0.148014,-0.36905 -0.04494,-0.10483 -0.08251,-0.19699 -0.133172,-0.29863 -0.02053,-0.0412 -0.04412,-0.0808 -0.06522,-0.12169 -0.04021,-0.0779 -0.07327,-0.15943 -0.11761,-0.23521 z" />
    <path
       style="fill:#000000;fill-opacity:1;stroke-width:0.264583"
       id="path5"
       d="m 10.740551,291.21562 c 0.100547,0.13411 0.214318,0.25954 0.29418,0.40818 0.02071,0.0385 0.03656,0.0795 0.05483,0.11926 0.07108,0.14864 0.128868,0.30539 0.216349,0.44584 0.04136,0.0664 0.0728,0.14456 0.13502,0.19199 0.22441,0.17103 0.475875,0.3033 0.713813,0.45495 0,0 0.05471,0.0246 0.05471,0.0246 v 0 c 0.176837,0.0348 0.351243,0.12299 0.530511,0.1044 0.05366,-0.006 -0.027,-0.10494 -0.04863,-0.15436 -0.02608,-0.0596 -0.06089,-0.11495 -0.09382,-0.17101 -0.063,-0.10727 -0.137368,-0.21535 -0.206465,-0.31873 -0.0336,-0.0478 -0.06823,-0.0949 -0.100807,-0.14348 -0.09186,-0.13686 -0.167173,-0.28521 -0.270765,-0.41388 z" />
    <path
       style="fill:#000000;fill-opacity:1;stroke-width:0.264583"
       id="path6"
       d="m 9.7669985,291.95354 c 0.00949,0.0188 0.01978,0.0371 0.028465,0.0563 0.048648,0.10729 0.088308,0.21335 0.1431232,0.31871 0.064256,0.12352 0.1331433,0.24457 0.1992883,0.36708 0.09694,0.17535 0.170705,0.34023 0.331563,0.47471 0.191421,0.16003 0.407746,0.28767 0.61162,0.43151 0,0 0.05474,0.0245 0.05474,0.0245 v 0 c 0.129141,0.006 0.267261,0.0651 0.387421,0.0174 0.120529,-0.0478 -0.184248,-0.38291 -0.112729,-0.37231 -0.271836,-0.59685 0.06492,0.14907 -0.148487,-0.34118 -0.04805,-0.11039 -0.108267,-0.21409 -0.158962,-0.32304 -0.0079,-0.017 -0.01394,-0.0349 -0.02092,-0.0524 z" />
    <path
       style="fill:#000000;fill-opacity:1;stroke-width:0.264583"
       id="path7"
       d="m 8.1557444,292.81408 c 0.018775,0.0264 0.038632,0.0521 0.056328,0.0793 0.022389,0.0344 0.041488,0.0708 0.063853,0.10516 0.02891,0.0444 0.059838,0.0875 0.089917,0.13117 0.1071483,0.15549 0.218113,0.30732 0.3314893,0.45833 0.1228146,0.16023 0.1421667,0.18729 0.2702155,0.34685 0.1154242,0.14383 0.222907,0.28729 0.3764174,0.39657 0.7340184,0.52253 0.4614334,0.15612 0.7082004,0.52664 0,0 0.05496,0.0241 0.05496,0.0241 v 0 c -0.03161,-0.0479 -0.1493454,-0.12579 -0.09482,-0.14363 0.122609,-0.0401 0.257626,0.0755 0.383885,0.0491 0.04151,-0.009 8.47e-4,-0.0872 -0.01566,-0.12626 -0.02528,-0.0599 -0.07015,-0.10942 -0.106602,-0.16323 -0.09221,-0.1361 -0.142372,-0.20125 -0.240148,-0.33371 -0.1000956,-0.1352 -0.1255972,-0.16702 -0.2183527,-0.302 -0.1711497,-0.24905 -0.016992,-0.0284 -0.1709949,-0.26301 -0.1330862,-0.20277 -0.026648,-0.0272 -0.1229448,-0.18967 z" />
    <path
       style="fill:#000000;fill-opacity:1;stroke-width:0.264583"
       id="path8"
       d="m 7.2695109,293.88499 c 0.018291,0.0217 0.038404,0.0421 0.054872,0.0652 0.055412,0.0779 0.079527,0.13985 0.1273929,0.22604 0.030907,0.0557 0.061513,0.11157 0.095769,0.16522 0.1406523,0.2203 0.162555,0.23129 0.3420785,0.44676 0.5878624,0.45593 0.3071548,0.23327 0.8431549,0.66666 0,0 0.054918,0.0242 0.054918,0.0242 v 0 c 0.1892797,-0.11821 0.085247,-0.0637 0.3150082,-0.15769 -0.023855,-0.0609 -0.043512,-0.12363 -0.071565,-0.18272 -0.042016,-0.0885 -0.1537674,-0.27055 -0.2078231,-0.35472 -0.061236,-0.0954 -0.1103794,-0.15976 -0.1665581,-0.25366 -0.011398,-0.0191 -0.020778,-0.0392 -0.031168,-0.0589 z" />
    <path
       style="fill:#000000;fill-opacity:1;stroke-width:0.264583"
       id="path9"
       d="m 5.1891069,294.58032 c 0.019635,0.0269 0.041778,0.0522 0.058901,0.0807 0.018825,0.0314 0.029277,0.0674 0.04854,0.0985 0.039005,0.063 0.2065623,0.28826 0.2414857,0.33612 0.048297,0.0662 0.079733,0.14862 0.1444512,0.19887 0.2196454,0.17052 0.4658138,0.30381 0.6987209,0.45571 0.090812,0.0852 0.1816251,0.17044 0.2724378,0.25566 0,0 0.054959,0.0241 0.054959,0.0241 v 0 c 0.00642,-0.0425 0.012838,-0.0849 0.019256,-0.12737 0.1445929,0.0146 0.2981119,0.0959 0.4337791,0.0438 0.061498,-0.0236 -0.060792,-0.11689 -0.090987,-0.17544 -0.040141,-0.0778 -0.113284,-0.22718 -0.1632398,-0.30312 -0.026797,-0.0407 -0.061598,-0.0757 -0.088982,-0.1161 -0.015312,-0.0226 -0.025815,-0.048 -0.038724,-0.072 z" />
  </g>
</svg>
