<?xml version="1.0" encoding="UTF-8" standalone="no"?>
<!-- Created with Inkscape (http://www.inkscape.org/) -->

<svg
   width="64"
   height="64"
   viewBox="0 0 16.933333 16.933334"
   version="1.1"
   id="svg8"
   inkscape:version="1.4 (e7c3feb100, 2024-10-09)"
   sodipodi:docname="grating.svg"
   inkscape:export-filename="C:\Users\Ali\Documents\inkscape\freecad\pyrate\pyrate_logo_3_256x256.png"
   inkscape:export-xdpi="1536"
   inkscape:export-ydpi="1536"
   xmlns:inkscape="http://www.inkscape.org/namespaces/inkscape"
   xmlns:sodipodi="http://sodipodi.sourceforge.net/DTD/sodipodi-0.dtd"
   xmlns:xlink="http://www.w3.org/1999/xlink"
   xmlns="http://www.w3.org/2000/svg"
   xmlns:svg="http://www.w3.org/2000/svg"
   xmlns:rdf="http://www.w3.org/1999/02/22-rdf-syntax-ns#"
   xmlns:cc="http://creativecommons.org/ns#"
   xmlns:dc="http://purl.org/dc/elements/1.1/">
  <defs
     id="defs2">
    <linearGradient
       id="linearGradient1245"
       inkscape:collect="always">
      <stop
         id="stop1241"
         offset="0"
         style="stop-color:#aaccff;stop-opacity:1" />
      <stop
         id="stop1243"
         offset="1"
         style="stop-color:#d5f6ff;stop-opacity:1" />
    </linearGradient>
    <linearGradient
       id="linearGradient1167"
       inkscape:collect="always">
      <stop
         id="stop1161"
         offset="0"
         style="stop-color:#00112b;stop-opacity:1" />
      <stop
         id="stop1163"
         offset="1"
         style="stop-color:#2a7fff;stop-opacity:1" />
    </linearGradient>
    <linearGradient
       inkscape:collect="always"
       id="linearGradient1166">
      <stop
         style="stop-color:#41dcff;stop-opacity:1"
         offset="0"
         id="stop1162" />
      <stop
         style="stop-color:#40e0ff;stop-opacity:1"
         offset="1"
         id="stop1164" />
    </linearGradient>
    <linearGradient
       inkscape:collect="always"
       id="linearGradient1058">
      <stop
         style="stop-color:#5175ff;stop-opacity:1"
         offset="0"
         id="stop1054" />
      <stop
         style="stop-color:#40e0ff;stop-opacity:1"
         offset="1"
         id="stop1056" />
    </linearGradient>
    <linearGradient
       id="linearGradient1045"
       inkscape:collect="always">
      <stop
         id="stop1041"
         offset="0"
         style="stop-color:#293449;stop-opacity:1" />
      <stop
         id="stop1043"
         offset="1"
         style="stop-color:#485c80;stop-opacity:1" />
    </linearGradient>
    <linearGradient
       inkscape:collect="always"
       id="linearGradient2480">
      <stop
         style="stop-color:#cc0a08;stop-opacity:1"
         offset="0"
         id="stop2476" />
      <stop
         style="stop-color:#f67d89;stop-opacity:1"
         offset="1"
         id="stop2478" />
    </linearGradient>
    <linearGradient
       id="linearGradient942-5"
       inkscape:collect="always">
      <stop
         id="stop938"
         offset="0"
         style="stop-color:#002076;stop-opacity:1" />
      <stop
         id="stop940"
         offset="1"
         style="stop-color:#40e0ff;stop-opacity:1" />
    </linearGradient>
    <linearGradient
       gradientUnits="userSpaceOnUse"
       y2="31.377413"
       x2="86.543877"
       y1="282.62048"
       x1="20.010984"
       id="linearGradient944"
       xlink:href="#linearGradient942-5"
       inkscape:collect="always" />
    <linearGradient
       gradientUnits="userSpaceOnUse"
       y2="112.66277"
       x2="98.204803"
       y1="257.94366"
       x1="13.302045"
       id="linearGradient952"
       xlink:href="#linearGradient2480"
       inkscape:collect="always" />
    <linearGradient
       gradientTransform="translate(0,1.5875)"
       gradientUnits="userSpaceOnUse"
       y2="133.50244"
       x2="146.68025"
       y1="272.83194"
       x1="101.05925"
       id="linearGradient960"
       xlink:href="#linearGradient2480"
       inkscape:collect="always" />
    <filter
       id="filter1495"
       inkscape:label="Drop Shadow"
       style="color-interpolation-filters:sRGB">
      <feFlood
         id="feFlood1485"
         result="flood"
         flood-color="rgb(0,0,0)"
         flood-opacity="0.498039" />
      <feComposite
         id="feComposite1487"
         result="composite1"
         operator="in"
         in2="SourceGraphic"
         in="flood" />
      <feGaussianBlur
         id="feGaussianBlur1489"
         result="blur"
         stdDeviation="4"
         in="composite1" />
      <feOffset
         id="feOffset1491"
         result="offset"
         dy="4"
         dx="2" />
      <feComposite
         id="feComposite1493"
         result="composite2"
         operator="over"
         in2="offset"
         in="SourceGraphic" />
    </filter>
    <filter
       id="filter2066"
       inkscape:label="Drop Shadow"
       style="color-interpolation-filters:sRGB">
      <feFlood
         id="feFlood2056"
         result="flood"
         flood-color="rgb(0,0,0)"
         flood-opacity="0.498039" />
      <feComposite
         id="feComposite2058"
         result="composite1"
         operator="in"
         in2="SourceGraphic"
         in="flood" />
      <feGaussianBlur
         id="feGaussianBlur2060"
         result="blur"
         stdDeviation="20"
         in="composite1" />
      <feOffset
         id="feOffset2062"
         result="offset"
         dy="20"
         dx="6" />
      <feComposite
         id="feComposite2064"
         result="composite2"
         operator="over"
         in2="offset"
         in="SourceGraphic" />
    </filter>
    <filter
       id="filter2474"
       inkscape:label="Drop Shadow"
       style="color-interpolation-filters:sRGB">
      <feFlood
         id="feFlood2464"
         result="flood"
         flood-color="rgb(0,0,0)"
         flood-opacity="0.498039" />
      <feComposite
         id="feComposite2466"
         result="composite1"
         operator="in"
         in2="SourceGraphic"
         in="flood" />
      <feGaussianBlur
         id="feGaussianBlur2468"
         result="blur"
         stdDeviation="4"
         in="composite1" />
      <feOffset
         id="feOffset2470"
         result="offset"
         dy="4.8"
         dx="1.5" />
      <feComposite
         id="feComposite2472"
         result="composite2"
         operator="over"
         in2="offset"
         in="SourceGraphic" />
    </filter>
    <linearGradient
       gradientTransform="translate(0,290.28571)"
       gradientUnits="userSpaceOnUse"
       y2="398.20157"
       x2="-973.7356"
       y1="746.96252"
       x1="-1123.2253"
       id="linearGradient1033"
       xlink:href="#linearGradient1058"
       inkscape:collect="always" />
    <linearGradient
       gradientTransform="translate(0,213.65424)"
       gradientUnits="userSpaceOnUse"
       y2="851.35718"
       x2="-987.59387"
       y1="1234.0872"
       x1="-1127.1049"
       id="linearGradient1047"
       xlink:href="#linearGradient1045"
       inkscape:collect="always" />
    <linearGradient
       gradientTransform="translate(-19.199562,-44.652005)"
       gradientUnits="userSpaceOnUse"
       y2="1157.111"
       x2="-544.48077"
       y1="1495.4609"
       x1="-689.72717"
       id="linearGradient1134"
       xlink:href="#linearGradient1045"
       inkscape:collect="always" />
    <linearGradient
       y2="851.35718"
       x2="-987.59387"
       y1="1234.0872"
       x1="-1127.1049"
       gradientTransform="translate(0,213.65424)"
       gradientUnits="userSpaceOnUse"
       id="linearGradient1160"
       xlink:href="#linearGradient1166"
       inkscape:collect="always" />
    <linearGradient
       id="linearGradient3682-0">
      <stop
         style="stop-color:#a40000;stop-opacity:1"
         offset="0"
         id="stop3684-0" />
      <stop
         style="stop-color:#ef2929;stop-opacity:1"
         offset="1"
         id="stop3686-0" />
    </linearGradient>
    <linearGradient
       id="linearGradient3864-9">
      <stop
         id="stop3866-1"
         offset="0"
         style="stop-color:#204a87;stop-opacity:1" />
      <stop
         id="stop3868-1"
         offset="1"
         style="stop-color:#729fcf;stop-opacity:1" />
    </linearGradient>
    <linearGradient
       id="linearGradient3682-0-3">
      <stop
         style="stop-color:#ff390f;stop-opacity:1"
         offset="0"
         id="stop3684-0-7" />
      <stop
         style="stop-color:#ff1000;stop-opacity:1;"
         offset="1"
         id="stop3686-0-5" />
    </linearGradient>
    <linearGradient
       id="linearGradient3864-9-7">
      <stop
         id="stop3866-1-7"
         offset="0"
         style="stop-color:#316cab;stop-opacity:1" />
      <stop
         id="stop3868-1-4"
         offset="1"
         style="stop-color:#002ca8;stop-opacity:1" />
    </linearGradient>
    <linearGradient
       id="linearGradient3682">
      <stop
         id="stop3684"
         offset="0"
         style="stop-color:#ff6d0f;stop-opacity:1;" />
      <stop
         id="stop3686"
         offset="1"
         style="stop-color:#ff1000;stop-opacity:1;" />
    </linearGradient>
    <linearGradient
       id="linearGradient3864">
      <stop
         style="stop-color:#71b2f8;stop-opacity:1;"
         offset="0"
         id="stop3866" />
      <stop
         style="stop-color:#002795;stop-opacity:1;"
         offset="1"
         id="stop3868" />
    </linearGradient>
    <linearGradient
       gradientTransform="matrix(0.79118995,0,0,0.96421064,-462.08318,3.6442021)"
       gradientUnits="userSpaceOnUse"
       y2="-97.402824"
       x2="-2013.709"
       y1="301.0498"
       x1="-2412.1616"
       id="linearGradient1169"
       xlink:href="#linearGradient1167"
       inkscape:collect="always" />
    <linearGradient
       gradientUnits="userSpaceOnUse"
       y2="-9.260396"
       x2="-2055.4119"
       y1="284.23495"
       x1="-2302.6389"
       id="linearGradient1239"
       xlink:href="#linearGradient1245"
       inkscape:collect="always" />
    <linearGradient
       gradientUnits="userSpaceOnUse"
       y2="1276.7333"
       x2="4327.0557"
       y1="2126.7334"
       x1="3477.0554"
       id="linearGradient3835"
       xlink:href="#linearGradient1045"
       inkscape:collect="always" />
    <mask
       id="mask5747"
       maskUnits="userSpaceOnUse">
      <path
         inkscape:connector-curvature="0"
         id="path5749"
         d="m -1081.0913,3822.7064 -30.9051,-17.7313 -13.6473,4.7355 -13.0203,33.2785 -20.4811,-1.0774 -9.3432,-34.4101 -13.0752,-6.2608 -32.6113,14.2658 -13.7762,-15.3072 17.7314,-30.9049 -4.8453,-13.606 -33.2766,-13.0222 1.1905,-20.5206 34.4107,-9.3432 6.2607,-13.0752 -14.3755,-32.5713 15.3071,-13.7747 30.9051,17.7313 13.7154,-4.8866 12.9107,-33.2346 20.6323,1.1528 9.2335,34.4501 13.0752,6.2606 32.681,-14.4151 13.7747,15.3067 -17.7319,30.9052 4.7754,13.7554 33.2372,12.9128 -1.0398,20.5901 -34.4501,9.2334 -6.2622,13.0752 14.3073,32.721 z m -46.2858,-50.6793 6.3443,-3.6809 5.4951,-4.9832 4.4016,-5.9473 3.1652,-6.6122 1.8707,-7.1279 0.3036,-7.3064 -1.0584,-7.3012 -2.4077,-6.9339 -3.8305,-6.4135 -4.8341,-5.4277 -5.9468,-4.3992 -6.6122,-3.1652 -7.1283,-1.8709 -7.3452,-0.4154 -7.3041,1.0583 -6.9313,2.4077 -6.414,3.8307 -5.3875,4.9432 -4.441,5.8375 -3.1652,6.6122 -1.8143,7.2377 -0.4155,7.3456 1.0579,7.302 2.4078,6.9334 3.7905,6.3042 4.8741,5.5367 5.9468,4.3995 6.6122,3.1652 7.238,1.8142 7.3058,0.3038 7.302,-1.0584 6.9333,-2.4079 z"
         style="display:inline;overflow:visible;visibility:visible;fill:#ffffff;fill-opacity:1;fill-rule:evenodd;stroke:none;stroke-width:9.9998951;stroke-linecap:round;stroke-linejoin:round;stroke-miterlimit:4;stroke-dasharray:none;stroke-dashoffset:0;stroke-opacity:1;marker:none;enable-background:accumulate" />
    </mask>
    <mask
       id="mask2314"
       maskUnits="userSpaceOnUse">
      <path
         inkscape:connector-curvature="0"
         sodipodi:nodetypes="ccccccccccc"
         id="path2316"
         d="m -1868.9759,3355.7772 h -288.3976 v 59.668 h 119.3385 v 59.6685 h 59.668 v -59.6685 h 49.7232 v 99.4479 h 59.6679 z"
         style="display:inline;overflow:visible;visibility:visible;fill:#ffffff;fill-opacity:1;fill-rule:evenodd;stroke:none;stroke-width:9.99989414;stroke-linecap:butt;stroke-linejoin:miter;stroke-miterlimit:4;stroke-dasharray:none;stroke-dashoffset:0;stroke-opacity:1;marker:none;enable-background:accumulate" />
    </mask>
  </defs>
  <sodipodi:namedview
     id="base"
     pagecolor="#ffffff"
     bordercolor="#666666"
     borderopacity="1.0"
     inkscape:pageopacity="0.0"
     inkscape:pageshadow="2"
     inkscape:zoom="22.4"
     inkscape:cx="42.767857"
     inkscape:cy="39.375"
     inkscape:document-units="px"
     inkscape:current-layer="layer1"
     showgrid="false"
     inkscape:window-width="3836"
     inkscape:window-height="2093"
     inkscape:window-x="0"
     inkscape:window-y="32"
     inkscape:window-maximized="1"
     units="px"
     inkscape:showpageshadow="2"
     inkscape:pagecheckerboard="0"
     inkscape:deskcolor="#d1d1d1" />
  <metadata
     id="metadata5">
    <rdf:RDF>
      <cc:Work
         rdf:about="">
        <dc:format>image/svg+xml</dc:format>
        <dc:type
           rdf:resource="http://purl.org/dc/dcmitype/StillImage" />
        <dc:title />
      </cc:Work>
    </rdf:RDF>
  </metadata>
  <g
     inkscape:label="Layer 1"
     inkscape:groupmode="layer"
     id="layer1"
     transform="translate(0,-280.06666)">
    <path
       style="fill:#000000;stroke-width:0.351342"
       id="path2"
       d="m 15.306077,282.04634 c -0.05124,0.23886 -0.154571,0.45303 -0.251496,0.66648 -0.145785,0.32103 -0.0577,0.12964 -0.207803,0.45258 -0.216345,0.4669 -0.435326,0.93191 -0.639557,1.40722 -0.228729,0.54876 -0.470042,1.08869 -0.733441,1.61292 -0.280213,0.51697 -0.536946,1.0525 -0.799924,1.58307 -0.238474,0.49336 -0.466203,0.99487 -0.676479,1.50765 -0.199356,0.50037 -0.399988,0.99984 -0.607856,1.49484 -0.171761,0.44315 -0.362999,0.87106 -0.592296,1.27215 -0.255298,0.41933 -0.537109,0.81236 -0.8176549,1.20559 -0.2523831,0.3438 -0.4908019,0.7027 -0.7220227,1.06859 -0.1557021,0.24531 -0.303103,0.49824 -0.449136,0.75243 -0.024283,0.0635 -0.1355487,0.1851 -0.1156372,0.26205 0.022782,0.088 0.1295149,0.15298 0.1728077,0.19161 0,0 0.02053,0.0151 0.02053,0.0151 v 0 c 0.048674,0.0271 0.1487139,0.1104 0.2221557,0.0911 0.061471,-0.0161 0.095727,-0.18953 0.1390089,-0.23988 0.1347433,-0.26091 0.2707401,-0.5212 0.4242296,-0.766 0.2276585,-0.36649 0.4562139,-0.73215 0.7054609,-1.07679 0.279936,-0.39745 0.564592,-0.7908 0.827907,-1.20552 0.226155,-0.40659 0.41529,-0.83929 0.587257,-1.28484 0.204141,-0.49756 0.408044,-0.99498 0.603342,-1.49803 0.213919,-0.5089 0.429976,-1.01682 0.669747,-1.50791 0.258168,-0.53444 0.526176,-1.06062 0.802394,-1.58093 0.258384,-0.52949 0.496357,-1.07245 0.722408,-1.62432 0.209353,-0.47129 0.422116,-0.94012 0.637342,-1.40732 0.168496,-0.36735 0.356869,-0.73047 0.461295,-1.13534 z" />
    <path
       style="fill:#000000;stroke-width:0.205611"
       id="path3"
       d="m 5.6752535,291.93234 c -0.1731154,0.0439 -0.3469717,0.0511 -0.5204462,0.0703 -0.2778792,0.0395 -0.5560392,0.029 -0.8340714,0.0422 -0.2141204,0.0133 -0.4277876,-0.0353 -0.6410679,-0.0974 -0.2077835,-0.0704 -0.4155871,-0.13675 -0.6238882,-0.18345 -0.1970469,-0.058 -0.3945097,-0.0486 -0.5918344,-0.0221 -0.089885,0.0215 -0.1804416,0.0289 -0.2699807,0.0673 -0.02628,0.0119 -0.052806,0.0207 -0.07842,0.0449 -0.1758812,0.16569 0.066319,0.0133 -0.1150569,0.11469 0,0 0.00662,0.0174 0.00662,0.0174 v 0 c 0.1160126,0.0289 0.05348,0.008 0.1874045,0.0732 0.1233129,0.0345 0.2466437,-0.0487 0.3697609,-0.0552 0.1979472,-0.0276 0.3959844,-0.0207 0.5936362,0.0326 0.2089742,0.05 0.4175156,0.11455 0.6259149,0.18955 0.2104605,0.0544 0.4213062,0.0952 0.6324004,0.0694 0.2793887,-0.0133 0.5587863,-0.03 0.8381999,-0.0321 0.1456271,-0.0101 0.2908534,-0.0119 0.4364733,-0.008 0.049139,10e-4 0.06179,-10e-4 0.1069022,-0.008 z" />
    <path
       style="fill:#000000;stroke-width:0.254039"
       id="path5"
       d="m 8.2129474,287.99108 c -0.229861,-0.0479 -0.460869,-0.0402 -0.6913706,-0.0452 -0.2134069,-0.0119 -0.4268218,-0.0229 -0.6402212,-0.0359 -0.080985,-0.004 -0.1619425,-0.0148 -0.242954,-0.015 -0.176055,-10e-4 -0.3739087,0.0189 -0.5496795,0.0336 -0.4524951,0.04 -0.9045095,0.1057 -1.3570796,0.14059 -0.336092,0.0185 -0.6711258,-0.0548 -1.0045801,-0.14576 -0.2909383,-0.0759 -0.5810102,-0.16981 -0.8726002,-0.23075 -0.2584143,-0.0461 -0.5173828,-0.0656 -0.7753093,-0.12624 -0.1276403,-0.0302 -0.2545071,-0.0763 -0.3818369,-0.11217 -0.03547,-0.0101 -0.071828,-0.0449 -0.1066149,-0.0256 -0.015498,0.009 -0.01602,0.0654 -0.02403,0.098 0,0 0.00996,0.0178 0.00996,0.0178 v 0 c 0.060056,0.0598 0.1181717,0.132 0.1801659,0.17939 0.038918,0.0298 0.080388,0.0355 0.1207911,0.0503 0.1271144,0.0465 0.2552686,0.0793 0.3831023,0.11186 0.1005514,0.0222 0.1736879,0.0402 0.2741523,0.0551 0.1659109,0.0244 0.3323807,0.0278 0.4979873,0.065 0.2905949,0.0608 0.5800849,0.14607 0.8697773,0.22716 0.3287605,0.0813 0.6589498,0.14621 0.9898243,0.11074 0.4407038,-0.0579 0.8811381,-0.12165 1.3212435,-0.20149 0.2640635,-0.0226 0.2896556,-0.0336 0.5549459,-0.0213 0.2973473,0.0133 0.5942959,0.0726 0.8918592,0.0648 0.1430085,10e-4 0.2038815,1.8e-4 0.3448879,0.0133 0.1021337,0.009 0.2044895,0.0335 0.3067486,0.0349 0.013038,1.8e-4 0.026057,-0.001 0.039089,-0.003 z" />
    <path
       style="fill:#000000;stroke-width:0.283494"
       id="path7"
       d="m 11.057971,284.76797 c -0.275228,-0.13009 -0.558132,-0.18155 -0.839118,-0.24399 -0.7297371,-0.13912 -1.4520159,-0.3836 -2.1734727,-0.62932 -0.1313278,-0.0459 -0.2627165,-0.0911 -0.3939823,-0.13778 -0.093498,-0.0331 -0.6687493,-0.2422 -0.7679681,-0.27307 -0.4049851,-0.12594 -0.8132548,-0.20767 -1.22119,-0.28857 -0.6095633,-0.12224 -1.2227617,-0.10581 -1.8333523,-0.0294 -0.3217082,0.0373 -0.6427447,0.0928 -0.9611401,0.18851 -0.251527,0.0878 -0.5060677,0.12061 -0.7612464,0.13231 -0.1228217,-0.004 -0.2456226,0.006 -0.3683903,0.008 -0.039586,5.4e-4 -0.079169,-0.004 -0.1187495,-0.003 -0.033651,10e-4 -0.071982,-0.0229 -0.1008255,0.0101 -0.017794,0.0204 -0.00688,0.0782 -0.010331,0.11722 -0.0252,-3e-4 -0.050401,-5.9e-4 -0.075599,-9.1e-4 0,0 0.012514,0.0175 0.012514,0.0175 v 0 c 0.027875,0.004 0.055751,0.008 0.083627,0.0119 0.061876,0.0422 0.1217963,0.0966 0.1856276,0.12638 0.046637,0.0216 0.1888966,0.0148 0.2366338,0.0157 0.1264899,0.004 0.2529659,0.0166 0.3795322,0.006 0.2548597,-0.0165 0.5101179,-0.0502 0.7610421,-0.14104 0.3072187,-0.0974 0.6164778,-0.16427 0.9258637,-0.23121 0.1816477,-0.0302 0.297299,-0.053 0.4822969,-0.0677 0.4395315,-0.0353 0.8803171,-0.0133 1.3184596,0.0608 0.348131,0.0662 0.4589107,0.0802 0.8097569,0.17561 0.5299276,0.14413 1.0539274,0.35474 1.5803599,0.53731 0.7329048,0.24656 1.4665818,0.48936 2.2047925,0.67145 0.281194,0.0728 0.563486,0.13792 0.841029,0.25294 z" />
    <path
       style="fill:#000000;stroke-width:0.264583"
       d="m 15.248977,282.77155 c -0.05819,-0.0406 -0.0945,-0.11418 -0.153552,-0.15355 -0.04474,-0.0298 -0.105365,-0.0384 -0.153553,-0.0591 -0.0448,-0.0192 -0.08248,-0.055 -0.12993,-0.0709 -0.02272,-0.008 -0.05394,0.005 -0.07087,-0.0118 -0.0028,-0.003 0.0028,-0.009 0,-0.0118 -0.0028,-0.003 -0.009,0.003 -0.01181,0 -0.0028,-0.003 0.0018,-0.008 0,-0.0118 -0.0085,-0.017 -0.05446,-0.039 -0.07087,-0.0472 -0.01254,-0.006 -0.03672,-10e-4 -0.04725,-0.0118 -0.0028,-0.003 0.0039,-0.0118 0,-0.0118 -0.0039,0 0.0021,0.008 0,0.0118 -0.141326,0.22612 4.21e-4,-0.0607 -0.05906,0.17717 -0.03035,0.12141 -0.226023,0.43849 -0.248047,0.47247 -0.06896,0.1064 -0.150425,0.20415 -0.224423,0.30711 -0.02803,0.039 -0.06295,0.0875 -0.04725,0.0945 0.03413,0.0152 0.07387,0.0169 0.106305,0.0354 0.462191,0.26411 -0.185058,-0.0351 0.307106,0.16536 0.04592,0.0187 0.181446,0.0798 0.236235,0.11812 0.04288,0.03 0.02013,0.0473 0.05906,0.0473"
       id="path8" />
    <path
       style="fill:#000000;stroke-width:0.264583"
       d="m 14.398531,284.9331 c -0.01969,0 -0.04038,0.006 -0.05906,0 -0.01868,-0.006 -0.0315,-0.0236 -0.04725,-0.0354 -0.07087,-0.0197 -0.141141,-0.0417 -0.212611,-0.0591 -0.135784,-0.033 -0.268731,-0.0536 -0.4016,-0.0945 -0.01997,-0.006 -0.197617,-0.0654 -0.2008,-0.0591 -0.01838,0.0368 -0.02017,0.0799 -0.03543,0.11811 -0.130052,0.32513 0.02921,-0.1203 -0.07087,0.22443 -0.0243,0.0837 -0.05669,0.16486 -0.08268,0.24804 -0.0305,0.0976 -0.04795,0.19598 -0.07087,0.2953 -9.52e-4,0.004 -0.03581,0.16702 -0.02362,0.17717 0.09908,0.0826 0.219196,0.13604 0.330729,0.2008 0.03543,0.0197 0.07087,0.0394 0.106306,0.0591 0.02363,0.008 0.0486,0.0125 0.07087,0.0236 0.0079,0.004 0.0056,0.0174 0.01181,0.0236 0.0096,0.01 0.02942,0.0234 0.03543,0.0354 0.0035,0.007 0,0.0157 0,0.0236"
       id="path9" />
    <path
       style="fill:#000000;stroke-width:0.264583"
       d="m 13.394532,287.02378 c -0.195659,-0.0978 -0.06889,-0.0404 -0.425224,-0.15355 -0.137678,-0.0437 -0.275421,-0.0872 -0.413411,-0.12993 -0.112064,-0.0347 -0.0494,-0.007 -0.129929,-0.0472 -0.0078,-0.004 -0.04977,-0.0329 -0.05906,-0.0236 -0.01585,0.0159 -0.0516,0.14449 -0.05906,0.16537 -0.07335,0.20539 0.0063,-0.0424 -0.08268,0.16536 -0.01129,0.0263 -0.01356,0.0558 -0.02362,0.0827 -0.03341,0.0891 -0.0858,0.17527 -0.129931,0.25986 -0.04317,0.0828 -0.09316,0.16226 -0.129929,0.24805 -0.0064,0.0149 -0.0046,0.0327 -0.01181,0.0472 -3.44e-4,6.8e-4 -0.02188,0.0161 -0.01181,0.0236 0.119941,0.09 0.277625,0.11362 0.413411,0.17718 0.07829,0.0366 0.163301,0.0688 0.224423,0.12993 0.0028,0.003 -0.0033,0.01 0,0.0118 0.07178,0.0478 0.152398,0.0819 0.224424,0.12993"
       id="path10" />
    <path
       style="fill:#000000;stroke-width:0.264583"
       d="m 12.343285,289.09084 c -0.130957,-0.0333 -0.27001,-0.0314 -0.401599,-0.0591 -0.03655,-0.008 -0.06991,-0.027 -0.106306,-0.0354 -0.01535,-0.004 -0.0318,0.003 -0.04725,0 -0.01935,-0.004 -0.05513,-0.0486 -0.07087,-0.0591 -0.01057,-0.007 -0.08833,-0.0411 -0.09449,-0.0473 -0.0013,-0.001 -0.01988,-0.051 -0.03544,-0.0354 -0.01949,0.0195 0.0027,0.0553 0,0.0827 -0.0024,0.0238 -0.0063,0.0476 -0.01181,0.0709 -0.01947,0.0827 -0.03669,0.16605 -0.05906,0.24805 -0.07799,0.28597 -0.02185,-0.0143 -0.09449,0.33073 -0.006,0.0286 -0.0063,0.20028 -0.01181,0.21261 -0.01153,0.0259 -0.03572,0.0449 -0.04725,0.0709 -0.0048,0.0108 0.0029,0.024 0,0.0354 -0.02943,0.11771 -0.07572,0.23412 -0.129929,0.34254 -0.009,0.018 -0.0609,0.0754 -0.08268,0.0827 -0.0028,9.5e-4 -0.04867,0.0192 -0.03543,0.0236 0.04126,0.0138 0.08803,1.7e-4 0.12993,0.0118 0.04086,0.0113 0.07789,0.0338 0.118117,0.0473 0.07999,0.0267 0.159848,0.0445 0.236235,0.0827 0.05133,0.0257 0.104404,0.0664 0.153553,0.0945"
       id="path11" />
    <path
       style="fill:#000000;stroke-width:0.264583"
       d="m 11.327474,291.53588 c -0.155129,-0.0937 -0.307437,-0.0947 -0.47247,-0.17718 -0.02626,-0.0131 -0.05684,-0.0279 -0.08268,-0.0473 -0.0234,0.001 -0.0056,-0.0174 -0.01181,-0.0236 -0.0028,-0.003 -0.0079,0 -0.01181,0 -0.0039,-0.004 -0.0079,-0.008 -0.01181,-0.0118 -0.0186,-0.0186 -0.03543,-0.0434 -0.03543,-0.0354 0,0.004 0.01339,-0.004 0.01181,0 -0.111039,0.25381 -0.05288,0.11508 -0.153553,0.27167 -0.01717,0.0267 -0.0315,0.0551 -0.04725,0.0827 -0.02756,0.0433 -0.05421,0.0872 -0.08268,0.12993 0.0012,0.0234 -0.0174,0.006 -0.02362,0.0118 -0.03247,0.0325 -0.03984,0.0843 -0.07087,0.11811 -0.200187,0.21839 0.06866,-0.1524 -0.141741,0.11812 -0.02031,0.0261 -0.07163,0.17392 -0.08268,0.21261 -0.0032,0.0114 0.0084,0.0271 0,0.0354 -0.009,0.009 -0.01053,-0.004 -0.02362,0.0354 -0.01405,0.0422 0.09138,0.0967 0.106306,0.10631 0.151181,0.0972 0.283204,0.23349 0.448847,0.30711 0.06295,0.028 0.03689,0.0365 0.08268,0.0709 0.007,0.005 0.0174,0.006 0.02362,0.0118 0.0028,0.003 -0.0079,0 -0.01181,0"
       id="path12" />
    <path
       style="fill:#000000;stroke-width:0.264583"
       d="m 9.9573106,293.62656 c -0.039373,-0.004 -0.079351,-0.004 -0.1181176,-0.0118 -0.9004422,-0.18419 -0.1588196,-0.0262 -0.4960938,-0.12993 -0.026609,-0.008 -0.05627,-0.003 -0.082682,-0.0118 -0.020055,-0.007 -0.06789,-0.0694 -0.082682,-0.0472 -0.030662,0.046 -0.039565,0.10293 -0.082682,0.14174 -0.058531,0.0527 -0.1284944,0.0913 -0.1889879,0.14174 -0.010906,0.009 -0.013586,0.0254 -0.023625,0.0354 -0.037456,0.0374 -0.080662,0.0688 -0.1181177,0.1063 -0.01392,0.0139 -0.021516,0.0333 -0.035435,0.0473 -0.02395,0.024 -0.060379,0.0336 -0.082682,0.0591 -0.065669,0.075 -0.02241,0.062 -0.094494,0.11811 -0.079031,0.0615 -0.1666976,0.1024 -0.2244233,0.18899 -0.0022,0.003 0.00799,-9.5e-4 0.011811,0 0.012078,0.003 0.024059,0.007 0.035435,0.0118 0.024135,0.0107 0.046915,0.0243 0.07087,0.0354 0.3048368,0.14153 0.3573859,0.16395 0.6142114,0.37797 0.01611,0.0134 0.00885,0.0207 0.023622,0.0354"
       id="path13" />
  </g>
</svg>
