<?xml version="1.0" encoding="UTF-8" standalone="no"?>
<!-- Created with Inkscape (http://www.inkscape.org/) -->

<svg
   width="64"
   height="64"
   viewBox="0 0 16.933333 16.933334"
   version="1.1"
   id="svg8"
   inkscape:version="1.3.2 (091e20ef0f, 2023-11-25, custom)"
   sodipodi:docname="pseudo.svg"
   inkscape:export-filename="C:\Users\Ali\Documents\inkscape\freecad\pyrate\pyrate_logo_3_256x256.png"
   inkscape:export-xdpi="1536"
   inkscape:export-ydpi="1536"
   xmlns:inkscape="http://www.inkscape.org/namespaces/inkscape"
   xmlns:sodipodi="http://sodipodi.sourceforge.net/DTD/sodipodi-0.dtd"
   xmlns:xlink="http://www.w3.org/1999/xlink"
   xmlns="http://www.w3.org/2000/svg"
   xmlns:svg="http://www.w3.org/2000/svg"
   xmlns:rdf="http://www.w3.org/1999/02/22-rdf-syntax-ns#"
   xmlns:cc="http://creativecommons.org/ns#"
   xmlns:dc="http://purl.org/dc/elements/1.1/">
  <defs
     id="defs2">
    <linearGradient
       id="linearGradient1245"
       inkscape:collect="always">
      <stop
         id="stop1241"
         offset="0"
         style="stop-color:#aaccff;stop-opacity:1" />
      <stop
         id="stop1243"
         offset="1"
         style="stop-color:#d5f6ff;stop-opacity:1" />
    </linearGradient>
    <linearGradient
       id="linearGradient1167"
       inkscape:collect="always">
      <stop
         id="stop1161"
         offset="0"
         style="stop-color:#00112b;stop-opacity:1" />
      <stop
         id="stop1163"
         offset="1"
         style="stop-color:#2a7fff;stop-opacity:1" />
    </linearGradient>
    <linearGradient
       inkscape:collect="always"
       id="linearGradient1166">
      <stop
         style="stop-color:#41dcff;stop-opacity:1"
         offset="0"
         id="stop1162" />
      <stop
         style="stop-color:#40e0ff;stop-opacity:1"
         offset="1"
         id="stop1164" />
    </linearGradient>
    <linearGradient
       inkscape:collect="always"
       id="linearGradient1058">
      <stop
         style="stop-color:#5175ff;stop-opacity:1"
         offset="0"
         id="stop1054" />
      <stop
         style="stop-color:#40e0ff;stop-opacity:1"
         offset="1"
         id="stop1056" />
    </linearGradient>
    <linearGradient
       id="linearGradient1045"
       inkscape:collect="always">
      <stop
         id="stop1041"
         offset="0"
         style="stop-color:#293449;stop-opacity:1" />
      <stop
         id="stop1043"
         offset="1"
         style="stop-color:#485c80;stop-opacity:1" />
    </linearGradient>
    <linearGradient
       inkscape:collect="always"
       id="linearGradient2480">
      <stop
         style="stop-color:#cc0a08;stop-opacity:1"
         offset="0"
         id="stop2476" />
      <stop
         style="stop-color:#f67d89;stop-opacity:1"
         offset="1"
         id="stop2478" />
    </linearGradient>
    <linearGradient
       id="linearGradient942-5"
       inkscape:collect="always">
      <stop
         id="stop938"
         offset="0"
         style="stop-color:#002076;stop-opacity:1" />
      <stop
         id="stop940"
         offset="1"
         style="stop-color:#40e0ff;stop-opacity:1" />
    </linearGradient>
    <linearGradient
       gradientUnits="userSpaceOnUse"
       y2="31.377413"
       x2="86.543877"
       y1="282.62048"
       x1="20.010984"
       id="linearGradient944"
       xlink:href="#linearGradient942-5"
       inkscape:collect="always" />
    <linearGradient
       gradientUnits="userSpaceOnUse"
       y2="112.66277"
       x2="98.204803"
       y1="257.94366"
       x1="13.302045"
       id="linearGradient952"
       xlink:href="#linearGradient2480"
       inkscape:collect="always" />
    <linearGradient
       gradientTransform="translate(0,1.5875)"
       gradientUnits="userSpaceOnUse"
       y2="133.50244"
       x2="146.68025"
       y1="272.83194"
       x1="101.05925"
       id="linearGradient960"
       xlink:href="#linearGradient2480"
       inkscape:collect="always" />
    <filter
       id="filter1495"
       inkscape:label="Drop Shadow"
       style="color-interpolation-filters:sRGB">
      <feFlood
         id="feFlood1485"
         result="flood"
         flood-color="rgb(0,0,0)"
         flood-opacity="0.498039" />
      <feComposite
         id="feComposite1487"
         result="composite1"
         operator="in"
         in2="SourceGraphic"
         in="flood" />
      <feGaussianBlur
         id="feGaussianBlur1489"
         result="blur"
         stdDeviation="4"
         in="composite1" />
      <feOffset
         id="feOffset1491"
         result="offset"
         dy="4"
         dx="2" />
      <feComposite
         id="feComposite1493"
         result="composite2"
         operator="over"
         in2="offset"
         in="SourceGraphic" />
    </filter>
    <filter
       id="filter2066"
       inkscape:label="Drop Shadow"
       style="color-interpolation-filters:sRGB">
      <feFlood
         id="feFlood2056"
         result="flood"
         flood-color="rgb(0,0,0)"
         flood-opacity="0.498039" />
      <feComposite
         id="feComposite2058"
         result="composite1"
         operator="in"
         in2="SourceGraphic"
         in="flood" />
      <feGaussianBlur
         id="feGaussianBlur2060"
         result="blur"
         stdDeviation="20"
         in="composite1" />
      <feOffset
         id="feOffset2062"
         result="offset"
         dy="20"
         dx="6" />
      <feComposite
         id="feComposite2064"
         result="composite2"
         operator="over"
         in2="offset"
         in="SourceGraphic" />
    </filter>
    <filter
       id="filter2474"
       inkscape:label="Drop Shadow"
       style="color-interpolation-filters:sRGB">
      <feFlood
         id="feFlood2464"
         result="flood"
         flood-color="rgb(0,0,0)"
         flood-opacity="0.498039" />
      <feComposite
         id="feComposite2466"
         result="composite1"
         operator="in"
         in2="SourceGraphic"
         in="flood" />
      <feGaussianBlur
         id="feGaussianBlur2468"
         result="blur"
         stdDeviation="4"
         in="composite1" />
      <feOffset
         id="feOffset2470"
         result="offset"
         dy="4.8"
         dx="1.5" />
      <feComposite
         id="feComposite2472"
         result="composite2"
         operator="over"
         in2="offset"
         in="SourceGraphic" />
    </filter>
    <linearGradient
       gradientTransform="translate(0,290.28571)"
       gradientUnits="userSpaceOnUse"
       y2="398.20157"
       x2="-973.7356"
       y1="746.96252"
       x1="-1123.2253"
       id="linearGradient1033"
       xlink:href="#linearGradient1058"
       inkscape:collect="always" />
    <linearGradient
       gradientTransform="translate(0,213.65424)"
       gradientUnits="userSpaceOnUse"
       y2="851.35718"
       x2="-987.59387"
       y1="1234.0872"
       x1="-1127.1049"
       id="linearGradient1047"
       xlink:href="#linearGradient1045"
       inkscape:collect="always" />
    <linearGradient
       gradientTransform="translate(-19.199562,-44.652005)"
       gradientUnits="userSpaceOnUse"
       y2="1157.111"
       x2="-544.48077"
       y1="1495.4609"
       x1="-689.72717"
       id="linearGradient1134"
       xlink:href="#linearGradient1045"
       inkscape:collect="always" />
    <linearGradient
       y2="851.35718"
       x2="-987.59387"
       y1="1234.0872"
       x1="-1127.1049"
       gradientTransform="translate(0,213.65424)"
       gradientUnits="userSpaceOnUse"
       id="linearGradient1160"
       xlink:href="#linearGradient1166"
       inkscape:collect="always" />
    <linearGradient
       id="linearGradient3682-0">
      <stop
         style="stop-color:#a40000;stop-opacity:1"
         offset="0"
         id="stop3684-0" />
      <stop
         style="stop-color:#ef2929;stop-opacity:1"
         offset="1"
         id="stop3686-0" />
    </linearGradient>
    <linearGradient
       id="linearGradient3864-9">
      <stop
         id="stop3866-1"
         offset="0"
         style="stop-color:#204a87;stop-opacity:1" />
      <stop
         id="stop3868-1"
         offset="1"
         style="stop-color:#729fcf;stop-opacity:1" />
    </linearGradient>
    <linearGradient
       id="linearGradient3682-0-3">
      <stop
         style="stop-color:#ff390f;stop-opacity:1"
         offset="0"
         id="stop3684-0-7" />
      <stop
         style="stop-color:#ff1000;stop-opacity:1;"
         offset="1"
         id="stop3686-0-5" />
    </linearGradient>
    <linearGradient
       id="linearGradient3864-9-7">
      <stop
         id="stop3866-1-7"
         offset="0"
         style="stop-color:#316cab;stop-opacity:1" />
      <stop
         id="stop3868-1-4"
         offset="1"
         style="stop-color:#002ca8;stop-opacity:1" />
    </linearGradient>
    <linearGradient
       id="linearGradient3682">
      <stop
         id="stop3684"
         offset="0"
         style="stop-color:#ff6d0f;stop-opacity:1;" />
      <stop
         id="stop3686"
         offset="1"
         style="stop-color:#ff1000;stop-opacity:1;" />
    </linearGradient>
    <linearGradient
       id="linearGradient3864">
      <stop
         style="stop-color:#71b2f8;stop-opacity:1;"
         offset="0"
         id="stop3866" />
      <stop
         style="stop-color:#002795;stop-opacity:1;"
         offset="1"
         id="stop3868" />
    </linearGradient>
    <linearGradient
       gradientTransform="matrix(0.79118995,0,0,0.96421064,-462.08318,3.6442021)"
       gradientUnits="userSpaceOnUse"
       y2="-97.402824"
       x2="-2013.709"
       y1="301.0498"
       x1="-2412.1616"
       id="linearGradient1169"
       xlink:href="#linearGradient1167"
       inkscape:collect="always" />
    <linearGradient
       gradientUnits="userSpaceOnUse"
       y2="-9.260396"
       x2="-2055.4119"
       y1="284.23495"
       x1="-2302.6389"
       id="linearGradient1239"
       xlink:href="#linearGradient1245"
       inkscape:collect="always" />
    <linearGradient
       gradientUnits="userSpaceOnUse"
       y2="1276.7333"
       x2="4327.0557"
       y1="2126.7334"
       x1="3477.0554"
       id="linearGradient3835"
       xlink:href="#linearGradient1045"
       inkscape:collect="always" />
    <mask
       id="mask5747"
       maskUnits="userSpaceOnUse">
      <path
         inkscape:connector-curvature="0"
         id="path5749"
         d="m -1081.0913,3822.7064 -30.9051,-17.7313 -13.6473,4.7355 -13.0203,33.2785 -20.4811,-1.0774 -9.3432,-34.4101 -13.0752,-6.2608 -32.6113,14.2658 -13.7762,-15.3072 17.7314,-30.9049 -4.8453,-13.606 -33.2766,-13.0222 1.1905,-20.5206 34.4107,-9.3432 6.2607,-13.0752 -14.3755,-32.5713 15.3071,-13.7747 30.9051,17.7313 13.7154,-4.8866 12.9107,-33.2346 20.6323,1.1528 9.2335,34.4501 13.0752,6.2606 32.681,-14.4151 13.7747,15.3067 -17.7319,30.9052 4.7754,13.7554 33.2372,12.9128 -1.0398,20.5901 -34.4501,9.2334 -6.2622,13.0752 14.3073,32.721 z m -46.2858,-50.6793 6.3443,-3.6809 5.4951,-4.9832 4.4016,-5.9473 3.1652,-6.6122 1.8707,-7.1279 0.3036,-7.3064 -1.0584,-7.3012 -2.4077,-6.9339 -3.8305,-6.4135 -4.8341,-5.4277 -5.9468,-4.3992 -6.6122,-3.1652 -7.1283,-1.8709 -7.3452,-0.4154 -7.3041,1.0583 -6.9313,2.4077 -6.414,3.8307 -5.3875,4.9432 -4.441,5.8375 -3.1652,6.6122 -1.8143,7.2377 -0.4155,7.3456 1.0579,7.302 2.4078,6.9334 3.7905,6.3042 4.8741,5.5367 5.9468,4.3995 6.6122,3.1652 7.238,1.8142 7.3058,0.3038 7.302,-1.0584 6.9333,-2.4079 z"
         style="display:inline;overflow:visible;visibility:visible;fill:#ffffff;fill-opacity:1;fill-rule:evenodd;stroke:none;stroke-width:9.9998951;stroke-linecap:round;stroke-linejoin:round;stroke-miterlimit:4;stroke-dasharray:none;stroke-dashoffset:0;stroke-opacity:1;marker:none;enable-background:accumulate" />
    </mask>
    <mask
       id="mask2314"
       maskUnits="userSpaceOnUse">
      <path
         inkscape:connector-curvature="0"
         sodipodi:nodetypes="ccccccccccc"
         id="path2316"
         d="m -1868.9759,3355.7772 h -288.3976 v 59.668 h 119.3385 v 59.6685 h 59.668 v -59.6685 h 49.7232 v 99.4479 h 59.6679 z"
         style="display:inline;overflow:visible;visibility:visible;fill:#ffffff;fill-opacity:1;fill-rule:evenodd;stroke:none;stroke-width:9.99989414;stroke-linecap:butt;stroke-linejoin:miter;stroke-miterlimit:4;stroke-dasharray:none;stroke-dashoffset:0;stroke-opacity:1;marker:none;enable-background:accumulate" />
    </mask>
  </defs>
  <sodipodi:namedview
     id="base"
     pagecolor="#ffffff"
     bordercolor="#666666"
     borderopacity="1.0"
     inkscape:pageopacity="0.0"
     inkscape:pageshadow="2"
     inkscape:zoom="15.839192"
     inkscape:cx="37.344077"
     inkscape:cy="28.189569"
     inkscape:document-units="px"
     inkscape:current-layer="layer1"
     showgrid="false"
     inkscape:window-width="3836"
     inkscape:window-height="2093"
     inkscape:window-x="0"
     inkscape:window-y="32"
     inkscape:window-maximized="1"
     units="px"
     inkscape:showpageshadow="2"
     inkscape:pagecheckerboard="0"
     inkscape:deskcolor="#d1d1d1" />
  <metadata
     id="metadata5">
    <rdf:RDF>
      <cc:Work
         rdf:about="">
        <dc:format>image/svg+xml</dc:format>
        <dc:type
           rdf:resource="http://purl.org/dc/dcmitype/StillImage" />
      </cc:Work>
    </rdf:RDF>
  </metadata>
  <g
     inkscape:label="Layer 1"
     inkscape:groupmode="layer"
     id="layer1"
     transform="translate(0,-280.06666)">
    <path
       style="fill:#000000;fill-opacity:1;stroke-width:0.264583"
       id="path1"
       d="m 14.897606,294.55271 c -0.173434,-0.1625 -0.345731,-0.32733 -0.528674,-0.47927 -0.06098,-0.0507 -0.123751,-0.0991 -0.185627,-0.14866 -0.251735,-0.19281 -0.498385,-0.39692 -0.773924,-0.55598 -1.19409,-0.6893 -0.803518,-0.5079 -1.423956,-0.78294 -0.262923,-0.11283 -0.535858,-0.20018 -0.818958,-0.24442 -0.14854,-0.0232 -0.255289,-0.0287 -0.405037,-0.0405 -0.277585,-0.0255 -0.55233,0.016 -0.822763,0.0752 -0.068024,0.0149 -0.1360545,0.03 -0.2033063,0.048 -0.07099,0.0191 -0.1408258,0.0422 -0.2112386,0.0633 -0.07096,0.0247 -0.1417712,0.0499 -0.2128787,0.0742 -0.069655,0.0238 -0.1404959,0.0442 -0.2094008,0.0702 -0.3069598,0.11541 -0.5978279,0.26871 -0.8872758,0.42142 -0.3540193,0.19956 -0.7034678,0.40746 -1.0628662,0.59741 -0.068159,0.036 -0.1372661,0.0702 -0.205899,0.10534 -0.262301,0.12656 -0.5277331,0.25226 -0.8078896,0.33504 -0.1433785,0.0424 -0.2693011,0.0655 -0.4151913,0.0958 -0.2847716,0.0474 -0.5731312,0.0685 -0.8603658,0.0302 -0.2091901,-0.0278 -0.2739792,-0.0516 -0.4781201,-0.10498 -0.078915,-0.0281 -0.1588082,-0.0537 -0.2367446,-0.0844 -0.145342,-0.0573 -0.2937881,-0.12789 -0.430607,-0.20344 -0.068575,-0.0379 -0.2704735,-0.15817 -0.2021145,-0.11991 0.9770989,0.54681 1.274244,0.76066 0.7437851,0.39535 -0.3395467,-0.24245 -0.6457982,-0.5258 -0.9388504,-0.82157 -0.4520724,-0.31504 -0.1787351,-0.13682 -0.8347144,-0.5114 0,0 -0.055042,-0.0239 -0.055042,-0.0239 v 0 c -0.420946,-0.0908 -0.2903009,-0.17143 -0.4597816,-0.0263 0.039718,0.042 0.077986,0.0854 0.1191555,0.12589 0.075886,0.0747 0.2311104,0.21101 0.3086691,0.27828 0.1907842,0.16549 0.3857205,0.3262 0.5881021,0.4774 0.6405777,0.46043 0.199499,0.15287 1.6064865,0.97816 0.2765373,0.16221 0.5715474,0.29099 0.8830409,0.36923 0.083218,0.0188 0.1656908,0.0412 0.2496547,0.0563 0.1369304,0.0246 0.354982,0.0463 0.49374,0.0485 0.074757,0.001 0.1495328,-0.004 0.2241423,-0.008 0.074439,-0.005 0.1489552,-0.0103 0.2228345,-0.0206 0.068264,-0.01 0.1353987,-0.0259 0.2030982,-0.0388 0.06989,-0.0161 0.140331,-0.03 0.2096714,-0.0483 0.098619,-0.0261 0.3310186,-0.0995 0.4250759,-0.13501 0.2075312,-0.0784 0.4052292,-0.18095 0.6007862,-0.28481 0.1460251,-0.0805 0.2623897,-0.14318 0.4060907,-0.22826 0.2782311,-0.16471 0.5495314,-0.34134 0.8348539,-0.49405 0.069737,-0.0388 0.1387988,-0.0789 0.2092097,-0.11653 0.3390771,-0.18111 0.69409,-0.33379 1.06405,-0.43959 0.121889,-0.0351 0.272542,-0.0806 0.397224,-0.10875 0.246168,-0.0557 0.498955,-0.0844 0.751272,-0.0846 0.06146,0.004 0.123124,0.005 0.18438,0.0112 0.332114,0.0339 0.653029,0.1331 0.957979,0.2663 0.48444,0.23005 0.268189,0.13472 -0.601207,-0.37712 -0.06746,-0.0397 0.136058,0.0775 0.202364,0.11916 0.20152,0.12645 0.391795,0.26989 0.575977,0.42019 0.201593,0.17519 0.405268,0.35048 0.578799,0.55443 z" />
    <path
       style="fill:#000000;fill-opacity:1;stroke-width:0.264583"
       id="path2"
       d="m 15.244072,291.68719 c -0.195957,-0.16521 -0.390814,-0.33173 -0.587222,-0.49642 -0.307906,-0.26233 -0.629673,-0.51004 -0.966402,-0.73449 -0.05973,-0.0398 -0.120948,-0.0773 -0.181421,-0.116 -0.39739,-0.22144 -0.789921,-0.45184 -1.19217,-0.66433 -0.07625,-0.0403 -0.160294,-0.0638 -0.241438,-0.093 -0.147116,-0.053 -0.330657,-0.11238 -0.483707,-0.14789 -0.206246,-0.0479 -0.260409,-0.0473 -0.468075,-0.0692 -0.211673,-0.0108 -0.237961,-0.0175 -0.447363,-0.008 -0.07148,0.003 -0.143131,0.007 -0.214042,0.0165 -0.08151,0.011 -0.162332,0.0273 -0.24257,0.0454 -0.191055,0.0432 -0.3089572,0.0852 -0.4964873,0.14484 -0.1818057,0.065 -0.314153,0.11147 -0.4946607,0.17927 -0.078453,0.0295 -0.1575361,0.0575 -0.2346942,0.0902 -0.101718,0.0431 -0.3792926,0.17777 -0.4746411,0.22766 -0.084945,0.0444 -0.1679903,0.0924 -0.2519854,0.13865 -0.3213638,0.17415 -0.6481879,0.33707 -0.9782938,0.49385 -0.072694,0.0345 -0.14449,0.071 -0.2181495,0.10345 -0.072063,0.0317 -0.1458933,0.0593 -0.21884,0.0889 -0.07598,0.023 -0.1507501,0.0504 -0.2279401,0.0689 -0.2363288,0.0566 -0.4841611,0.0764 -0.7265546,0.0639 -0.2064436,-0.0107 -0.2881138,-0.0308 -0.4906283,-0.0656 -0.3136609,-0.0664 -0.6171642,-0.1723 -0.9070584,-0.30863 -0.1833226,-0.0862 -0.2433656,-0.1231 -0.4228396,-0.22192 -0.7407328,-0.4259 0.6661341,0.38308 0.7670181,0.44007 0.067804,0.0383 -0.133487,-0.0803 -0.1994895,-0.12159 -0.1798979,-0.11264 -0.3527237,-0.23354 -0.5244565,-0.3581 -0.253541,-0.18659 -0.4796214,-0.40596 -0.708659,-0.6209 -0.4214185,-0.27645 -0.143401,-0.10704 -0.8609805,-0.46115 0,0 -0.055504,-0.0228 -0.055504,-0.0228 v 0 c -0.4513957,-0.1289 -0.4083153,-0.27265 -0.4440735,-0.074 0.2455311,0.22699 0.4899452,0.45593 0.7570273,0.65792 0.055572,0.042 0.1102492,0.0851 0.1667155,0.12591 0.1070507,0.0773 0.2634319,0.18082 0.3739095,0.25133 0.066732,0.0426 0.1332359,0.0856 0.201608,0.12553 1.1530306,0.67297 0.9649063,0.56679 1.5977598,0.91884 0.071534,0.0368 0.14225,0.0752 0.2146014,0.11035 0.3560416,0.17297 0.7327784,0.30042 1.1232661,0.36784 0.08155,0.0106 0.162791,0.0239 0.2446512,0.0318 0.1585706,0.0152 0.3617976,0.0242 0.5206852,0.0129 0.2514198,-0.0179 0.4987126,-0.0811 0.7358158,-0.16368 0.17664,-0.078 0.2666754,-0.11378 0.4375705,-0.2052 0.070743,-0.0378 0.1389568,-0.0802 0.2086499,-0.11998 0.2409249,-0.1374 0.4851898,-0.26842 0.729831,-0.39907 0.1669282,-0.0807 0.3364611,-0.16461 0.5063892,-0.23916 0.078908,-0.0346 0.1590275,-0.0664 0.2386335,-0.0994 0.234923,-0.0973 0.47053,-0.19388 0.714608,-0.2665 0.23349,-0.0695 0.468127,-0.14082 0.710064,-0.17565 0.202232,-0.0291 0.40793,-0.0235 0.611265,-0.015 0.07158,0.008 0.143426,0.0139 0.214748,0.0239 0.143211,0.0202 0.27605,0.0466 0.415523,0.0848 0.0713,0.0195 0.142286,0.0405 0.211961,0.0652 0.404505,0.14341 0.607596,0.32169 -0.520543,-0.36082 0.07082,0.0409 0.142745,0.0799 0.21246,0.12268 0.351293,0.21544 0.673162,0.47472 0.994569,0.73137 0.08222,0.074 0.163477,0.14901 0.246075,0.22257 0.07899,0.0703 0.161295,0.13707 0.239781,0.20797 0.01325,0.012 0.02567,0.0248 0.0385,0.0373 z" />
    <path
       style="fill:#000000;fill-opacity:1;stroke-width:0.264583"
       id="path3"
       d="m 9.6941288,284.04943 c -0.1706108,0.14395 -0.3551629,0.2698 -0.5380403,0.39737 -0.2513587,0.16201 -0.5196734,0.29529 -0.7767315,0.4476 -0.065901,0.039 -0.1304689,0.0803 -0.1957033,0.12046 -0.2284148,0.15048 -0.4676296,0.28341 -0.7041436,0.42045 -0.085328,0.0494 -0.1696574,0.10064 -0.2558319,0.1486 -0.2070886,0.11523 -0.3079322,0.16236 -0.5189392,0.26726 -0.083994,0.0427 -0.1684322,0.0846 -0.251981,0.12816 -0.08555,0.0446 -0.1694805,0.0923 -0.2552875,0.13646 -0.093216,0.0479 -0.4131659,0.2038 -0.5101429,0.24782 -0.2229633,0.10119 -0.2595107,0.11092 -0.4846492,0.19593 -0.220803,0.075 -0.4457501,0.1434 -0.6795352,0.16254 -0.1441585,0.0118 -0.3366185,0.007 -0.4801407,-0.0142 -0.077582,-0.0112 -0.1534388,-0.0321 -0.2301579,-0.0482 -0.073712,-0.0251 -0.1488053,-0.0465 -0.2211358,-0.0754 -0.2988779,-0.1193 -1.8664142,-0.97879 0.8913207,0.52734 0.063818,0.0349 -0.1223973,-0.0788 -0.1805705,-0.1224 -0.1407094,-0.10553 -0.1609214,-0.13563 -0.2791814,-0.25795 -0.1042562,-0.12426 -0.1889022,-0.26105 -0.2416956,-0.41498 -0.057474,-0.16758 -0.075155,-0.3467 -0.099419,-0.521 -0.00233,-0.0732 -0.010549,-0.14646 -0.00701,-0.21962 0.00348,-0.0721 0.015404,-0.14359 0.028001,-0.21464 0.036051,-0.20331 0.098326,-0.40454 0.1875489,-0.59098 0.025799,-0.0539 0.057323,-0.10489 0.085984,-0.15733 0.1167765,-0.1878 0.2680764,-0.35206 0.4608222,-0.46385 0.1290574,-0.0749 0.1838058,-0.0856 0.3243678,-0.13323 0.1413494,-0.0296 0.1998919,-0.0489 0.345186,-0.0511 0.1946399,-0.003 0.3923401,0.0357 0.5789541,0.0877 0.068545,0.0191 0.1356299,0.0431 0.203445,0.0646 0.3208851,0.11556 0.6339396,0.25189 0.9387348,0.4048 0.1886937,0.0947 0.2779882,0.14541 0.4636204,0.24661 0.5250712,0.28646 1.0485261,0.57571 1.5668044,0.8743 0.4165391,0.23651 0.8281326,0.48234 1.2513604,0.70691 0.07725,0.041 0.155484,0.0801 0.233225,0.12013 0.494813,0.25282 1.009498,0.4631 1.523311,0.67342 0.416271,0.16109 0.828753,0.33774 1.258879,0.46006 0.07003,0.0199 0.141165,0.0357 0.211747,0.0536 0.14764,0.0185 0.282406,0.0403 0.431872,0.0388 0.136087,-10e-4 0.285153,-0.0215 0.416658,-0.0573 0.15697,-0.0427 0.215225,-0.0786 0.360244,-0.14813 0.122493,-0.0743 0.195707,-0.11123 0.303623,-0.20559 0.09514,-0.0832 0.169578,-0.17395 0.245568,-0.2743 0.03721,-0.0491 0.07453,-0.0984 0.107205,-0.15067 0.0347,-0.0555 0.06305,-0.11473 0.09458,-0.1721 0.08075,-0.1784 0.161581,-0.35731 0.228712,-0.54144 0.04249,-0.11655 0.07953,-0.22782 0.09877,-0.35093 0.0103,-0.0659 0.01214,-0.13286 0.01822,-0.19928 0.02806,-0.27847 -0.01306,-0.55658 -0.101206,-0.82143 -0.05363,-0.16115 -0.08386,-0.20807 -0.158686,-0.35608 -0.08022,-0.12169 -0.09958,-0.16374 -0.199884,-0.26764 -0.03589,-0.0372 -0.07073,-0.0772 -0.114824,-0.10414 -0.212008,-0.12954 -1.011166,-0.70562 -1.545088,-0.87033 -0.05475,-0.0169 -0.11097,-0.0286 -0.166455,-0.0428 -0.3012,-0.0608 -0.611479,-0.0718 -0.917133,-0.0428 -0.06079,0.006 -0.121236,0.0147 -0.181854,0.0221 -0.369843,0.074 -0.731831,0.1816 -1.087697,0.30556 -0.368698,0.12836 -0.724049,0.29005 -1.07774,0.45434 -0.3733917,0.19815 -0.7525058,0.38502 -1.1264065,0.58221 -0.00968,0.005 -0.327051,0.16807 -0.3410022,0.17562 -0.05871,0.0318 -0.1158687,0.0664 -0.1743009,0.0987 -0.1676733,0.0927 -0.337784,0.18105 -0.5078513,0.26925 -0.039155,0.0196 -0.2474507,0.11087 -0.2695734,0.17006 -0.083386,0.22311 0.3436925,0.51657 0.3837769,0.55883 0,0 0.050381,0.0326 0.050381,0.0326 v 0 c 0.2898889,0.1169 0.5583328,0.29519 0.8811771,0.26498 0.087739,-0.008 0.2289553,-0.10319 0.30158,-0.14664 0.1642801,-0.0938 0.3283977,-0.18814 0.4943594,-0.2789 0.059202,-0.0324 0.1195615,-0.0626 0.1785745,-0.0953 0.1088564,-0.0604 0.2143834,-0.1266 0.3234814,-0.18653 0.362175,-0.20197 0.719077,-0.41446 1.092861,-0.59457 0.342006,-0.16753 0.68886,-0.32624 1.047914,-0.45419 0.345524,-0.12093 0.695521,-0.24029 1.060678,-0.28423 0.05695,-0.007 0.113729,-0.0149 0.170841,-0.0199 0.289076,-0.0253 0.582675,-0.0138 0.86243,0.0682 0.05231,0.0183 0.105726,0.0336 0.156943,0.0548 0.326257,0.13464 1.815114,1.05491 -0.958487,-0.58137 -0.04581,-0.0264 0.0891,0.0573 0.130496,0.0902 0.118755,0.0944 0.139075,0.13001 0.238432,0.24656 0.09414,0.14112 0.127065,0.17517 0.191691,0.33471 0.100964,0.24927 0.122209,0.49186 0.104298,0.75763 -0.0093,0.0589 -0.01651,0.11822 -0.02805,0.17675 -0.0175,0.0887 -0.06109,0.25129 -0.08779,0.3369 -0.03694,0.11841 -0.07867,0.23608 -0.133829,0.34748 -0.02781,0.0562 -0.06153,0.10921 -0.0923,0.16382 -0.06856,0.1038 -0.125323,0.19636 -0.205137,0.29186 -0.143548,0.17177 -0.318533,0.31752 -0.513582,0.42683 -0.05394,0.0226 -0.106299,0.0495 -0.161829,0.0679 -0.25269,0.0837 -0.529986,0.0895 -0.791116,0.0485 -0.07301,-0.0115 -0.144674,-0.0302 -0.21701,-0.0454 -0.187244,-0.0503 -0.220082,-0.0569 -0.406041,-0.11591 -0.334449,-0.10616 -0.662235,-0.23236 -0.987804,-0.36286 -0.523779,-0.21606 -1.0425998,-0.44535 -1.5451947,-0.70749 -0.490437,-0.25964 -0.9749258,-0.52996 -1.4543651,-0.80942 -0.525081,-0.29576 -1.0532809,-0.58595 -1.5795414,-0.8796 -0.076421,-0.04 -0.152295,-0.081 -0.229262,-0.11994 -0.1372222,-0.0694 -0.3175061,-0.15426 -0.4573471,-0.21673 -0.1360689,-0.0608 -0.355141,-0.15442 -0.4943798,-0.20674 -0.07895,-0.0297 -0.1593699,-0.0553 -0.239055,-0.0829 -0.1555732,-0.0384 -0.2456831,-0.0651 -0.4052666,-0.0866 -0.130593,-0.0176 -0.2706039,-0.0252 -0.402209,-0.0127 -0.1486463,0.0141 -0.2144381,0.041 -0.3567043,0.0831 -0.1483773,0.0621 -0.2028897,0.078 -0.3406696,0.16385 -0.095511,0.0595 -0.2159561,0.15226 -0.2926993,0.23507 -0.097046,0.10471 -0.1249696,0.17177 -0.194242,0.29525 -0.072595,0.16383 -0.091943,0.19597 -0.1476181,0.37031 -0.038122,0.11937 -0.087254,0.31143 -0.1121977,0.43336 -0.014911,0.0729 -0.02447,0.14678 -0.038139,0.21991 -0.013133,0.0703 -0.028172,0.14016 -0.042258,0.21024 -0.00652,0.0633 -0.017969,0.12623 -0.01957,0.18981 -0.00337,0.13367 0.012733,0.21962 0.04602,0.34715 0.024588,0.0942 0.068877,0.23152 0.1154025,0.31774 0.027804,0.0515 0.064772,0.0976 0.097157,0.14633 0.1092189,0.13175 0.130515,0.16738 0.2612739,0.28328 0.053143,0.0471 0.1050071,0.0972 0.1660041,0.13352 0.2394847,0.14276 1.112891,0.74499 1.6839925,0.92322 0.074445,0.0232 0.1509456,0.0393 0.2264183,0.0589 0.083018,0.0134 0.1654209,0.0315 0.2490555,0.0403 0.1638501,0.0172 0.3505009,0.0153 0.5142246,0.002 0.089623,-0.007 0.1794793,-0.0151 0.2678369,-0.0317 0.1835126,-0.0344 0.2850914,-0.0817 0.4580011,-0.14744 0.076493,-0.034 0.1535536,-0.0667 0.2294806,-0.102 0.1015923,-0.0472 0.3951494,-0.19187 0.4915239,-0.24088 0.084301,-0.0429 0.1672703,-0.0883 0.251687,-0.13096 0.6773238,-0.3421 -0.1343843,0.0779 0.5153208,-0.2603 0.2152673,-0.11651 0.293937,-0.16035 0.5138417,-0.27411 0.090921,-0.047 0.1830835,-0.0917 0.2737112,-0.13925 0.2684894,-0.14101 0.2338044,-0.13013 0.4968936,-0.27404 0.079627,-0.0436 0.1601592,-0.0854 0.240239,-0.12817 0.4449792,-0.24556 -0.021505,0.0136 0.3839888,-0.2166 0.1575217,-0.0894 0.3183697,-0.17285 0.4755477,-0.26289 0.04638,-0.0266 0.09207,-0.0543 0.138102,-0.0815 0.04408,-0.0268 0.089,-0.0522 0.132251,-0.0803 0.14917,-0.0969 0.281516,-0.21662 0.4246,-0.32184 z" />
  </g>
</svg>
