<?xml version="1.0" encoding="UTF-8" standalone="no"?>
<!-- Created with Inkscape (http://www.inkscape.org/) -->

<svg
   width="64"
   height="64"
   viewBox="0 0 16.933333 16.933334"
   version="1.1"
   id="svg8"
   inkscape:version="1.3.2 (091e20ef0f, 2023-11-25, custom)"
   sodipodi:docname="reload.svg"
   inkscape:export-filename="C:\Users\Ali\Documents\inkscape\freecad\pyrate\pyrate_logo_3_256x256.png"
   inkscape:export-xdpi="1536"
   inkscape:export-ydpi="1536"
   xmlns:inkscape="http://www.inkscape.org/namespaces/inkscape"
   xmlns:sodipodi="http://sodipodi.sourceforge.net/DTD/sodipodi-0.dtd"
   xmlns:xlink="http://www.w3.org/1999/xlink"
   xmlns="http://www.w3.org/2000/svg"
   xmlns:svg="http://www.w3.org/2000/svg"
   xmlns:rdf="http://www.w3.org/1999/02/22-rdf-syntax-ns#"
   xmlns:cc="http://creativecommons.org/ns#"
   xmlns:dc="http://purl.org/dc/elements/1.1/">
  <defs
     id="defs2">
    <linearGradient
       id="linearGradient1245"
       inkscape:collect="always">
      <stop
         id="stop1241"
         offset="0"
         style="stop-color:#aaccff;stop-opacity:1" />
      <stop
         id="stop1243"
         offset="1"
         style="stop-color:#d5f6ff;stop-opacity:1" />
    </linearGradient>
    <linearGradient
       id="linearGradient1167"
       inkscape:collect="always">
      <stop
         id="stop1161"
         offset="0"
         style="stop-color:#00112b;stop-opacity:1" />
      <stop
         id="stop1163"
         offset="1"
         style="stop-color:#2a7fff;stop-opacity:1" />
    </linearGradient>
    <linearGradient
       inkscape:collect="always"
       id="linearGradient1166">
      <stop
         style="stop-color:#41dcff;stop-opacity:1"
         offset="0"
         id="stop1162" />
      <stop
         style="stop-color:#40e0ff;stop-opacity:1"
         offset="1"
         id="stop1164" />
    </linearGradient>
    <linearGradient
       inkscape:collect="always"
       id="linearGradient1058">
      <stop
         style="stop-color:#5175ff;stop-opacity:1"
         offset="0"
         id="stop1054" />
      <stop
         style="stop-color:#40e0ff;stop-opacity:1"
         offset="1"
         id="stop1056" />
    </linearGradient>
    <linearGradient
       id="linearGradient1045"
       inkscape:collect="always">
      <stop
         id="stop1041"
         offset="0"
         style="stop-color:#293449;stop-opacity:1" />
      <stop
         id="stop1043"
         offset="1"
         style="stop-color:#485c80;stop-opacity:1" />
    </linearGradient>
    <linearGradient
       inkscape:collect="always"
       id="linearGradient2480">
      <stop
         style="stop-color:#cc0a08;stop-opacity:1"
         offset="0"
         id="stop2476" />
      <stop
         style="stop-color:#f67d89;stop-opacity:1"
         offset="1"
         id="stop2478" />
    </linearGradient>
    <linearGradient
       id="linearGradient942-5"
       inkscape:collect="always">
      <stop
         id="stop938"
         offset="0"
         style="stop-color:#002076;stop-opacity:1" />
      <stop
         id="stop940"
         offset="1"
         style="stop-color:#40e0ff;stop-opacity:1" />
    </linearGradient>
    <linearGradient
       gradientUnits="userSpaceOnUse"
       y2="31.377413"
       x2="86.543877"
       y1="282.62048"
       x1="20.010984"
       id="linearGradient944"
       xlink:href="#linearGradient942-5"
       inkscape:collect="always" />
    <linearGradient
       gradientUnits="userSpaceOnUse"
       y2="112.66277"
       x2="98.204803"
       y1="257.94366"
       x1="13.302045"
       id="linearGradient952"
       xlink:href="#linearGradient2480"
       inkscape:collect="always" />
    <linearGradient
       gradientTransform="translate(0,1.5875)"
       gradientUnits="userSpaceOnUse"
       y2="133.50244"
       x2="146.68025"
       y1="272.83194"
       x1="101.05925"
       id="linearGradient960"
       xlink:href="#linearGradient2480"
       inkscape:collect="always" />
    <filter
       id="filter1495"
       inkscape:label="Drop Shadow"
       style="color-interpolation-filters:sRGB">
      <feFlood
         id="feFlood1485"
         result="flood"
         flood-color="rgb(0,0,0)"
         flood-opacity="0.498039" />
      <feComposite
         id="feComposite1487"
         result="composite1"
         operator="in"
         in2="SourceGraphic"
         in="flood" />
      <feGaussianBlur
         id="feGaussianBlur1489"
         result="blur"
         stdDeviation="4"
         in="composite1" />
      <feOffset
         id="feOffset1491"
         result="offset"
         dy="4"
         dx="2" />
      <feComposite
         id="feComposite1493"
         result="composite2"
         operator="over"
         in2="offset"
         in="SourceGraphic" />
    </filter>
    <filter
       id="filter2066"
       inkscape:label="Drop Shadow"
       style="color-interpolation-filters:sRGB">
      <feFlood
         id="feFlood2056"
         result="flood"
         flood-color="rgb(0,0,0)"
         flood-opacity="0.498039" />
      <feComposite
         id="feComposite2058"
         result="composite1"
         operator="in"
         in2="SourceGraphic"
         in="flood" />
      <feGaussianBlur
         id="feGaussianBlur2060"
         result="blur"
         stdDeviation="20"
         in="composite1" />
      <feOffset
         id="feOffset2062"
         result="offset"
         dy="20"
         dx="6" />
      <feComposite
         id="feComposite2064"
         result="composite2"
         operator="over"
         in2="offset"
         in="SourceGraphic" />
    </filter>
    <filter
       id="filter2474"
       inkscape:label="Drop Shadow"
       style="color-interpolation-filters:sRGB">
      <feFlood
         id="feFlood2464"
         result="flood"
         flood-color="rgb(0,0,0)"
         flood-opacity="0.498039" />
      <feComposite
         id="feComposite2466"
         result="composite1"
         operator="in"
         in2="SourceGraphic"
         in="flood" />
      <feGaussianBlur
         id="feGaussianBlur2468"
         result="blur"
         stdDeviation="4"
         in="composite1" />
      <feOffset
         id="feOffset2470"
         result="offset"
         dy="4.8"
         dx="1.5" />
      <feComposite
         id="feComposite2472"
         result="composite2"
         operator="over"
         in2="offset"
         in="SourceGraphic" />
    </filter>
    <linearGradient
       gradientTransform="translate(0,290.28571)"
       gradientUnits="userSpaceOnUse"
       y2="398.20157"
       x2="-973.7356"
       y1="746.96252"
       x1="-1123.2253"
       id="linearGradient1033"
       xlink:href="#linearGradient1058"
       inkscape:collect="always" />
    <linearGradient
       gradientTransform="translate(0,213.65424)"
       gradientUnits="userSpaceOnUse"
       y2="851.35718"
       x2="-987.59387"
       y1="1234.0872"
       x1="-1127.1049"
       id="linearGradient1047"
       xlink:href="#linearGradient1045"
       inkscape:collect="always" />
    <linearGradient
       gradientTransform="translate(-19.199562,-44.652005)"
       gradientUnits="userSpaceOnUse"
       y2="1157.111"
       x2="-544.48077"
       y1="1495.4609"
       x1="-689.72717"
       id="linearGradient1134"
       xlink:href="#linearGradient1045"
       inkscape:collect="always" />
    <linearGradient
       y2="851.35718"
       x2="-987.59387"
       y1="1234.0872"
       x1="-1127.1049"
       gradientTransform="translate(0,213.65424)"
       gradientUnits="userSpaceOnUse"
       id="linearGradient1160"
       xlink:href="#linearGradient1166"
       inkscape:collect="always" />
    <linearGradient
       id="linearGradient3682-0">
      <stop
         style="stop-color:#a40000;stop-opacity:1"
         offset="0"
         id="stop3684-0" />
      <stop
         style="stop-color:#ef2929;stop-opacity:1"
         offset="1"
         id="stop3686-0" />
    </linearGradient>
    <linearGradient
       id="linearGradient3864-9">
      <stop
         id="stop3866-1"
         offset="0"
         style="stop-color:#204a87;stop-opacity:1" />
      <stop
         id="stop3868-1"
         offset="1"
         style="stop-color:#729fcf;stop-opacity:1" />
    </linearGradient>
    <linearGradient
       id="linearGradient3682-0-3">
      <stop
         style="stop-color:#ff390f;stop-opacity:1"
         offset="0"
         id="stop3684-0-7" />
      <stop
         style="stop-color:#ff1000;stop-opacity:1;"
         offset="1"
         id="stop3686-0-5" />
    </linearGradient>
    <linearGradient
       id="linearGradient3864-9-7">
      <stop
         id="stop3866-1-7"
         offset="0"
         style="stop-color:#316cab;stop-opacity:1" />
      <stop
         id="stop3868-1-4"
         offset="1"
         style="stop-color:#002ca8;stop-opacity:1" />
    </linearGradient>
    <linearGradient
       id="linearGradient3682">
      <stop
         id="stop3684"
         offset="0"
         style="stop-color:#ff6d0f;stop-opacity:1;" />
      <stop
         id="stop3686"
         offset="1"
         style="stop-color:#ff1000;stop-opacity:1;" />
    </linearGradient>
    <linearGradient
       id="linearGradient3864">
      <stop
         style="stop-color:#71b2f8;stop-opacity:1;"
         offset="0"
         id="stop3866" />
      <stop
         style="stop-color:#002795;stop-opacity:1;"
         offset="1"
         id="stop3868" />
    </linearGradient>
    <linearGradient
       gradientTransform="matrix(0.79118995,0,0,0.96421064,-462.08318,3.6442021)"
       gradientUnits="userSpaceOnUse"
       y2="-97.402824"
       x2="-2013.709"
       y1="301.0498"
       x1="-2412.1616"
       id="linearGradient1169"
       xlink:href="#linearGradient1167"
       inkscape:collect="always" />
    <linearGradient
       gradientUnits="userSpaceOnUse"
       y2="-9.260396"
       x2="-2055.4119"
       y1="284.23495"
       x1="-2302.6389"
       id="linearGradient1239"
       xlink:href="#linearGradient1245"
       inkscape:collect="always" />
    <linearGradient
       gradientUnits="userSpaceOnUse"
       y2="1276.7333"
       x2="4327.0557"
       y1="2126.7334"
       x1="3477.0554"
       id="linearGradient3835"
       xlink:href="#linearGradient1045"
       inkscape:collect="always" />
    <mask
       id="mask5747"
       maskUnits="userSpaceOnUse">
      <path
         inkscape:connector-curvature="0"
         id="path5749"
         d="m -1081.0913,3822.7064 -30.9051,-17.7313 -13.6473,4.7355 -13.0203,33.2785 -20.4811,-1.0774 -9.3432,-34.4101 -13.0752,-6.2608 -32.6113,14.2658 -13.7762,-15.3072 17.7314,-30.9049 -4.8453,-13.606 -33.2766,-13.0222 1.1905,-20.5206 34.4107,-9.3432 6.2607,-13.0752 -14.3755,-32.5713 15.3071,-13.7747 30.9051,17.7313 13.7154,-4.8866 12.9107,-33.2346 20.6323,1.1528 9.2335,34.4501 13.0752,6.2606 32.681,-14.4151 13.7747,15.3067 -17.7319,30.9052 4.7754,13.7554 33.2372,12.9128 -1.0398,20.5901 -34.4501,9.2334 -6.2622,13.0752 14.3073,32.721 z m -46.2858,-50.6793 6.3443,-3.6809 5.4951,-4.9832 4.4016,-5.9473 3.1652,-6.6122 1.8707,-7.1279 0.3036,-7.3064 -1.0584,-7.3012 -2.4077,-6.9339 -3.8305,-6.4135 -4.8341,-5.4277 -5.9468,-4.3992 -6.6122,-3.1652 -7.1283,-1.8709 -7.3452,-0.4154 -7.3041,1.0583 -6.9313,2.4077 -6.414,3.8307 -5.3875,4.9432 -4.441,5.8375 -3.1652,6.6122 -1.8143,7.2377 -0.4155,7.3456 1.0579,7.302 2.4078,6.9334 3.7905,6.3042 4.8741,5.5367 5.9468,4.3995 6.6122,3.1652 7.238,1.8142 7.3058,0.3038 7.302,-1.0584 6.9333,-2.4079 z"
         style="display:inline;overflow:visible;visibility:visible;fill:#ffffff;fill-opacity:1;fill-rule:evenodd;stroke:none;stroke-width:9.9998951;stroke-linecap:round;stroke-linejoin:round;stroke-miterlimit:4;stroke-dasharray:none;stroke-dashoffset:0;stroke-opacity:1;marker:none;enable-background:accumulate" />
    </mask>
    <mask
       id="mask2314"
       maskUnits="userSpaceOnUse">
      <path
         inkscape:connector-curvature="0"
         sodipodi:nodetypes="ccccccccccc"
         id="path2316"
         d="m -1868.9759,3355.7772 h -288.3976 v 59.668 h 119.3385 v 59.6685 h 59.668 v -59.6685 h 49.7232 v 99.4479 h 59.6679 z"
         style="display:inline;overflow:visible;visibility:visible;fill:#ffffff;fill-opacity:1;fill-rule:evenodd;stroke:none;stroke-width:9.99989414;stroke-linecap:butt;stroke-linejoin:miter;stroke-miterlimit:4;stroke-dasharray:none;stroke-dashoffset:0;stroke-opacity:1;marker:none;enable-background:accumulate" />
    </mask>
  </defs>
  <sodipodi:namedview
     id="base"
     pagecolor="#ffffff"
     bordercolor="#666666"
     borderopacity="1.0"
     inkscape:pageopacity="0.0"
     inkscape:pageshadow="2"
     inkscape:zoom="15.839192"
     inkscape:cx="33.49287"
     inkscape:cy="40.879611"
     inkscape:document-units="px"
     inkscape:current-layer="layer1"
     showgrid="false"
     inkscape:window-width="1916"
     inkscape:window-height="2093"
     inkscape:window-x="1920"
     inkscape:window-y="0"
     inkscape:window-maximized="1"
     units="px"
     inkscape:showpageshadow="2"
     inkscape:pagecheckerboard="0"
     inkscape:deskcolor="#d1d1d1" />
  <metadata
     id="metadata5">
    <rdf:RDF>
      <cc:Work
         rdf:about="">
        <dc:format>image/svg+xml</dc:format>
        <dc:type
           rdf:resource="http://purl.org/dc/dcmitype/StillImage" />
      </cc:Work>
    </rdf:RDF>
  </metadata>
  <g
     inkscape:label="Layer 1"
     inkscape:groupmode="layer"
     id="layer1"
     transform="translate(0,-280.06666)">
    <path
       style="fill:#000000;stroke-width:0.264583"
       id="path1"
       d="m 3.7573446,288.35565 c -0.2685418,-0.30492 -0.4258631,-0.70304 -0.4577078,-1.10775 -0.011578,-0.14715 0.00335,-0.2952 0.00502,-0.4428 0.028964,-0.15275 0.046791,-0.30804 0.086892,-0.45825 0.040026,-0.14993 0.094896,-0.29578 0.1528397,-0.43974 0.1389393,-0.34519 0.2539728,-0.56377 0.4629814,-0.87175 0.097526,-0.1437 0.1988424,-0.28551 0.3118374,-0.4174 0.1124263,-0.13122 0.2419419,-0.24678 0.3629129,-0.37018 0.1303454,-0.10544 0.2545545,-0.21896 0.3910359,-0.31634 0.3587549,-0.25595 0.7607631,-0.44606 1.1806378,-0.57683 0.2838167,-0.0884 0.3860374,-0.0979 0.6722224,-0.14915 0.1139523,-0.0142 0.2274456,-0.0328 0.3418567,-0.0427 0.129153,-0.0112 0.2587864,-0.0167 0.3883671,-0.0204 0.4381426,-0.0126 0.8763368,0.007 1.3129226,0.0441 0.1356767,0.0114 0.2709529,0.0271 0.4064294,0.0407 0.4729311,0.0479 0.9437479,0.12836 1.4007549,0.26078 0.101719,0.0295 0.203701,0.0588 0.302796,0.0962 0.09689,0.0365 0.18955,0.0834 0.284325,0.12514 0.886421,0.49286 -0.599341,-0.35373 -0.906321,-0.51735 -0.08621,-0.046 0.161974,0.10937 0.240818,0.16706 0.126188,0.0923 0.24279,0.18769 0.357453,0.29352 0.04243,0.0392 0.08227,0.081 0.123407,0.12157 0.146113,0.14219 0.25381,0.31361 0.355012,0.48871 0.06904,0.11614 0.128796,0.23737 0.194828,0.35509 0.01082,0.0228 0.02164,0.0457 0.03246,0.0685 0,0 1.749141,0.79909 1.749141,0.79909 v 0 c -0.01034,-0.0237 -0.02067,-0.0473 -0.03101,-0.071 -0.04977,-0.1311 -0.115247,-0.25526 -0.190917,-0.37334 -0.126974,-0.20761 -0.257853,-0.41373 -0.438863,-0.57989 -0.130167,-0.12039 -0.204311,-0.19272 -0.345855,-0.30657 -0.06302,-0.0507 -0.41599,-0.31697 -0.476962,-0.35371 -1.532338,-0.92329 -1.157457,-0.73318 -1.985683,-1.13354 -0.099484,-0.038 -0.197212,-0.081 -0.2984519,-0.11407 -0.096255,-0.0314 -0.1949815,-0.0549 -0.2932716,-0.0792 -0.106128,-0.0263 -0.2124728,-0.0521 -0.3198577,-0.0726 -0.105851,-0.0203 -0.2127274,-0.0349 -0.3194709,-0.0497 -0.3302015,-0.0459 -0.3881397,-0.0469 -0.7256888,-0.0773 -0.4178044,-0.0181 -0.8356772,-0.0355 -1.253661,-0.049 -0.3026764,-0.01 -0.5896097,-0.0222 -0.8920784,-0.008 -0.1300062,0.006 -0.2593316,0.0226 -0.3889976,0.0339 -0.2740419,0.0771 -0.3666186,0.0929 -0.6328796,0.21125 -0.3861388,0.17158 -0.7782399,0.41571 -1.1074094,0.679 -0.1333703,0.10667 -0.2564521,0.22561 -0.384678,0.33842 -0.2258681,0.23971 -0.5190215,0.53512 -0.7115699,0.80346 -0.098663,0.13751 -0.1797825,0.28692 -0.2632388,0.43415 -0.08397,0.14813 -0.1699143,0.29585 -0.2388238,0.45157 -0.1380353,0.31191 -0.1984092,0.59097 -0.2854369,0.91863 -0.022001,0.14724 -0.053758,0.29336 -0.066004,0.44173 -0.00482,0.0584 -0.00369,0.58695 0.00672,0.68115 0.00675,0.0611 0.03011,0.1192 0.044279,0.17901 0.00914,0.0386 0.016772,0.0775 0.025651,0.1162 0.0041,0.0179 0.00887,0.0356 0.013298,0.0534 z" />
    <path
       style="fill:#000000;stroke-width:0.264583"
       id="path2"
       d="m 13.076922,287.5058 c 0.03564,0.0544 0.07618,0.10596 0.106926,0.1633 0.123804,0.23088 0.209476,0.45623 0.29115,0.70634 0.08586,0.26293 0.15762,0.54748 0.215759,0.81809 0.02574,0.11981 0.04614,0.2407 0.06921,0.36106 0.0524,0.33164 0.09014,0.67032 0.0277,1.0042 -0.02209,0.11811 -0.05579,0.23429 -0.09691,0.34719 -0.125184,0.34372 -0.184621,0.39855 -0.381951,0.70637 -0.09358,0.1263 -0.178852,0.25922 -0.280751,0.37892 -0.107984,0.12685 -0.22837,0.24273 -0.347542,0.35913 -0.330611,0.32292 -0.448793,0.42432 -0.824777,0.69188 -0.283527,0.20177 -0.518595,0.3398 -0.813149,0.52089 -0.597363,0.34537 -1.2253215,0.6237 -1.9166492,0.70867 -0.1299413,0.016 -0.2612906,0.0169 -0.3919357,0.0254 -0.3754411,0.0109 -0.7488188,-0.0269 -1.1191918,-0.0843 -0.2369688,-0.0367 -0.3983704,-0.0662 -0.6294694,-0.12594 -0.09594,-0.0248 -0.1903871,-0.0551 -0.2855807,-0.0826 -0.090259,-0.0343 -0.1820725,-0.0647 -0.2707775,-0.10278 -0.1426914,-0.0613 -0.3935365,-0.19244 -0.5280708,-0.26738 -0.088537,-0.0493 -0.3507687,-0.20323 -0.2626923,-0.15309 1.214605,0.69143 1.5959114,0.93671 0.9588344,0.53482 -0.396852,-0.25492 -0.7595714,-0.55806 -1.1024881,-0.88081 -0.1043295,-0.10142 -0.2082509,-0.20334 -0.3086867,-0.30865 -0.047261,-0.0496 -0.09583,-0.098 -0.1406668,-0.14972 -0.1229744,-0.14196 -0.1663579,-0.21095 -0.275339,-0.36439 -0.1730597,-0.25925 -0.3304902,-0.52905 -0.4684413,-0.80858 -0.030349,-0.0564 -0.048405,-0.12071 -0.085401,-0.17343 -0.00269,-0.0165 -0.00671,-0.031 -0.019955,-0.0418 -0.00238,-0.002 -0.00595,-0.003 -0.00771,-0.005 -0.00664,-0.01 -0.00937,-0.0281 -0.011631,-0.0382 0,0 -1.8012542,-0.82705 -1.8012542,-0.82705 v 0 c 0.00302,0.003 0.00694,0.006 0.00906,0.01 0.014196,0.0266 -0.00293,0.0617 0.031189,0.0822 0.027422,0.0821 0.093166,0.15399 0.1430127,0.22269 0.079241,0.11177 0.1615509,0.22159 0.2389703,0.33463 0.1203754,0.17575 0.2342555,0.35604 0.3492016,0.53534 0.120763,0.19039 0.1132168,0.18046 0.2338854,0.3633 0.032083,0.0486 0.061611,0.0991 0.096947,0.14537 0.09685,0.1269 0.2234954,0.22806 0.337628,0.33808 0.1741445,0.15143 0.3512439,0.2992 0.5293659,0.44594 0.1115081,0.0919 0.3094831,0.25411 0.4252071,0.33941 0.07548,0.0556 0.1539433,0.10709 0.2309148,0.16064 0.7854652,0.49912 0.2817718,0.18357 1.9548018,1.15072 0.3482097,0.20129 0.7095218,0.38654 1.0982296,0.49603 0.2692953,0.0637 0.2984032,0.0763 0.575772,0.11856 0.1057762,0.0161 0.2118093,0.0312 0.3183247,0.0413 0.1074089,0.0102 0.2152999,0.0148 0.3230793,0.0198 0.391355,0.0181 0.3705765,0.0124 0.7727959,0.008 0.293839,-0.0369 0.504845,-0.0545 0.794826,-0.12882 0.130453,-0.0335 0.258371,-0.0768 0.384748,-0.12328 0.396057,-0.14583 0.766994,-0.34625 1.114099,-0.58572 0.123265,-0.0891 0.248621,-0.17544 0.369796,-0.26739 0.149245,-0.11325 0.668918,-0.53461 0.802909,-0.64246 0.146568,-0.11797 0.29845,-0.22959 0.440031,-0.3535 0.222451,-0.19469 0.516756,-0.50607 0.723205,-0.71861 0.142465,-0.21411 0.336446,-0.48659 0.44326,-0.72285 0.08997,-0.199 0.171976,-0.50633 0.186269,-0.72616 0.01723,-0.26497 -0.03501,-0.44619 -0.08449,-0.70415 -0.01981,-0.0758 -0.188498,-0.72025 -0.203773,-0.78369 -0.08084,-0.33576 -0.152288,-0.67591 -0.16449,-1.02232 -0.0016,-0.0457 0.0039,-0.0914 0.0059,-0.13714 z" />
    <path
       style="fill:#000000;stroke-width:0.264583"
       id="path3"
       d="m 2.3644118,290.33703 c 0.025318,0.0901 0.054126,0.18085 0.068985,0.27341 0.023365,0.14554 0.020342,0.29385 0.018339,0.44058 0.00206,0.19107 -0.016388,0.38144 -0.028516,0.5719 -0.00441,0.1009 -0.02395,0.20023 -0.032608,0.30069 -0.0032,0.0798 -0.02059,0.15812 -0.028322,0.23759 -0.013292,0.0829 -0.056737,0.15529 -0.087196,0.23228 -0.022948,0.0491 -0.034376,0.10233 -0.055313,0.15219 -0.010192,0.0243 -0.022415,0.0477 -0.033347,0.0716 -0.00503,0.0126 -0.011052,0.0249 -0.015087,0.0379 -0.012504,0.0403 -0.018508,0.0826 -0.031936,0.12273 -0.010107,0.0302 -0.01931,0.0489 -0.032326,0.078 -0.3308238,0.66592 -1.018278,-0.3717 1.6771874,1.04088 0.014441,0.008 -8.202e-4,-0.0329 0.00291,-0.0488 0.00713,-0.0303 0.019635,-0.0591 0.029451,-0.0886 0.023167,-0.0416 0.041905,-0.0859 0.0695,-0.12472 0.035027,-0.0492 0.075982,-0.0941 0.1174708,-0.13801 0.1502732,-0.15904 0.3227173,-0.29263 0.5062487,-0.41083 0.060874,-0.0392 0.1240062,-0.0748 0.1860095,-0.11218 0.1425067,-0.0862 0.2039011,-0.12647 0.3496501,-0.20302 0.098903,-0.0519 0.1921515,-0.0927 0.2920629,-0.14156 0.077999,-0.0381 0.1552488,-0.0778 0.2331667,-0.11606 0.091404,-0.047 0.1871324,-0.0846 0.2800215,-0.12838 0.075946,-0.0358 0.1496307,-0.0754 0.2261508,-0.11 0.042763,-0.0269 0.1078751,-0.0329 0.140126,-0.0764 0.012927,-0.0174 0.1005393,-0.16674 0.059303,-0.19159 -0.573872,-0.34572 -1.1815598,-0.63192 -1.7723398,-0.94788 -0.1478103,0.0148 -0.2990453,0.0133 -0.4462166,-0.009 -0.1273625,-0.0191 -0.25234,-0.0577 -0.3741666,-0.0981 -0.072257,-0.029 -0.142394,-0.0663 -0.21843,-0.0852 -0.024908,-0.006 -0.050772,-0.008 -0.075823,-0.0135 -0.036946,-0.008 -0.09716,-0.0274 -0.1341006,-0.0387 -0.053382,-0.0131 -0.10287,-0.0369 -0.1545037,-0.0551 -0.010599,-0.004 -0.059695,-0.0189 -0.071592,-0.0254 -0.00868,-0.005 -0.015629,-0.0121 -0.023445,-0.0182 -0.028665,-0.0143 -0.047681,-0.0398 -0.077415,-0.0529 -0.00792,-0.003 -0.032065,-0.0127 -0.024582,-0.008 0.5576869,0.32446 1.1170883,0.64597 1.6756325,0.96895 -0.019913,0.0125 -0.027897,0.0116 -0.044551,-0.003 0,0 -1.8121091,-0.80397 -1.8121091,-0.80397 v 0 c 0.00817,0.0263 0.013113,0.0529 0.014541,0.0805 0.5693653,0.3306 1.1391104,0.66054 1.7080958,0.99179 0.00698,0.004 0.012869,0.01 0.019709,0.0141 0.027931,0.0176 0.057622,0.0255 0.089265,0.0332 0.031963,0.004 0.060329,0.0122 0.091239,0.021 0.056474,0.0159 0.026618,0.007 0.089574,0.0223 0.01869,0.005 0.037293,0.009 0.055939,0.0141 0.019979,0.005 0.1067623,0.0247 0.1241478,0.0301 0.093234,0.0288 0.1823114,0.0732 0.2809245,0.0826 0.1126961,0.0152 0.2248181,0.0265 0.3382733,0.0349 0.092358,0.007 0.2433905,0.0154 0.3342351,0.0287 0.053881,0.008 0.1068729,0.021 0.1603092,0.0315 -0.5288272,-0.30673 -1.0748743,-0.58553 -1.5864819,-0.9202 -0.00767,-0.005 0.088548,-0.1107 0.1015291,-0.12477 0.0023,-0.002 -0.00371,0.006 -0.00625,0.008 -0.00967,0.009 -0.019836,0.0165 -0.030216,0.0242 -0.014367,0.0106 -0.029324,0.0204 -0.043987,0.0306 -0.1510281,0.0953 -0.3146314,0.16892 -0.4638831,0.26754 -0.070228,0.042 -0.1468117,0.0871 -0.2154227,0.1315 -0.1981816,0.12819 -0.3894947,0.26696 -0.5893477,0.39265 -0.2389619,0.17044 -0.1164495,0.0835 -0.3675986,0.26071 -0.065595,0.0467 -0.1321983,0.0921 -0.1961603,0.14106 -0.162426,0.12428 -0.1704473,0.14284 -0.3195294,0.27303 -0.046279,0.0404 -0.09369,0.0795 -0.1405348,0.11927 -0.023687,0.026 -0.047056,0.0524 -0.071062,0.0781 -0.016088,0.0173 -0.06923,0.0384 -0.049207,0.0509 1.7571369,1.09512 1.4778544,1.58664 1.7578547,0.88206 0.021106,-0.0459 0.045979,-0.0923 0.062128,-0.14027 0.00415,-0.0123 0.00512,-0.0255 0.00868,-0.038 0.00337,-0.0118 0.00804,-0.0232 0.012055,-0.0349 0.00257,-0.01 0.00514,-0.0199 0.00771,-0.0298 0.013189,-0.0392 0.026645,-0.0789 0.043939,-0.1166 0.016788,-0.0366 0.03671,-0.0715 0.046748,-0.11096 0.029454,-0.0856 0.064008,-0.16938 0.093268,-0.25506 0.00581,-0.0166 0.013018,-0.0328 0.017439,-0.0499 0.00638,-0.0246 0.00675,-0.0547 0.00891,-0.0799 0.00384,-0.0447 0.00892,-0.0894 0.018918,-0.13319 0.00371,-0.0439 0.00791,-0.0885 0.0076,-0.13252 -4.498e-4,-0.0639 -0.00835,-0.12791 -0.00345,-0.19192 0.00212,-0.0851 0.00461,-0.17068 5.027e-4,-0.25578 -0.00572,-0.11869 -0.021818,-0.23688 -0.021971,-0.3559 -0.00855,-0.14608 -0.02032,-0.29441 -0.00767,-0.44069 0.00352,-0.0407 0.013285,-0.0806 0.018706,-0.12109 0.00518,-0.0387 0.00691,-0.0778 0.011882,-0.11647 z" />
    <path
       style="fill:#000000;stroke-width:0.264583"
       id="path4"
       d="m 11.276335,285.52722 c 0.04678,0.002 0.05841,0.002 0.114484,0.0117 0.279542,0.0485 0.55381,0.1257 0.828496,0.19544 0.07717,0.0196 0.153679,0.042 0.231499,0.0589 0.05492,0.0119 0.409495,0.0718 0.464615,0.0813 0.196348,0.034 0.392813,0.0668 0.588594,0.10391 0.211978,0.0401 0.427082,0.0621 0.638039,0.1076 0.02451,0.003 0.131223,0.0361 0.15423,0.0221 0.05912,-0.0359 0.08925,-0.11567 0.100824,-0.17757 0.0045,-0.0241 -0.0051,-0.0489 -0.0076,-0.0733 -0.03796,-0.12657 -0.102243,-0.24285 -0.143242,-0.36822 -0.0042,-0.0138 -0.008,-0.0276 -0.0126,-0.0413 -0.01537,-0.0456 -0.0129,-0.028 -0.02519,-0.0744 -0.0164,-0.062 -0.02939,-0.12528 -0.0446,-0.18751 -0.05286,-0.2161 -0.100055,-0.43328 -0.140794,-0.65198 -0.02989,-0.16135 -0.0676,-0.3212 -0.116547,-0.47784 -0.0025,-0.008 -0.01912,-0.0613 -0.01987,-0.0747 -6.09e-4,-0.0107 0.0024,-0.0214 0.0037,-0.0321 -0.584849,-0.30838 -1.157296,-0.64152 -1.754545,-0.92514 -0.02504,-0.0119 -0.02736,0.0483 -0.0395,0.0732 -0.01382,0.0284 -0.02555,0.0577 -0.03833,0.0866 -0.02097,0.0357 -0.03936,0.0731 -0.0629,0.10721 -0.170643,0.24707 -0.410163,0.42809 -0.651714,0.5998 -0.111167,0.0741 -0.22794,0.13864 -0.345566,0.20164 -0.07045,0.0377 -0.139686,0.0762 -0.21244,0.10924 -0.109212,0.0497 0.0086,-0.006 -0.09072,0.046 -0.01633,0.008 -0.05986,0.0268 -0.0754,0.0356 -0.02724,0.0155 -0.05242,0.0344 -0.07866,0.0515 -0.0847,0.0623 -0.176209,0.11457 -0.271938,0.15778 0,0 1.628091,1.06208 1.628091,1.06208 v 0 c 0.09023,-0.0594 0.182121,-0.11716 0.282306,-0.15853 0.0803,-0.0432 0.162209,-0.0848 0.232878,-0.14332 0.161298,-0.1265 0.320182,-0.25589 0.475645,-0.38955 0.101783,-0.0872 0.174431,-0.1497 0.277929,-0.23678 0.05148,-0.0433 0.104107,-0.0853 0.154929,-0.12935 0.129355,-0.1122 0.25207,-0.23212 0.384377,-0.341 0.02105,-0.0184 0.0399,-0.0396 0.06313,-0.0551 0.0068,-0.005 0.03161,6.9e-4 0.02445,-0.003 -0.567603,-0.32146 -1.141408,-0.63185 -1.710139,-0.9513 -0.0076,-0.004 0.01944,-9.5e-4 0.02568,0.005 0.02284,0.0224 0.01652,0.0658 0.03932,0.0875 0.02933,0.0657 0.06576,0.12977 0.09094,0.19711 0.01052,0.0282 0.0176,0.0575 0.02661,0.0862 0.04192,0.13351 0.01783,0.0478 0.05448,0.19003 0.05386,0.20672 0.09037,0.41683 0.121811,0.62805 0.0042,0.10992 -9.79e-4,0.22465 0.04284,0.32788 0.03067,0.075 0.01575,0.0358 0.04432,0.11776 0.03039,0.0777 0.07295,0.15015 0.100233,0.22912 0.0054,0.006 0.009,0.0235 0.01617,0.0192 0.01975,-0.012 0.02896,-0.0361 0.04245,-0.0549 0.0087,-0.0122 0.02309,-0.023 0.02418,-0.0379 5.29e-4,-0.007 -0.01395,-0.004 -0.02107,-0.005 -0.01293,-0.002 -0.02599,-0.003 -0.03899,-0.004 -0.01785,-0.002 -0.03571,-0.004 -0.05356,-0.005 -0.187861,-0.0166 -0.376231,-0.0277 -0.56352,-0.0505 -0.176943,-0.0182 -0.353673,-0.0366 -0.529362,-0.065 -0.214898,-0.0348 -0.245347,-0.0441 -0.460518,-0.0924 -0.0715,-0.0161 -0.142923,-0.0324 -0.214384,-0.0487 -0.07954,-0.0204 -0.159406,-0.0395 -0.238635,-0.061 -0.215033,-0.0585 -0.291842,-0.0836 -0.503456,-0.15554 -0.08701,-0.0296 -0.2331328,-0.0811 -0.3256787,-0.11819 -0.016137,-0.006 -0.031589,-0.0145 -0.047383,-0.0218 z" />
  </g>
</svg>
