<?xml version="1.0" encoding="UTF-8" standalone="no"?>
<!-- Created with Inkscape (http://www.inkscape.org/) -->

<svg
   width="64"
   height="64"
   viewBox="0 0 16.933333 16.933334"
   version="1.1"
   id="svg8"
   inkscape:version="1.3.2 (091e20ef0f, 2023-11-25, custom)"
   sodipodi:docname="replaysource.svg"
   inkscape:export-filename="C:\Users\Ali\Documents\inkscape\freecad\pyrate\pyrate_logo_3_256x256.png"
   inkscape:export-xdpi="1536"
   inkscape:export-ydpi="1536"
   xmlns:inkscape="http://www.inkscape.org/namespaces/inkscape"
   xmlns:sodipodi="http://sodipodi.sourceforge.net/DTD/sodipodi-0.dtd"
   xmlns:xlink="http://www.w3.org/1999/xlink"
   xmlns="http://www.w3.org/2000/svg"
   xmlns:svg="http://www.w3.org/2000/svg"
   xmlns:rdf="http://www.w3.org/1999/02/22-rdf-syntax-ns#"
   xmlns:cc="http://creativecommons.org/ns#"
   xmlns:dc="http://purl.org/dc/elements/1.1/">
  <defs
     id="defs2">
    <inkscape:path-effect
       effect="spiro"
       id="path-effect1"
       is_visible="true"
       lpeversion="1" />
    <linearGradient
       id="linearGradient1245"
       inkscape:collect="always">
      <stop
         id="stop1241"
         offset="0"
         style="stop-color:#aaccff;stop-opacity:1" />
      <stop
         id="stop1243"
         offset="1"
         style="stop-color:#d5f6ff;stop-opacity:1" />
    </linearGradient>
    <linearGradient
       id="linearGradient1167"
       inkscape:collect="always">
      <stop
         id="stop1161"
         offset="0"
         style="stop-color:#00112b;stop-opacity:1" />
      <stop
         id="stop1163"
         offset="1"
         style="stop-color:#2a7fff;stop-opacity:1" />
    </linearGradient>
    <linearGradient
       inkscape:collect="always"
       id="linearGradient1166">
      <stop
         style="stop-color:#41dcff;stop-opacity:1"
         offset="0"
         id="stop1162" />
      <stop
         style="stop-color:#40e0ff;stop-opacity:1"
         offset="1"
         id="stop1164" />
    </linearGradient>
    <linearGradient
       inkscape:collect="always"
       id="linearGradient1058">
      <stop
         style="stop-color:#5175ff;stop-opacity:1"
         offset="0"
         id="stop1054" />
      <stop
         style="stop-color:#40e0ff;stop-opacity:1"
         offset="1"
         id="stop1056" />
    </linearGradient>
    <linearGradient
       id="linearGradient1045"
       inkscape:collect="always">
      <stop
         id="stop1041"
         offset="0"
         style="stop-color:#293449;stop-opacity:1" />
      <stop
         id="stop1043"
         offset="1"
         style="stop-color:#485c80;stop-opacity:1" />
    </linearGradient>
    <linearGradient
       inkscape:collect="always"
       id="linearGradient2480">
      <stop
         style="stop-color:#cc0a08;stop-opacity:1"
         offset="0"
         id="stop2476" />
      <stop
         style="stop-color:#f67d89;stop-opacity:1"
         offset="1"
         id="stop2478" />
    </linearGradient>
    <linearGradient
       id="linearGradient942-5"
       inkscape:collect="always">
      <stop
         id="stop938"
         offset="0"
         style="stop-color:#002076;stop-opacity:1" />
      <stop
         id="stop940"
         offset="1"
         style="stop-color:#40e0ff;stop-opacity:1" />
    </linearGradient>
    <linearGradient
       gradientUnits="userSpaceOnUse"
       y2="31.377413"
       x2="86.543877"
       y1="282.62048"
       x1="20.010984"
       id="linearGradient944"
       xlink:href="#linearGradient942-5"
       inkscape:collect="always" />
    <linearGradient
       gradientUnits="userSpaceOnUse"
       y2="112.66277"
       x2="98.204803"
       y1="257.94366"
       x1="13.302045"
       id="linearGradient952"
       xlink:href="#linearGradient2480"
       inkscape:collect="always" />
    <linearGradient
       gradientTransform="translate(0,1.5875)"
       gradientUnits="userSpaceOnUse"
       y2="133.50244"
       x2="146.68025"
       y1="272.83194"
       x1="101.05925"
       id="linearGradient960"
       xlink:href="#linearGradient2480"
       inkscape:collect="always" />
    <filter
       id="filter1495"
       inkscape:label="Drop Shadow"
       style="color-interpolation-filters:sRGB">
      <feFlood
         id="feFlood1485"
         result="flood"
         flood-color="rgb(0,0,0)"
         flood-opacity="0.498039" />
      <feComposite
         id="feComposite1487"
         result="composite1"
         operator="in"
         in2="SourceGraphic"
         in="flood" />
      <feGaussianBlur
         id="feGaussianBlur1489"
         result="blur"
         stdDeviation="4"
         in="composite1" />
      <feOffset
         id="feOffset1491"
         result="offset"
         dy="4"
         dx="2" />
      <feComposite
         id="feComposite1493"
         result="composite2"
         operator="over"
         in2="offset"
         in="SourceGraphic" />
    </filter>
    <filter
       id="filter2066"
       inkscape:label="Drop Shadow"
       style="color-interpolation-filters:sRGB">
      <feFlood
         id="feFlood2056"
         result="flood"
         flood-color="rgb(0,0,0)"
         flood-opacity="0.498039" />
      <feComposite
         id="feComposite2058"
         result="composite1"
         operator="in"
         in2="SourceGraphic"
         in="flood" />
      <feGaussianBlur
         id="feGaussianBlur2060"
         result="blur"
         stdDeviation="20"
         in="composite1" />
      <feOffset
         id="feOffset2062"
         result="offset"
         dy="20"
         dx="6" />
      <feComposite
         id="feComposite2064"
         result="composite2"
         operator="over"
         in2="offset"
         in="SourceGraphic" />
    </filter>
    <filter
       id="filter2474"
       inkscape:label="Drop Shadow"
       style="color-interpolation-filters:sRGB">
      <feFlood
         id="feFlood2464"
         result="flood"
         flood-color="rgb(0,0,0)"
         flood-opacity="0.498039" />
      <feComposite
         id="feComposite2466"
         result="composite1"
         operator="in"
         in2="SourceGraphic"
         in="flood" />
      <feGaussianBlur
         id="feGaussianBlur2468"
         result="blur"
         stdDeviation="4"
         in="composite1" />
      <feOffset
         id="feOffset2470"
         result="offset"
         dy="4.8"
         dx="1.5" />
      <feComposite
         id="feComposite2472"
         result="composite2"
         operator="over"
         in2="offset"
         in="SourceGraphic" />
    </filter>
    <linearGradient
       gradientTransform="translate(0,290.28571)"
       gradientUnits="userSpaceOnUse"
       y2="398.20157"
       x2="-973.7356"
       y1="746.96252"
       x1="-1123.2253"
       id="linearGradient1033"
       xlink:href="#linearGradient1058"
       inkscape:collect="always" />
    <linearGradient
       gradientTransform="translate(0,213.65424)"
       gradientUnits="userSpaceOnUse"
       y2="851.35718"
       x2="-987.59387"
       y1="1234.0872"
       x1="-1127.1049"
       id="linearGradient1047"
       xlink:href="#linearGradient1045"
       inkscape:collect="always" />
    <linearGradient
       gradientTransform="translate(-19.199562,-44.652005)"
       gradientUnits="userSpaceOnUse"
       y2="1157.111"
       x2="-544.48077"
       y1="1495.4609"
       x1="-689.72717"
       id="linearGradient1134"
       xlink:href="#linearGradient1045"
       inkscape:collect="always" />
    <linearGradient
       y2="851.35718"
       x2="-987.59387"
       y1="1234.0872"
       x1="-1127.1049"
       gradientTransform="translate(0,213.65424)"
       gradientUnits="userSpaceOnUse"
       id="linearGradient1160"
       xlink:href="#linearGradient1166"
       inkscape:collect="always" />
    <linearGradient
       id="linearGradient3682-0">
      <stop
         style="stop-color:#a40000;stop-opacity:1"
         offset="0"
         id="stop3684-0" />
      <stop
         style="stop-color:#ef2929;stop-opacity:1"
         offset="1"
         id="stop3686-0" />
    </linearGradient>
    <linearGradient
       id="linearGradient3864-9">
      <stop
         id="stop3866-1"
         offset="0"
         style="stop-color:#204a87;stop-opacity:1" />
      <stop
         id="stop3868-1"
         offset="1"
         style="stop-color:#729fcf;stop-opacity:1" />
    </linearGradient>
    <linearGradient
       id="linearGradient3682-0-3">
      <stop
         style="stop-color:#ff390f;stop-opacity:1"
         offset="0"
         id="stop3684-0-7" />
      <stop
         style="stop-color:#ff1000;stop-opacity:1;"
         offset="1"
         id="stop3686-0-5" />
    </linearGradient>
    <linearGradient
       id="linearGradient3864-9-7">
      <stop
         id="stop3866-1-7"
         offset="0"
         style="stop-color:#316cab;stop-opacity:1" />
      <stop
         id="stop3868-1-4"
         offset="1"
         style="stop-color:#002ca8;stop-opacity:1" />
    </linearGradient>
    <linearGradient
       id="linearGradient3682">
      <stop
         id="stop3684"
         offset="0"
         style="stop-color:#ff6d0f;stop-opacity:1;" />
      <stop
         id="stop3686"
         offset="1"
         style="stop-color:#ff1000;stop-opacity:1;" />
    </linearGradient>
    <linearGradient
       id="linearGradient3864">
      <stop
         style="stop-color:#71b2f8;stop-opacity:1;"
         offset="0"
         id="stop3866" />
      <stop
         style="stop-color:#002795;stop-opacity:1;"
         offset="1"
         id="stop3868" />
    </linearGradient>
    <linearGradient
       gradientTransform="matrix(0.79118995,0,0,0.96421064,-462.08318,3.6442021)"
       gradientUnits="userSpaceOnUse"
       y2="-97.402824"
       x2="-2013.709"
       y1="301.0498"
       x1="-2412.1616"
       id="linearGradient1169"
       xlink:href="#linearGradient1167"
       inkscape:collect="always" />
    <linearGradient
       gradientUnits="userSpaceOnUse"
       y2="-9.260396"
       x2="-2055.4119"
       y1="284.23495"
       x1="-2302.6389"
       id="linearGradient1239"
       xlink:href="#linearGradient1245"
       inkscape:collect="always" />
    <linearGradient
       gradientUnits="userSpaceOnUse"
       y2="1276.7333"
       x2="4327.0557"
       y1="2126.7334"
       x1="3477.0554"
       id="linearGradient3835"
       xlink:href="#linearGradient1045"
       inkscape:collect="always" />
    <mask
       id="mask5747"
       maskUnits="userSpaceOnUse">
      <path
         inkscape:connector-curvature="0"
         id="path5749"
         d="m -1081.0913,3822.7064 -30.9051,-17.7313 -13.6473,4.7355 -13.0203,33.2785 -20.4811,-1.0774 -9.3432,-34.4101 -13.0752,-6.2608 -32.6113,14.2658 -13.7762,-15.3072 17.7314,-30.9049 -4.8453,-13.606 -33.2766,-13.0222 1.1905,-20.5206 34.4107,-9.3432 6.2607,-13.0752 -14.3755,-32.5713 15.3071,-13.7747 30.9051,17.7313 13.7154,-4.8866 12.9107,-33.2346 20.6323,1.1528 9.2335,34.4501 13.0752,6.2606 32.681,-14.4151 13.7747,15.3067 -17.7319,30.9052 4.7754,13.7554 33.2372,12.9128 -1.0398,20.5901 -34.4501,9.2334 -6.2622,13.0752 14.3073,32.721 z m -46.2858,-50.6793 6.3443,-3.6809 5.4951,-4.9832 4.4016,-5.9473 3.1652,-6.6122 1.8707,-7.1279 0.3036,-7.3064 -1.0584,-7.3012 -2.4077,-6.9339 -3.8305,-6.4135 -4.8341,-5.4277 -5.9468,-4.3992 -6.6122,-3.1652 -7.1283,-1.8709 -7.3452,-0.4154 -7.3041,1.0583 -6.9313,2.4077 -6.414,3.8307 -5.3875,4.9432 -4.441,5.8375 -3.1652,6.6122 -1.8143,7.2377 -0.4155,7.3456 1.0579,7.302 2.4078,6.9334 3.7905,6.3042 4.8741,5.5367 5.9468,4.3995 6.6122,3.1652 7.238,1.8142 7.3058,0.3038 7.302,-1.0584 6.9333,-2.4079 z"
         style="display:inline;overflow:visible;visibility:visible;fill:#ffffff;fill-opacity:1;fill-rule:evenodd;stroke:none;stroke-width:9.9998951;stroke-linecap:round;stroke-linejoin:round;stroke-miterlimit:4;stroke-dasharray:none;stroke-dashoffset:0;stroke-opacity:1;marker:none;enable-background:accumulate" />
    </mask>
    <mask
       id="mask2314"
       maskUnits="userSpaceOnUse">
      <path
         inkscape:connector-curvature="0"
         sodipodi:nodetypes="ccccccccccc"
         id="path2316"
         d="m -1868.9759,3355.7772 h -288.3976 v 59.668 h 119.3385 v 59.6685 h 59.668 v -59.6685 h 49.7232 v 99.4479 h 59.6679 z"
         style="display:inline;overflow:visible;visibility:visible;fill:#ffffff;fill-opacity:1;fill-rule:evenodd;stroke:none;stroke-width:9.99989414;stroke-linecap:butt;stroke-linejoin:miter;stroke-miterlimit:4;stroke-dasharray:none;stroke-dashoffset:0;stroke-opacity:1;marker:none;enable-background:accumulate" />
    </mask>
  </defs>
  <sodipodi:namedview
     id="base"
     pagecolor="#ffffff"
     bordercolor="#666666"
     borderopacity="1.0"
     inkscape:pageopacity="0.0"
     inkscape:pageshadow="2"
     inkscape:zoom="11.313709"
     inkscape:cx="30.626562"
     inkscape:cy="30.184621"
     inkscape:document-units="px"
     inkscape:current-layer="layer1"
     showgrid="false"
     inkscape:window-width="3836"
     inkscape:window-height="2093"
     inkscape:window-x="0"
     inkscape:window-y="32"
     inkscape:window-maximized="1"
     units="px"
     inkscape:showpageshadow="2"
     inkscape:pagecheckerboard="0"
     inkscape:deskcolor="#d1d1d1" />
  <metadata
     id="metadata5">
    <rdf:RDF>
      <cc:Work
         rdf:about="">
        <dc:format>image/svg+xml</dc:format>
        <dc:type
           rdf:resource="http://purl.org/dc/dcmitype/StillImage" />
        <dc:title />
      </cc:Work>
    </rdf:RDF>
  </metadata>
  <g
     inkscape:label="Layer 1"
     inkscape:groupmode="layer"
     id="layer1"
     transform="translate(0,-280.06666)">
    <path
       style="fill:#000000;stroke-width:0.264583"
       d="m 9.1648785,289.66331 -2.9149247,0.024"
       id="path1"
       inkscape:path-effect="#path-effect1"
       inkscape:original-d="m 9.1648785,289.66331 c -0.9716416,0.008 -1.9432831,0.016 -2.9149247,0.024" />
    <path
       style="fill:#000000;stroke-width:0.264583"
       id="path2"
       d="m 14.491289,285.43372 c 0.02215,0.27753 0.04458,0.5553 0.04742,0.83386 7.68e-4,0.0739 -0.0056,0.57281 -0.0061,0.62391 -0.0094,0.51057 -0.06836,1.0183 -0.109336,1.52679 -0.127083,1.57722 0.06718,-0.69512 -0.06996,0.88974 -0.06942,0.58742 -0.09347,1.17824 -0.123877,1.76846 -0.01325,0.25726 -0.03257,0.55474 -0.04879,0.8134 -0.02901,0.47055 -0.04649,0.94191 -0.08092,1.41212 -0.02303,0.0948 0.01012,0.19773 -0.02071,0.29092 5.82e-4,-0.002 -0.0083,0.024 -0.0066,0.0179 0.0071,-0.0251 0.0308,-0.0504 0.02212,-0.0749 -0.0057,-0.0162 -0.03404,-0.005 -0.05113,-0.007 -0.07101,-0.008 -0.09055,-0.008 -0.16966,-0.0121 -0.04506,-8.8e-4 -0.09012,-0.002 -0.135186,-0.003 -0.209946,-0.002 -0.41948,-3.7e-4 -0.629407,-0.008 -0.204068,-0.007 -0.542127,-0.0247 -0.735418,-0.0343 -0.536518,-0.0346 -1.073185,-0.0667 -1.609656,-0.10207 -0.192436,-0.0127 -0.384706,-0.0281 -0.577269,-0.0387 -0.4136524,-0.0227 -0.8277537,-0.0364 -1.2416189,-0.0549 -0.7548833,-0.0346 -1.5103684,-0.0665 -2.2661164,-0.0742 -0.079806,-8e-4 -0.9193048,3.9e-4 -1.0090012,5e-4 -0.4426048,0.006 -0.8853803,0.004 -1.327934,0.0136 -0.3651139,0.008 -0.7300079,0.0213 -1.0951867,0.0278 -0.2242555,0.006 -0.4486346,0.012 -0.6730059,0.0101 -0.09269,-7.9e-4 -0.1850682,-0.006 -0.2777394,-0.003 -0.078687,-0.006 -0.155894,0.008 -0.2338696,0.0159 -0.1451989,0.0144 -0.2914592,0.02 -0.4372177,0.0125 -0.2707275,-0.0205 -0.311314,-0.0872 0.5216915,0.32832 0.013588,0.007 -0.00883,-0.0292 -0.010474,-0.0443 -0.00316,-0.029 -0.0026,-0.0583 -0.00391,-0.0874 -0.015521,-0.2447 0.02654,-0.48793 0.037618,-0.7316 0.006,-0.13194 3.704e-4,-0.26428 0.00737,-0.39617 0.014616,-0.2755 0.054243,-0.58782 0.085353,-0.86174 0.048705,-0.3717 0.089122,-0.74495 0.1462888,-1.11552 0.053593,-0.3474 0.055507,-0.29658 0.1142648,-0.63314 0.018098,-0.10367 0.033406,-0.2078 0.050109,-0.31169 0.017197,-0.0967 0.034128,-0.19346 0.05159,-0.29011 0.038247,-0.21171 0.057485,-0.29924 0.08855,-0.51042 0.034616,-0.23531 0.058957,-0.47219 0.084686,-0.70859 0.038765,-0.40678 0.061283,-0.81491 0.083827,-1.22285 0.00707,-0.27165 -0.017177,-0.53456 -0.055975,-0.80267 -0.007,-0.0636 -0.020942,-0.12596 -0.02648,-0.18972 -0.0019,-0.0218 -0.00233,-0.0425 -0.00741,-0.0638 -0.010229,-0.0253 0.00472,-0.0119 0.00188,-0.005 -0.025858,0.0625 -0.052107,0.0548 -0.011626,0.0583 0.1842889,0.005 0.3683386,-0.0137 0.5526252,-0.0128 0.090356,4.3e-4 0.1806599,0.004 0.2709899,0.007 0.6783573,0.012 1.3528096,0.0917 2.0282232,0.14855 0.4993248,0.0412 0.9996969,0.0693 1.5002566,0.0903 0.1269261,0.005 0.2538484,0.0115 0.3808661,0.0137 0.1341215,0.002 0.2682854,1.4e-4 0.4024281,2.1e-4 0.8233804,-0.008 1.6444315,-0.074 2.4665316,-0.11274 0.48465,-0.0193 0.970119,-0.0217 1.454953,-0.007 0.269076,0.008 0.494186,0.0219 0.762682,0.0365 0.466997,0.0236 0.934927,0.0491 1.402761,0.0437 0.233124,-0.003 0.294924,-0.01 0.519446,-0.0253 0.31058,-0.0336 0.614678,-0.10654 0.921398,-0.16334 0.07116,-0.0162 0.143574,-0.0213 0.216259,-0.0227 0.01546,-2.9e-4 0.03096,5.9e-4 0.04638,-4.2e-4 0.0091,-6.1e-4 0.03395,0.002 0.02708,-0.004 -0.09416,-0.0827 -0.197344,-0.15442 -0.296016,-0.23162 0,0 -0.03262,-0.0231 -0.03262,-0.0231 v 0 c -0.112584,-0.0756 -0.221645,-0.15681 -0.337752,-0.22692 -0.01391,-0.008 -0.07629,6.6e-4 -0.08857,0.003 -0.06785,0.0111 -0.134302,0.0301 -0.2016,0.0438 -0.286711,0.0735 -0.572041,0.1569 -0.867473,0.18872 -0.07547,0.008 -0.150764,0.0173 -0.226396,0.0231 -0.543,0.042 -1.08877,0.0145 -1.631936,-0.007 -0.104475,-0.004 -0.658341,-0.0268 -0.756943,-0.0305 -0.12864,-0.005 -0.257246,-0.0113 -0.385961,-0.0131 -0.354901,-0.005 -0.709889,0.0144 -1.0642541,0.03 -0.2599536,0.0146 -0.5199838,0.0279 -0.7798628,0.0438 -0.5603907,0.0342 -1.1209547,0.0769 -1.6829493,0.0665 -0.767053,-0.0172 -1.533588,-0.052 -2.297924,-0.12096 -0.6792294,-0.0591 -1.358763,-0.1171 -2.0397743,-0.15165 -0.091131,-0.002 -0.1822498,-0.004 -0.2733919,-0.006 -0.1952424,-0.002 -0.391492,0.003 -0.5857445,-0.0216 -0.059284,-0.007 -0.078218,0.0367 -0.052439,0.0756 0.02756,0.0892 0.065622,0.17521 0.079791,0.26851 0.054436,0.26458 0.079462,0.53364 0.084484,0.80372 0.019847,0.41535 0.00446,0.83111 -0.027039,1.24561 -0.042245,0.51044 -0.1149623,1.0174 -0.187995,1.52422 -0.017029,0.10375 -0.035587,0.20727 -0.051087,0.31126 -0.088224,0.59193 -0.1351468,1.18915 -0.198887,1.78392 -0.030733,0.27334 -0.060004,0.57755 -0.1099174,0.8486 -0.022105,0.12004 -0.057264,0.23737 -0.081298,0.35704 -0.046224,0.23015 -0.071705,0.4646 -0.1239102,0.69373 -0.0029,0.0295 -0.00639,0.059 -0.00871,0.0886 -0.0016,0.0204 -0.019519,0.0491 -0.00305,0.0612 0.2576018,0.18864 0.4167476,0.40497 0.6945679,0.38704 0.1441689,-0.008 0.2884995,-0.0139 0.4326893,-0.0219 0.079349,-0.003 0.1589588,-4.8e-4 0.2378356,-0.0108 0.079492,-0.005 0.1578404,-0.0177 0.2371183,-0.0256 0.2088716,-0.0209 0.4186446,-0.0317 0.6282346,-0.0421 0.7864562,-0.0478 1.5742539,-0.0686 2.3619598,-0.0834 1.074914,-0.0136 2.1502992,-0.008 3.2244224,0.04 1.1666366,0.0572 2.3329046,0.12829 3.4951846,0.24628 0.327141,0.031 0.472806,0.0469 0.786754,0.07 0.221638,0.0163 0.443037,0.0216 0.664838,0.0333 0.04631,0.002 0.09257,0.006 0.138859,0.009 0.06827,0.007 0.106508,0.008 0.169348,0.0256 0.01622,0.005 0.03085,0.0208 0.04736,0.0176 0.03346,-0.007 0.06071,-0.0312 0.09177,-0.0453 0.0026,-0.001 -0.003,0.006 -0.0058,0.006 -0.002,3.2e-4 -0.0024,-0.003 -0.0036,-0.005 -0.0083,-0.0237 -0.0084,-0.045 -0.0092,-0.0701 -0.0026,-0.079 0.0043,-0.15764 -0.0058,-0.23646 -0.02534,-0.48768 -0.03208,-0.97635 -0.02564,-1.46461 0.0052,-0.30179 0.0058,-0.51973 0.02518,-0.82407 0.03721,-0.58314 0.122681,-1.16234 0.165739,-1.74502 0.01468,-0.14781 0.02872,-0.29569 0.04404,-0.44344 0.01507,-0.14537 0.03376,-0.29038 0.04711,-0.43592 0.04748,-0.51746 0.06273,-1.03722 0.06093,-1.55666 -0.002,-0.92048 0.0042,0.19106 -0.01119,-0.63388 -0.005,-0.26792 0.01141,-0.53518 0.01684,-0.80292 z" />
    <path
       style="fill:#000000;stroke-width:0.264583"
       id="path3"
       d="m 10.925127,285.82117 c -0.02437,0.13602 -0.04808,0.27784 -0.110665,0.40289 -0.03187,0.0637 -0.06069,0.092 -0.105418,0.14556 -0.059,0.0417 -0.08066,0.0632 -0.150167,0.0872 -0.03248,0.0112 -0.06658,0.017 -0.100056,0.0247 -0.139362,0.0322 -0.277344,0.0474 -0.419595,0.0608 -0.314019,0.0174 -0.6269163,0.049 -0.9403796,0.074 -0.3083324,0.0337 -0.6185757,0.0484 -0.9283068,0.0305 -0.1901758,-0.014 -0.3770598,-0.0529 -0.5657926,-0.0782 -0.1574814,-0.0203 -0.3159673,-0.0297 -0.4744096,-0.0385 -0.1842185,-0.002 -0.3671269,-0.0227 -0.5492689,-0.0485 -0.1130494,-0.0223 -0.232156,-0.0234 -0.3406048,-0.0646 -0.011853,-0.006 -0.024225,-0.0118 -0.035557,-0.019 -0.1803919,-0.11518 0.372287,0.21128 0.5592924,0.31538 0.013332,0.007 -0.023918,-0.0191 -0.034727,-0.0298 -0.022132,-0.0221 -0.037672,-0.0457 -0.055895,-0.071 -0.056322,-0.0823 -0.058079,-0.16454 -0.06911,-0.25884 -0.00302,-0.031 -0.011665,-0.062 -0.013168,-0.0931 -3.439e-4,-0.007 0.00624,-0.0173 6.615e-4,-0.0222 -0.011787,-0.0103 -0.025834,-0.0177 -0.03875,-0.0265 -0.09111,-0.0547 -0.1822209,-0.10934 -0.2733312,-0.16402 0,0 -0.035101,-0.0192 -0.035101,-0.0192 v 0 c -0.093469,-0.0467 -0.1869379,-0.0935 -0.2804068,-0.14019 -0.015179,-0.002 -0.030655,-0.009 -0.045535,-0.005 -0.00569,10e-4 -0.00377,0.0112 -0.00429,0.017 -0.00318,0.0359 0.00188,0.0733 -0.00188,0.10928 0.00773,0.10521 0.034527,0.20988 0.081448,0.30458 0.1685835,0.29177 0.5050547,0.45044 0.8236728,0.54587 0.1076,0.016 0.2160455,0.0255 0.3238053,0.0404 0.1840349,0.0227 0.368712,0.0375 0.5539872,0.0455 0.1552869,0.009 0.3105502,0.0211 0.4651741,0.0383 0.1829998,0.0248 0.3657436,0.0563 0.5509096,0.0586 0.1034499,7.2e-4 0.1598729,0.002 0.2651842,-0.002 0.2183585,-0.009 0.4352631,-0.0387 0.6538034,-0.0444 0.3166825,-0.0247 0.6341668,-0.0381 0.9502378,-0.0699 0.116284,-0.0161 0.177888,-0.0227 0.292339,-0.0462 0.04495,-0.009 0.09103,-0.0155 0.13403,-0.0315 0.09042,-0.0337 0.151004,-0.10748 0.198796,-0.18703 0.01525,-0.0272 0.03252,-0.0534 0.04576,-0.0817 0.07355,-0.15707 0.101401,-0.33162 0.165359,-0.49225 z" />
    <path
       style="fill:#000000;stroke-width:0.264583"
       id="path4"
       d="m 11.103022,289.36948 c -0.136755,-0.0255 -0.278707,-0.0466 -0.415991,-0.0115 -0.100564,0.0257 -0.112768,0.0426 -0.198089,0.0965 -0.109387,0.10345 -0.17086,0.23153 -0.150441,0.38454 0.0145,0.10865 0.03788,0.13507 0.08633,0.2325 0.02314,0.0333 0.04263,0.0694 0.06941,0.0998 0.14867,0.16878 0.662377,0.3987 0.675984,0.40534 0.03557,0.0174 0.16313,0.012 0.200366,-10e-4 0.02843,-0.0102 0.0505,-0.0331 0.07575,-0.0497 0.0967,-0.1294 0.242363,-0.25314 0.23968,-0.42947 -4.76e-4,-0.0313 -0.01136,-0.0616 -0.01703,-0.0924 -0.07709,-0.0573 -0.154175,-0.11452 -0.231263,-0.17178 0,0 -0.03641,-0.0166 -0.03641,-0.0166 v 0 c -0.05412,-0.009 -0.108231,-0.0176 -0.162347,-0.0264 -0.0052,0.0881 -0.01721,0.15749 -0.0444,0.24225 -0.02266,0.0706 -0.02892,0.11762 -0.09316,0.16329 -0.02659,0.0189 -0.06013,0.0253 -0.09019,0.038 -0.0725,0.0109 -0.117503,0.0231 -0.190883,0.0135 -0.03314,-0.004 -0.12432,-0.0435 -0.09744,-0.0237 0.122652,0.0906 0.258593,0.16172 0.389711,0.23957 0.0323,0.0192 -0.06569,-0.0378 -0.09311,-0.0635 -0.02602,-0.0244 -0.04348,-0.0565 -0.06521,-0.0847 -0.05962,-0.15347 -0.11451,-0.30833 0.0029,-0.45256 0.019,-0.0233 0.04416,-0.0409 0.06624,-0.0614 0.02714,-0.0158 0.05258,-0.035 0.08143,-0.0475 0.163883,-0.0707 0.349073,-0.0383 0.510546,0.0203 z" />
    <path
       style="fill:#000000;stroke-width:0.264583"
       id="path5"
       d="m 5.5666128,289.32264 c -0.1451642,-0.026 -0.295134,-0.0402 -0.4424865,-0.0248 -0.0948,0.01 -0.1399543,0.025 -0.231157,0.0485 -0.117353,0.0387 -0.2382078,0.0941 -0.2766369,0.22251 -0.023453,0.0784 -0.00949,0.10326 0.00331,0.18422 0.055837,0.14607 0.1322467,0.29709 0.2719043,0.38125 0.6835273,0.41189 0.4575308,0.34853 0.8376815,0.43394 0.1075499,-0.0198 0.3001997,-0.0345 0.2827213,-0.19987 -0.00714,-0.0675 -0.05703,-0.12359 -0.078501,-0.18802 -0.014338,-0.043 -0.018989,-0.0887 -0.028485,-0.13303 0,0 -0.035041,-0.0193 -0.035041,-0.0193 v 0 c -0.1696921,0.112 -0.017933,0.0351 -0.2938224,0.068 -0.1361599,0.0163 -0.2561551,0.091 -0.3973447,0.0486 -0.2855452,-0.0981 -0.2020535,-0.0786 0.3646448,0.24951 0.035254,0.0204 -0.069862,-0.0426 -0.1009306,-0.0689 -0.076727,-0.0651 -0.1185712,-0.14785 -0.1455984,-0.24283 -0.013195,-0.0577 -0.02576,-0.0804 -0.013269,-0.13804 0.021878,-0.101 0.1245653,-0.14855 0.2097701,-0.18513 0.033272,-0.009 0.065979,-0.0206 0.099817,-0.0273 0.1844373,-0.0365 0.3735123,-0.014 0.553466,0.0337 z" />
    <path
       style="fill:#000000;stroke-width:0.264583"
       id="path6"
       d="m 11.815266,289.39582 c -0.05751,-0.0913 -0.10906,-0.1895 -0.191043,-0.26239 -0.02474,-0.022 -0.0508,-0.0431 -0.07965,-0.0593 -0.204733,-0.11517 -0.413527,-0.22297 -0.620291,-0.33446 -0.20533,-0.048 -0.447871,-0.0807 -0.656703,-0.0351 -0.04122,0.009 -0.08064,0.0248 -0.120955,0.0373 -0.1565977,0.0705 -0.2971582,0.17139 -0.4180876,0.29306 -0.072238,0.0727 -0.091848,0.10208 -0.1549841,0.18193 -0.068869,0.0907 -0.1332342,0.18459 -0.161443,0.29672 -0.030266,0.12032 -0.028207,0.2467 -0.027178,0.36954 0.00412,0.0392 0.00578,0.0787 0.012372,0.11759 0.025974,0.15311 0.095508,0.34539 0.1683891,0.48258 0.019524,0.0368 0.042758,0.0714 0.064138,0.1071 0.075106,0.10307 0.16007,0.20354 0.2713757,0.26977 0.2903899,0.17277 0.5474159,0.34822 0.8538139,0.46453 0.04589,0.0174 0.09298,0.0315 0.139476,0.0472 0.189433,0.0471 0.339359,0.0651 0.525145,-0.0115 0.08634,-0.0356 0.219723,-0.11719 0.298711,-0.16321 0.171065,-0.11388 0.334042,-0.2398 0.482194,-0.38248 0.04885,-0.047 0.09776,-0.0944 0.141347,-0.14636 0.09882,-0.1178 0.127077,-0.18171 0.200789,-0.31287 0.02113,-0.0503 0.04656,-0.0989 0.06339,-0.15078 0.04602,-0.14176 0.06317,-0.30488 0.05029,-0.45332 -0.01055,-0.12158 -0.03685,-0.20793 -0.066,-0.32636 -0.07366,-0.26037 -0.182329,-0.5164 -0.366519,-0.71931 -0.03709,-0.0409 -0.07971,-0.0763 -0.119562,-0.11449 -0.33715,-0.24087 -0.24423,-0.18196 -0.866451,-0.51376 -0.09436,-0.0503 -0.232593,-0.0818 -0.337133,-0.094 -0.148651,-0.0173 -0.223689,-0.007 -0.371988,0.002 -0.350288,0.0391 -0.6466739,0.18946 -0.9464955,0.364 -0.1926833,0.12289 -0.3535648,0.28892 -0.4731848,0.48363 -0.066008,0.10745 -0.087493,0.16693 -0.1373516,0.28088 -0.09682,0.26465 -0.1248108,0.54864 -0.1317201,0.82863 0.032958,0.21922 0.041134,0.44184 0.099604,0.65683 0.047375,0.17419 0.067719,0.20238 0.1420423,0.37026 0.029207,0.0577 0.055321,0.11706 0.08762,0.17308 0.099417,0.17243 0.2686923,0.39977 0.4258742,0.52497 0.039741,0.0316 0.084312,0.0567 0.1264684,0.0851 0.2892181,0.14697 0.6653751,0.46689 1.0475351,0.48278 0.147318,0.006 0.290035,-0.0379 0.430145,-0.0759 0.317194,-0.092 0.622314,-0.21789 0.922432,-0.35459 0.13683,-0.0723 0.278389,-0.1441 0.399948,-0.24144 0.05999,-0.048 0.184727,-0.17106 0.234061,-0.22923 0.0383,-0.0452 0.07152,-0.0944 0.107286,-0.1416 0.195755,-0.27985 0.331002,-0.59516 0.450183,-0.91353 0.02797,-0.097 0.06441,-0.21021 0.07809,-0.31067 0.0087,-0.0636 0.01116,-0.12785 0.01359,-0.19194 0.0079,-0.20894 -0.0065,-0.41562 -0.02395,-0.62359 -0.03262,-0.35617 -0.123197,-0.70318 -0.216132,-1.04745 -0.08069,-0.26814 -0.158834,-0.53716 -0.230069,-0.80797 -0.03325,-0.11868 -0.06164,-0.23932 -0.100817,-0.35628 -0.0017,-0.005 -0.04182,-0.10926 -0.04631,-0.12096 -0.03555,-0.0735 -0.08462,-0.13973 -0.156234,-0.18166 -0.228826,-0.13399 -0.458966,-0.26572 -0.688449,-0.39858 -0.07345,-0.042 -0.156799,-0.0477 -0.238396,-0.0606 -0.13644,-0.0302 -0.275984,-0.0337 -0.415062,-0.0309 -0.0097,9.6e-4 -0.07778,0.005 -0.0924,0.015 -0.0068,0.005 -0.01526,0.0172 -0.0093,0.0231 0.0709,0.0695 0.152116,0.12767 0.228174,0.1915 0,0 0.03273,0.023 0.03273,0.023 v 0 c 0.233465,0.14407 0.249407,0.20468 0.468284,0.20251 0.138561,4.8e-4 0.275387,0.0133 0.410621,0.0447 0.07404,0.0134 0.146059,0.0312 0.210187,0.0725 -0.205387,-0.11925 -0.410923,-0.23825 -0.616161,-0.35776 -0.01261,-0.007 0.02565,0.0139 0.03826,0.0212 0.05304,0.0309 0.104268,0.0618 0.133105,0.11847 0.07647,0.14618 0.10422,0.31101 0.153338,0.46731 0.07999,0.2712 0.164373,0.54107 0.241016,0.8132 0.09918,0.34326 0.192873,0.68898 0.239568,1.04404 0.02065,0.2025 0.04012,0.40473 0.02545,0.60862 -0.01172,0.16289 -0.04926,0.32279 -0.0982,0.47808 -0.109508,0.31353 -0.233337,0.62727 -0.4242,0.90121 -0.03568,0.044 -0.06911,0.09 -0.107053,0.13212 -0.172914,0.1919 -0.39434,0.3308 -0.623684,0.44496 -0.296598,0.13647 -0.601613,0.25418 -0.916194,0.34266 -0.147005,0.0353 -0.263725,0.0632 -0.416841,0.0474 -0.2675237,-0.0274 -0.6945337,-0.30494 0.237459,0.23405 -0.04616,-0.0256 -0.09469,-0.0473 -0.138478,-0.0767 -0.04389,-0.0295 -0.08419,-0.0642 -0.123583,-0.0995 -0.1832693,-0.16419 -0.3293434,-0.36465 -0.4373177,-0.58522 -0.1124694,-0.25815 -0.2358996,-0.54629 -0.2152632,-0.83512 0.00314,-0.044 0.015116,-0.0869 0.022675,-0.13037 0.024318,-0.26931 0.040807,-0.54132 0.1346185,-0.79801 0.017507,-0.0452 0.032681,-0.0914 0.052524,-0.13567 0.1101125,-0.24553 0.2783094,-0.45831 0.5064764,-0.60351 0.138123,-0.086 0.278714,-0.17297 0.426997,-0.24086 0.143079,-0.0655 0.295429,-0.10684 0.45107,-0.12827 0.05695,-0.004 0.113793,-0.0114 0.170852,-0.0107 0.126805,10e-4 0.227987,0.018 0.348369,0.0576 0.0526,0.0173 0.198657,0.0956 0.153457,0.0636 -0.08487,-0.06 -0.683831,-0.41284 -0.270564,-0.15515 0.04187,0.0355 0.08645,0.0679 0.125598,0.10639 0.114145,0.11208 0.212809,0.25564 0.284899,0.39795 0.05177,0.10221 0.08045,0.19803 0.117615,0.30607 0.01422,0.0536 0.0308,0.10666 0.04266,0.16085 0.05391,0.24637 0.04117,0.49702 -0.06381,0.72846 -0.02818,0.0494 -0.05286,0.10089 -0.08454,0.14809 -0.185291,0.2761 -0.45268,0.48607 -0.734626,0.65545 -0.120081,0.0636 -0.174578,0.10024 -0.304039,0.1393 -0.168823,0.0509 -0.339952,0.03 -0.505153,-0.0229 -0.0449,-0.0165 -0.09045,-0.0314 -0.134713,-0.0495 -0.04734,-0.0194 -0.182465,-0.0914 -0.139929,-0.063 0.138065,0.0923 0.285299,0.16997 0.427733,0.25532 0.04646,0.0278 -0.0957,-0.0514 -0.139816,-0.0828 -0.03386,-0.0241 -0.06381,-0.0535 -0.09305,-0.0831 -0.02886,-0.0292 -0.05395,-0.0619 -0.08092,-0.0928 -0.02377,-0.0344 -0.04933,-0.0677 -0.0713,-0.10335 -0.10656,-0.17284 -0.1654435,-0.36939 -0.1841834,-0.57079 -0.00151,-0.0387 -0.00534,-0.0774 -0.00451,-0.11617 0.00402,-0.18637 0.071521,-0.3565 0.1794474,-0.50687 0.153258,-0.18798 0.318579,-0.35084 0.5459,-0.44699 0.03684,-0.0109 0.07303,-0.0242 0.110519,-0.0326 0.202763,-0.0453 0.414295,-0.0253 0.610062,0.0393 -0.132014,-0.0821 -0.264541,-0.16342 -0.396043,-0.24635 -0.02819,-0.0178 0.0589,0.0316 0.08608,0.0509 0.02701,0.0192 0.05182,0.0414 0.07592,0.0641 0.06181,0.0583 0.120395,0.12413 0.160549,0.19929 z" />
    <path
       style="fill:#000000;stroke-width:0.264583"
       id="path7"
       d="m 5.5200644,286.22438 c -0.1622438,0.037 -0.3267176,0.0673 -0.4829413,0.12647 -0.031163,0.0118 -0.061438,0.0258 -0.092157,0.0387 -0.1446277,0.0761 -0.2927554,0.15611 -0.4013693,0.28151 -0.019725,0.0228 -0.036564,0.0479 -0.054845,0.0718 -0.122541,0.17843 -0.2057606,0.37958 -0.2974353,0.57469 -0.092293,0.20019 -0.1825485,0.40343 -0.2275113,0.62043 -0.00974,0.047 -0.015565,0.0947 -0.023349,0.14209 -0.024712,0.13711 -0.026077,0.27615 -0.033231,0.41468 -0.00632,0.12245 -0.018812,0.24408 -0.034129,0.36566 -0.00886,0.14159 -0.042828,0.28081 -0.053911,0.42208 -0.0051,0.0651 -0.00159,0.1395 -5.21e-5,0.20439 -1.243e-4,0.0164 -0.00175,0.18322 -5.027e-4,0.20128 0.00901,0.1333 0.042977,0.26778 0.077651,0.39626 0.025707,0.0846 0.055635,0.16777 0.087129,0.25037 0.00908,0.0238 0.016113,0.0485 0.027358,0.0714 0.037375,0.076 0.068678,0.11269 0.1188346,0.18206 0.063126,0.0774 0.086251,0.11079 0.1596316,0.18027 0.270727,0.25633 0.7270478,0.47661 1.0100406,0.6397 0.1138499,0.0549 0.2340393,0.11947 0.3640153,0.1244 0.14418,0.005 0.2749318,-0.0571 0.4046673,-0.10994 0.216966,-0.11 0.4808199,-0.23265 0.5683449,-0.48096 0.018516,-0.0525 0.021246,-0.10935 0.031868,-0.16402 -0.00238,-0.0574 -6.4e-6,-0.11514 -0.00718,-0.17211 -0.013928,-0.11058 -0.050788,-0.22743 -0.08367,-0.33354 -0.014137,-0.0456 -0.026755,-0.0918 -0.044177,-0.1363 -0.034142,-0.0872 -0.066515,-0.13768 -0.1119261,-0.21713 -0.0176,-0.0259 -0.03334,-0.0532 -0.052801,-0.0778 -0.1891819,-0.23874 -0.8386541,-0.51563 -0.8516885,-0.52278 -0.023156,-0.0127 -0.1394161,-0.0324 -0.1672535,-0.0298 -0.015928,0.002 -0.028908,0.0137 -0.043362,0.0206 0.1474992,0.16542 0.088783,0.0889 0.1837526,0.22354 0,0 0.032664,0.0231 0.032664,0.0231 v 0 c 0.239355,0.1103 0.1048205,0.0435 0.399683,0.20821 0.033344,0.0105 0.066444,0.0219 0.1000331,0.0316 0.025273,0.007 0.051548,0.0111 0.076486,0.0195 0.025752,0.009 0.098296,0.0457 0.075173,0.0315 -0.2105263,-0.12983 -0.4254227,-0.25243 -0.638134,-0.37865 0.028871,0.0185 0.060192,0.0336 0.086613,0.0554 0.027306,0.0226 0.048948,0.0512 0.073422,0.0768 0.080244,0.11222 0.1643364,0.23669 0.2215854,0.36226 0.068114,0.1494 0.1048377,0.31114 0.1064996,0.47512 -0.00493,0.0484 -0.00132,0.0985 -0.014782,0.14532 -0.012401,0.0431 -0.036771,0.0823 -0.061454,0.11978 -0.1084019,0.16459 -0.2922736,0.24676 -0.4643853,0.32732 -0.1121603,0.0398 -0.1533435,0.0625 -0.2715308,0.0735 -0.1532024,0.0143 -0.296396,-0.0468 -0.4305025,-0.11297 0.8902563,0.52305 0.3941649,0.24503 0.2136625,0.11062 -0.096293,-0.0717 -0.1838421,-0.15295 -0.2571041,-0.2484 -0.046285,-0.0673 -0.06431,-0.0894 -0.1025213,-0.15975 -0.053536,-0.0985 -0.085997,-0.20665 -0.1188249,-0.31327 -0.012822,-0.044 -0.041862,-0.13965 -0.050403,-0.18494 -0.023275,-0.1234 -0.016843,-0.25279 -0.010155,-0.37719 0.011205,-0.061 0.025077,-0.12158 0.033956,-0.18298 0.02036,-0.14076 0.027185,-0.28362 0.051944,-0.42386 0.015767,-0.16846 0.033412,-0.33709 0.04658,-0.50575 0.00343,-0.0439 0.00372,-0.0881 0.00735,-0.13202 0.00375,-0.0454 0.00984,-0.0905 0.014764,-0.13571 0.00901,-0.0443 0.016261,-0.089 0.02703,-0.13294 0.051519,-0.21012 0.1463312,-0.40534 0.2312212,-0.60317 0.088145,-0.19077 0.1823577,-0.3793 0.2969279,-0.55583 0.1180552,-0.15758 0.231462,-0.2523 0.4141742,-0.33201 0.1749502,-0.0749 0.3556741,-0.14131 0.5461045,-0.16213 z" />
  </g>
</svg>
