<?xml version="1.0" encoding="UTF-8" standalone="no"?>
<!-- Created with Inkscape (http://www.inkscape.org/) -->

<svg
   width="64"
   height="64"
   viewBox="0 0 16.933333 16.933334"
   version="1.1"
   id="svg8"
   inkscape:version="1.3.2 (091e20ef0f, 2023-11-25, custom)"
   sodipodi:docname="settings-inactive.svg"
   inkscape:export-filename="C:\Users\Ali\Documents\inkscape\freecad\pyrate\pyrate_logo_3_256x256.png"
   inkscape:export-xdpi="1536"
   inkscape:export-ydpi="1536"
   xmlns:inkscape="http://www.inkscape.org/namespaces/inkscape"
   xmlns:sodipodi="http://sodipodi.sourceforge.net/DTD/sodipodi-0.dtd"
   xmlns:xlink="http://www.w3.org/1999/xlink"
   xmlns="http://www.w3.org/2000/svg"
   xmlns:svg="http://www.w3.org/2000/svg"
   xmlns:rdf="http://www.w3.org/1999/02/22-rdf-syntax-ns#"
   xmlns:cc="http://creativecommons.org/ns#"
   xmlns:dc="http://purl.org/dc/elements/1.1/">
  <defs
     id="defs2">
    <linearGradient
       id="linearGradient1245"
       inkscape:collect="always">
      <stop
         id="stop1241"
         offset="0"
         style="stop-color:#aaccff;stop-opacity:1" />
      <stop
         id="stop1243"
         offset="1"
         style="stop-color:#d5f6ff;stop-opacity:1" />
    </linearGradient>
    <linearGradient
       id="linearGradient1167"
       inkscape:collect="always">
      <stop
         id="stop1161"
         offset="0"
         style="stop-color:#00112b;stop-opacity:1" />
      <stop
         id="stop1163"
         offset="1"
         style="stop-color:#2a7fff;stop-opacity:1" />
    </linearGradient>
    <linearGradient
       inkscape:collect="always"
       id="linearGradient1166">
      <stop
         style="stop-color:#41dcff;stop-opacity:1"
         offset="0"
         id="stop1162" />
      <stop
         style="stop-color:#40e0ff;stop-opacity:1"
         offset="1"
         id="stop1164" />
    </linearGradient>
    <linearGradient
       inkscape:collect="always"
       id="linearGradient1058">
      <stop
         style="stop-color:#5175ff;stop-opacity:1"
         offset="0"
         id="stop1054" />
      <stop
         style="stop-color:#40e0ff;stop-opacity:1"
         offset="1"
         id="stop1056" />
    </linearGradient>
    <linearGradient
       id="linearGradient1045"
       inkscape:collect="always">
      <stop
         id="stop1041"
         offset="0"
         style="stop-color:#293449;stop-opacity:1" />
      <stop
         id="stop1043"
         offset="1"
         style="stop-color:#485c80;stop-opacity:1" />
    </linearGradient>
    <linearGradient
       inkscape:collect="always"
       id="linearGradient2480">
      <stop
         style="stop-color:#cc0a08;stop-opacity:1"
         offset="0"
         id="stop2476" />
      <stop
         style="stop-color:#f67d89;stop-opacity:1"
         offset="1"
         id="stop2478" />
    </linearGradient>
    <linearGradient
       id="linearGradient942-5"
       inkscape:collect="always">
      <stop
         id="stop938"
         offset="0"
         style="stop-color:#002076;stop-opacity:1" />
      <stop
         id="stop940"
         offset="1"
         style="stop-color:#40e0ff;stop-opacity:1" />
    </linearGradient>
    <linearGradient
       gradientUnits="userSpaceOnUse"
       y2="31.377413"
       x2="86.543877"
       y1="282.62048"
       x1="20.010984"
       id="linearGradient944"
       xlink:href="#linearGradient942-5"
       inkscape:collect="always" />
    <linearGradient
       gradientUnits="userSpaceOnUse"
       y2="112.66277"
       x2="98.204803"
       y1="257.94366"
       x1="13.302045"
       id="linearGradient952"
       xlink:href="#linearGradient2480"
       inkscape:collect="always" />
    <linearGradient
       gradientTransform="translate(0,1.5875)"
       gradientUnits="userSpaceOnUse"
       y2="133.50244"
       x2="146.68025"
       y1="272.83194"
       x1="101.05925"
       id="linearGradient960"
       xlink:href="#linearGradient2480"
       inkscape:collect="always" />
    <filter
       id="filter1495"
       inkscape:label="Drop Shadow"
       style="color-interpolation-filters:sRGB">
      <feFlood
         id="feFlood1485"
         result="flood"
         flood-color="rgb(0,0,0)"
         flood-opacity="0.498039" />
      <feComposite
         id="feComposite1487"
         result="composite1"
         operator="in"
         in2="SourceGraphic"
         in="flood" />
      <feGaussianBlur
         id="feGaussianBlur1489"
         result="blur"
         stdDeviation="4"
         in="composite1" />
      <feOffset
         id="feOffset1491"
         result="offset"
         dy="4"
         dx="2" />
      <feComposite
         id="feComposite1493"
         result="composite2"
         operator="over"
         in2="offset"
         in="SourceGraphic" />
    </filter>
    <filter
       id="filter2066"
       inkscape:label="Drop Shadow"
       style="color-interpolation-filters:sRGB">
      <feFlood
         id="feFlood2056"
         result="flood"
         flood-color="rgb(0,0,0)"
         flood-opacity="0.498039" />
      <feComposite
         id="feComposite2058"
         result="composite1"
         operator="in"
         in2="SourceGraphic"
         in="flood" />
      <feGaussianBlur
         id="feGaussianBlur2060"
         result="blur"
         stdDeviation="20"
         in="composite1" />
      <feOffset
         id="feOffset2062"
         result="offset"
         dy="20"
         dx="6" />
      <feComposite
         id="feComposite2064"
         result="composite2"
         operator="over"
         in2="offset"
         in="SourceGraphic" />
    </filter>
    <filter
       id="filter2474"
       inkscape:label="Drop Shadow"
       style="color-interpolation-filters:sRGB">
      <feFlood
         id="feFlood2464"
         result="flood"
         flood-color="rgb(0,0,0)"
         flood-opacity="0.498039" />
      <feComposite
         id="feComposite2466"
         result="composite1"
         operator="in"
         in2="SourceGraphic"
         in="flood" />
      <feGaussianBlur
         id="feGaussianBlur2468"
         result="blur"
         stdDeviation="4"
         in="composite1" />
      <feOffset
         id="feOffset2470"
         result="offset"
         dy="4.8"
         dx="1.5" />
      <feComposite
         id="feComposite2472"
         result="composite2"
         operator="over"
         in2="offset"
         in="SourceGraphic" />
    </filter>
    <linearGradient
       gradientTransform="translate(0,290.28571)"
       gradientUnits="userSpaceOnUse"
       y2="398.20157"
       x2="-973.7356"
       y1="746.96252"
       x1="-1123.2253"
       id="linearGradient1033"
       xlink:href="#linearGradient1058"
       inkscape:collect="always" />
    <linearGradient
       gradientTransform="translate(0,213.65424)"
       gradientUnits="userSpaceOnUse"
       y2="851.35718"
       x2="-987.59387"
       y1="1234.0872"
       x1="-1127.1049"
       id="linearGradient1047"
       xlink:href="#linearGradient1045"
       inkscape:collect="always" />
    <linearGradient
       gradientTransform="translate(-19.199562,-44.652005)"
       gradientUnits="userSpaceOnUse"
       y2="1157.111"
       x2="-544.48077"
       y1="1495.4609"
       x1="-689.72717"
       id="linearGradient1134"
       xlink:href="#linearGradient1045"
       inkscape:collect="always" />
    <linearGradient
       y2="851.35718"
       x2="-987.59387"
       y1="1234.0872"
       x1="-1127.1049"
       gradientTransform="translate(0,213.65424)"
       gradientUnits="userSpaceOnUse"
       id="linearGradient1160"
       xlink:href="#linearGradient1166"
       inkscape:collect="always" />
    <linearGradient
       id="linearGradient3682-0">
      <stop
         style="stop-color:#a40000;stop-opacity:1"
         offset="0"
         id="stop3684-0" />
      <stop
         style="stop-color:#ef2929;stop-opacity:1"
         offset="1"
         id="stop3686-0" />
    </linearGradient>
    <linearGradient
       id="linearGradient3864-9">
      <stop
         id="stop3866-1"
         offset="0"
         style="stop-color:#204a87;stop-opacity:1" />
      <stop
         id="stop3868-1"
         offset="1"
         style="stop-color:#729fcf;stop-opacity:1" />
    </linearGradient>
    <linearGradient
       id="linearGradient3682-0-3">
      <stop
         style="stop-color:#ff390f;stop-opacity:1"
         offset="0"
         id="stop3684-0-7" />
      <stop
         style="stop-color:#ff1000;stop-opacity:1;"
         offset="1"
         id="stop3686-0-5" />
    </linearGradient>
    <linearGradient
       id="linearGradient3864-9-7">
      <stop
         id="stop3866-1-7"
         offset="0"
         style="stop-color:#316cab;stop-opacity:1" />
      <stop
         id="stop3868-1-4"
         offset="1"
         style="stop-color:#002ca8;stop-opacity:1" />
    </linearGradient>
    <linearGradient
       id="linearGradient3682">
      <stop
         id="stop3684"
         offset="0"
         style="stop-color:#ff6d0f;stop-opacity:1;" />
      <stop
         id="stop3686"
         offset="1"
         style="stop-color:#ff1000;stop-opacity:1;" />
    </linearGradient>
    <linearGradient
       id="linearGradient3864">
      <stop
         style="stop-color:#71b2f8;stop-opacity:1;"
         offset="0"
         id="stop3866" />
      <stop
         style="stop-color:#002795;stop-opacity:1;"
         offset="1"
         id="stop3868" />
    </linearGradient>
    <linearGradient
       gradientTransform="matrix(0.79118995,0,0,0.96421064,-462.08318,3.6442021)"
       gradientUnits="userSpaceOnUse"
       y2="-97.402824"
       x2="-2013.709"
       y1="301.0498"
       x1="-2412.1616"
       id="linearGradient1169"
       xlink:href="#linearGradient1167"
       inkscape:collect="always" />
    <linearGradient
       gradientUnits="userSpaceOnUse"
       y2="-9.260396"
       x2="-2055.4119"
       y1="284.23495"
       x1="-2302.6389"
       id="linearGradient1239"
       xlink:href="#linearGradient1245"
       inkscape:collect="always" />
    <linearGradient
       gradientUnits="userSpaceOnUse"
       y2="1276.7333"
       x2="4327.0557"
       y1="2126.7334"
       x1="3477.0554"
       id="linearGradient3835"
       xlink:href="#linearGradient1045"
       inkscape:collect="always" />
    <mask
       id="mask5747"
       maskUnits="userSpaceOnUse">
      <path
         inkscape:connector-curvature="0"
         id="path5749"
         d="m -1081.0913,3822.7064 -30.9051,-17.7313 -13.6473,4.7355 -13.0203,33.2785 -20.4811,-1.0774 -9.3432,-34.4101 -13.0752,-6.2608 -32.6113,14.2658 -13.7762,-15.3072 17.7314,-30.9049 -4.8453,-13.606 -33.2766,-13.0222 1.1905,-20.5206 34.4107,-9.3432 6.2607,-13.0752 -14.3755,-32.5713 15.3071,-13.7747 30.9051,17.7313 13.7154,-4.8866 12.9107,-33.2346 20.6323,1.1528 9.2335,34.4501 13.0752,6.2606 32.681,-14.4151 13.7747,15.3067 -17.7319,30.9052 4.7754,13.7554 33.2372,12.9128 -1.0398,20.5901 -34.4501,9.2334 -6.2622,13.0752 14.3073,32.721 z m -46.2858,-50.6793 6.3443,-3.6809 5.4951,-4.9832 4.4016,-5.9473 3.1652,-6.6122 1.8707,-7.1279 0.3036,-7.3064 -1.0584,-7.3012 -2.4077,-6.9339 -3.8305,-6.4135 -4.8341,-5.4277 -5.9468,-4.3992 -6.6122,-3.1652 -7.1283,-1.8709 -7.3452,-0.4154 -7.3041,1.0583 -6.9313,2.4077 -6.414,3.8307 -5.3875,4.9432 -4.441,5.8375 -3.1652,6.6122 -1.8143,7.2377 -0.4155,7.3456 1.0579,7.302 2.4078,6.9334 3.7905,6.3042 4.8741,5.5367 5.9468,4.3995 6.6122,3.1652 7.238,1.8142 7.3058,0.3038 7.302,-1.0584 6.9333,-2.4079 z"
         style="display:inline;overflow:visible;visibility:visible;fill:#ffffff;fill-opacity:1;fill-rule:evenodd;stroke:none;stroke-width:9.9998951;stroke-linecap:round;stroke-linejoin:round;stroke-miterlimit:4;stroke-dasharray:none;stroke-dashoffset:0;stroke-opacity:1;marker:none;enable-background:accumulate" />
    </mask>
    <mask
       id="mask2314"
       maskUnits="userSpaceOnUse">
      <path
         inkscape:connector-curvature="0"
         sodipodi:nodetypes="ccccccccccc"
         id="path2316"
         d="m -1868.9759,3355.7772 h -288.3976 v 59.668 h 119.3385 v 59.6685 h 59.668 v -59.6685 h 49.7232 v 99.4479 h 59.6679 z"
         style="display:inline;overflow:visible;visibility:visible;fill:#ffffff;fill-opacity:1;fill-rule:evenodd;stroke:none;stroke-width:9.99989414;stroke-linecap:butt;stroke-linejoin:miter;stroke-miterlimit:4;stroke-dasharray:none;stroke-dashoffset:0;stroke-opacity:1;marker:none;enable-background:accumulate" />
    </mask>
  </defs>
  <sodipodi:namedview
     id="base"
     pagecolor="#ffffff"
     bordercolor="#666666"
     borderopacity="1.0"
     inkscape:pageopacity="0.0"
     inkscape:pageshadow="2"
     inkscape:zoom="15.839192"
     inkscape:cx="18.340582"
     inkscape:cy="35.828848"
     inkscape:document-units="px"
     inkscape:current-layer="layer1"
     showgrid="false"
     inkscape:window-width="3836"
     inkscape:window-height="2093"
     inkscape:window-x="0"
     inkscape:window-y="32"
     inkscape:window-maximized="1"
     units="px"
     inkscape:showpageshadow="2"
     inkscape:pagecheckerboard="0"
     inkscape:deskcolor="#d1d1d1" />
  <metadata
     id="metadata5">
    <rdf:RDF>
      <cc:Work
         rdf:about="">
        <dc:format>image/svg+xml</dc:format>
        <dc:type
           rdf:resource="http://purl.org/dc/dcmitype/StillImage" />
      </cc:Work>
    </rdf:RDF>
  </metadata>
  <g
     inkscape:label="Layer 1"
     inkscape:groupmode="layer"
     id="layer1"
     transform="translate(0,-280.06666)">
    <path
       style="fill:#cecece;stroke-width:0.264583;fill-opacity:1"
       id="path1"
       d="m 9.7275221,282.95038 c -0.015843,-0.17801 -0.011919,-0.35691 -0.025201,-0.53516 -5.4e-5,-0.0703 -0.013388,-0.13943 -0.019643,-0.20917 -0.0037,-0.0412 -0.00604,-0.0828 -0.00942,-0.1241 -0.012901,-0.0423 -0.00446,-0.0875 -0.012258,-0.13024 -0.00185,-0.0101 -0.00527,-0.0199 -0.00791,-0.0298 -0.018383,-0.032 -0.00257,-0.069 -0.00967,-0.10213 -0.00337,-0.0157 -0.010279,-0.0305 -0.014587,-0.046 -0.00418,-0.0106 -0.00919,-0.0208 -0.012546,-0.0317 -0.00324,-0.0104 -0.0041,-0.0215 -0.00719,-0.032 -0.010306,-0.0349 -0.027067,-0.0667 -0.026857,-0.10415 6.03e-5,-0.0108 0.00272,-0.0215 0.00408,-0.0322 0.00389,-0.0268 0.00198,-0.0547 0.00888,-0.0812 0.00148,-0.006 0.00532,-0.0107 0.00631,-0.0165 0.00738,-0.0434 -0.00802,0.005 0.00235,-0.0248 0.00193,-0.0113 0.0066,-0.035 0.0038,-0.0436 -0.00289,-0.009 -0.00973,-0.0171 -0.017817,-0.0219 -0.4144908,-0.24572 -0.4985227,-0.3695 -0.8243867,-0.44142 -0.1492983,-0.0248 -0.3010347,-0.0176 -0.4512011,-0.007 -0.1536936,0.0127 -0.306328,0.0349 -0.4594974,0.0527 -0.097079,0.0158 -0.1958909,0.0207 -0.2925519,0.0393 -0.051094,0.01 -0.1015148,0.0229 -0.1523471,0.034 -0.088924,0.0139 -0.1725036,0.0494 -0.2608607,0.0653 -0.046525,0.008 -0.051697,0.007 -0.096993,0.009 -0.018063,0.005 -0.037617,-6.7e-4 -0.055815,0.003 -0.00909,0.002 -0.029818,0.0167 -0.038254,0.0214 -0.047049,-0.005 -0.031045,0.0589 -0.028003,0.0828 0.00188,0.0147 0.00323,0.0296 0.00484,0.0443 0.018484,0.13854 0.050493,0.27467 0.075225,0.41212 0.015801,0.092 0.040744,0.18235 0.055201,0.27456 0.00367,0.0234 0.011189,0.1094 0.013451,0.1341 0.015415,0.10339 0.027853,0.20727 0.036599,0.31145 0.00476,0.0467 0.010766,0.0928 0.01419,0.13964 3.175e-4,0.007 3.44e-4,0.0131 9.525e-4,0.0197 0.00122,0.0136 0.00457,0.0267 0.00752,0.04 3.969e-4,0.002 2.574e-4,0.007 0.00146,0.005 0.00204,-0.002 0.00127,-0.006 0.0019,-0.009 0.00209,-0.005 0.016026,-0.0315 0.010491,-0.0406 -0.00736,-0.0122 -0.078805,0.004 -0.089323,0.006 -0.1100582,0.0166 -0.2203215,0.0323 -0.3304273,0.0489 -0.094402,0.0146 -0.1899158,0.0212 -0.2840037,0.038 -0.025326,0.005 -0.1071216,0.0224 -0.1326494,0.0279 -0.1168374,0.0269 -0.2296983,0.0685 -0.342491,0.10871 -0.083155,0.0346 -0.1641356,0.0749 -0.2390129,0.12507 -0.092384,0.0604 -0.1787965,0.12913 -0.2669583,0.19538 -0.095869,0.0741 -0.1774343,0.16421 -0.2709505,0.24105 -0.015727,0.021 -0.043655,0.0299 -0.059483,0.0507 -0.00225,0.003 -0.00114,0.008 -0.0041,0.0103 -0.00725,0.005 0.00146,-0.0182 0.00422,-0.0268 -0.00138,-0.008 3.969e-4,-0.017 -0.00411,-0.0235 -0.0056,-0.008 -0.016013,-0.0115 -0.024019,-0.0172 0.2648752,0.15231 0.5295398,0.30499 0.7946256,0.45693 0.014676,0.008 -0.029291,-0.017 -0.043386,-0.0263 -0.04242,-0.0281 -0.058687,-0.0428 -0.09875,-0.0749 -0.085484,-0.074 -0.1667471,-0.1524 -0.2581582,-0.21913 -0.091861,-0.0574 -0.1843085,-0.11383 -0.2764523,-0.17077 -0.067469,-0.0397 -0.1324237,-0.0833 -0.1937898,-0.13189 -0.080993,-0.0602 -0.166079,-0.11471 -0.2492793,-0.17184 -0.3015578,-0.23279 -0.4280734,-0.26824 -0.9083107,-0.54474 -0.00894,0.004 -0.018362,0.006 -0.02682,0.0105 -0.01859,0.01 -0.040541,0.0292 -0.056321,0.0424 -0.047579,0.0399 -0.087685,0.0847 -0.1293942,0.13064 -0.014811,0.0256 -0.02694,0.053 -0.044437,0.0769 -0.018373,0.0251 -0.042133,0.0457 -0.062572,0.0691 -0.069667,0.0798 -0.1370325,0.16192 -0.2032707,0.24459 -0.042162,0.0574 -0.077381,0.11898 -0.1132686,0.1803 -0.032744,0.068 -0.072657,0.13211 -0.1121492,0.19628 -0.0443,0.0639 -0.071483,0.10962 -0.047064,0.1873 0.00324,0.0142 0.018134,0.0204 0.02431,0.0324 0.00266,0.005 -0.009,0.007 -0.012637,0.012 -0.013047,0.0163 -0.011504,0.0149 -0.014383,0.0299 0.010237,0.0113 0.0013,-0.003 0.00706,-0.009 -0.014936,0.0342 -0.037576,0.0649 -0.061772,0.0935 -0.037297,0.0424 -0.020495,0.0299 -6.086e-4,0.0752 0.00657,0.015 0.00164,0.0315 0.00159,0.0469 0.00902,0.008 -0.00998,0.0271 -6.879e-4,0.033 0.129998,0.0825 0.2650059,0.15701 0.4006223,0.2299 0.00898,0.005 0.020376,8.8e-4 0.030523,0.002 0.0151,10e-4 0.030334,0.002 0.045182,0.005 0.02509,0.005 0.04958,0.013 0.07437,0.0195 0.019889,0.002 0.11771,0.0134 0.1347984,0.0184 0.037465,0.0109 0.073178,0.0272 0.1093703,0.0418 0.1167566,0.0471 0.2290725,0.10366 0.3437588,0.15547 0.080815,0.0331 0.157834,0.0749 0.2382798,0.10878 0.07305,0.0308 0.02364,10e-4 0.1042469,0.0453 0.031589,0.0172 0.062304,0.036 0.093455,0.054 0.061074,0.0356 0.135051,0.0803 0.1992384,0.11204 0.021061,0.0104 0.043157,0.0186 0.064713,0.028 0.056222,0.0244 0.1116626,0.0495 0.1665404,0.0768 0.034627,0.0254 0.081411,0.0305 0.1150403,0.0568 0.1799757,0.21216 0.00702,0.008 -0.7079689,-0.40859 -0.00367,-0.002 0.00788,0.003 0.011679,0.005 0.011168,0.006 0.021466,0.0121 0.029692,0.0215 -0.00243,0.005 -0.00204,0.007 0.00156,0.012 0.0054,0.007 0.00225,-0.0173 0.00282,-0.026 6.615e-4,-0.0102 6.35e-4,-0.0204 9.261e-4,-0.0306 -0.00377,-0.005 -0.0055,-0.0126 -0.011306,-0.0136 -0.024463,-0.004 -0.061243,0.0492 -0.074138,0.0641 -0.025823,0.03 -0.051215,0.0603 -0.076987,0.0903 -0.1329526,0.17156 -0.2879021,0.32493 -0.4408111,0.47851 -0.1340229,0.13267 -0.2631496,0.27024 -0.3987779,0.40125 -0.061264,0.0654 -0.061633,0.11078 -0.052005,0.19467 0.0113,0.12944 0.01369,0.25941 0.014891,0.38928 5.556e-4,0.0437 -0.00151,0.0874 -0.00153,0.13108 -1.54e-5,0.025 0.00153,0.046 -0.00588,0.0699 -0.00193,0.003 -0.00401,0.007 -0.00579,0.01 -0.00122,0.002 -8.466e-4,0.006 -0.0032,0.007 -0.00816,0.004 -0.031962,-0.008 -0.033859,-0.008 -0.00259,-9.8e-4 -0.00768,-1.3e-4 -0.00779,-0.003 -2.911e-4,-0.007 0.00457,-0.0128 0.00686,-0.0192 0.00262,-0.007 0.00763,-0.0141 0.00785,-0.0219 2.286e-4,-0.008 -0.00445,-0.0157 -0.00657,-0.0236 -0.00114,-0.004 -0.00146,-0.009 -0.00323,-0.0129 -5.292e-4,-0.001 -0.00447,-0.003 -0.00333,-0.002 1.0393836,0.64085 0.8468633,0.99642 1.0430873,0.61835 0.00738,-0.0219 0.035229,-0.033 0.042694,-0.0545 0.00516,-0.0149 -0.00506,-0.0208 0.00858,-0.0309 -0.1671878,-0.34858 -0.019251,-0.0458 -0.9576514,-0.60295 -0.00793,-0.005 -0.017214,0.007 -0.025702,0.0103 -0.04437,0.0189 -0.088571,0.0326 -0.1349801,0.0461 -0.1194975,0.0369 -0.2458406,0.0309 -0.3693475,0.0288 -0.1228284,-0.006 -0.2457009,0.005 -0.3682356,0.0121 -0.048765,0.007 -0.097455,0.0147 -0.1458969,0.0238 -0.013836,0.003 -0.028161,0.003 -0.041452,0.008 -0.078267,0.0273 0.032698,0.006 -0.053423,0.0195 -0.057605,0.004 -0.1152231,0.007 -0.172887,0.011 -0.068758,0.007 -0.1377691,6.4e-4 -0.2065837,10e-4 -0.020758,1.5e-4 -0.041455,0.002 -0.062196,0.003 0.00348,0.005 -0.025016,-0.002 -0.025438,0.007 -2.421e-4,0.005 0.00651,0.008 0.00712,0.0134 3.784e-4,0.003 -0.0026,0.006 -0.00449,0.008 -0.00666,0.009 -0.01518,0.0165 -0.021079,0.026 -0.00879,0.0141 -0.015165,0.0296 -0.022748,0.0444 -0.013927,0.0288 0.011931,0.0224 0.020726,0.045 0.00312,0.008 0.00373,0.0168 0.0056,0.0252 0.016725,0.0611 0.015567,0.12462 0.022328,0.18693 0.00321,0.0296 0.00972,0.0587 0.012713,0.0883 0.00773,0.0765 0.00536,0.10714 0.00468,0.18387 0.00549,0.0583 0.00336,0.11705 0.00721,0.17546 0.0017,0.0257 0.0064,0.0512 0.00767,0.077 0.00105,0.0212 -7.991e-4,0.0424 -7.197e-4,0.0636 3.916e-4,0.10794 0.00331,0.0174 -0.0017,0.12381 -0.00165,0.0627 -0.012577,0.1255 -0.00955,0.18833 0.0027,0.056 0.00522,0.007 9.102e-4,0.0576 -0.010783,0.0324 -0.013826,0.0661 -0.00925,0.0999 0.00679,0.0503 0.0071,0.006 0.00456,0.0522 -0.010176,0.0365 0.023315,0.0593 0.036499,0.0901 0.00254,0.006 0.0033,0.0126 0.0038,0.019 4.207e-4,0.006 -0.00575,0.0136 -0.00107,0.0165 0.2034367,0.1275 0.4119453,0.24671 0.617918,0.37007 0.050378,0.007 0.1005848,-0.003 0.1508768,-0.005 0.029065,-6.6e-4 0.058148,0.002 0.087212,9e-4 0.086528,-0.002 0.1426165,-0.009 0.2297213,-0.0164 0.1613902,-0.0171 0.3229636,-0.0341 0.4838898,-0.0553 0.1408737,-0.0186 0.032872,-0.008 0.1640099,-0.0188 0.064224,0.003 0.1253684,-0.0226 0.1890491,-0.0227 0.028398,-5e-5 0.056727,0.003 0.085124,0.003 0.062898,0.009 0.1243245,0.0265 0.1858793,0.042 0.0037,0.002 0.0074,0.003 0.011097,0.005 5.292e-4,-4.5e-4 -0.0013,-0.004 -1.86e-4,-0.004 0.010692,0.006 0.018489,0.015 0.029832,0.0206 0.024553,0.006 0.048361,-0.005 0.072574,-0.008 0.040685,-0.006 0.0027,0.002 0.041912,-0.007 0.0083,-0.004 0.054164,-0.006 0.057419,-0.0144 0.00143,-0.004 -0.00677,-0.0216 -0.00751,-0.0235 -0.00587,-0.0164 0.021709,-0.0106 0.028268,-0.004 0.00183,0.002 0.00212,0.005 0.00318,0.007 -0.1134134,-0.0701 -0.2229469,-0.15697 -0.3299701,-0.23613 0,0 -0.031886,-0.0242 -0.031886,-0.0242 v 0 c -0.095611,-0.0703 -0.2145593,-0.15969 -0.3144874,-0.22665 -0.00668,-0.004 -0.014682,-0.007 -0.022024,-0.01 -0.00206,0.0166 0.012613,0.0255 -0.020817,0.0138 -0.013277,-0.005 -0.035108,-0.0134 -0.049162,-0.0158 -0.019196,-0.003 -0.037566,0.008 -0.056797,0.004 -0.040206,-9.5e-4 -0.056913,1.1e-4 -0.087984,-0.0281 -0.010568,-0.005 -0.02014,-0.004 -0.030566,-0.008 -0.014973,-0.005 -0.027689,-0.0172 -0.044671,-0.016 -0.063789,-0.0148 -0.1279464,-0.0158 -0.1929966,-0.007 -0.011946,0.003 -0.024458,0.004 -0.03584,0.008 -0.082795,0.0333 0.036072,4e-4 -0.055684,0.0287 -0.039878,0.0123 -0.082893,0.0153 -0.1202015,0.0361 -0.1819625,0.0693 -0.3869468,0.0876 -0.5787158,0.11141 -0.035634,0.003 -0.1823231,0.0145 -0.2230844,0.0194 -0.023562,0.003 -0.046713,0.009 -0.070276,0.0115 -0.038646,0.005 -0.077595,0.004 -0.1163505,0.006 0.1905825,0.12037 0.381165,0.24074 0.5717475,0.36112 -0.0054,-0.005 -0.011657,-0.008 -0.00194,-0.0177 0.010954,-0.0109 0.032801,-0.007 0.042312,-0.0191 0.00482,-0.006 0.00132,-0.0156 0.00197,-0.0235 0.00103,-0.007 6.085e-4,-0.0153 0.00308,-0.0225 0.00221,-0.006 0.00766,-0.0112 0.010664,-0.0173 0.013904,-0.0281 0.019799,-0.0586 0.020878,-0.0897 0.00949,-0.0368 0.00344,-0.0182 0.018603,-0.0557 0.016772,-0.0615 0.00344,-0.12812 0.011546,-0.19061 0.00201,-0.0415 0.00685,-0.0827 0.00871,-0.12421 9.789e-4,-0.0219 -8.467e-4,-0.044 3.3e-5,-0.0659 9.79e-4,-0.0239 0.00495,-0.0477 0.00552,-0.0716 1.747e-4,-0.007 -0.00399,-0.17346 -0.00404,-0.17558 -0.00766,-0.0793 -0.012083,-0.11446 -0.01579,-0.19333 -0.0013,-0.0279 -2.252e-4,-0.0558 -0.00214,-0.0836 -0.00412,-0.0599 -0.016354,-0.11931 -0.00679,-0.17965 -7.75e-5,-0.0116 -2.911e-4,-0.0233 -2.323e-4,-0.0349 8.86e-5,-0.0184 0.00751,-0.0691 -0.02531,-0.0596 -0.00836,0.0127 -0.016298,0.0256 -0.025079,0.038 -0.00554,0.008 -0.014557,0.0135 -0.017832,0.0225 -0.00114,0.003 0.00421,0.005 0.00706,0.007 0.024038,0.0143 0.048485,0.0207 0.076166,0.023 0.1010531,0.008 0.2022959,0.0108 0.3036811,0.0139 0.064313,9e-5 0.1289224,0.003 0.1914517,-0.0152 0.057531,-0.0113 -0.00641,-10e-4 0.072748,-0.003 0.013975,-2.6e-4 0.027773,-0.003 0.041702,-0.004 0.053333,-0.004 0.1069023,-0.006 0.1603957,-0.007 0.1213263,-0.01 0.2426745,-0.008 0.36423,-0.004 0.041974,2.5e-4 0.087746,10e-4 0.1296651,-0.001 0.091488,-0.005 0.1804789,-0.0277 0.271226,-0.0388 0.5435383,-0.11828 0.1510591,-0.10422 -0.7316338,-0.66251 -0.019137,0.0192 -0.020931,0.009 -0.043343,0.0192 -0.023119,0.0106 -0.035478,0.039 -0.058799,0.0495 -0.3432791,0.26809 -0.036261,0.0154 0.9821942,0.6899 8.467e-4,5.6e-4 -4.762e-4,-0.002 -4.762e-4,-0.003 -5.4e-5,-0.005 7.144e-4,-0.009 2.91e-4,-0.0139 -7.937e-4,-0.008 -0.00491,-0.0165 -0.00396,-0.0249 9.525e-4,-0.008 0.00628,-0.0156 0.00941,-0.0234 0.00268,-0.007 0.00794,-0.0142 0.00804,-0.022 4.97e-5,-0.004 -0.035027,-0.0258 -0.041652,-0.0369 -0.00214,-0.004 -0.00228,-0.008 -0.00366,-0.0121 -0.00209,-0.006 -0.00451,-0.0118 -0.00676,-0.0177 -0.02137,-0.0693 -0.013176,-0.14468 -0.024209,-0.21581 -0.00804,-0.12768 -0.013264,-0.25559 -0.00407,-0.38338 6.615e-4,-0.0122 0.00185,-0.0245 0.00196,-0.0367 1.365e-4,-0.015 -0.00653,-0.0347 -0.00448,-0.0496 0.00185,-0.0134 0.015206,-0.0389 0.019579,-0.0484 0.021151,-0.0385 0.032252,-0.0609 0.058802,-0.0985 0.082641,-0.11709 0.1836052,-0.22066 0.2812135,-0.32495 0.031505,-0.0327 0.062486,-0.0659 0.094514,-0.098 0.1243727,-0.12487 0.2582217,-0.2406 0.3726386,-0.3752 0.027494,-0.0362 0.04225,-0.0566 0.070057,-0.09 0.00795,-0.01 0.015962,-0.0191 0.024461,-0.0282 0.00495,-0.005 0.012287,-0.009 0.015825,-0.0149 0.00523,-0.009 -0.017817,-0.0239 -4.79e-5,-0.0321 0.00731,-0.0466 0.021339,-0.065 -0.016269,-0.0945 -0.00662,-0.0112 -0.00585,-0.0213 -0.012764,-0.0328 -0.1545323,-0.25677 -0.4894551,-0.36157 -0.7711088,-0.4591 -0.020275,0.005 -0.040627,-0.0164 -0.061981,-0.011 -0.083254,-0.0107 -0.1524529,-0.0688 -0.2372916,-0.0713 -0.013345,-0.004 -0.027234,-0.006 -0.04004,-0.0117 -0.038763,-0.0164 -0.1162106,-0.0625 -0.1483292,-0.0793 -0.08476,-0.0446 -0.1728962,-0.0826 -0.2595956,-0.12308 -0.1019014,-0.0421 -0.080683,-0.0384 -0.178212,-0.0618 -0.025704,-0.006 -0.051705,-0.0111 -0.077558,-0.0166 -0.024109,-0.004 -0.048594,-0.005 -0.072326,-0.0107 -0.033433,-0.008 -0.065837,-0.0195 -0.098755,-0.0293 -0.028176,-0.006 -0.056352,-0.0126 -0.084528,-0.0189 -0.035243,0.005 -0.045803,0.007 -0.07916,0.009 -0.00736,4e-4 -0.028261,-0.004 -0.022098,2e-4 0.1203748,0.0788 0.2451351,0.15076 0.3677028,0.22614 -0.00135,0.005 -0.00528,0.0107 -0.00402,0.0161 5.821e-4,0.003 0.00524,2.9e-4 0.00786,4.5e-4 0.01665,-0.004 0.031761,-0.0118 0.049387,-0.0119 0.053932,-4e-4 0.050232,0.0168 0.083433,-0.0278 0.019682,-0.0267 0.038188,-0.0539 0.056678,-0.0814 0.0047,-0.007 0.01053,-0.0133 0.014303,-0.0209 0.00411,-0.008 0.0061,-0.0174 0.00915,-0.026 0.00449,-0.0281 -5.292e-4,-0.0329 -0.00793,-0.0576 -1.833e-4,-6.1e-4 7.144e-4,0.001 0.00106,0.002 -0.00561,0.008 -0.012861,0.018 -0.019394,0.0237 -0.0043,0.004 -0.031785,7.4e-4 0.010967,0.004 0.00701,5.1e-4 0.014041,-3.4e-4 0.021061,-5e-4 0.075155,-0.007 0.1127816,-0.0587 0.1497708,-0.11941 0.043396,-0.0646 0.080661,-0.13288 0.1235753,-0.1978 0.02885,-0.0607 0.058543,-0.12158 0.098273,-0.17609 0.054924,-0.0865 0.1134685,-0.16794 0.185175,-0.24161 0.021328,-0.0219 0.041263,-0.0457 0.065786,-0.0639 0.025993,-0.0194 0.056357,-0.032 0.084536,-0.048 0.028225,-0.0202 0.1309108,-0.10109 0.1722864,-0.096 0.012906,0.002 0.013314,0.0118 0.016311,0.0209 -1.3593718,-0.7884 -0.8907619,-0.5428 -0.6149988,-0.34052 0.064505,0.0483 0.1302909,0.0948 0.1931125,0.14535 0.059222,0.0457 0.1135007,0.098 0.1782776,0.13636 0.089652,0.057 0.1783836,0.11559 0.2713027,0.16723 0.01578,0.009 0.03202,0.017 0.047339,0.0267 0.080957,0.051 0.1476624,0.12087 0.2199979,0.18262 0.3296145,0.29951 0.2897105,0.21114 0.9866056,0.60895 0.00965,0.006 0.02022,0.0108 0.031314,0.0114 0.011761,6.4e-4 0.022953,-0.005 0.034428,-0.008 0.00778,-0.008 0.016071,-0.0145 0.02335,-0.0225 0.00383,-0.004 0.00571,-0.01 0.00985,-0.0139 0.00313,-0.003 0.00811,-0.003 0.011382,-0.006 0.018301,-0.0155 0.025723,-0.042 0.044986,-0.0568 0.072112,-0.0908 0.1626973,-0.1646 0.2523638,-0.23738 0.085276,-0.0668 0.1755717,-0.12666 0.267353,-0.18416 0.072131,-0.0417 0.1431163,-0.0855 0.2193679,-0.11958 0.096758,-0.0476 0.1958475,-0.0913 0.3006098,-0.11829 0.1290101,-0.0322 0.2608162,-0.0511 0.3913111,-0.0763 0.1084091,-0.019 0.217138,-0.0359 0.325565,-0.0547 0.076967,-0.0121 0.066855,-0.009 0.1017548,-0.0767 0.00469,-0.0262 -3.175e-4,-0.0515 -0.00775,-0.0771 -0.00771,-0.0477 -0.00705,-0.0962 -0.019394,-0.14322 -0.017632,-0.10697 -0.034878,-0.21397 -0.051173,-0.32115 -0.00582,-0.0274 -0.024942,-0.11567 -0.029201,-0.14245 -0.00371,-0.0233 -0.00487,-0.047 -0.00837,-0.0704 -0.010213,-0.0682 -0.024188,-0.13617 -0.03876,-0.20358 -0.028875,-0.13036 -0.049205,-0.26246 -0.060361,-0.39556 -0.00529,-0.0654 -0.00265,-0.0199 -0.00368,-0.0687 -1.807e-4,-0.009 9.79e-4,-0.0212 -0.00571,-0.0156 -0.026138,0.0217 -0.00706,0.0236 -0.027997,0.018 -0.033873,0.0159 0.053779,-0.002 0.053662,-0.009 0.1183198,-0.0472 0.24994,-0.0347 0.3724931,-0.0653 0.1494716,-0.0268 0.3003289,-0.0441 0.4511419,-0.0615 0.1521939,-0.0191 0.3044973,-0.036 0.4574355,-0.0481 0.1492525,-0.006 0.3007262,-0.007 0.4454877,0.0355 0.017375,0.006 0.035089,0.011 0.052129,0.0178 0.013113,0.005 0.050345,0.0256 0.038166,0.0184 -0.2198839,-0.12926 -0.4409292,-0.25654 -0.6613941,-0.3848 0.00665,0.001 0.013166,0.005 0.01995,0.004 0.035809,-0.003 0.011314,-0.0123 0.028443,-0.004 0.014113,0.0398 -0.00449,-0.0167 0.00465,0.0261 0.00161,0.008 0.00554,0.0145 0.00734,0.022 0.00758,0.0316 0.00546,0.0646 0.012126,0.0963 0.00681,0.0337 0.010819,0.0483 0.013774,0.0818 0.00188,0.0213 -3.7e-6,0.0428 0.00254,0.064 0.00122,0.0101 0.00523,0.0198 0.00606,0.03 6.614e-4,0.008 -0.00108,0.0161 -0.00161,0.0242 8.996e-4,0.0118 -0.00127,0.0237 -1.944e-4,0.0354 0.00292,0.0319 0.025654,0.0602 0.011287,0.0933 -0.013232,0.0525 0.00138,0.1071 0.00249,0.16053 0.023461,0.11693 0.059605,0.23114 0.072993,0.35013 0.017973,0.17568 0.03655,0.35264 0.025596,0.5294 z" />
    <path
       style="fill:#cecece;stroke-width:0.264583;fill-opacity:1"
       id="path2"
       d="m 3.5244991,287.67227 c 0.0014,0.0711 0.01728,0.14101 0.017235,0.21222 -1.59e-5,0.0256 -0.00416,0.051 -0.00521,0.0765 -0.00337,0.0821 -0.00106,0.0808 0.0047,0.16492 0.00837,0.16374 0.023027,0.32693 0.032965,0.49055 0.00837,0.14946 0.012065,0.29917 0.022011,0.44854 0.014425,0.1597 0.039942,0.31773 0.069644,0.47517 0.018709,0.0982 0.045769,0.19443 0.082291,0.28743 0.03242,0.073 0.065813,0.14555 0.098167,0.21857 0.019709,0.0427 0.039847,0.0848 0.055784,0.12901 0.00513,0.0191 0.011398,10e-4 0.017174,-0.01 0.016362,-0.0309 0.00718,-0.0117 0.016989,-0.0329 -0.00111,-0.008 0.025426,-0.0355 0.025164,-0.0405 -8.731e-4,-0.0168 -0.041518,0.003 -0.046112,0.005 -0.00937,0.004 -0.019248,0.008 -0.028111,0.0129 -0.016304,0.01 -0.030856,0.0222 -0.047162,0.0319 -0.095148,0.0567 -0.1980996,0.10235 -0.2983465,0.14902 -0.096096,0.0494 -0.1970411,0.09 -0.2905242,0.14446 -0.1469435,0.0856 0.027672,-0.008 -0.1223804,0.0706 -0.089719,0.0419 -0.1700257,0.10084 -0.2584741,0.1448 -0.044622,0.0249 -0.09392,0.0369 -0.1417039,0.0529 -0.022209,0.001 -0.040527,0.023 -0.062331,0.0242 -0.00486,2.7e-4 -0.00961,-0.002 -0.014475,-0.002 -0.02478,0.0111 -0.03654,0.033 -0.041065,0.0589 0.011681,0.0116 0.00578,0.0577 0.010466,0.069 0.011693,0.0283 0.07089,0.0645 0.094209,0.0823 0.1093666,0.0815 0.1963407,0.18506 0.2721925,0.29735 0.09013,0.13506 0.1648614,0.27962 0.2383629,0.42418 0.059393,0.11809 0.1169345,0.23709 0.1762744,0.35521 0.029549,0.0696 0.068509,0.13384 0.1073663,0.19838 0.039387,0.0547 0.082493,0.1073 0.1159815,0.16594 0.00813,0.017 0.024731,0.0304 0.031165,0.0484 0.00106,0.003 -0.00183,0.008 9.525e-4,0.009 0.8328819,0.45702 0.5929713,0.65215 0.8575348,0.41851 0.095734,-0.0888 0.1974109,-0.17094 0.2991347,-0.2527 0.1166064,-0.0947 0.2432939,-0.17547 0.3635799,-0.26518 0.082094,-0.0622 0.1628121,-0.12659 0.2350336,-0.20015 0.058347,-0.0587 0.11679,-0.1174 0.1780016,-0.17315 0.044315,-0.0444 0.096651,-0.0752 0.151592,-0.10383 0.00644,-0.007 0.044156,-0.0157 0.04897,-0.0217 0.00161,-0.002 2.317e-4,-0.005 3.439e-4,-0.008 -0.00715,-0.008 0.012282,-0.014 0.011271,-0.0161 -0.00271,-0.006 -0.00789,-0.01 -0.012949,-0.0136 -0.02404,-0.0175 -0.049405,-0.0331 -0.074044,-0.0498 -0.073611,-0.0498 -0.1471388,-0.0997 -0.220708,-0.14959 -0.017272,-0.0126 -0.034546,-0.0252 -0.051819,-0.0378 0,0 -0.033729,-0.0215 -0.033729,-0.0215 v 0 c -0.019031,-0.0114 -0.03806,-0.0227 -0.057091,-0.0341 -0.075143,-0.049 -0.1498832,-0.0987 -0.2254303,-0.14708 -0.031998,-0.0205 -0.062778,-0.0441 -0.098165,-0.058 -0.00702,-0.003 -0.018434,0.008 -0.025241,-3.9e-4 -0.0059,-1.6e-4 -0.011893,-10e-4 -0.017711,-4.8e-4 -0.00415,7.1e-4 -0.00752,0.004 -0.011374,0.006 -0.020151,0.009 -0.036618,0.0205 -0.052104,0.0365 -0.0156,0.0174 -0.026926,0.0366 -0.041348,0.0548 -0.022834,0.0289 -0.050654,0.0531 -0.076201,0.0795 -0.060798,0.0581 -0.1232267,0.11445 -0.1800899,0.17648 -0.068695,0.0696 -0.1386623,0.13728 -0.2178617,0.19525 -0.1190069,0.0919 -0.2415524,0.17886 -0.3609141,0.27021 -0.039824,0.0324 -0.080041,0.0644 -0.1197848,0.0969 -0.048204,0.0394 -0.095259,0.0823 -0.1489081,0.1145 -0.011988,0.007 -0.025067,0.0124 -0.0376,0.0186 -0.3237966,0.0421 -0.029313,-7.4e-4 0.7691892,0.45732 0.0033,0.002 -0.0071,-0.003 -0.00969,-0.006 -0.012904,-0.0138 -0.015182,-0.0359 -0.027197,-0.0503 -0.04184,-0.0612 -0.085727,-0.12056 -0.1320467,-0.17846 -0.047126,-0.0571 -0.086271,-0.11936 -0.117534,-0.18663 -0.057569,-0.12072 -0.1180145,-0.23995 -0.1797177,-0.35863 -0.075332,-0.14533 -0.1537293,-0.28882 -0.2336107,-0.4317 -0.07157,-0.11623 -0.148541,-0.22964 -0.2520815,-0.32023 -0.022331,-0.019 -0.098934,-0.0894 -0.1333042,-0.081 -0.011583,0.003 -0.00122,0.0207 -2.339e-4,0.0233 -7.144e-4,0.004 -6.085e-4,0.008 -0.00214,0.0121 -0.00214,0.005 -0.013719,0.016 -0.00907,0.0221 0.0244,-0.0114 0.047169,-0.0268 0.07433,-0.0325 0.050509,-0.0164 0.095663,-0.0466 0.1424575,-0.0712 0.085669,-0.0488 0.1715797,-0.0972 0.2582643,-0.1442 0.1576319,-0.0832 -0.040209,0.0191 0.1337742,-0.0637 0.096101,-0.0457 0.18748,-0.10174 0.2864831,-0.14165 0.065292,-0.0309 0.093844,-0.0453 0.1608357,-0.0733 0.064263,-0.0269 0.1343676,-0.0616 0.2057255,-0.0623 0.0065,-7e-5 0.012541,0.003 0.018809,0.005 0.010057,0.008 0.010562,0.006 0.012891,0.0179 2.646e-4,0.001 -0.00259,-0.003 -0.00196,-0.004 0.00691,-0.0142 0.022315,-0.025 0.027474,-0.0405 0.012123,-0.0224 0.041967,-0.0547 0.024394,-0.079 -0.027422,-0.0427 -0.04668,-0.0894 -0.070032,-0.13443 -0.03831,-0.0721 -0.075899,-0.14471 -0.1091959,-0.21933 -0.043387,-0.0896 -0.078639,-0.1822 -0.102775,-0.27897 -0.042674,-0.15155 -0.069431,-0.30744 -0.0829,-0.46431 -0.00694,-0.15043 -0.014282,-0.30085 -0.024577,-0.45108 -0.012687,-0.16371 -0.027028,-0.32726 -0.03466,-0.49131 -0.00633,-0.0929 -0.00317,-0.0793 -0.018436,-0.17159 -0.00483,-0.0292 -0.012253,-0.0579 -0.016031,-0.0872 -0.00815,-0.0632 -0.00391,-0.0882 -0.00661,-0.15027 -8.731e-4,-0.0202 -0.00301,-0.0404 -0.00451,-0.0605 z" />
    <path
       style="fill:#cecece;stroke-width:0.264583;fill-opacity:1"
       id="path3"
       d="m 4.9425882,291.50241 c 0.087775,0.15345 0.2022372,0.28783 0.3198879,0.41876 0.1193194,0.13616 0.2706706,0.23543 0.4226319,0.33092 0.1731619,0.10674 0.3427262,0.2191 0.5154187,0.32659 0.3359722,0.20499 0.1557457,0.0959 0.8935906,0.51711 0.071347,0.0407 0.1474665,0.0747 0.223216,0.10636 0.044197,0.0214 0.092802,0.0208 0.1399606,0.0287 0.047808,0.0135 0.093446,0.0334 0.1398177,0.051 0.00326,0.002 0.035891,0.0111 0.031867,0.0171 -0.3176257,0.0716 0.020227,-0.004 -0.7755004,-0.58114 -0.00528,-0.004 -0.012359,0.005 -0.017547,0.009 -0.00876,0.007 -0.015685,0.0154 -0.023831,0.0228 -0.079931,0.0725 0.034764,-0.0351 -0.055718,0.0505 -0.1073645,0.11701 -0.1991138,0.24686 -0.2900889,0.37666 -0.088186,0.12752 -0.1756672,0.2555 -0.2636044,0.3832 -0.053739,0.0832 -0.1106411,0.16401 -0.170452,0.24296 -0.032681,0.0385 -0.060618,0.0802 -0.089139,0.12169 -0.018455,0.0289 -0.017849,0.0626 -0.031973,0.0931 -0.010419,0.0279 -0.014288,0.0744 -0.00431,0.10264 0.00272,0.008 0.00817,0.0141 0.012253,0.0212 0.2972427,0.27123 0.6900611,0.41448 1.0417474,0.607 -0.2420319,-0.13929 -0.4838859,-0.2789 -0.7260961,-0.41789 -0.022926,-0.0131 0.045609,0.0267 0.068241,0.0404 0.046792,0.0282 0.092186,0.0588 0.1394431,0.0862 0.2859127,0.16608 0.5721858,0.33155 0.8589812,0.4961 0.025442,0.0146 0.051793,0.0276 0.077689,0.0413 0.1607847,0.077 0.3191331,0.15891 0.4783535,0.23907 0.141356,0.0726 0.2840643,0.14241 0.4274167,0.21098 0.075824,0.0374 0.1522992,0.074 0.2253847,0.11658 0.048173,0.0308 0.019529,0.0182 0.073068,-0.0664 -0.00122,9.2e-4 -0.00321,0.004 -0.00366,0.003 -0.00384,-0.0126 0.030024,-0.0968 0.035296,-0.11138 0.035544,-0.0884 0.082282,-0.17181 0.1227828,-0.25805 0.054399,-0.12595 0.1154946,-0.24883 0.1724269,-0.3736 0.061689,-0.13258 0.1249034,-0.26445 0.1873869,-0.39666 0.04717,-0.0978 0.098377,-0.19379 0.1528342,-0.28774 0.00592,-0.0109 0.065307,-0.12077 0.064137,-0.12239 -0.034844,-0.0481 -0.086454,-0.0816 -0.1324449,-0.11922 -0.1936787,-0.15831 -0.1972718,-0.0636 -0.1857015,-0.16715 0,0 -0.034646,-0.02 -0.034646,-0.02 v 0 c -0.083364,0.062 -0.00451,0.0121 -0.2366716,-0.0781 -0.055737,-0.0216 -0.1104916,-0.0504 -0.1698331,-0.0577 -0.00344,-4.3e-4 -0.076707,0.10428 -0.08358,0.11471 -0.056245,0.0966 -0.1090761,0.19501 -0.1515197,0.29865 -0.058499,0.13309 -0.1118865,0.26876 -0.1803199,0.39718 -0.065079,0.12033 -0.1252003,0.243 -0.1858645,0.36556 -0.045721,0.0851 -0.093652,0.16897 -0.1399667,0.25376 -0.021085,0.0408 -0.039284,0.083 -0.063594,0.12206 0.048403,-0.0724 0.073677,-0.0666 0.025897,-0.0867 -0.06932,-0.0335 -0.1386477,-0.067 -0.2091976,-0.0979 -0.1419373,-0.067 -0.2813415,-0.1391 -0.4217866,-0.20911 -0.159313,-0.0801 -0.3197841,-0.15803 -0.4771575,-0.24188 -0.3035525,-0.16892 -0.1895044,-0.10602 0.6286963,0.36578 0.023836,0.0137 -0.047373,-0.028 -0.070753,-0.0425 -0.0081,-0.005 -0.1224277,-0.0788 -0.1316656,-0.0842 -0.283908,-0.16492 -0.5688682,-0.32801 -0.8533025,-0.49202 -0.037431,-0.02 -0.075163,-0.0395 -0.1123087,-0.06 -0.016055,-0.009 -0.0636,-0.0366 -0.04773,-0.0274 1.3070169,0.7578 0.9944664,0.55571 0.7134477,0.41743 -0.014801,-0.006 -0.019838,-0.01 -0.035393,-0.008 -0.018121,0.002 -0.00825,0.008 -0.011814,-0.018 0.00146,-0.0254 0.016867,-0.0452 0.026194,-0.0681 0.019616,-0.0425 0.051387,-0.0793 0.075207,-0.11937 0.056628,-0.0828 0.1141293,-0.16527 0.1642875,-0.25225 0.07892,-0.13139 0.1583557,-0.26267 0.2477611,-0.38729 0.089807,-0.12331 0.183157,-0.24636 0.3021301,-0.34338 0.00671,-0.005 0.033896,-0.0285 0.046207,-0.0309 0.00387,-7.4e-4 0.013097,0.007 0.016293,0.009 -0.7438684,-0.58222 -0.4285255,-0.58837 -0.7470714,-0.58127 -0.01619,0.002 -0.031913,-0.0113 -0.047807,-0.013 -0.041368,-0.0122 -0.083463,-0.0164 -0.1265309,-0.0177 -0.035924,-0.003 -0.067812,-0.0136 -0.1006903,-0.0292 -0.042609,-0.0174 -0.0839,-0.0371 -0.1249974,-0.0579 -0.02027,-0.0102 -0.080121,-0.0428 -0.060533,-0.0313 0.231598,0.13592 0.9462053,0.54839 0.5808208,0.33745 -0.1776262,-0.10758 -0.3512207,-0.22139 -0.5276395,-0.33089 -0.1554684,-0.0952 -0.3112831,-0.19219 -0.4450956,-0.31726 -0.1290847,-0.12721 -0.2482842,-0.26451 -0.3518321,-0.41348 z" />
    <path
       style="fill:#cecece;stroke-width:0.264583;fill-opacity:1"
       id="path4"
       d="m 9.0990912,293.88044 c 0.1447543,2.5e-4 0.290376,0.004 0.4345046,0.0187 0.025823,0.005 0.051528,0.0108 0.077471,0.0152 0.02064,0.004 0.041562,0.005 0.062224,0.009 0.079027,0.0129 0.1574858,0.0301 0.2359319,0.0461 0.1190403,0.0222 0.2400443,0.0203 0.3604923,0.018 0.145512,-0.0104 0.290395,-0.0271 0.436105,-0.0351 0.06905,0.003 0.137735,-0.007 0.206652,-0.008 0.06273,-0.001 0.124974,6.9e-4 0.187734,-0.002 0.03592,-0.004 0.07195,9.5e-4 0.107879,-4.5e-4 0.01501,-5.8e-4 0.03021,-10e-4 0.04486,-0.004 0.01017,-0.002 0.03494,-0.004 0.02874,-0.0123 -0.03318,-0.0449 -0.302635,-0.27753 -0.319108,-0.29205 0,0 -0.03286,-0.0228 -0.03286,-0.0228 v 0 c -0.08493,-0.0502 -0.169543,-0.10086 -0.254785,-0.15049 -0.06942,-0.0404 -0.136763,-0.0849 -0.209177,-0.11964 -0.04258,-0.0204 -0.149824,0.002 -0.198194,0.003 -0.0542,0.003 -0.06271,0.002 -0.116336,0.009 -0.01762,0.002 -0.035,0.006 -0.05265,0.008 -0.06462,0.007 -0.1302159,0.006 -0.1942347,0.0191 -0.142493,0.0156 -0.2851462,0.0342 -0.4287928,0.0322 -0.116786,0.001 -0.2326153,-0.01 -0.3477487,-0.0298 -0.1025589,-0.0117 -0.2099025,-0.0276 -0.3116721,-0.005 -0.040641,0.005 -0.081526,0.007 -0.1221499,0.0119 -0.077196,0.009 -0.1525627,0.0285 -0.2287632,0.043 z" />
    <path
       style="fill:#cecece;stroke-width:0.264583;fill-opacity:1"
       id="path5"
       d="m 10.425529,293.3997 c 0.04485,0.15302 0.08582,0.30693 0.119144,0.46289 0.03446,0.13817 0.04018,0.28112 0.07036,0.42005 0.01152,0.0635 0.02395,0.12872 0.04947,0.18824 0.02791,0.0558 0.05259,0.11359 0.08364,0.16774 0.03017,0.0524 0.05523,0.10648 0.067,0.16596 0.01093,0.0357 0.03375,0.0716 0.04463,0.10686 -0.0071,0.008 -0.0073,0.0203 0.0012,0.0272 0.01109,-0.0148 0.004,-0.004 0.005,0.003 0.002,0.013 0.0102,0.028 0.01698,0.039 0.0278,0.0312 0.02421,0.0219 -8.46e-4,0.0374 0.284975,0.15454 0.569951,0.30907 0.854927,0.46361 0.03443,-0.0208 0.07192,-0.0359 0.107125,-0.0552 0.01967,-0.0108 0.03833,-0.0234 0.05812,-0.034 0.05242,-0.0281 0.106214,-0.0536 0.159003,-0.081 0.170889,-0.0929 0.348734,-0.17165 0.526324,-0.25062 0.160782,-0.0648 0.32385,-0.12288 0.48784,-0.17899 0.08835,-0.0289 0.176839,-0.0581 0.266527,-0.0827 0.06462,-0.0177 0.02482,-0.003 0.07554,-0.0237 0.02692,-0.0189 0.05174,-0.005 0.08029,-0.004 0.0055,2.6e-4 0.01076,-0.002 0.0162,-0.003 0.01368,-0.003 0.03777,-0.009 0.04948,-0.0141 0.01125,-0.005 0.02081,-0.0134 0.0321,-0.0184 0.02764,-0.0121 0.05797,-0.0173 0.08576,-0.029 0.01366,-0.006 0.02638,-0.0136 0.03956,-0.0204 0.03559,-0.0295 0.08802,-0.042 0.118859,-0.0773 3.18e-4,-0.007 -0.0068,-0.0134 -0.0053,-0.0203 10e-4,-0.005 0.0056,-0.008 0.0084,-0.0119 0.0039,-0.0116 0.0098,-0.0227 0.01183,-0.0347 0.0053,-0.0315 -0.003,-0.0456 -0.01193,-0.0759 -0.0079,-0.0162 -0.01479,-0.0329 -0.02361,-0.0486 -0.04212,-0.075 -0.09393,-0.14535 -0.143623,-0.21537 -0.150858,-0.21258 0.03111,0.0453 -0.122349,-0.17251 -0.118192,-0.16714 -0.2381,-0.33296 -0.362791,-0.49532 -0.05762,-0.0805 -0.12502,-0.15394 -0.179748,-0.23649 -0.02569,-0.0339 -0.05191,-0.0663 -0.07197,-0.10394 -0.0036,10e-4 -0.0016,-0.0391 -0.0043,-0.0377 -0.0085,0.005 -0.02165,0.0443 -0.02163,0.0446 3.44e-4,0.005 0.0094,-0.001 0.01406,-0.002 0.01232,-0.005 0.02479,-0.009 0.03696,-0.0146 0.01874,-0.008 0.0369,-0.0175 0.05574,-0.0254 0.07859,-0.0329 0.160055,-0.0593 0.237923,-0.0939 0.03131,-0.0139 0.0617,-0.0299 0.09254,-0.0448 0.190495,-0.0844 0.366751,-0.19902 0.535324,-0.32077 0.121621,-0.0902 0.230007,-0.19649 0.329596,-0.31022 0.105741,-0.11326 0.188798,-0.24299 0.261514,-0.37911 0.01106,-0.0222 0.02267,-0.0441 0.03317,-0.0665 0.0098,-0.021 0.01786,-0.0429 0.02779,-0.0638 0.03152,-0.0665 0.06663,-0.13011 0.09443,-0.19842 0.01908,-0.0411 0.03803,-0.083 0.06185,-0.12165 8.99e-4,-0.005 0.0071,-0.004 0.0093,-0.007 0.0012,-0.002 -3.17e-4,-0.005 7.94e-4,-0.007 0.0016,-0.003 0.0036,-0.005 0.0054,-0.008 -0.30128,-0.14296 -0.602559,-0.28591 -0.903839,-0.42886 0.0017,0.008 0.0018,0.0167 0.0052,0.0243 0.0038,0.008 0.008,0.0181 0.01604,0.0228 0.3012,0.17629 0.604295,0.34939 0.909373,0.51888 0.01986,0.011 0.04306,0.0145 0.06447,0.0222 0.06103,0.0217 0.121801,0.0441 0.182796,0.0659 0.194812,0.0649 0.384161,0.1446 0.575151,0.21965 0.05468,0.0229 0.117628,0.0419 0.168987,0.0722 0.008,0.009 0.0035,0.005 0.01366,0.0118 -0.270158,-0.15676 -0.540288,-0.31356 -0.810474,-0.47027 -0.0058,-0.003 0.01163,0.007 0.01724,0.0102 0.0067,0.004 0.03125,0.022 0.03704,0.0261 0.28472,0.17907 0.58971,0.33833 0.886868,0.48394 0.01181,0.006 0.02075,-0.0162 0.03045,-0.0251 0.01098,-0.01 0.02102,-0.0211 0.03153,-0.0316 0.01182,-0.0147 0.0248,-0.0286 0.03546,-0.0442 0.01542,-0.0225 0.02774,-0.0471 0.04265,-0.0699 0.126679,-0.19433 -0.01633,0.037 0.121511,-0.18236 0.05352,-0.0852 0.08481,-0.13997 0.135633,-0.22655 0.08424,-0.15183 0.155006,-0.31086 0.219432,-0.47198 0.01857,-0.0544 0.0516,-0.10213 0.07451,-0.15448 0.0082,-0.0188 0.01379,-0.0386 0.02174,-0.0575 0.008,-0.019 0.01907,-0.0367 0.02604,-0.0561 0.007,-0.0194 0.01039,-0.0398 0.01559,-0.0597 -0.123086,-0.19574 -0.03008,-0.0732 -0.343486,-0.30807 0,0 -0.03511,-0.0192 -0.03511,-0.0192 v 0 c -0.341219,-0.12573 -0.201417,-0.12466 -0.405671,-0.10651 -0.09565,0.20819 0.04815,-0.11027 -0.04171,0.10787 -0.0072,0.0175 -0.0175,0.0335 -0.02596,0.0505 -0.02698,0.0539 -0.05168,0.10894 -0.07409,0.16493 -0.05779,0.16088 -0.09203,0.33081 -0.172919,0.48321 -0.01985,0.0371 -0.03786,0.0752 -0.05956,0.1112 -0.08035,0.13337 -0.186552,0.24905 -0.299214,0.35545 -0.0057,0.002 -0.01114,0.006 -0.01695,0.005 -0.0057,-10e-4 -0.01856,-0.0134 -0.01355,-0.0106 1.414104,0.79034 0.981661,0.60271 0.747157,0.41615 -0.293594,-0.20081 -0.579441,-0.44736 -0.922647,-0.54151 -0.06148,-0.0251 -0.123342,-0.0497 -0.184292,-0.0763 -0.193823,-0.0777 -0.390427,-0.14823 -0.584879,-0.22434 -0.0304,-0.0117 -0.149262,-0.0567 -0.185156,-0.0723 -0.02255,-0.01 -0.08775,-0.0442 -0.06655,-0.0318 0.275492,0.16187 0.553104,0.32011 0.829656,0.48016 -0.042,-0.0101 -0.02313,-0.008 -0.05618,-0.009 -0.306882,-0.15237 -0.615104,-0.30208 -0.920646,-0.45712 -0.0022,-10e-4 0.0089,-0.0181 0.0061,0.002 -0.0075,0.028 0.0052,-0.018 -0.0086,0.024 -0.01241,0.0376 -0.0166,0.0776 -0.03147,0.11439 -0.0248,0.0662 -0.04318,0.13642 -0.07399,0.20015 -0.0097,0.02 -0.02172,0.0389 -0.03253,0.0583 -0.01165,0.021 -0.02323,0.042 -0.03484,0.063 -0.01618,0.0281 -0.05822,0.10189 -0.07608,0.12947 -0.0523,0.0808 -0.115964,0.15354 -0.183801,0.2215 -0.03347,0.0327 -0.06573,0.0666 -0.09936,0.0991 -0.07082,0.0685 -0.146245,0.13245 -0.219826,0.19785 -0.07413,0.0583 -0.148419,0.11704 -0.230304,0.16441 -0.0921,0.0533 -0.191269,0.093 -0.287386,0.1381 -0.116144,0.0413 -0.232623,0.0832 -0.350682,0.1188 -0.02273,0.007 -0.04597,0.012 -0.06862,0.0191 -0.01599,0.005 -0.03147,0.0115 -0.0472,0.0173 -0.01311,0.008 -0.02858,0.0122 -0.03931,0.0229 -0.01278,0.0128 -0.04693,0.0591 -0.0436,0.0862 0.0016,0.0127 0.04761,0.0416 0.05279,0.0549 0.02362,0.0393 0.03748,0.0844 0.06982,0.11804 0.06883,0.0803 0.126654,0.16963 0.199264,0.24688 0.130245,0.15823 0.25528,0.32085 0.368909,0.49152 0.09183,0.13175 0.185795,0.2626 0.26719,0.40114 0.0055,0.009 0.01469,0.0297 0.02162,0.0282 0.02955,-0.007 -0.009,-0.0225 -0.01506,-0.009 -0.0074,0.008 -0.0082,0.016 -0.01347,0.0258 -0.01032,0.0193 -0.02467,0.0318 -0.04443,0.0416 -0.03543,0.0153 -0.07147,0.029 -0.110266,0.0331 -0.03885,0.004 -0.0791,-10e-4 -0.116905,0.0123 -0.0049,0.002 -0.0097,0.004 -0.01461,0.006 -0.004,0.001 -0.009,0.001 -0.01229,0.004 -0.0083,0.007 0.01206,0.0351 -0.02845,0.0419 -0.05139,0.0227 -0.0047,4.5e-4 -0.05958,0.0323 -0.07189,0.0418 -0.148727,0.0752 -0.22517,0.10751 -0.07867,0.0317 -0.157182,0.0652 -0.23672,0.0946 -0.08249,0.0305 -0.167902,0.0538 -0.247232,0.0926 -0.181016,0.0756 -0.35062,0.17467 -0.531242,0.25123 -0.05621,0.0242 -0.111579,0.0504 -0.168642,0.0725 -0.0229,0.009 -0.04652,0.0157 -0.06975,0.0237 -0.024,0.008 -0.05618,0.0213 -0.08255,0.0246 -0.0082,10e-4 -0.01662,-4e-4 -0.02493,-5.8e-4 0.274332,0.15595 0.550113,0.30939 0.822995,0.46787 0.004,0.002 -0.0092,0.003 -0.01375,0.002 -0.0096,-0.001 -0.02827,-0.0117 -0.0181,-0.0226 -0.0058,-0.0234 -0.03054,-0.0377 -0.0212,-0.0626 -0.0091,-0.006 -0.0214,-0.0206 -0.03248,-0.027 -0.02322,-0.0328 -0.04353,-0.0683 -0.06084,-0.10455 -0.03212,-0.0529 -0.05081,-0.10994 -0.0664,-0.16958 -0.02073,-0.0584 -0.05609,-0.11114 -0.08286,-0.167 -0.03182,-0.0659 0.005,0.007 -0.03183,-0.0553 -0.02444,-0.0412 -0.03701,-0.0879 -0.05464,-0.13201 -0.03807,-0.13918 -0.07703,-0.27888 -0.08854,-0.42338 -0.02375,-0.15228 -0.05741,-0.30253 -0.08676,-0.45376 z" />
    <path
       style="fill:#cecece;stroke-width:0.264583;fill-opacity:1"
       id="path6"
       d="m 16.329601,290.59439 c -0.02505,-0.0573 -0.04872,-0.11341 -0.08928,-0.16197 -0.044,-0.0527 -0.0989,-0.0945 -0.151724,-0.13767 -0.295238,-0.17046 -0.386992,-0.24834 -0.616204,-0.34633 -0.1,-0.0428 -0.202425,-0.08 -0.30441,-0.11768 -0.157316,-0.0609 -0.316721,-0.11607 -0.474674,-0.17523 -0.115918,-0.044 -0.229767,-0.0934 -0.345644,-0.13748 -0.09107,-0.0337 -0.176893,-0.0789 -0.265179,-0.11879 -0.02192,-0.0112 -0.04801,-0.0154 -0.06899,-0.0287 -0.02553,-0.0162 -0.04887,-0.0354 -0.07462,-0.0512 -0.0015,-2.1e-4 -0.0031,8e-5 -0.0044,-6.3e-4 -0.0024,-0.001 -0.006,-0.009 -0.0037,-0.007 0.267531,0.17541 0.548315,0.70601 0.756371,0.46719 0.04658,-0.0697 0.09261,-0.13972 0.137246,-0.21074 0.01001,-0.0192 0.01982,-0.0385 0.03003,-0.0576 0.03101,-0.058 0.03673,-0.064 0.06523,-0.12426 0.03362,-0.0711 0.06119,-0.14488 0.08946,-0.21821 0.05423,-0.14578 0.110195,-0.29126 0.147425,-0.44249 0.01895,-0.10647 0.03597,-0.21484 0.03346,-0.32339 -0.0016,-0.0687 -0.0088,-0.11244 -0.01729,-0.18081 -0.03536,-0.17347 -0.06718,-0.34776 -0.09233,-0.52302 -0.0027,-0.0485 -0.01503,-0.0962 -0.01794,-0.14473 -5.29e-4,-0.009 9.53e-4,-0.0176 5.82e-4,-0.0264 -5.02e-4,-0.0116 -0.003,-0.0231 -0.0044,-0.0346 -4.76e-4,-0.003 -0.0013,-0.006 -0.0014,-0.01 -5.56e-4,-0.0208 -0.0043,0.0125 0.0052,-10e-5 -0.0082,-0.003 0.01731,-0.0463 0.01632,-0.0338 -0.0019,0.0243 -0.01994,0.0461 -0.01938,0.0705 1.6e-4,0.007 0.01409,0.002 0.021,4.2e-4 0.02111,-0.004 0.07306,-0.0218 0.08976,-0.0273 0.16805,-0.065 0.333218,-0.13658 0.502896,-0.19737 0.08238,-0.0288 0.165521,-0.0553 0.248255,-0.083 0.04945,-0.0165 0.09752,-0.0355 0.147597,-0.0501 0.04651,-0.0161 0.09579,-0.0177 0.14405,-0.0241 0.01457,-0.002 0.02902,-0.005 0.04353,-0.007 0.0153,-0.002 0.0306,-0.004 0.04591,-0.006 0.06824,-0.005 0.135621,-0.0162 0.203133,-0.0265 0.0231,-0.008 0.04734,-0.0106 0.07051,-0.018 5.29e-4,-0.01 0.01341,-0.006 0.0166,-0.0126 0.0016,-0.003 -0.0014,-0.007 -7.93e-4,-0.0103 5.82e-4,-0.003 0.0036,-0.006 0.0041,-0.009 0.0012,-0.008 -5.29e-4,-0.0155 8.2e-4,-0.0231 0.002,-0.0111 0.0061,-0.0217 0.0092,-0.0326 2.13e-4,-0.01 0.0019,-0.0193 6.35e-4,-0.0288 -0.0019,-0.015 -0.01696,-0.0556 -0.02073,-0.068 -0.01467,-0.0481 -0.02898,-0.096 -0.04518,-0.14368 -0.04522,-0.16219 -0.08704,-0.32527 -0.130313,-0.48798 -0.03774,-0.14998 -0.09949,-0.29257 -0.165537,-0.43197 -0.03493,-0.0804 -0.08871,-0.14936 -0.120777,-0.23109 -0.0027,-0.008 -0.0059,-0.0159 -0.0082,-0.0241 -0.0041,-0.0151 -0.0015,-0.0181 -0.0081,-0.0317 -0.0086,-0.0175 -0.01902,-0.0343 -0.02748,-0.052 -0.01909,-0.0598 -0.05494,-0.11106 -0.08694,-0.16446 -0.0098,-0.0209 -0.02408,-0.0394 -0.03435,-0.0601 -0.0061,-0.0122 -0.0083,-0.0262 -0.01495,-0.0381 -0.0049,-0.009 -0.0147,-0.019 -0.02152,-0.0266 -0.03733,-0.29239 -0.529554,-0.44886 -0.824507,-0.40761 -0.0485,0.007 -0.100884,0.0199 -0.148204,0.0307 -0.23387,0.0639 -0.466796,0.13117 -0.700245,0.19663 -0.182632,0.0479 -0.356979,0.11959 -0.528436,0.19751 -0.05778,0.0254 -0.114265,0.0546 -0.172677,0.0786 -0.04298,0.0177 -0.01804,10e-4 -0.05113,0.028 0.02256,0.13923 -0.0086,-0.006 0.249136,0.22749 0.0077,0.007 0.0032,0.0207 0.0048,0.031 0,0 0.03303,0.0226 0.03303,0.0226 v 0 c 0.02054,0.005 0.0429,0.004 0.06163,0.014 0.376621,0.1938 0.178655,0.15434 0.370555,0.18479 0.01315,-0.003 0.02681,-0.004 0.03945,-0.009 0.01014,-0.004 0.01871,-0.0108 0.02808,-0.0161 0.05133,-0.0294 0.09961,-0.0633 0.151831,-0.0911 0.155511,-0.0844 0.319158,-0.15264 0.487028,-0.20851 0.116374,-0.038 0.233137,-0.0731 0.350621,-0.10747 0.06934,-0.0203 0.161649,-0.0493 0.232396,-0.0661 0.03451,-0.008 0.06955,-0.014 0.104327,-0.021 0.066,-0.009 0.132492,-0.0198 0.199471,-0.0177 0.01058,3.2e-4 0.04057,0.009 0.03155,0.004 -0.631911,-0.3872 -0.919759,-0.44003 -0.655028,-0.39026 0.0099,0.0252 0.03272,0.0416 0.04835,0.0632 0.0063,0.009 0.01142,0.0183 0.01703,0.0275 0.0063,0.0104 0.01247,0.0209 0.0187,0.0313 0.02447,0.0456 0.04735,0.0922 0.06617,0.14027 0.0041,0.0165 0.0062,0.0368 0.01242,0.0525 0.01049,0.0267 0.03438,0.0457 0.04568,0.072 0.01787,0.0298 0.02276,0.0358 0.03669,0.0678 0.05288,0.12173 -0.02326,-0.0481 0.02403,0.0708 0.0066,0.0166 0.03521,0.0697 0.04277,0.084 0.0033,0.006 0.0531,0.10424 0.05411,0.10643 0.04601,0.10014 0.0745,0.20764 0.11447,0.31014 0.04743,0.1636 0.08144,0.33067 0.133718,0.49277 0.01329,0.0456 0.03028,0.0911 0.04162,0.13718 0.0037,0.015 0.0027,0.031 0.0067,0.046 4.5e-4,0.002 0.0024,0.003 0.0036,0.004 0.0018,-0.004 0.0057,-0.008 0.0054,-0.0133 -0.0016,-0.0238 -0.03042,-0.0211 -0.04618,-0.0232 -0.0225,0.004 -0.04432,0.0111 -0.06712,0.0132 -0.06387,0.0145 -0.130494,0.0141 -0.194938,0.0255 -0.03275,0.004 -0.06575,0.006 -0.09827,0.0115 -0.04949,0.008 -0.09697,0.0265 -0.143631,0.0443 -0.12438,0.0536 -0.254884,0.0923 -0.380158,0.14376 -0.176954,0.0635 -0.357401,0.1157 -0.536041,0.17416 -0.08002,0.0296 -0.130906,0.0398 -0.15047,0.13897 -0.0023,0.0116 0.03708,-0.0165 0.02471,-0.0256 0.0011,-10e-4 0.0021,-0.005 0.0034,-0.004 0.0024,0.002 0.002,0.034 0.0089,0.0387 0.02124,0.0737 0.04347,0.14704 0.0591,0.2224 0.03978,0.17088 0.08475,0.34201 0.09757,0.51751 0.01135,0.15556 0.01453,0.31261 -0.03097,0.46369 -0.0012,0.005 -0.03561,0.13729 -0.03677,0.14126 -0.02895,0.0993 -0.06869,0.19542 -0.103755,0.29258 -0.05219,0.1298 -0.109606,0.26099 -0.189949,0.37601 -0.04642,0.0659 -0.09341,0.13284 -0.155224,0.18533 -0.222585,0.24361 0.429306,0.35485 0.694853,0.54378 0.0014,10e-4 -2e-5,-0.005 0.0017,-0.005 8.47e-4,1.1e-4 0.0013,10e-4 0.0019,0.002 0.0055,-4e-5 0.006,8.5e-4 -0.002,-0.008 -0.008,-0.009 -0.01877,-0.0147 -0.02502,-0.0246 -0.002,-0.003 0.0074,10e-4 0.01104,0.002 0.01007,0.003 0.03189,0.0115 0.04064,0.0148 0.07191,0.0243 -0.02117,-0.006 0.04848,0.0136 0.0516,0.0146 0.100049,0.0387 0.15227,0.0513 0.09888,0.0328 0.19816,0.0645 0.296335,0.0994 0.164727,0.0585 0.32553,0.12722 0.489595,0.18752 0.07644,0.0291 0.153061,0.0577 0.22868,0.0889 0.180669,0.0745 0.494128,0.24769 -0.276392,-0.18271 0.02839,0.0156 0.05769,0.0296 0.08518,0.0468 0.07181,0.0448 0.165477,0.12734 0.208771,0.20091 0.0082,0.0139 0.01154,0.0301 0.01731,0.0451 z" />
    <path
       style="fill:#cecece;stroke-width:0.264583;fill-opacity:1"
       id="path7"
       d="m 14.325982,285.84472 c -0.08987,-0.12339 -0.165374,-0.25652 -0.244134,-0.38709 -0.09351,-0.14514 -0.184129,-0.29224 -0.284322,-0.43292 -0.05268,-0.078 -0.115448,-0.14736 -0.188762,-0.20621 -0.295198,-0.19096 -0.595245,-0.39311 -0.929724,-0.50956 -0.06989,-0.0231 -0.139533,-0.0482 -0.210716,-0.0671 -0.0093,-0.004 -0.04025,-0.008 -0.0466,-0.0157 -0.0052,-0.007 -0.01793,-0.0272 -0.01085,-0.0227 0.249306,0.158 0.493796,0.32347 0.740694,0.48521 0.122786,-0.0813 0.24392,-0.16494 0.369089,-0.24269 0.03233,-0.0184 0.06469,-0.0368 0.09698,-0.0553 0.0322,-0.0185 0.06506,-0.0358 0.09649,-0.0556 0.06829,-0.0429 0.107289,-0.0752 0.171039,-0.12407 0.10198,-0.0782 0.05229,-0.0389 0.145479,-0.1145 0.04814,-0.0414 0.09336,-0.0861 0.135195,-0.13385 0.01066,-0.0122 0.02021,-0.0253 0.03124,-0.0372 0.02148,-0.0231 0.04492,-0.0443 0.06678,-0.067 0.06054,-0.073 0.132831,-0.13537 0.202854,-0.19909 0.01339,-0.0149 0.03064,-0.0254 0.04532,-0.0387 0.01321,-0.012 0.02095,-0.0258 0.03793,-0.0325 0.0011,-10e-5 0.0027,-10e-4 0.0032,-2.9e-4 6.87e-4,0.001 -0.0037,1.5e-4 -0.0038,-10e-4 -6.08e-4,-0.007 -0.0022,-0.0138 -6.88e-4,-0.0204 0.01501,-0.0652 0.0172,-0.018 0.01261,-0.0605 -0.07925,-0.10244 -0.176602,-0.18904 -0.271084,-0.27698 -0.105162,-0.0934 -0.209153,-0.18802 -0.308208,-0.28792 -0.07952,-0.0795 -0.154921,-0.16291 -0.237508,-0.2393 -0.06989,-0.0633 -0.1436,-0.12185 -0.223211,-0.17238 -0.253914,-0.16017 -0.0062,-0.004 -0.720005,-0.41747 -0.0076,-0.004 -0.03004,-0.018 -0.02245,-0.0136 1.360435,0.78365 0.863962,0.47407 0.634163,0.36781 -0.01291,-0.006 -0.02298,-0.0164 -0.03182,-0.029 -0.232802,-0.1183 -0.462123,-0.24371 -0.698406,-0.35489 -0.0084,-0.004 -0.01553,0.0101 -0.0232,0.0153 -0.01225,0.008 -0.02419,0.0171 -0.03653,0.0253 -0.06525,0.0433 -0.126424,0.0883 -0.18784,0.1371 -0.157393,0.12843 -0.323167,0.24585 -0.484021,0.36975 -0.02134,0.0189 -0.0423,0.0382 -0.06401,0.0566 -0.05989,0.0509 -0.06557,0.0493 -0.12073,0.10424 -0.04727,0.0471 -0.08664,0.10022 -0.126418,0.15346 -0.0482,0.0651 -0.09015,0.13484 -0.142642,0.19676 -0.0227,0.0268 -0.05329,0.0575 -0.07785,0.0828 -0.05143,0.0513 -0.107963,0.0964 -0.164848,0.14116 -0.0048,0.004 -0.0091,0.008 -0.01442,0.0109 -0.0017,9e-4 -0.05299,0.0198 -0.02608,0.016 0.132501,-0.26506 0.0021,-0.0212 0.728961,0.37369 0.0028,0.002 -0.0042,-0.005 -0.0064,-0.007 -0.0066,-0.007 -0.01125,-0.0138 -0.01615,-0.0225 -0.01495,-0.0237 -0.04272,-0.0363 -0.06532,-0.0518 -0.07445,-0.055 -0.141574,-0.11915 -0.211981,-0.17912 -0.303265,-0.25366 -0.666461,-0.42061 -1.007754,-0.61607 -0.114387,-0.0555 -0.238085,-0.0826 -0.360777,-0.1122 -0.141385,-0.0355 -0.2861914,-0.0522 -0.4312275,-0.0633 -0.075801,-0.007 -0.1522111,-0.0109 -0.2282584,-0.005 -0.034059,0.003 -0.067932,0.007 -0.1019596,0.0103 -0.1091427,0.0214 -0.2205601,0.0239 -0.3313718,0.0264 -0.055648,0.002 -0.1120286,-0.003 -0.1675726,10e-4 -0.00291,4.7e-4 -0.00932,-10e-4 -0.00874,0.001 0.00122,0.006 0.00688,0.0106 0.011869,0.0142 0.1085403,0.0793 0.2188321,0.15612 0.3282482,0.23418 0,0 0.032601,0.0232 0.032601,0.0232 v 0 c 0.1116338,0.0778 0.2229393,0.15613 0.3349019,0.23348 0.00691,0.005 0.01393,0.01 0.021651,0.0129 0.00238,0.001 0.00515,-2.3e-4 0.00772,-3.4e-4 0.046517,-0.006 0.092811,-0.0151 0.1398974,-0.0169 0.1085786,-0.009 0.2164124,-0.0249 0.3248444,-0.0353 0.103763,-0.0105 0.207986,-0.008 0.311939,-5e-4 0.139875,0.0112 0.279242,0.0302 0.414494,0.0688 0.123874,0.0337 0.247005,0.0723 0.359239,0.13611 -0.224993,-0.13016 -0.45034,-0.25971 -0.674979,-0.39048 -0.01615,-0.009 0.03317,0.0172 0.04948,0.0263 0.0723,0.0405 0.140211,0.0881 0.204905,0.1398 0.06481,0.0546 0.128481,0.11052 0.186253,0.17262 0.02131,0.0187 0.04395,0.0411 0.07224,0.0477 0.01709,0.006 0.02154,0.0226 0.03644,0.0311 0.744929,0.42367 0.597122,0.6598 0.752418,0.3951 0.0037,-0.002 0.0082,-0.001 0.01186,-0.003 0.0095,-0.005 0.0115,-0.037 0.02444,-0.0369 0.05031,-0.0527 0.101606,-0.10463 0.149569,-0.15948 0.07947,-0.0923 0.156341,-0.18735 0.223651,-0.28891 0.07784,-0.11455 0.160056,-0.22976 0.271155,-0.31446 0.150245,-0.1313 0.301737,-0.26102 0.464036,-0.37747 0.06333,-0.0426 0.126415,-0.0862 0.196819,-0.11671 0.265718,-0.11508 0.549168,0.23392 -0.60299,-0.38382 -0.002,-0.004 -0.0038,-0.008 -0.006,-0.0122 -7.41e-4,-0.001 -8.47e-4,0.003 -1.5e-5,0.005 0.0058,0.009 0.0206,0.0121 0.02425,0.0233 0.194318,0.19631 0.475279,0.28164 0.714542,0.41968 0.266854,0.15395 -0.885828,-0.50661 -0.591615,-0.34413 0.07903,0.0477 0.157641,0.0961 0.225943,0.15895 0.08312,0.0713 0.155059,0.15326 0.230582,0.23237 0.106122,0.10205 0.213918,0.2024 0.325273,0.29873 0.07567,0.0656 0.154183,0.1312 0.205221,0.21904 0.02167,-0.0112 0.03708,-0.0816 0.0045,-0.0488 -0.02603,0.0292 -0.05903,0.0514 -0.08442,0.0816 -0.0703,0.071 -0.126031,0.14797 -0.182121,0.23045 -0.08096,0.15599 0.03451,-0.0697 -0.03905,0.0845 -0.03101,0.065 -0.07878,0.1204 -0.128159,0.17194 -0.04662,0.0458 -0.07334,0.0753 -0.128062,0.11409 -0.06432,0.0455 -0.116712,0.0686 -0.185648,0.10702 -0.03223,0.0179 -0.06382,0.037 -0.09589,0.0553 -0.0323,0.0184 -0.0648,0.0364 -0.0972,0.0546 -0.09859,0.0493 -0.09284,0.0484 -0.192366,0.0907 -0.08572,0.0365 -0.175302,0.0659 -0.25084,0.12232 0.229953,0.17562 0.459905,0.35125 0.689858,0.52688 -0.0027,-0.007 -0.0046,-0.0146 -0.0081,-0.0214 -0.0042,-0.008 -0.01194,-0.007 0.0087,-0.003 0.06267,0.0165 0.125108,0.0336 0.18514,0.0585 0.04916,0.0212 0.09788,0.043 0.145297,0.0679 0.0138,0.007 0.05443,0.0304 0.04095,0.0226 -0.598349,-0.34777 -0.83822,-0.47933 -0.585737,-0.34046 0.08754,0.0523 0.152684,0.1121 0.216939,0.19181 0.109739,0.13486 0.209614,0.27746 0.296271,0.42833 0.07378,0.12826 0.147209,0.25669 0.223928,0.38323 z" />
    <path
       style="fill:#cecece;stroke-width:0.264583;fill-opacity:1"
       id="path8"
       d="m 11.29409,286.83658 c -0.05543,-0.19588 -0.17149,-0.34891 -0.292779,-0.50856 -0.125285,-0.17823 -0.300576,-0.30521 -0.488087,-0.41146 -0.263944,-0.14957 -0.5292272,-0.29677 -0.7938407,-0.44515 -0.1943688,-0.0852 -0.3983109,-0.15576 -0.6121094,-0.16732 -0.1188093,-0.006 -0.2116002,0.006 -0.3299936,0.0161 -0.1749319,0.0215 -0.3473344,0.0561 -0.5144712,0.11264 -0.066631,0.0226 -0.1342228,0.0435 -0.1977168,0.0738 -0.092853,0.0443 -0.2875557,0.17625 -0.3710958,0.23102 -0.1936896,0.14818 -0.370594,0.32056 -0.5167151,0.51643 -0.064902,0.087 -0.2008921,0.30735 -0.2537474,0.40381 -0.036015,0.0657 -0.067116,0.13401 -0.1006737,0.20102 -0.085511,0.19084 -0.1538435,0.3912 -0.1941007,0.5968 -0.013653,0.0697 -0.02196,0.14043 -0.031041,0.21091 -0.023701,0.18394 -0.025149,0.23501 -0.039054,0.41897 -0.00206,0.20667 -0.00956,0.2099 0.01928,0.41838 0.00967,0.0699 0.020143,0.13984 0.037033,0.20832 0.02744,0.11126 0.095596,0.2967 0.1439172,0.4012 0.029449,0.0637 0.065154,0.12428 0.09773,0.18643 0.045344,0.0635 0.085927,0.13065 0.136032,0.19044 0.1211573,0.14459 0.2806367,0.28775 0.4254805,0.40659 0.1480561,0.12147 0.3276909,0.25129 0.489403,0.35451 0.079865,0.051 0.1628455,0.0969 0.2442681,0.14535 0.338905,0.18223 0.6708621,0.37801 1.0167152,0.54668 0.09284,0.0453 0.1958824,0.066 0.2955065,0.0933 0.2827835,0.0774 0.5835459,0.12828 0.8765409,0.14375 0.09074,0.005 0.181722,0.002 0.272584,0.002 0.304806,-0.0146 0.618242,-0.0475 0.901521,-0.17019 0.143144,-0.062 0.218243,-0.11885 0.347694,-0.20344 0.158345,-0.12923 0.151829,-0.11079 0.283099,-0.27167 0.03989,-0.0489 0.0796,-0.0984 0.112776,-0.15207 0.106416,-0.17215 0.16188,-0.36633 0.219399,-0.55815 0.06832,-0.26634 0.103538,-0.54194 0.110958,-0.81679 0.0016,-0.0587 -0.0018,-0.33996 -0.0024,-0.40463 -0.01999,-0.24161 -0.0442,-0.48345 -0.100594,-0.71977 -0.03228,-0.13522 -0.05633,-0.203 -0.0981,-0.33488 -0.06723,-0.18958 -0.137907,-0.37928 -0.235146,-0.55587 -0.06107,-0.11091 -0.08521,-0.14401 -0.154264,-0.25074 -0.113609,-0.16764 -0.242475,-0.32594 -0.39813,-0.45658 -0.10044,-0.0843 -0.156272,-0.11789 -0.264016,-0.19047 -0.302644,-0.17187 -0.605289,-0.34374 -0.907933,-0.51561 -0.04808,-0.0159 -0.145392,-0.0982 -0.144249,-0.0476 0.0019,0.0829 0.09846,0.13343 0.147692,0.20015 0,0 0.03169,0.0244 0.03169,0.0244 v 0 c 0.160461,0.0985 0.318175,0.20163 0.481382,0.29552 0.15009,0.0863 1.107568,0.46454 -0.437613,-0.27987 0.104709,0.065 0.173978,0.10439 0.272078,0.17955 0.161649,0.12385 0.303146,0.27396 0.420036,0.44036 0.02694,0.0402 0.05476,0.0799 0.08083,0.12066 0.133976,0.20964 0.247922,0.43326 0.328658,0.6688 0.01673,0.053 0.03485,0.1056 0.0502,0.15902 0.06151,0.21408 0.108955,0.45495 0.127177,0.67689 0.005,0.0614 0.0053,0.12303 0.0079,0.18454 0.0022,0.0644 0.0064,0.12874 0.0067,0.19316 2.91e-4,0.0677 -0.0023,0.13548 -0.005,0.20316 -0.01082,0.26771 -0.03776,0.53518 -0.106411,0.79491 -0.01921,0.0619 -0.03509,0.12486 -0.05763,0.18559 -0.08528,0.22979 -0.220324,0.44781 -0.399251,0.61656 -0.04424,0.0417 -0.09408,0.0771 -0.141124,0.11561 -0.05356,0.0337 -0.105012,0.0709 -0.160684,0.101 -0.31873,0.17202 -0.684411,0.22688 -1.0415318,0.24094 -0.087541,-0.001 -0.1751841,6.6e-4 -0.2626223,-0.004 -0.2861344,-0.0145 -0.5702887,-0.0628 -0.8448871,-0.14491 -0.098181,-0.0294 -0.3592872,-0.17655 -0.2904985,-0.1006 0.1258422,0.13895 0.3158673,0.202 0.4738011,0.303 -0.084599,-0.0478 -0.1706941,-0.0931 -0.2537966,-0.14344 -0.3248112,-0.19687 -0.6585072,-0.43712 -0.9081762,-0.72571 -0.049808,-0.0576 -0.093144,-0.12044 -0.1397159,-0.18066 -0.095974,-0.15395 -0.1382853,-0.20655 -0.2058823,-0.37509 -0.025535,-0.0637 -0.045011,-0.12967 -0.063886,-0.19561 -0.019394,-0.0678 -0.038291,-0.13588 -0.05084,-0.20523 -0.029453,-0.16279 -0.023794,-0.24174 -0.025966,-0.40557 0.00347,-0.0686 0.00474,-0.13733 0.010401,-0.20578 0.012324,-0.14906 0.031188,-0.26306 0.057974,-0.40995 0.011959,-0.0656 0.022929,-0.13145 0.038571,-0.19626 0.041193,-0.17067 0.067637,-0.22699 0.1288169,-0.39241 0.080602,-0.16896 0.1060876,-0.23607 0.2090465,-0.39521 0.042817,-0.0662 0.090426,-0.12917 0.137554,-0.19235 0.1396119,-0.18718 0.2898783,-0.36648 0.4714269,-0.51497 0.05931,-0.0399 0.1157099,-0.0845 0.1779304,-0.11968 0.062314,-0.0352 0.1293842,-0.0613 0.194554,-0.0909 0.058352,-0.0265 0.1154925,-0.0563 0.1759884,-0.0775 0.055958,-0.0196 0.1143833,-0.0314 0.1722263,-0.0444 0.1516417,-0.0341 0.1824995,-0.0338 0.3366619,-0.0521 0.1480693,-0.007 0.1790999,-0.0136 0.3255809,4.7e-4 0.1953546,0.0188 0.3844734,0.0771 0.5612924,0.16095 -0.171947,-0.10194 -0.344428,-0.20298 -0.515838,-0.30582 -0.040854,-0.0245 0.083348,0.0462 0.1241486,0.0708 0.1642074,0.099 0.3207874,0.21291 0.4555674,0.34981 0.02718,0.0316 0.05559,0.0622 0.08153,0.0949 0.06133,0.0772 0.0749,0.10278 0.123549,0.18531 0.04028,0.0683 0.08059,0.13713 0.108328,0.21177 z" />
    <path
       style="fill:#cecece;stroke-width:0.264583;fill-opacity:1"
       id="path9"
       d="m 10.633498,286.0332 c -0.02384,0.0137 -0.04919,0.025 -0.07152,0.0411 -0.03813,0.0274 -0.143903,0.12626 -0.173411,0.15311 -0.09444,0.0859 -0.1581,0.13936 -0.245905,0.23708 -0.04728,0.0526 -0.09004,0.10915 -0.135063,0.16372 -0.047015,0.06 -0.093693,0.12023 -0.1410452,0.17995 -0.1227055,0.15475 -0.1831835,0.22328 -0.300056,0.38492 -0.048855,0.0676 -0.094694,0.13727 -0.1418431,0.20604 -0.0014,0.002 -0.2694745,0.3947 -0.2731675,0.40011 -0.044111,0.0639 -0.089227,0.12721 -0.1323338,0.19184 -0.1867807,0.28004 -0.07221,0.1254 -0.2712757,0.40955 -0.1371168,0.19571 -0.2813981,0.38642 -0.4268136,0.57599 -0.1157005,0.15538 -0.2482266,0.29776 -0.3650404,0.45222 -0.031443,0.0416 -0.059239,0.0858 -0.089656,0.12812 -0.04682,0.0652 -0.095303,0.12911 -0.1423556,0.1941 -0.023426,0.0306 -0.081876,0.094 -0.082249,0.14035 -0.00122,0.15252 0.2331879,0.25742 0.3002418,0.31169 0,0 0.03432,0.0205 0.03432,0.0205 v 0 c 0.1160309,0.0493 0.291768,0.18921 0.4456216,0.13046 0.054698,-0.0209 0.082638,-0.0844 0.1097256,-0.12867 0.034908,-0.0546 0.09368,-0.14781 0.1297726,-0.19778 0.030348,-0.042 0.063964,-0.0816 0.094743,-0.12329 0.1143947,-0.155 0.2217777,-0.31525 0.3397745,-0.46764 0.077111,-0.10416 0.20516,-0.27584 0.2787285,-0.38057 0.3668982,-0.52234 -0.092113,0.11608 0.2852261,-0.41201 0.046414,-0.065 0.094811,-0.1285 0.1407369,-0.1938 0.044683,-0.0635 0.087371,-0.12845 0.1310561,-0.19268 0.08598,-0.12553 0.1872932,-0.27401 0.2742062,-0.39862 0.0475,-0.0681 0.09624,-0.13533 0.143394,-0.20366 0.07152,-0.10365 0.195187,-0.2936 0.272792,-0.39536 0.04576,-0.06 0.09609,-0.11637 0.144133,-0.17456 0.04706,-0.0522 0.09469,-0.10383 0.14117,-0.15652 0.103344,-0.11713 0.116083,-0.14084 0.218891,-0.2462 0.05276,-0.0541 0.113173,-0.10074 0.162476,-0.15797 0.016,-0.0186 0.02752,-0.0406 0.04129,-0.0609 z" />
    <path
       style="fill:#cecece;stroke-width:0.264583;fill-opacity:1"
       id="path10"
       d="m 11.913238,290.00323 c -0.226974,-0.1787 -0.454414,-0.35654 -0.675995,-0.54194 -0.332181,-0.28949 -0.656247,-0.58852 -0.96892,-0.89899 -0.232071,-0.22849 -0.4611743,-0.45978 -0.6867011,-0.69472 -0.1286656,-0.12901 -0.2585501,-0.25728 -0.3933889,-0.37989 -0.047326,-0.043 -0.1552932,-0.13521 -0.2044652,-0.17745 -0.1427885,-0.12344 -0.2894029,-0.24365 -0.4222388,-0.3781 -0.2351215,-0.23796 0.094362,0.0794 -0.1686917,-0.1709 -0.053631,-0.0476 -0.165431,-0.14953 -0.2232827,-0.18947 -0.063188,-0.0436 -0.1314138,-0.0795 -0.1960555,-0.12096 -0.038894,-0.0249 -0.07792,-0.0499 -0.1144738,-0.0781 -0.012229,-0.009 -0.017828,-0.0265 -0.031105,-0.0344 -0.052505,-0.0313 -0.1093658,-0.0546 -0.1640486,-0.082 0,0 -0.036904,-0.0154 -0.036904,-0.0154 v 0 c -0.040727,-0.0124 -0.079606,-0.0377 -0.1221793,-0.0372 -0.018039,1.8e-4 0.031189,0.0216 0.038453,0.0381 0.016319,0.0371 -0.063569,0.0405 -0.063641,0.0455 -9.79e-4,0.0685 0.1378217,0.0928 0.1348777,0.15487 0.2584072,0.23579 -0.079361,-0.0698 0.2211824,0.19234 0.1446287,0.12613 0.2783039,0.26477 0.4285192,0.3846 0.2185535,0.18356 0.4388615,0.36581 0.6404721,0.56825 0.2525467,0.24231 0.5086118,0.48093 0.7592293,0.72525 0.3111757,0.30346 0.6210019,0.60848 0.9480699,0.89506 0.11933,0.10695 0.156088,0.14164 0.275753,0.24244 0.106656,0.0898 0.21831,0.17373 0.321536,0.26762 z" />
  </g>
</svg>
