<?xml version="1.0" encoding="UTF-8" standalone="no"?>
<!-- Created with Inkscape (http://www.inkscape.org/) -->

<svg
   width="64"
   height="64"
   viewBox="0 0 16.933333 16.933334"
   version="1.1"
   id="svg8"
   inkscape:version="1.3.2 (091e20ef0f, 2023-11-25, custom)"
   sodipodi:docname="singletrue.svg"
   inkscape:export-filename="C:\Users\Ali\Documents\inkscape\freecad\pyrate\pyrate_logo_3_256x256.png"
   inkscape:export-xdpi="1536"
   inkscape:export-ydpi="1536"
   xmlns:inkscape="http://www.inkscape.org/namespaces/inkscape"
   xmlns:sodipodi="http://sodipodi.sourceforge.net/DTD/sodipodi-0.dtd"
   xmlns:xlink="http://www.w3.org/1999/xlink"
   xmlns="http://www.w3.org/2000/svg"
   xmlns:svg="http://www.w3.org/2000/svg"
   xmlns:rdf="http://www.w3.org/1999/02/22-rdf-syntax-ns#"
   xmlns:cc="http://creativecommons.org/ns#"
   xmlns:dc="http://purl.org/dc/elements/1.1/">
  <defs
     id="defs2">
    <linearGradient
       id="linearGradient1245"
       inkscape:collect="always">
      <stop
         id="stop1241"
         offset="0"
         style="stop-color:#aaccff;stop-opacity:1" />
      <stop
         id="stop1243"
         offset="1"
         style="stop-color:#d5f6ff;stop-opacity:1" />
    </linearGradient>
    <linearGradient
       id="linearGradient1167"
       inkscape:collect="always">
      <stop
         id="stop1161"
         offset="0"
         style="stop-color:#00112b;stop-opacity:1" />
      <stop
         id="stop1163"
         offset="1"
         style="stop-color:#2a7fff;stop-opacity:1" />
    </linearGradient>
    <linearGradient
       inkscape:collect="always"
       id="linearGradient1166">
      <stop
         style="stop-color:#41dcff;stop-opacity:1"
         offset="0"
         id="stop1162" />
      <stop
         style="stop-color:#40e0ff;stop-opacity:1"
         offset="1"
         id="stop1164" />
    </linearGradient>
    <linearGradient
       inkscape:collect="always"
       id="linearGradient1058">
      <stop
         style="stop-color:#5175ff;stop-opacity:1"
         offset="0"
         id="stop1054" />
      <stop
         style="stop-color:#40e0ff;stop-opacity:1"
         offset="1"
         id="stop1056" />
    </linearGradient>
    <linearGradient
       id="linearGradient1045"
       inkscape:collect="always">
      <stop
         id="stop1041"
         offset="0"
         style="stop-color:#293449;stop-opacity:1" />
      <stop
         id="stop1043"
         offset="1"
         style="stop-color:#485c80;stop-opacity:1" />
    </linearGradient>
    <linearGradient
       inkscape:collect="always"
       id="linearGradient2480">
      <stop
         style="stop-color:#cc0a08;stop-opacity:1"
         offset="0"
         id="stop2476" />
      <stop
         style="stop-color:#f67d89;stop-opacity:1"
         offset="1"
         id="stop2478" />
    </linearGradient>
    <linearGradient
       id="linearGradient942-5"
       inkscape:collect="always">
      <stop
         id="stop938"
         offset="0"
         style="stop-color:#002076;stop-opacity:1" />
      <stop
         id="stop940"
         offset="1"
         style="stop-color:#40e0ff;stop-opacity:1" />
    </linearGradient>
    <linearGradient
       gradientUnits="userSpaceOnUse"
       y2="31.377413"
       x2="86.543877"
       y1="282.62048"
       x1="20.010984"
       id="linearGradient944"
       xlink:href="#linearGradient942-5"
       inkscape:collect="always" />
    <linearGradient
       gradientUnits="userSpaceOnUse"
       y2="112.66277"
       x2="98.204803"
       y1="257.94366"
       x1="13.302045"
       id="linearGradient952"
       xlink:href="#linearGradient2480"
       inkscape:collect="always" />
    <linearGradient
       gradientTransform="translate(0,1.5875)"
       gradientUnits="userSpaceOnUse"
       y2="133.50244"
       x2="146.68025"
       y1="272.83194"
       x1="101.05925"
       id="linearGradient960"
       xlink:href="#linearGradient2480"
       inkscape:collect="always" />
    <filter
       id="filter1495"
       inkscape:label="Drop Shadow"
       style="color-interpolation-filters:sRGB">
      <feFlood
         id="feFlood1485"
         result="flood"
         flood-color="rgb(0,0,0)"
         flood-opacity="0.498039" />
      <feComposite
         id="feComposite1487"
         result="composite1"
         operator="in"
         in2="SourceGraphic"
         in="flood" />
      <feGaussianBlur
         id="feGaussianBlur1489"
         result="blur"
         stdDeviation="4"
         in="composite1" />
      <feOffset
         id="feOffset1491"
         result="offset"
         dy="4"
         dx="2" />
      <feComposite
         id="feComposite1493"
         result="composite2"
         operator="over"
         in2="offset"
         in="SourceGraphic" />
    </filter>
    <filter
       id="filter2066"
       inkscape:label="Drop Shadow"
       style="color-interpolation-filters:sRGB">
      <feFlood
         id="feFlood2056"
         result="flood"
         flood-color="rgb(0,0,0)"
         flood-opacity="0.498039" />
      <feComposite
         id="feComposite2058"
         result="composite1"
         operator="in"
         in2="SourceGraphic"
         in="flood" />
      <feGaussianBlur
         id="feGaussianBlur2060"
         result="blur"
         stdDeviation="20"
         in="composite1" />
      <feOffset
         id="feOffset2062"
         result="offset"
         dy="20"
         dx="6" />
      <feComposite
         id="feComposite2064"
         result="composite2"
         operator="over"
         in2="offset"
         in="SourceGraphic" />
    </filter>
    <filter
       id="filter2474"
       inkscape:label="Drop Shadow"
       style="color-interpolation-filters:sRGB">
      <feFlood
         id="feFlood2464"
         result="flood"
         flood-color="rgb(0,0,0)"
         flood-opacity="0.498039" />
      <feComposite
         id="feComposite2466"
         result="composite1"
         operator="in"
         in2="SourceGraphic"
         in="flood" />
      <feGaussianBlur
         id="feGaussianBlur2468"
         result="blur"
         stdDeviation="4"
         in="composite1" />
      <feOffset
         id="feOffset2470"
         result="offset"
         dy="4.8"
         dx="1.5" />
      <feComposite
         id="feComposite2472"
         result="composite2"
         operator="over"
         in2="offset"
         in="SourceGraphic" />
    </filter>
    <linearGradient
       gradientTransform="translate(0,290.28571)"
       gradientUnits="userSpaceOnUse"
       y2="398.20157"
       x2="-973.7356"
       y1="746.96252"
       x1="-1123.2253"
       id="linearGradient1033"
       xlink:href="#linearGradient1058"
       inkscape:collect="always" />
    <linearGradient
       gradientTransform="translate(0,213.65424)"
       gradientUnits="userSpaceOnUse"
       y2="851.35718"
       x2="-987.59387"
       y1="1234.0872"
       x1="-1127.1049"
       id="linearGradient1047"
       xlink:href="#linearGradient1045"
       inkscape:collect="always" />
    <linearGradient
       gradientTransform="translate(-19.199562,-44.652005)"
       gradientUnits="userSpaceOnUse"
       y2="1157.111"
       x2="-544.48077"
       y1="1495.4609"
       x1="-689.72717"
       id="linearGradient1134"
       xlink:href="#linearGradient1045"
       inkscape:collect="always" />
    <linearGradient
       y2="851.35718"
       x2="-987.59387"
       y1="1234.0872"
       x1="-1127.1049"
       gradientTransform="translate(0,213.65424)"
       gradientUnits="userSpaceOnUse"
       id="linearGradient1160"
       xlink:href="#linearGradient1166"
       inkscape:collect="always" />
    <linearGradient
       id="linearGradient3682-0">
      <stop
         style="stop-color:#a40000;stop-opacity:1"
         offset="0"
         id="stop3684-0" />
      <stop
         style="stop-color:#ef2929;stop-opacity:1"
         offset="1"
         id="stop3686-0" />
    </linearGradient>
    <linearGradient
       id="linearGradient3864-9">
      <stop
         id="stop3866-1"
         offset="0"
         style="stop-color:#204a87;stop-opacity:1" />
      <stop
         id="stop3868-1"
         offset="1"
         style="stop-color:#729fcf;stop-opacity:1" />
    </linearGradient>
    <linearGradient
       id="linearGradient3682-0-3">
      <stop
         style="stop-color:#ff390f;stop-opacity:1"
         offset="0"
         id="stop3684-0-7" />
      <stop
         style="stop-color:#ff1000;stop-opacity:1;"
         offset="1"
         id="stop3686-0-5" />
    </linearGradient>
    <linearGradient
       id="linearGradient3864-9-7">
      <stop
         id="stop3866-1-7"
         offset="0"
         style="stop-color:#316cab;stop-opacity:1" />
      <stop
         id="stop3868-1-4"
         offset="1"
         style="stop-color:#002ca8;stop-opacity:1" />
    </linearGradient>
    <linearGradient
       id="linearGradient3682">
      <stop
         id="stop3684"
         offset="0"
         style="stop-color:#ff6d0f;stop-opacity:1;" />
      <stop
         id="stop3686"
         offset="1"
         style="stop-color:#ff1000;stop-opacity:1;" />
    </linearGradient>
    <linearGradient
       id="linearGradient3864">
      <stop
         style="stop-color:#71b2f8;stop-opacity:1;"
         offset="0"
         id="stop3866" />
      <stop
         style="stop-color:#002795;stop-opacity:1;"
         offset="1"
         id="stop3868" />
    </linearGradient>
    <linearGradient
       gradientTransform="matrix(0.79118995,0,0,0.96421064,-462.08318,3.6442021)"
       gradientUnits="userSpaceOnUse"
       y2="-97.402824"
       x2="-2013.709"
       y1="301.0498"
       x1="-2412.1616"
       id="linearGradient1169"
       xlink:href="#linearGradient1167"
       inkscape:collect="always" />
    <linearGradient
       gradientUnits="userSpaceOnUse"
       y2="-9.260396"
       x2="-2055.4119"
       y1="284.23495"
       x1="-2302.6389"
       id="linearGradient1239"
       xlink:href="#linearGradient1245"
       inkscape:collect="always" />
    <linearGradient
       gradientUnits="userSpaceOnUse"
       y2="1276.7333"
       x2="4327.0557"
       y1="2126.7334"
       x1="3477.0554"
       id="linearGradient3835"
       xlink:href="#linearGradient1045"
       inkscape:collect="always" />
    <mask
       id="mask5747"
       maskUnits="userSpaceOnUse">
      <path
         inkscape:connector-curvature="0"
         id="path5749"
         d="m -1081.0913,3822.7064 -30.9051,-17.7313 -13.6473,4.7355 -13.0203,33.2785 -20.4811,-1.0774 -9.3432,-34.4101 -13.0752,-6.2608 -32.6113,14.2658 -13.7762,-15.3072 17.7314,-30.9049 -4.8453,-13.606 -33.2766,-13.0222 1.1905,-20.5206 34.4107,-9.3432 6.2607,-13.0752 -14.3755,-32.5713 15.3071,-13.7747 30.9051,17.7313 13.7154,-4.8866 12.9107,-33.2346 20.6323,1.1528 9.2335,34.4501 13.0752,6.2606 32.681,-14.4151 13.7747,15.3067 -17.7319,30.9052 4.7754,13.7554 33.2372,12.9128 -1.0398,20.5901 -34.4501,9.2334 -6.2622,13.0752 14.3073,32.721 z m -46.2858,-50.6793 6.3443,-3.6809 5.4951,-4.9832 4.4016,-5.9473 3.1652,-6.6122 1.8707,-7.1279 0.3036,-7.3064 -1.0584,-7.3012 -2.4077,-6.9339 -3.8305,-6.4135 -4.8341,-5.4277 -5.9468,-4.3992 -6.6122,-3.1652 -7.1283,-1.8709 -7.3452,-0.4154 -7.3041,1.0583 -6.9313,2.4077 -6.414,3.8307 -5.3875,4.9432 -4.441,5.8375 -3.1652,6.6122 -1.8143,7.2377 -0.4155,7.3456 1.0579,7.302 2.4078,6.9334 3.7905,6.3042 4.8741,5.5367 5.9468,4.3995 6.6122,3.1652 7.238,1.8142 7.3058,0.3038 7.302,-1.0584 6.9333,-2.4079 z"
         style="display:inline;overflow:visible;visibility:visible;fill:#ffffff;fill-opacity:1;fill-rule:evenodd;stroke:none;stroke-width:9.9998951;stroke-linecap:round;stroke-linejoin:round;stroke-miterlimit:4;stroke-dasharray:none;stroke-dashoffset:0;stroke-opacity:1;marker:none;enable-background:accumulate" />
    </mask>
    <mask
       id="mask2314"
       maskUnits="userSpaceOnUse">
      <path
         inkscape:connector-curvature="0"
         sodipodi:nodetypes="ccccccccccc"
         id="path2316"
         d="m -1868.9759,3355.7772 h -288.3976 v 59.668 h 119.3385 v 59.6685 h 59.668 v -59.6685 h 49.7232 v 99.4479 h 59.6679 z"
         style="display:inline;overflow:visible;visibility:visible;fill:#ffffff;fill-opacity:1;fill-rule:evenodd;stroke:none;stroke-width:9.99989414;stroke-linecap:butt;stroke-linejoin:miter;stroke-miterlimit:4;stroke-dasharray:none;stroke-dashoffset:0;stroke-opacity:1;marker:none;enable-background:accumulate" />
    </mask>
  </defs>
  <sodipodi:namedview
     id="base"
     pagecolor="#ffffff"
     bordercolor="#666666"
     borderopacity="1.0"
     inkscape:pageopacity="0.0"
     inkscape:pageshadow="2"
     inkscape:zoom="15.839192"
     inkscape:cx="37.344077"
     inkscape:cy="28.189569"
     inkscape:document-units="px"
     inkscape:current-layer="layer1"
     showgrid="false"
     inkscape:window-width="3836"
     inkscape:window-height="2093"
     inkscape:window-x="0"
     inkscape:window-y="32"
     inkscape:window-maximized="1"
     units="px"
     inkscape:showpageshadow="2"
     inkscape:pagecheckerboard="0"
     inkscape:deskcolor="#d1d1d1" />
  <metadata
     id="metadata5">
    <rdf:RDF>
      <cc:Work
         rdf:about="">
        <dc:format>image/svg+xml</dc:format>
        <dc:type
           rdf:resource="http://purl.org/dc/dcmitype/StillImage" />
      </cc:Work>
    </rdf:RDF>
  </metadata>
  <g
     inkscape:label="Layer 1"
     inkscape:groupmode="layer"
     id="layer1"
     transform="translate(0,-280.06666)">
    <path
       style="fill:#000000;fill-opacity:1;stroke-width:0.264583"
       id="path1"
       d="m 13.864825,292.99097 c -0.03206,-0.003 -0.06405,-0.006 -0.09617,-0.008 -0.128152,-0.006 -0.157332,-0.002 -0.289444,-0.004 -0.21375,-0.004 -0.427483,-0.0149 -0.641053,-0.0238 -0.08359,-0.003 -0.16714,-0.008 -0.250761,-0.0103 -0.09062,-0.003 -0.181304,-0.002 -0.271923,-0.005 -0.270122,-0.008 -0.329878,-0.015 -0.602675,-0.0247 -0.110943,-0.004 -0.221936,-0.006 -0.332905,-0.01 -0.119107,-0.004 -0.238213,-0.009 -0.35732,-0.013 -0.505962,-0.0183 -1.012567,-0.0279 -1.5188363,-0.0168 -0.1367179,0.003 -0.2733358,0.01 -0.4100269,0.0136 -0.1427136,0.004 -0.2854548,0.007 -0.4281819,0.0112 -0.3057681,0.006 -0.5736762,0.008 -0.8794612,0.0239 -0.1591625,0.008 -0.3180012,0.0221 -0.4770425,0.0325 -0.4061343,0.0267 -0.5708695,0.0339 -0.9750981,0.065 -0.1537613,0.0118 -0.30735,0.0258 -0.4610251,0.0387 -0.8229602,0.0855 -0.08336,0.008 -0.8848712,0.0948 -0.1377447,0.015 -0.2757228,0.0279 -0.4133164,0.0442 -0.5044245,0.0598 -0.3487336,0.0542 -0.8564481,0.10166 -0.1399003,0.0131 -0.2801488,0.0221 -0.4202232,0.0332 -0.1194406,0.23958 -0.6313122,-0.17767 -0.7636274,0.0402 -0.065424,0.10773 0.091462,0.23489 0.1371936,0.35234 0,0 0.048637,0.0351 0.048637,0.0351 v 0 c 0.2727055,0.11124 0.533418,0.25829 0.8181165,0.33373 0.055133,0.0146 0.7050995,-0.0526 0.7485428,-0.0568 0.3135294,-0.0333 0.5256625,-0.0552 0.8407154,-0.0914 0.145038,-0.0166 0.2905072,-0.0302 0.4349226,-0.0516 0.1264804,-0.0187 0.2514026,-0.0468 0.3773755,-0.0687 0.4037373,-0.0702 0.4180192,-0.0691 0.830625,-0.12836 0.376414,-0.0453 0.5210424,-0.067 0.9040649,-0.0954 0.1641046,-0.0122 0.3284088,-0.0223 0.4928447,-0.0286 0.1683403,-0.006 0.3368619,-0.007 0.5053002,-0.01 0.2966937,-0.005 0.5934146,-0.009 0.8901022,-0.0148 0.9226839,-0.005 -0.038578,-0.001 0.8709789,2.1e-4 0.503067,9e-4 1.00623,-0.003 1.509102,0.0156 0.543793,0.0187 0.16509,0.003 0.699399,0.0307 0.135095,0.007 0.473836,0.0224 0.610826,0.0299 0.09656,0.005 0.192984,0.0129 0.289577,0.0175 0.08256,0.004 0.165212,0.005 0.247819,0.008 0.214103,0.007 0.428152,0.0136 0.642145,0.0231 0.09905,0.004 0.201859,0.0119 0.301348,0.01 0.02594,-5.5e-4 0.05171,-0.004 0.07757,-0.006 z" />
    <path
       style="fill:#000000;fill-opacity:1;stroke-width:0.264583"
       id="path2"
       d="m 13.710413,290.46783 c -0.086,0.0365 -0.119252,0.0545 -0.218258,0.0756 -0.05914,0.0127 -0.119507,0.0187 -0.179307,0.0277 -0.07175,0.0108 -0.143661,0.0206 -0.215337,0.0319 -0.471487,0.0744 0.01175,0.005 -0.49275,0.075 -0.79293,0.11024 -1.595772,0.0825 -2.39373,0.0705 -0.5828239,0.003 -1.165651,-0.009 -1.748476,-0.006 -0.2919595,0.002 -0.5838857,0.007 -0.8758375,0.01 -0.7204629,0.005 -1.4412088,0.0189 -2.1614792,-0.007 -0.1345618,-0.005 -0.2690003,-0.0126 -0.4035002,-0.0189 -0.3776422,-0.0192 -0.7553352,-0.0366 -1.1324744,-0.0644 -0.261752,-0.0193 -0.4465751,-0.039 -0.7080946,-0.053 -0.1185082,-0.006 -0.2371833,-0.009 -0.3557749,-0.0135 -0.8148695,0.048 0.066987,-0.10154 -0.2135293,0.29196 -0.051293,0.072 -0.1757871,-0.0182 -0.2636806,-0.0273 0,0 0.048176,0.0358 0.048176,0.0358 v 0 c 0.087931,0.009 0.180416,-0.002 0.2637929,0.0271 1.2052094,0.42438 0.2744785,0.25743 1.1214563,0.37518 0.3532667,0.025 0.7063391,0.0465 1.0600524,0.0641 0.171469,0.009 0.5710825,0.0286 0.7404843,0.0336 0.1215454,0.004 0.2431624,0.004 0.3647435,0.006 0.8358656,-0.002 1.671882,-1.8e-4 2.5075439,-0.0213 1.4809902,-0.0313 -0.6228636,0.0121 0.8671981,-0.0152 0.5715696,-0.0105 1.1432523,-0.0278 1.7149803,-0.0163 0.430316,10e-4 0.86063,0.003 1.290949,0.003 0.285471,10e-5 0.570974,0.004 0.856413,-5.3e-4 0.119053,-0.002 0.238011,-0.008 0.357017,-0.0114 0.174117,-0.0196 0.343803,-0.0343 0.515617,-0.0693 0.231374,-0.0472 0.144467,-0.0422 0.346671,-0.102 0.07144,-0.0211 0.180197,-0.0437 0.255534,-0.0601 z" />
    <path
       style="fill:#000000;fill-opacity:1;stroke-width:0.264583"
       id="path3"
       d="m 13.960171,287.74367 c -0.333017,0.0358 -0.667323,0.0544 -1.001734,0.0709 -0.09651,0.006 -0.193179,0.0103 -0.289522,0.0187 -0.573079,0.0499 -0.148655,0.0328 -0.776503,0.0645 -0.461996,0.0233 -0.924925,0.0257 -1.387332,0.0347 -0.163302,0.002 -0.326655,6.4e-4 -0.489904,0.005 -0.1745334,0.005 -0.3488242,0.0163 -0.5233087,0.0225 -0.6779485,0.0245 -0.4236154,0.009 -1.1010924,0.0297 -0.735633,0.0273 -0.3685631,0.0152 -1.1012083,0.0363 -0.5202905,0.0123 -1.0407402,0.012 -1.5611344,0.0118 -0.178,-7e-5 -0.3560172,0.002 -0.534,-4.5e-4 -0.2798692,-0.004 -0.7952733,-0.0235 -1.0760105,-0.0334 -0.2155804,-0.01 -0.7807743,-0.0395 -1.0013259,-0.0335 -0.1371429,0.004 -0.2772866,5.3e-4 -0.410095,0.0349 -0.086313,0.0224 -0.1549108,0.0883 -0.2328561,0.13164 -0.067367,0.0374 -0.1353775,0.0737 -0.2030663,0.11051 0,0 0.048577,0.0352 0.048577,0.0352 v 0 c 0.1658747,0.0345 0.3319427,0.068 0.4976242,0.10339 0.1967945,0.042 0.3909539,0.0979 0.5897894,0.12883 0.1704099,0.0265 0.3433553,0.0342 0.5155758,0.0433 0.1153263,0.006 0.8607745,0.0152 0.9769965,0.0168 0.3560646,0.009 0.7121578,0.0164 1.0682018,0.026 0.1863325,0.005 0.3725733,0.0139 0.5589542,0.0166 0.5133118,0.007 1.0265077,-0.0135 1.5393583,-0.0313 0.3655889,-0.0135 0.7312589,-0.0249 1.0967951,-0.0397 0.4631986,-0.0188 0.6180526,-0.0343 1.0850303,-0.0394 0.185544,-0.002 0.371102,0.003 0.556656,0.003 0.164705,1.2e-4 0.329408,-0.001 0.494111,-0.002 0.164606,2.9e-4 0.329215,0.002 0.493818,8.2e-4 0.460026,-0.003 0.919955,-0.0176 1.380015,-0.0181 0.138626,-1.6e-4 0.277245,0.005 0.415864,0.004 0.100036,-10e-4 0.199951,-0.007 0.299927,-0.0108 0.367591,-0.0166 0.737088,-0.0326 1.103306,0.0146 z" />
    <path
       style="fill:#000000;fill-opacity:1;stroke-width:0.264583"
       id="path5"
       d="m 7.2352664,282.6352 c -0.012139,0.0206 -0.023609,0.0416 -0.036414,0.0617 -0.065543,0.10319 -0.059124,0.0807 -0.1273207,0.19642 -0.1362872,0.23127 -0.035385,0.0854 -0.1994876,0.33605 -0.045542,0.0696 -0.093692,0.13739 -0.1405377,0.20608 -0.063679,0.0892 -0.1249021,0.18017 -0.1910358,0.26755 -0.1635919,0.21615 -0.2965363,0.3687 -0.475682,0.57289 -0.2401636,0.27373 -0.4881753,0.54026 -0.735199,0.80777 -0.209123,0.24814 -0.4339156,0.48237 -0.649197,0.72501 -0.063943,0.0721 -0.1282912,0.14387 -0.1890636,0.21863 -0.055083,0.0678 -0.1339501,0.12487 -0.1583256,0.20872 -0.025807,0.0888 0.011456,0.18455 0.017185,0.27683 0.077273,0.12106 0.1545457,0.24213 0.2318189,0.3632 0,0 0.05152,0.0308 0.05152,0.0308 v 0 c 0.1577362,0.0193 0.3154723,0.0385 0.4732084,0.0578 0.1011275,-0.028 0.2132404,-0.0303 0.3033819,-0.084 0.075094,-0.0448 0.1152149,-0.13153 0.1711118,-0.19875 0.060859,-0.0732 0.119199,-0.14841 0.1791087,-0.22237 0.2029147,-0.2505 0.4083759,-0.49897 0.6221891,-0.74031 0.1522124,-0.18466 0.2979629,-0.36333 0.4539761,-0.54501 0.3190742,-0.37157 0.6487493,-0.73411 0.9841711,-1.09093 0.086742,-0.10176 0.2181376,-0.25732 0.3095348,-0.35945 0.040102,-0.0448 0.082817,-0.0873 0.1224611,-0.13247 0.068015,-0.0776 0.1252982,-0.16346 0.1944904,-0.23996 z" />
    <path
       style="fill:#000000;fill-opacity:1;stroke-width:0.264583"
       id="path6"
       d="m 3.8810508,282.45695 c 0.2811497,0.25196 0.5674527,0.49808 0.8404175,0.75907 0.08243,0.0788 0.1633947,0.15915 0.2450923,0.23872 0.098838,0.0968 0.1974476,0.19376 0.2965156,0.29028 0.3388651,0.33017 0.3397948,0.32109 0.660658,0.66221 0.098299,0.1045 0.1935197,0.21186 0.2906276,0.31747 0.2866337,0.31173 0.2567768,0.27837 0.5391991,0.57887 0.078796,0.0842 0.3674454,0.39247 0.4503143,0.48273 0.063911,0.0696 0.1261686,0.14073 0.1901817,0.21024 0.066089,0.0718 0.1355349,0.14047 0.2001088,0.21361 0.068652,0.0777 0.2064428,0.2543 0.2748418,0.34094 0.435451,0.32469 0.1704004,0.1461 0.8168722,0.50203 0,0 0.05507,0.0238 0.05507,0.0238 v 0 c 0.4359267,0.11547 0.3024156,0.2014 0.4739032,0.0479 -0.3468487,-0.41558 0.090726,0.10595 -0.3115638,-0.36339 -0.058458,-0.0682 -0.1128134,-0.13994 -0.1731426,-0.20649 -0.069258,-0.0764 -0.1434309,-0.1482 -0.2153679,-0.22208 -0.2416816,-0.24823 -0.2425216,-0.24811 -0.4920168,-0.50057 -0.235358,-0.24025 -0.3493942,-0.3575 -0.590821,-0.6003 -0.326063,-0.32793 -0.3491719,-0.34536 -0.6700906,-0.67624 -0.1013018,-0.10445 -0.2003658,-0.21105 -0.3018047,-0.31537 -0.092966,-0.0956 -0.1875919,-0.18957 -0.2813881,-0.28436 -0.2702165,-0.27176 -0.184319,-0.18757 -0.4399912,-0.4369 -0.096279,-0.0939 -0.2272319,-0.21897 -0.3229623,-0.31775 -0.075242,-0.0776 -0.088661,-0.0949 -0.1485366,-0.16496 z" />
    <circle
       id="path8"
       style="fill:#000000;stroke:#000000;stroke-width:0.264583"
       cx="12.401612"
       cy="285.13638"
       r="0.0016687642" />
    <path
       style="fill:#000000;fill-opacity:1;stroke-width:0.264583"
       id="path9"
       d="m 10.567449,284.76125 c 0.02986,-0.0376 0.06076,-0.0762 0.08969,-0.11438 0.02202,-0.029 0.04272,-0.0591 0.06526,-0.0878 0.09319,-0.11843 0.194233,-0.23029 0.295216,-0.34201 0.03611,-0.0431 0.07149,-0.0868 0.108319,-0.12927 0.13314,-0.15353 0.104446,-0.10949 0.233856,-0.26751 0.03912,-0.0478 0.07568,-0.0976 0.114544,-0.14555 0.114517,-0.14133 0.118928,-0.14254 0.240121,-0.27637 0.230261,-0.25383 0.467352,-0.50112 0.710518,-0.74258 0.03979,-0.044 0.07958,-0.0881 0.119374,-0.1321 0.04161,-0.044 0.08399,-0.0873 0.124821,-0.13202 0.04414,-0.0483 0.08588,-0.0988 0.130039,-0.14716 0.129367,-0.14154 0.263077,-0.27957 0.394758,-0.41898 0.109555,-0.11072 0.213153,-0.22707 0.319799,-0.34053 0.02866,-0.0305 0.0588,-0.0596 0.08675,-0.0907 0.04731,-0.0527 0.0915,-0.10818 0.138443,-0.16123 0.04978,-0.0586 0.104506,-0.11366 0.152439,-0.17382 0.02507,-0.0315 0.0468,-0.0656 0.07215,-0.097 0.0065,-0.0122 0.01046,-0.0266 0.0225,-0.0346 0.0035,-0.002 0.0078,-0.003 0.01081,-0.006 0.003,-0.003 0.01048,-0.008 0.0068,-0.0103 -0.418313,-0.22539 -0.840495,-0.44353 -1.260742,-0.66529 0.0015,0.0738 -0.0056,0.14858 -0.0012,0.22237 0.003,0.0503 0.01077,0.1003 0.01408,0.15061 0.0041,0.062 0.0054,0.12421 0.0081,0.18631 9.52e-4,0.0709 0.0031,0.14183 0.0028,0.21276 -2.57e-4,0.0759 -0.0035,0.15183 -0.0043,0.22775 -0.0028,0.25671 0.0023,0.51354 -0.0045,0.77021 -0.0024,0.0897 -0.0074,0.17934 -0.01106,0.26901 0.02505,0.50322 -0.01542,1.00633 -0.01693,1.50946 -2.91e-4,0.0929 0.0024,0.18587 0.0036,0.2788 0.02247,0.54164 0.03162,1.08376 0.04551,1.62568 0.0023,0.073 0.0039,0.14604 0.007,0.21902 0.01079,0.25307 0.01379,0.18545 0.01906,0.43289 0.0038,0.17582 -8.2e-4,0.35146 -0.0055,0.5272 5.83e-4,0.082 -0.0085,0.16389 -0.0088,0.24592 -1.17e-4,0.0304 0.0026,0.0607 0.0033,0.091 5.56e-4,0.0224 -0.01196,0.0486 6.35e-4,0.0671 0.03001,0.0441 0.07315,0.0793 0.118332,0.10765 0.160289,0.10051 0.330215,0.18477 0.495322,0.27715 0,0 0.05378,0.0266 0.05378,0.0266 v 0 c 0.162677,0.0719 0.321644,0.15291 0.488029,0.21577 0.03499,0.0132 0.07886,0.0288 0.111687,0.0108 0.02015,-0.011 -0.0044,-0.0457 -0.0059,-0.0686 -0.0019,-0.0302 -0.0018,-0.0605 -0.0042,-0.0906 -0.0069,-0.0876 -0.02129,-0.17461 -0.02565,-0.26249 -0.01568,-0.1854 -0.0321,-0.37078 -0.0459,-0.55633 -0.01309,-0.17615 -0.01767,-0.26115 -0.02848,-0.43861 -0.0055,-0.075 -0.01271,-0.14987 -0.01906,-0.2248 -0.04752,-0.54572 -0.0867,-1.09293 -0.08762,-1.64098 -0.0015,-0.0927 -0.0023,-0.18549 -0.0046,-0.27821 -0.01236,-0.50204 -0.03994,-1.00564 0.01355,-1.50655 10e-4,-0.091 5.82e-4,-0.18197 0.003,-0.27291 0.0068,-0.2508 0.02585,-0.50115 0.03916,-0.75162 0.004,-0.0747 0.0058,-0.1496 0.01072,-0.22429 0.0044,-0.0676 0.01146,-0.135 0.01719,-0.2025 0.0068,-0.0569 0.01157,-0.11406 0.02033,-0.17068 0.0065,-0.0422 0.01775,-0.0835 0.02547,-0.12542 0.01171,-0.0637 0.01711,-0.12866 0.03556,-0.19104 -0.418211,-0.23468 -0.837935,-0.46668 -1.254632,-0.70404 -0.0011,-6.3e-4 0.0085,-0.0139 0.01239,-0.007 0.005,0.009 -0.02682,0.0279 -0.02734,0.0329 -0.02155,0.0333 -0.04593,0.0644 -0.06793,0.0973 -0.04125,0.0617 -0.07879,0.12606 -0.121404,0.18692 -0.120394,0.16852 0.0123,-0.0138 -0.125654,0.16431 -0.02475,0.0319 -0.04742,0.0655 -0.07226,0.0974 -0.09398,0.12063 -0.197369,0.23335 -0.297974,0.34837 -0.434069,0.47414 0.198571,-0.21654 -0.255773,0.27823 -0.04397,0.0479 -0.0865,0.0971 -0.131561,0.14398 -0.04557,0.0474 -0.09362,0.0924 -0.140246,0.13874 -0.185653,0.1846 -0.06971,0.0739 -0.261209,0.25163 -0.243231,0.2459 -0.497804,0.48227 -0.711631,0.75521 -0.113365,0.14429 -0.228863,0.28583 -0.347428,0.42587 -0.06567,0.0776 -0.158004,0.19008 -0.2283628,0.26372 -0.039483,0.0413 -0.081909,0.0797 -0.122863,0.11959 -0.039128,0.0402 -0.1830303,0.18778 -0.2227652,0.22892 -0.091373,0.0946 -0.1807024,0.19218 -0.2858817,0.272 z" />
    <path
       style="fill:#000000;fill-opacity:1;stroke-width:0.264583"
       id="path10"
       d="m 14.018727,286.88145 c -0.273968,0.057 -0.55127,0.0962 -0.828168,0.13598 -0.365819,0.051 -0.119945,0.0179 -0.503657,0.0663 -0.08665,0.0109 -0.173834,0.0184 -0.259909,0.0332 -0.07505,0.0129 -0.148136,0.0357 -0.222944,0.0499 -0.265146,0.0505 -0.175963,-0.0355 -0.281814,0.14845 0.02576,0.0629 0.05151,0.12582 0.07727,0.18874 0,0 0.04872,0.035 0.04872,0.035 v 0 c 0.141575,0.0569 0.283151,0.11376 0.424726,0.17064 0.116594,0.0287 0.230713,0.0707 0.349784,0.0862 0.08463,0.0111 0.170616,-0.006 0.255954,-0.007 0.09729,-0.002 0.194721,0.003 0.29191,-0.002 0.09046,-0.004 0.180337,-0.017 0.270501,-0.0255 0.364278,-0.0345 0.17506,-0.0186 0.532305,-0.0451 0.195198,-0.0133 0.390117,-0.0283 0.584814,-0.0478 0.291739,-0.0292 0.01015,-0.003 0.246806,-0.0283 0.02693,-0.003 0.05395,-0.005 0.08092,-0.007 z" />
  </g>
</svg>
