<?xml version="1.0" encoding="UTF-8" standalone="no"?>
<!-- Created with Inkscape (http://www.inkscape.org/) -->

<svg
   width="64"
   height="64"
   viewBox="0 0 16.933333 16.933334"
   version="1.1"
   id="svg8"
   inkscape:version="1.3.2 (091e20ef0f, 2023-11-25, custom)"
   sodipodi:docname="singlepseudo.svg"
   inkscape:export-filename="C:\Users\Ali\Documents\inkscape\freecad\pyrate\pyrate_logo_3_256x256.png"
   inkscape:export-xdpi="1536"
   inkscape:export-ydpi="1536"
   xmlns:inkscape="http://www.inkscape.org/namespaces/inkscape"
   xmlns:sodipodi="http://sodipodi.sourceforge.net/DTD/sodipodi-0.dtd"
   xmlns:xlink="http://www.w3.org/1999/xlink"
   xmlns="http://www.w3.org/2000/svg"
   xmlns:svg="http://www.w3.org/2000/svg"
   xmlns:rdf="http://www.w3.org/1999/02/22-rdf-syntax-ns#"
   xmlns:cc="http://creativecommons.org/ns#"
   xmlns:dc="http://purl.org/dc/elements/1.1/">
  <defs
     id="defs2">
    <linearGradient
       id="linearGradient1245"
       inkscape:collect="always">
      <stop
         id="stop1241"
         offset="0"
         style="stop-color:#aaccff;stop-opacity:1" />
      <stop
         id="stop1243"
         offset="1"
         style="stop-color:#d5f6ff;stop-opacity:1" />
    </linearGradient>
    <linearGradient
       id="linearGradient1167"
       inkscape:collect="always">
      <stop
         id="stop1161"
         offset="0"
         style="stop-color:#00112b;stop-opacity:1" />
      <stop
         id="stop1163"
         offset="1"
         style="stop-color:#2a7fff;stop-opacity:1" />
    </linearGradient>
    <linearGradient
       inkscape:collect="always"
       id="linearGradient1166">
      <stop
         style="stop-color:#41dcff;stop-opacity:1"
         offset="0"
         id="stop1162" />
      <stop
         style="stop-color:#40e0ff;stop-opacity:1"
         offset="1"
         id="stop1164" />
    </linearGradient>
    <linearGradient
       inkscape:collect="always"
       id="linearGradient1058">
      <stop
         style="stop-color:#5175ff;stop-opacity:1"
         offset="0"
         id="stop1054" />
      <stop
         style="stop-color:#40e0ff;stop-opacity:1"
         offset="1"
         id="stop1056" />
    </linearGradient>
    <linearGradient
       id="linearGradient1045"
       inkscape:collect="always">
      <stop
         id="stop1041"
         offset="0"
         style="stop-color:#293449;stop-opacity:1" />
      <stop
         id="stop1043"
         offset="1"
         style="stop-color:#485c80;stop-opacity:1" />
    </linearGradient>
    <linearGradient
       inkscape:collect="always"
       id="linearGradient2480">
      <stop
         style="stop-color:#cc0a08;stop-opacity:1"
         offset="0"
         id="stop2476" />
      <stop
         style="stop-color:#f67d89;stop-opacity:1"
         offset="1"
         id="stop2478" />
    </linearGradient>
    <linearGradient
       id="linearGradient942-5"
       inkscape:collect="always">
      <stop
         id="stop938"
         offset="0"
         style="stop-color:#002076;stop-opacity:1" />
      <stop
         id="stop940"
         offset="1"
         style="stop-color:#40e0ff;stop-opacity:1" />
    </linearGradient>
    <linearGradient
       gradientUnits="userSpaceOnUse"
       y2="31.377413"
       x2="86.543877"
       y1="282.62048"
       x1="20.010984"
       id="linearGradient944"
       xlink:href="#linearGradient942-5"
       inkscape:collect="always" />
    <linearGradient
       gradientUnits="userSpaceOnUse"
       y2="112.66277"
       x2="98.204803"
       y1="257.94366"
       x1="13.302045"
       id="linearGradient952"
       xlink:href="#linearGradient2480"
       inkscape:collect="always" />
    <linearGradient
       gradientTransform="translate(0,1.5875)"
       gradientUnits="userSpaceOnUse"
       y2="133.50244"
       x2="146.68025"
       y1="272.83194"
       x1="101.05925"
       id="linearGradient960"
       xlink:href="#linearGradient2480"
       inkscape:collect="always" />
    <filter
       id="filter1495"
       inkscape:label="Drop Shadow"
       style="color-interpolation-filters:sRGB">
      <feFlood
         id="feFlood1485"
         result="flood"
         flood-color="rgb(0,0,0)"
         flood-opacity="0.498039" />
      <feComposite
         id="feComposite1487"
         result="composite1"
         operator="in"
         in2="SourceGraphic"
         in="flood" />
      <feGaussianBlur
         id="feGaussianBlur1489"
         result="blur"
         stdDeviation="4"
         in="composite1" />
      <feOffset
         id="feOffset1491"
         result="offset"
         dy="4"
         dx="2" />
      <feComposite
         id="feComposite1493"
         result="composite2"
         operator="over"
         in2="offset"
         in="SourceGraphic" />
    </filter>
    <filter
       id="filter2066"
       inkscape:label="Drop Shadow"
       style="color-interpolation-filters:sRGB">
      <feFlood
         id="feFlood2056"
         result="flood"
         flood-color="rgb(0,0,0)"
         flood-opacity="0.498039" />
      <feComposite
         id="feComposite2058"
         result="composite1"
         operator="in"
         in2="SourceGraphic"
         in="flood" />
      <feGaussianBlur
         id="feGaussianBlur2060"
         result="blur"
         stdDeviation="20"
         in="composite1" />
      <feOffset
         id="feOffset2062"
         result="offset"
         dy="20"
         dx="6" />
      <feComposite
         id="feComposite2064"
         result="composite2"
         operator="over"
         in2="offset"
         in="SourceGraphic" />
    </filter>
    <filter
       id="filter2474"
       inkscape:label="Drop Shadow"
       style="color-interpolation-filters:sRGB">
      <feFlood
         id="feFlood2464"
         result="flood"
         flood-color="rgb(0,0,0)"
         flood-opacity="0.498039" />
      <feComposite
         id="feComposite2466"
         result="composite1"
         operator="in"
         in2="SourceGraphic"
         in="flood" />
      <feGaussianBlur
         id="feGaussianBlur2468"
         result="blur"
         stdDeviation="4"
         in="composite1" />
      <feOffset
         id="feOffset2470"
         result="offset"
         dy="4.8"
         dx="1.5" />
      <feComposite
         id="feComposite2472"
         result="composite2"
         operator="over"
         in2="offset"
         in="SourceGraphic" />
    </filter>
    <linearGradient
       gradientTransform="translate(0,290.28571)"
       gradientUnits="userSpaceOnUse"
       y2="398.20157"
       x2="-973.7356"
       y1="746.96252"
       x1="-1123.2253"
       id="linearGradient1033"
       xlink:href="#linearGradient1058"
       inkscape:collect="always" />
    <linearGradient
       gradientTransform="translate(0,213.65424)"
       gradientUnits="userSpaceOnUse"
       y2="851.35718"
       x2="-987.59387"
       y1="1234.0872"
       x1="-1127.1049"
       id="linearGradient1047"
       xlink:href="#linearGradient1045"
       inkscape:collect="always" />
    <linearGradient
       gradientTransform="translate(-19.199562,-44.652005)"
       gradientUnits="userSpaceOnUse"
       y2="1157.111"
       x2="-544.48077"
       y1="1495.4609"
       x1="-689.72717"
       id="linearGradient1134"
       xlink:href="#linearGradient1045"
       inkscape:collect="always" />
    <linearGradient
       y2="851.35718"
       x2="-987.59387"
       y1="1234.0872"
       x1="-1127.1049"
       gradientTransform="translate(0,213.65424)"
       gradientUnits="userSpaceOnUse"
       id="linearGradient1160"
       xlink:href="#linearGradient1166"
       inkscape:collect="always" />
    <linearGradient
       id="linearGradient3682-0">
      <stop
         style="stop-color:#a40000;stop-opacity:1"
         offset="0"
         id="stop3684-0" />
      <stop
         style="stop-color:#ef2929;stop-opacity:1"
         offset="1"
         id="stop3686-0" />
    </linearGradient>
    <linearGradient
       id="linearGradient3864-9">
      <stop
         id="stop3866-1"
         offset="0"
         style="stop-color:#204a87;stop-opacity:1" />
      <stop
         id="stop3868-1"
         offset="1"
         style="stop-color:#729fcf;stop-opacity:1" />
    </linearGradient>
    <linearGradient
       id="linearGradient3682-0-3">
      <stop
         style="stop-color:#ff390f;stop-opacity:1"
         offset="0"
         id="stop3684-0-7" />
      <stop
         style="stop-color:#ff1000;stop-opacity:1;"
         offset="1"
         id="stop3686-0-5" />
    </linearGradient>
    <linearGradient
       id="linearGradient3864-9-7">
      <stop
         id="stop3866-1-7"
         offset="0"
         style="stop-color:#316cab;stop-opacity:1" />
      <stop
         id="stop3868-1-4"
         offset="1"
         style="stop-color:#002ca8;stop-opacity:1" />
    </linearGradient>
    <linearGradient
       id="linearGradient3682">
      <stop
         id="stop3684"
         offset="0"
         style="stop-color:#ff6d0f;stop-opacity:1;" />
      <stop
         id="stop3686"
         offset="1"
         style="stop-color:#ff1000;stop-opacity:1;" />
    </linearGradient>
    <linearGradient
       id="linearGradient3864">
      <stop
         style="stop-color:#71b2f8;stop-opacity:1;"
         offset="0"
         id="stop3866" />
      <stop
         style="stop-color:#002795;stop-opacity:1;"
         offset="1"
         id="stop3868" />
    </linearGradient>
    <linearGradient
       gradientTransform="matrix(0.79118995,0,0,0.96421064,-462.08318,3.6442021)"
       gradientUnits="userSpaceOnUse"
       y2="-97.402824"
       x2="-2013.709"
       y1="301.0498"
       x1="-2412.1616"
       id="linearGradient1169"
       xlink:href="#linearGradient1167"
       inkscape:collect="always" />
    <linearGradient
       gradientUnits="userSpaceOnUse"
       y2="-9.260396"
       x2="-2055.4119"
       y1="284.23495"
       x1="-2302.6389"
       id="linearGradient1239"
       xlink:href="#linearGradient1245"
       inkscape:collect="always" />
    <linearGradient
       gradientUnits="userSpaceOnUse"
       y2="1276.7333"
       x2="4327.0557"
       y1="2126.7334"
       x1="3477.0554"
       id="linearGradient3835"
       xlink:href="#linearGradient1045"
       inkscape:collect="always" />
    <mask
       id="mask5747"
       maskUnits="userSpaceOnUse">
      <path
         inkscape:connector-curvature="0"
         id="path5749"
         d="m -1081.0913,3822.7064 -30.9051,-17.7313 -13.6473,4.7355 -13.0203,33.2785 -20.4811,-1.0774 -9.3432,-34.4101 -13.0752,-6.2608 -32.6113,14.2658 -13.7762,-15.3072 17.7314,-30.9049 -4.8453,-13.606 -33.2766,-13.0222 1.1905,-20.5206 34.4107,-9.3432 6.2607,-13.0752 -14.3755,-32.5713 15.3071,-13.7747 30.9051,17.7313 13.7154,-4.8866 12.9107,-33.2346 20.6323,1.1528 9.2335,34.4501 13.0752,6.2606 32.681,-14.4151 13.7747,15.3067 -17.7319,30.9052 4.7754,13.7554 33.2372,12.9128 -1.0398,20.5901 -34.4501,9.2334 -6.2622,13.0752 14.3073,32.721 z m -46.2858,-50.6793 6.3443,-3.6809 5.4951,-4.9832 4.4016,-5.9473 3.1652,-6.6122 1.8707,-7.1279 0.3036,-7.3064 -1.0584,-7.3012 -2.4077,-6.9339 -3.8305,-6.4135 -4.8341,-5.4277 -5.9468,-4.3992 -6.6122,-3.1652 -7.1283,-1.8709 -7.3452,-0.4154 -7.3041,1.0583 -6.9313,2.4077 -6.414,3.8307 -5.3875,4.9432 -4.441,5.8375 -3.1652,6.6122 -1.8143,7.2377 -0.4155,7.3456 1.0579,7.302 2.4078,6.9334 3.7905,6.3042 4.8741,5.5367 5.9468,4.3995 6.6122,3.1652 7.238,1.8142 7.3058,0.3038 7.302,-1.0584 6.9333,-2.4079 z"
         style="display:inline;overflow:visible;visibility:visible;fill:#ffffff;fill-opacity:1;fill-rule:evenodd;stroke:none;stroke-width:9.9998951;stroke-linecap:round;stroke-linejoin:round;stroke-miterlimit:4;stroke-dasharray:none;stroke-dashoffset:0;stroke-opacity:1;marker:none;enable-background:accumulate" />
    </mask>
    <mask
       id="mask2314"
       maskUnits="userSpaceOnUse">
      <path
         inkscape:connector-curvature="0"
         sodipodi:nodetypes="ccccccccccc"
         id="path2316"
         d="m -1868.9759,3355.7772 h -288.3976 v 59.668 h 119.3385 v 59.6685 h 59.668 v -59.6685 h 49.7232 v 99.4479 h 59.6679 z"
         style="display:inline;overflow:visible;visibility:visible;fill:#ffffff;fill-opacity:1;fill-rule:evenodd;stroke:none;stroke-width:9.99989414;stroke-linecap:butt;stroke-linejoin:miter;stroke-miterlimit:4;stroke-dasharray:none;stroke-dashoffset:0;stroke-opacity:1;marker:none;enable-background:accumulate" />
    </mask>
  </defs>
  <sodipodi:namedview
     id="base"
     pagecolor="#ffffff"
     bordercolor="#666666"
     borderopacity="1.0"
     inkscape:pageopacity="0.0"
     inkscape:pageshadow="2"
     inkscape:zoom="11.2"
     inkscape:cx="29.330357"
     inkscape:cy="36.473214"
     inkscape:document-units="px"
     inkscape:current-layer="layer1"
     showgrid="false"
     inkscape:window-width="3836"
     inkscape:window-height="2093"
     inkscape:window-x="0"
     inkscape:window-y="32"
     inkscape:window-maximized="1"
     units="px"
     inkscape:showpageshadow="2"
     inkscape:pagecheckerboard="0"
     inkscape:deskcolor="#d1d1d1" />
  <metadata
     id="metadata5">
    <rdf:RDF>
      <cc:Work
         rdf:about="">
        <dc:format>image/svg+xml</dc:format>
        <dc:type
           rdf:resource="http://purl.org/dc/dcmitype/StillImage" />
      </cc:Work>
    </rdf:RDF>
  </metadata>
  <g
     inkscape:label="Layer 1"
     inkscape:groupmode="layer"
     id="layer1"
     transform="translate(0,-280.06666)">
    <path
       style="fill:#000000;fill-opacity:1;stroke-width:0.264583"
       id="path1"
       d="m 15.308984,294.47877 c -0.326929,-0.28107 -0.655278,-0.56014 -0.992255,-0.82913 -0.351013,-0.24431 -0.694017,-0.50414 -1.069169,-0.71154 -1.448105,-0.8006 -0.910631,-0.61068 -1.701756,-0.86019 -0.09367,-0.0198 -0.186059,-0.0472 -0.28102,-0.0594 -0.100499,-0.0129 -0.202257,-0.0143 -0.303575,-0.0159 -0.289104,-0.004 -0.571127,0.0311 -0.851967,0.0988 -0.08785,0.0212 -0.1741238,0.0485 -0.2611858,0.0727 -0.3397311,0.11871 -0.6695215,0.26858 -0.9865278,0.43894 -0.120483,0.0647 -0.3593309,0.20672 -0.4765315,0.27563 -0.3964559,0.22985 -0.762113,0.50757 -1.1490569,0.75214 -0.079824,0.0504 -0.1613561,0.0981 -0.2420342,0.14722 -0.306052,0.17714 -0.6142043,0.35462 -0.942552,0.48807 -0.2035976,0.0827 -0.2651564,0.0957 -0.4740357,0.15809 -0.3218085,0.0806 -0.6563119,0.1074 -0.98611,0.0636 -0.2479961,-0.033 -0.3139131,-0.0641 -0.5582119,-0.13787 -0.097351,-0.0368 -0.1956625,-0.0712 -0.2920537,-0.11041 -0.2011976,-0.0819 -0.3739742,-0.16348 -0.5658509,-0.26545 -0.091027,-0.0484 -0.3590872,-0.20267 -0.2695511,-0.15159 1.0828912,0.61782 1.2907806,0.76448 0.7659732,0.41346 -0.1951754,-0.13589 -0.3740086,-0.29236 -0.5403736,-0.46195 -0.052076,-0.0531 -0.094276,-0.11652 -0.1523384,-0.16298 -0.2157351,-0.17263 -0.6382756,-0.41781 -0.8569396,-0.55109 0,0 -0.055054,-0.0239 -0.055054,-0.0239 v 0 c -0.101469,-0.0134 -0.2020882,-0.0425 -0.3044069,-0.0401 -0.044538,10e-4 -0.1266421,0.006 -0.1238686,0.0502 0.00445,0.0714 0.089898,0.11129 0.1372813,0.16485 0.161624,0.18267 0.338412,0.35113 0.5379451,0.49228 0.6783585,0.46858 0.2584606,0.18729 1.7040166,1.0153 0.3607629,0.20664 0.7473387,0.36746 1.1412681,0.49828 0.2469383,0.0665 0.3509182,0.10552 0.6033892,0.13168 0.2439829,0.0253 0.5424503,0.007 0.7829079,-0.0407 0.08031,-0.0159 0.1583899,-0.0416 0.2375847,-0.0623 0.2299494,-0.0752 0.2570475,-0.0784 0.4810488,-0.17484 0.3281902,-0.14125 0.6347952,-0.32572 0.9381805,-0.51314 0.466815,-0.29375 0.9288381,-0.59437 1.3882577,-0.89955 0.4438195,-0.27691 0.9025125,-0.53792 1.3969305,-0.71389 0.211434,-0.0631 0.280731,-0.0914 0.501494,-0.12565 0.36805,-0.0571 0.744308,-0.0436 1.102575,0.0615 0.607319,0.211 0.288611,0.12221 -0.572508,-0.42399 -0.08583,-0.0544 0.178075,0.0981 0.26527,0.15037 0.165525,0.0992 0.374489,0.23628 0.53059,0.34988 0.07395,0.0538 0.144626,0.11199 0.21694,0.16798 0.288822,0.2304 0.580674,0.46155 0.819172,0.7459 z" />
    <path
       style="fill:#000000;fill-opacity:1;stroke-width:0.264583"
       id="path2"
       d="m 15.443033,291.83502 c -0.175305,-0.17492 -0.330902,-0.36838 -0.50357,-0.54574 -0.173761,-0.17848 -0.261665,-0.25403 -0.446512,-0.42335 -0.23705,-0.20191 -0.479142,-0.40211 -0.747894,-0.56142 -0.107305,-0.0636 -1.105049,-0.68217 -1.575897,-0.88816 -0.08642,-0.0378 -0.175742,-0.0686 -0.263613,-0.10294 -0.410417,-0.1399 -0.840536,-0.23854 -1.276278,-0.24005 -0.09113,-3.2e-4 -0.182124,0.007 -0.273185,0.0104 -0.09392,0.007 -0.188086,0.0113 -0.28175,0.0211 -0.1784557,0.0188 -0.4002641,0.0554 -0.5764948,0.0887 -0.1874909,0.0354 -0.3640828,0.0725 -0.5471187,0.12658 -0.089592,0.0265 -0.1773327,0.0588 -0.2659991,0.0882 -0.5275096,0.16833 -0.9904048,0.47738 -1.4500641,0.77732 -0.3148761,0.20289 -0.6375871,0.39343 -0.9645042,0.57621 -0.083285,0.0466 -0.1656895,0.0948 -0.2506212,0.13831 -0.085125,0.0436 -0.1728687,0.0819 -0.2593031,0.12279 -0.3293994,0.14539 -0.6778302,0.25076 -1.0366071,0.29045 -0.2067904,0.0229 -0.2664751,0.0148 -0.4718833,0.01 -0.4168574,-0.0309 -0.8105675,-0.14919 -1.1803862,-0.34297 -0.080043,-0.0419 -0.156858,-0.0898 -0.2352868,-0.13466 1.507707,0.8502 1.0941553,0.6624 0.7181405,0.3718 -0.066644,-0.0515 -0.1315677,-0.10531 -0.1945846,-0.1612 -0.1851742,-0.16421 -0.3475461,-0.34737 -0.5092279,-0.534 -0.051186,-0.0603 -0.099308,-0.12332 -0.1535568,-0.18087 -0.064912,-0.0689 -0.125485,-0.1444 -0.20352,-0.19793 -0.7562623,-0.51881 -0.4680686,-0.14781 -0.7149023,-0.49637 0,0 -0.055,-0.024 -0.055,-0.024 v 0 c 0.026855,0.0406 0.1287145,0.11476 0.080566,0.12168 -0.2290288,0.0329 -0.5441778,-0.24469 -0.3569098,0.0636 0.039054,0.0643 0.091886,0.11912 0.1378297,0.17868 0.1651291,0.19255 0.3308521,0.38545 0.5159616,0.5595 0.5193063,0.48828 1.1701947,0.7973 1.7862371,1.14611 0.2043888,0.1064 0.2696961,0.14776 0.4857507,0.23058 0.3122935,0.11969 0.6421286,0.18554 0.976336,0.19599 0.2145488,-0.009 0.2555301,-0.003 0.4700067,-0.0398 0.3600124,-0.061 0.7044272,-0.18758 1.0381739,-0.33251 0.1244571,-0.0612 0.404481,-0.197 0.5249336,-0.26325 0.080247,-0.0441 0.1579648,-0.0927 0.2363179,-0.14015 0.240995,-0.14584 0.477074,-0.29952 0.7135395,-0.45253 0.4606724,-0.29018 0.914046,-0.57506 1.4355218,-0.74633 0.087493,-0.0272 0.1743858,-0.0565 0.262479,-0.0817 0.445879,-0.12759 0.905687,-0.20695 1.369468,-0.22361 0.09144,8.2e-4 0.18295,-10e-4 0.274323,0.002 0.415783,0.0164 0.826751,0.10015 1.216179,0.24639 0.08448,0.0356 0.17031,0.0683 0.253455,0.10696 0.221597,0.10306 1.323524,0.71212 -0.547821,-0.33874 -0.08956,-0.0503 0.17549,0.10693 0.260604,0.16442 0.219701,0.14841 0.290001,0.21243 0.496255,0.37894 0.07526,0.0677 0.152622,0.13305 0.225767,0.20299 0.225021,0.21516 0.417443,0.46049 0.611223,0.70322 z" />
    <path
       style="fill:#000000;fill-opacity:1;stroke-width:0.264583"
       id="path3"
       d="m 6.4929762,282.8892 c -0.214739,0.14868 -0.4345284,0.29084 -0.6357279,0.45832 -0.063712,0.053 -0.1245205,0.10946 -0.186781,0.16419 -0.5154962,0.41233 -0.9962213,0.86532 -1.4911652,1.30148 -0.2622132,0.22831 -0.5209569,0.46128 -0.7880906,0.6839 -0.076839,0.064 -0.1570186,0.12399 -0.2340472,0.18779 -0.1382287,0.11451 -0.2462382,0.21269 -0.3790734,0.33104 -0.2388323,0.25024 -0.047757,0.0333 -0.2330047,0.28762 -0.02846,0.0391 -0.095333,0.0646 -0.091206,0.11277 0.014147,0.16512 0.3600733,0.4281 0.4210862,0.48431 0,0 0.051326,0.0311 0.051326,0.0311 v 0 c 0.1389891,0.0529 0.4944451,0.22281 0.6883533,0.19631 0.048985,-0.007 0.074813,-0.065 0.1155453,-0.093 0.4744625,-0.32642 -0.1657495,0.15136 0.3267266,-0.22326 0.1222333,-0.10408 0.2624455,-0.22213 0.3809492,-0.32899 0.072786,-0.0656 0.1427131,-0.13439 0.2155852,-0.19993 0.082466,-0.0742 0.1674397,-0.14551 0.2503818,-0.21914 0.1767737,-0.15694 0.3498048,-0.31806 0.5285642,-0.47278 0.4893392,-0.44224 0.9907802,-0.87035 1.5070389,-1.28098 0.2542755,-0.18018 0.5107692,-0.3821 0.7861727,-0.52927 0.026061,-0.0139 0.053662,-0.0248 0.080493,-0.0371 z" />
    <path
       style="fill:#000000;fill-opacity:1;stroke-width:0.264583"
       id="path4"
       d="m 8.1522003,287.19871 c -0.3196362,-0.2527 -0.6173425,-0.53191 -0.9168831,-0.80776 -0.073925,-0.07 -0.148394,-0.13948 -0.2217756,-0.21007 -0.1537904,-0.14795 -0.3037152,-0.29989 -0.4579231,-0.4474 -0.2441652,-0.23357 -0.4964449,-0.45727 -0.7512948,-0.679 -0.3878596,-0.33051 -0.7741139,-0.66299 -1.1695422,-0.98446 -0.2410886,-0.1963 -0.4917374,-0.38038 -0.7429908,-0.56333 -0.1102656,-0.0805 -0.2187141,-0.16353 -0.3264053,-0.24745 -0.01089,-0.007 -0.020754,-0.0163 -0.032668,-0.0216 -0.2196036,-0.0984 -0.4442119,-0.1853 -0.6665061,-0.27749 0,0 -0.055115,-0.0237 -0.055115,-0.0237 v 0 c -0.03207,-0.0123 -0.4966964,-0.19333 -0.6187443,-0.23189 -0.00607,-0.002 0.00918,0.009 0.013769,0.0133 0.1251956,0.0928 0.2510588,0.18465 0.3795497,0.27285 0.2699178,0.19001 0.5402699,0.37957 0.8027164,0.57989 0.4331269,0.33479 0.8612947,0.67616 1.2833835,1.02476 0.2010878,0.17102 0.3123438,0.26283 0.5087366,0.44135 0.3104624,0.2822 0.6027589,0.58326 0.8998334,0.87927 0.2668109,0.26291 0.5439738,0.5147 0.8128889,0.77535 z" />
    <path
       style="fill:#000000;fill-opacity:1;stroke-width:0.264583"
       id="path5"
       d="m 9.5811538,285.05564 c 0.021516,-0.0205 0.043562,-0.0406 0.064551,-0.0617 0.1253781,-0.12603 0.2463371,-0.2549 0.3770812,-0.37572 0.123197,-0.11385 0.240843,-0.21398 0.36768,-0.32388 0.309159,-0.27121 0.609877,-0.55294 0.932722,-0.80819 0.06846,-0.0541 0.138881,-0.10575 0.208321,-0.15862 0.33191,-0.23865 0.665657,-0.4751 0.986221,-0.72892 0.231775,-0.19373 0.472738,-0.37629 0.71533,-0.55619 0.07667,-0.0579 0.15997,-0.10675 0.236435,-0.16497 0.04629,-0.0352 0.08499,-0.0773 0.130826,-0.11295 0.02134,-0.0242 0.0513,-0.0431 0.07044,-0.0694 0.01086,-0.0149 -0.0048,-0.001 0.01117,-0.0134 0.0029,-3.2e-4 0.0068,-0.003 0.0087,-9.6e-4 0.0037,0.004 0.0094,0.0189 0.0044,0.0163 -0.426924,-0.22875 -0.841612,-0.48064 -1.274941,-0.69701 -0.01751,-0.009 -0.0033,0.039 -0.0037,0.0586 -0.0015,0.0745 0.0033,0.13504 0.0072,0.21128 0.02801,0.43066 0.04536,0.86189 0.05772,1.29326 0.0013,0.25273 8.46e-4,0.50586 -0.0059,0.75853 -0.0065,0.24236 -0.02366,0.48468 -0.03403,0.72691 -0.005,0.42091 -0.05626,0.83925 -0.07912,1.25916 -0.0045,0.082 -0.0069,0.16408 -0.01027,0.24612 -0.03111,0.44748 -0.07383,0.89374 -0.118433,1.34002 -0.03749,0.29915 -0.04867,0.60034 -0.07667,0.90032 -0.01065,0.0901 -0.01633,0.18087 -0.02072,0.27148 -7.94e-4,0.0163 -0.0075,0.0897 0.01315,0.10489 0.105227,0.0778 0.221943,0.13861 0.332915,0.20792 0.08302,0.0513 0.166047,0.1025 0.24907,0.15376 0,0 0.05294,0.0282 0.05294,0.0282 v 0 c 0.08536,0.039 0.170717,0.0779 0.256075,0.11693 0.114908,0.0504 0.225215,0.11295 0.344723,0.15116 0.0216,0.007 0.03614,-0.0489 0.04377,-0.0856 0.01875,-0.0903 0.02683,-0.18329 0.02901,-0.27534 0.01114,-0.30683 0.02682,-0.6134 0.03491,-0.92037 0.01064,-0.21667 0.01836,-0.43373 0.0344,-0.65009 0.01749,-0.23589 0.04079,-0.4714 0.05043,-0.70788 0.008,-0.0799 0.01752,-0.15966 0.02413,-0.23969 0.03471,-0.42045 0.03342,-0.84334 0.07582,-1.26329 0.0142,-0.24379 0.02306,-0.48732 0.03259,-0.73132 0.0033,-0.085 0.0096,-0.16981 0.01128,-0.25482 0.0015,-0.0744 -0.0031,-0.43765 -0.0039,-0.51116 -0.0047,-0.20644 -0.006,-0.29726 -0.01388,-0.5026 -0.0099,-0.25618 -0.02813,-0.51257 -0.01149,-0.76897 0.0027,-0.0381 0.0055,-0.0763 0.0082,-0.11443 0.0021,-0.0256 0.0045,-0.0513 0.0063,-0.0769 0.0013,-0.0172 0.01766,-0.0423 0.0031,-0.0516 -0.414805,-0.26622 -0.843398,-0.51036 -1.268232,-0.76026 -0.0049,-0.003 0.0012,0.0116 0.004,0.0166 0.0011,0.002 0.0042,10e-4 0.0063,0.002 -0.02208,0.0121 -0.05515,0.042 -0.0817,0.0561 -0.04793,0.0366 -0.101237,0.0617 -0.150645,0.0963 -0.07785,0.0546 -0.1481,0.11923 -0.222565,0.17807 -0.234409,0.18849 -0.462596,0.38449 -0.699388,0.56997 -0.137239,0.11313 -0.274112,0.22715 -0.414065,0.33692 -0.370704,0.29075 0.04615,-0.043 -0.346982,0.26452 -0.06259,0.049 -0.123894,0.0996 -0.18584,0.14934 -0.204764,0.16356 -0.4147618,0.3226 -0.6125601,0.49463 -0.058261,0.0507 -0.1130403,0.10523 -0.1704004,0.15692 -0.081324,0.0733 -0.2827793,0.24855 -0.3643072,0.31972 -0.2877714,0.24842 -0.5844596,0.48735 -0.9147524,0.67788 z" />
    <path
       style="fill:#000000;fill-opacity:1;stroke-width:0.264583"
       id="path6"
       d="m 13.427183,287.9268 c -0.274351,-0.009 -0.548345,-0.042 -0.823159,-0.0354 -0.09765,0.002 -0.19501,0.0115 -0.292515,0.0173 -0.0127,10e-4 -0.661047,0.0538 -0.670133,0.0652 -0.4452,0.55581 0.550661,0.15041 -0.166741,0.38294 0,0 0.04865,0.0351 0.04865,0.0351 v 0 c 0.134435,0.0181 0.27292,0.0169 0.403303,0.0543 0.260308,0.0747 0.499374,0.21651 0.762564,0.28034 0.03742,0.009 0.689254,-0.01 0.742002,-0.0108 0.368978,-0.006 0.740691,-0.0252 1.106642,0.0349 z" />
  </g>
</svg>
