<?xml version="1.0" encoding="UTF-8" standalone="no"?>
<!-- Created with Inkscape (http://www.inkscape.org/) -->

<svg
   width="64"
   height="64"
   viewBox="0 0 16.933333 16.933334"
   version="1.1"
   id="svg8"
   inkscape:version="1.3.2 (091e20ef0f, 2023-11-25, custom)"
   sodipodi:docname="true.svg"
   inkscape:export-filename="C:\Users\Ali\Documents\inkscape\freecad\pyrate\pyrate_logo_3_256x256.png"
   inkscape:export-xdpi="1536"
   inkscape:export-ydpi="1536"
   xmlns:inkscape="http://www.inkscape.org/namespaces/inkscape"
   xmlns:sodipodi="http://sodipodi.sourceforge.net/DTD/sodipodi-0.dtd"
   xmlns:xlink="http://www.w3.org/1999/xlink"
   xmlns="http://www.w3.org/2000/svg"
   xmlns:svg="http://www.w3.org/2000/svg"
   xmlns:rdf="http://www.w3.org/1999/02/22-rdf-syntax-ns#"
   xmlns:cc="http://creativecommons.org/ns#"
   xmlns:dc="http://purl.org/dc/elements/1.1/">
  <defs
     id="defs2">
    <linearGradient
       id="linearGradient1245"
       inkscape:collect="always">
      <stop
         id="stop1241"
         offset="0"
         style="stop-color:#aaccff;stop-opacity:1" />
      <stop
         id="stop1243"
         offset="1"
         style="stop-color:#d5f6ff;stop-opacity:1" />
    </linearGradient>
    <linearGradient
       id="linearGradient1167"
       inkscape:collect="always">
      <stop
         id="stop1161"
         offset="0"
         style="stop-color:#00112b;stop-opacity:1" />
      <stop
         id="stop1163"
         offset="1"
         style="stop-color:#2a7fff;stop-opacity:1" />
    </linearGradient>
    <linearGradient
       inkscape:collect="always"
       id="linearGradient1166">
      <stop
         style="stop-color:#41dcff;stop-opacity:1"
         offset="0"
         id="stop1162" />
      <stop
         style="stop-color:#40e0ff;stop-opacity:1"
         offset="1"
         id="stop1164" />
    </linearGradient>
    <linearGradient
       inkscape:collect="always"
       id="linearGradient1058">
      <stop
         style="stop-color:#5175ff;stop-opacity:1"
         offset="0"
         id="stop1054" />
      <stop
         style="stop-color:#40e0ff;stop-opacity:1"
         offset="1"
         id="stop1056" />
    </linearGradient>
    <linearGradient
       id="linearGradient1045"
       inkscape:collect="always">
      <stop
         id="stop1041"
         offset="0"
         style="stop-color:#293449;stop-opacity:1" />
      <stop
         id="stop1043"
         offset="1"
         style="stop-color:#485c80;stop-opacity:1" />
    </linearGradient>
    <linearGradient
       inkscape:collect="always"
       id="linearGradient2480">
      <stop
         style="stop-color:#cc0a08;stop-opacity:1"
         offset="0"
         id="stop2476" />
      <stop
         style="stop-color:#f67d89;stop-opacity:1"
         offset="1"
         id="stop2478" />
    </linearGradient>
    <linearGradient
       id="linearGradient942-5"
       inkscape:collect="always">
      <stop
         id="stop938"
         offset="0"
         style="stop-color:#002076;stop-opacity:1" />
      <stop
         id="stop940"
         offset="1"
         style="stop-color:#40e0ff;stop-opacity:1" />
    </linearGradient>
    <linearGradient
       gradientUnits="userSpaceOnUse"
       y2="31.377413"
       x2="86.543877"
       y1="282.62048"
       x1="20.010984"
       id="linearGradient944"
       xlink:href="#linearGradient942-5"
       inkscape:collect="always" />
    <linearGradient
       gradientUnits="userSpaceOnUse"
       y2="112.66277"
       x2="98.204803"
       y1="257.94366"
       x1="13.302045"
       id="linearGradient952"
       xlink:href="#linearGradient2480"
       inkscape:collect="always" />
    <linearGradient
       gradientTransform="translate(0,1.5875)"
       gradientUnits="userSpaceOnUse"
       y2="133.50244"
       x2="146.68025"
       y1="272.83194"
       x1="101.05925"
       id="linearGradient960"
       xlink:href="#linearGradient2480"
       inkscape:collect="always" />
    <filter
       id="filter1495"
       inkscape:label="Drop Shadow"
       style="color-interpolation-filters:sRGB">
      <feFlood
         id="feFlood1485"
         result="flood"
         flood-color="rgb(0,0,0)"
         flood-opacity="0.498039" />
      <feComposite
         id="feComposite1487"
         result="composite1"
         operator="in"
         in2="SourceGraphic"
         in="flood" />
      <feGaussianBlur
         id="feGaussianBlur1489"
         result="blur"
         stdDeviation="4"
         in="composite1" />
      <feOffset
         id="feOffset1491"
         result="offset"
         dy="4"
         dx="2" />
      <feComposite
         id="feComposite1493"
         result="composite2"
         operator="over"
         in2="offset"
         in="SourceGraphic" />
    </filter>
    <filter
       id="filter2066"
       inkscape:label="Drop Shadow"
       style="color-interpolation-filters:sRGB">
      <feFlood
         id="feFlood2056"
         result="flood"
         flood-color="rgb(0,0,0)"
         flood-opacity="0.498039" />
      <feComposite
         id="feComposite2058"
         result="composite1"
         operator="in"
         in2="SourceGraphic"
         in="flood" />
      <feGaussianBlur
         id="feGaussianBlur2060"
         result="blur"
         stdDeviation="20"
         in="composite1" />
      <feOffset
         id="feOffset2062"
         result="offset"
         dy="20"
         dx="6" />
      <feComposite
         id="feComposite2064"
         result="composite2"
         operator="over"
         in2="offset"
         in="SourceGraphic" />
    </filter>
    <filter
       id="filter2474"
       inkscape:label="Drop Shadow"
       style="color-interpolation-filters:sRGB">
      <feFlood
         id="feFlood2464"
         result="flood"
         flood-color="rgb(0,0,0)"
         flood-opacity="0.498039" />
      <feComposite
         id="feComposite2466"
         result="composite1"
         operator="in"
         in2="SourceGraphic"
         in="flood" />
      <feGaussianBlur
         id="feGaussianBlur2468"
         result="blur"
         stdDeviation="4"
         in="composite1" />
      <feOffset
         id="feOffset2470"
         result="offset"
         dy="4.8"
         dx="1.5" />
      <feComposite
         id="feComposite2472"
         result="composite2"
         operator="over"
         in2="offset"
         in="SourceGraphic" />
    </filter>
    <linearGradient
       gradientTransform="translate(0,290.28571)"
       gradientUnits="userSpaceOnUse"
       y2="398.20157"
       x2="-973.7356"
       y1="746.96252"
       x1="-1123.2253"
       id="linearGradient1033"
       xlink:href="#linearGradient1058"
       inkscape:collect="always" />
    <linearGradient
       gradientTransform="translate(0,213.65424)"
       gradientUnits="userSpaceOnUse"
       y2="851.35718"
       x2="-987.59387"
       y1="1234.0872"
       x1="-1127.1049"
       id="linearGradient1047"
       xlink:href="#linearGradient1045"
       inkscape:collect="always" />
    <linearGradient
       gradientTransform="translate(-19.199562,-44.652005)"
       gradientUnits="userSpaceOnUse"
       y2="1157.111"
       x2="-544.48077"
       y1="1495.4609"
       x1="-689.72717"
       id="linearGradient1134"
       xlink:href="#linearGradient1045"
       inkscape:collect="always" />
    <linearGradient
       y2="851.35718"
       x2="-987.59387"
       y1="1234.0872"
       x1="-1127.1049"
       gradientTransform="translate(0,213.65424)"
       gradientUnits="userSpaceOnUse"
       id="linearGradient1160"
       xlink:href="#linearGradient1166"
       inkscape:collect="always" />
    <linearGradient
       id="linearGradient3682-0">
      <stop
         style="stop-color:#a40000;stop-opacity:1"
         offset="0"
         id="stop3684-0" />
      <stop
         style="stop-color:#ef2929;stop-opacity:1"
         offset="1"
         id="stop3686-0" />
    </linearGradient>
    <linearGradient
       id="linearGradient3864-9">
      <stop
         id="stop3866-1"
         offset="0"
         style="stop-color:#204a87;stop-opacity:1" />
      <stop
         id="stop3868-1"
         offset="1"
         style="stop-color:#729fcf;stop-opacity:1" />
    </linearGradient>
    <linearGradient
       id="linearGradient3682-0-3">
      <stop
         style="stop-color:#ff390f;stop-opacity:1"
         offset="0"
         id="stop3684-0-7" />
      <stop
         style="stop-color:#ff1000;stop-opacity:1;"
         offset="1"
         id="stop3686-0-5" />
    </linearGradient>
    <linearGradient
       id="linearGradient3864-9-7">
      <stop
         id="stop3866-1-7"
         offset="0"
         style="stop-color:#316cab;stop-opacity:1" />
      <stop
         id="stop3868-1-4"
         offset="1"
         style="stop-color:#002ca8;stop-opacity:1" />
    </linearGradient>
    <linearGradient
       id="linearGradient3682">
      <stop
         id="stop3684"
         offset="0"
         style="stop-color:#ff6d0f;stop-opacity:1;" />
      <stop
         id="stop3686"
         offset="1"
         style="stop-color:#ff1000;stop-opacity:1;" />
    </linearGradient>
    <linearGradient
       id="linearGradient3864">
      <stop
         style="stop-color:#71b2f8;stop-opacity:1;"
         offset="0"
         id="stop3866" />
      <stop
         style="stop-color:#002795;stop-opacity:1;"
         offset="1"
         id="stop3868" />
    </linearGradient>
    <linearGradient
       gradientTransform="matrix(0.79118995,0,0,0.96421064,-462.08318,3.6442021)"
       gradientUnits="userSpaceOnUse"
       y2="-97.402824"
       x2="-2013.709"
       y1="301.0498"
       x1="-2412.1616"
       id="linearGradient1169"
       xlink:href="#linearGradient1167"
       inkscape:collect="always" />
    <linearGradient
       gradientUnits="userSpaceOnUse"
       y2="-9.260396"
       x2="-2055.4119"
       y1="284.23495"
       x1="-2302.6389"
       id="linearGradient1239"
       xlink:href="#linearGradient1245"
       inkscape:collect="always" />
    <linearGradient
       gradientUnits="userSpaceOnUse"
       y2="1276.7333"
       x2="4327.0557"
       y1="2126.7334"
       x1="3477.0554"
       id="linearGradient3835"
       xlink:href="#linearGradient1045"
       inkscape:collect="always" />
    <mask
       id="mask5747"
       maskUnits="userSpaceOnUse">
      <path
         inkscape:connector-curvature="0"
         id="path5749"
         d="m -1081.0913,3822.7064 -30.9051,-17.7313 -13.6473,4.7355 -13.0203,33.2785 -20.4811,-1.0774 -9.3432,-34.4101 -13.0752,-6.2608 -32.6113,14.2658 -13.7762,-15.3072 17.7314,-30.9049 -4.8453,-13.606 -33.2766,-13.0222 1.1905,-20.5206 34.4107,-9.3432 6.2607,-13.0752 -14.3755,-32.5713 15.3071,-13.7747 30.9051,17.7313 13.7154,-4.8866 12.9107,-33.2346 20.6323,1.1528 9.2335,34.4501 13.0752,6.2606 32.681,-14.4151 13.7747,15.3067 -17.7319,30.9052 4.7754,13.7554 33.2372,12.9128 -1.0398,20.5901 -34.4501,9.2334 -6.2622,13.0752 14.3073,32.721 z m -46.2858,-50.6793 6.3443,-3.6809 5.4951,-4.9832 4.4016,-5.9473 3.1652,-6.6122 1.8707,-7.1279 0.3036,-7.3064 -1.0584,-7.3012 -2.4077,-6.9339 -3.8305,-6.4135 -4.8341,-5.4277 -5.9468,-4.3992 -6.6122,-3.1652 -7.1283,-1.8709 -7.3452,-0.4154 -7.3041,1.0583 -6.9313,2.4077 -6.414,3.8307 -5.3875,4.9432 -4.441,5.8375 -3.1652,6.6122 -1.8143,7.2377 -0.4155,7.3456 1.0579,7.302 2.4078,6.9334 3.7905,6.3042 4.8741,5.5367 5.9468,4.3995 6.6122,3.1652 7.238,1.8142 7.3058,0.3038 7.302,-1.0584 6.9333,-2.4079 z"
         style="display:inline;overflow:visible;visibility:visible;fill:#ffffff;fill-opacity:1;fill-rule:evenodd;stroke:none;stroke-width:9.9998951;stroke-linecap:round;stroke-linejoin:round;stroke-miterlimit:4;stroke-dasharray:none;stroke-dashoffset:0;stroke-opacity:1;marker:none;enable-background:accumulate" />
    </mask>
    <mask
       id="mask2314"
       maskUnits="userSpaceOnUse">
      <path
         inkscape:connector-curvature="0"
         sodipodi:nodetypes="ccccccccccc"
         id="path2316"
         d="m -1868.9759,3355.7772 h -288.3976 v 59.668 h 119.3385 v 59.6685 h 59.668 v -59.6685 h 49.7232 v 99.4479 h 59.6679 z"
         style="display:inline;overflow:visible;visibility:visible;fill:#ffffff;fill-opacity:1;fill-rule:evenodd;stroke:none;stroke-width:9.99989414;stroke-linecap:butt;stroke-linejoin:miter;stroke-miterlimit:4;stroke-dasharray:none;stroke-dashoffset:0;stroke-opacity:1;marker:none;enable-background:accumulate" />
    </mask>
  </defs>
  <sodipodi:namedview
     id="base"
     pagecolor="#ffffff"
     bordercolor="#666666"
     borderopacity="1.0"
     inkscape:pageopacity="0.0"
     inkscape:pageshadow="2"
     inkscape:zoom="15.839192"
     inkscape:cx="37.344077"
     inkscape:cy="28.189569"
     inkscape:document-units="px"
     inkscape:current-layer="layer1"
     showgrid="false"
     inkscape:window-width="3836"
     inkscape:window-height="2093"
     inkscape:window-x="0"
     inkscape:window-y="32"
     inkscape:window-maximized="1"
     units="px"
     inkscape:showpageshadow="2"
     inkscape:pagecheckerboard="0"
     inkscape:deskcolor="#d1d1d1" />
  <metadata
     id="metadata5">
    <rdf:RDF>
      <cc:Work
         rdf:about="">
        <dc:format>image/svg+xml</dc:format>
        <dc:type
           rdf:resource="http://purl.org/dc/dcmitype/StillImage" />
      </cc:Work>
    </rdf:RDF>
  </metadata>
  <g
     inkscape:label="Layer 1"
     inkscape:groupmode="layer"
     id="layer1"
     transform="translate(0,-280.06666)">
    <path
       style="fill:#000000;fill-opacity:1;stroke-width:0.264583"
       id="path3"
       d="m 13.891446,293.14465 c -0.338845,0.0615 -0.680278,0.10547 -1.022251,0.14513 -0.439973,0.065 -0.883958,0.092 -1.327624,0.11601 -0.134715,0.007 -0.269357,0.0162 -0.404171,0.0214 -0.14431,0.006 -0.288743,0.007 -0.433115,0.0106 -0.601658,0.0131 -1.2034346,-0.0113 -1.8050664,0.002 -0.1669923,0.004 -0.3338539,0.012 -0.5008007,0.0173 -0.1756828,0.006 -0.3513903,0.0105 -0.5270855,0.0158 -1.012303,0.0506 -2.0254942,0.0738 -3.0387534,0.0936 -0.6550475,0.006 -1.3098442,-0.0184 -1.9643178,-0.0425 -0.2948364,0.0367 -0.1829866,-0.0175 0.15836,0.33752 0,0 0.048653,0.0351 0.048653,0.0351 v 0 c 0.6187035,0.34139 0.3494085,0.29697 0.7523101,0.32321 0.6013511,-0.0354 1.2039212,-0.0441 1.8055048,-0.0755 0.1462088,-0.006 0.2924694,-0.0109 0.438626,-0.0181 0.8442696,-0.0415 1.6874062,-0.1114 2.5329916,-0.12297 0.1790282,-0.002 0.3580405,-0.007 0.5370851,-0.007 0.1778238,8e-5 0.3556093,0.005 0.5334159,0.008 0.6095883,0.009 1.2192313,0.0122 1.8288803,0.0133 0.294756,-6.4e-4 0.589546,0.003 0.884269,-0.002 0.473075,-0.007 0.945573,-0.0376 1.418105,-0.0589 0.248767,-0.0208 0.246509,-0.0205 0.487053,-0.041 0.174588,-0.0149 0.349565,-0.0314 0.524766,-0.0376 0.03041,-10e-4 0.06085,-2.6e-4 0.09128,-4e-4 z" />
    <path
       style="fill:#000000;fill-opacity:1;stroke-width:0.264583"
       id="path4"
       d="m 13.69665,290.40526 c -0.3205,0.0613 -0.647577,0.0756 -0.972125,0.10306 -0.65676,0.0416 -1.315279,0.0475 -1.973129,0.0423 -0.385876,-0.009 -0.771618,-0.0184 -1.1575877,-0.0224 -0.130684,-10e-4 -0.2613686,-0.005 -0.392054,-0.004 -0.1367663,10e-4 -0.2734276,0.008 -0.4101624,0.0112 -0.1398865,0.003 -0.2797969,0.005 -0.4196953,0.008 -0.4061347,0.0162 -0.8128294,0.0137 -1.2189992,0.0281 -0.1310191,0.005 -0.2618534,0.0136 -0.3928441,0.019 -0.2784777,0.0114 -0.4789231,0.0152 -0.7560562,0.022 -0.2152978,0.008 -0.4308258,0.005 -0.646158,0.0106 -0.098474,0.003 -0.1968196,0.009 -0.2952777,0.0123 -0.2604711,0.009 -0.521131,0.0103 -0.781645,0.0175 -0.075924,0.003 -0.1518441,0.007 -0.2277706,0.0103 -0.1536692,0.007 -0.2594475,0.0129 -0.4122645,0.0131 -0.1709832,2.4e-4 -0.3419533,-0.009 -0.5127273,-0.0161 -0.119326,-0.007 -0.2391275,-0.0111 -0.3580178,-0.0245 -0.035734,-0.004 -0.071144,-0.0106 -0.1068702,-0.0147 -0.069041,-0.008 -0.1062492,-0.009 -0.174413,-0.0121 -0.1067102,-0.006 -0.2134715,-0.0116 -0.3203054,-0.0154 -0.026405,-9.3e-4 -0.083709,-0.0285 -0.079227,-0.002 0.0092,0.0534 0.067184,0.0851 0.1007756,0.12765 0.079071,0.0744 0.1581422,0.14888 0.2372133,0.22332 0,0 0.048279,0.0356 0.048279,0.0356 v 0 c 0.1279882,0.0781 0.2559765,0.15613 0.3839644,0.2342 0.088276,0.0462 0.1727118,0.10054 0.2648276,0.13845 0.025823,0.0106 0.055742,0.004 0.083631,0.005 0.1057381,0.005 0.211595,0.009 0.3174043,0.0126 0.049896,0.001 0.1078693,0.003 0.1577372,0.001 0.026419,-0.001 0.05266,-0.005 0.079082,-0.006 0.1081292,-0.005 0.2166816,0.002 0.324675,-0.007 0.3475207,-0.0242 0.6925617,-0.0758 1.0406605,-0.0941 0.2426592,-0.0196 0.4853165,-0.041 0.7284056,-0.0546 0.097666,-0.005 0.1954922,-0.008 0.2931475,-0.0135 0.2011765,-0.0117 0.4018566,-0.0311 0.6030939,-0.0419 0.2696337,-0.0172 0.4557795,-0.0306 0.7281445,-0.0417 0.1337302,-0.005 0.267594,-0.007 0.4013324,-0.0123 0.3964589,-0.0155 0.7924846,-0.0434 1.1893725,-0.0477 0.1394442,-0.003 0.2788645,-0.007 0.4183325,-0.008 0.1434013,-4.8e-4 0.2867811,0.004 0.4301765,0.005 0.1297491,10e-4 0.2595171,6.8e-4 0.3892541,0.003 0.388736,0.007 0.777375,0.0214 1.166106,0.0285 0.12952,0.004 0.63366,0.018 0.766338,0.0198 0.430706,0.006 0.861482,-0.007 1.292181,-0.007 0.09117,-1.9e-4 0.182344,5.8e-4 0.273505,-5.6e-4 0.27539,-0.003 0.550692,-0.0224 0.826196,-0.0129 z" />
    <path
       style="fill:#000000;fill-opacity:1;stroke-width:0.264583"
       id="path5"
       d="m 13.350689,287.44234 c -0.245843,0.0332 -0.494422,0.0226 -0.741652,0.0292 -0.08087,0.002 -0.161666,0.006 -0.242498,0.01 -0.303423,0.0134 -0.607233,0.006 -0.91077,0.0118 -0.135534,0.003 -0.270953,0.01 -0.406495,0.0122 -0.153847,0.002 -0.307732,8.2e-4 -0.461596,0.002 -0.166539,9.8e-4 -0.333074,0.003 -0.499611,0.004 -0.680083,-0.002 -0.3551297,-2.5e-4 -1.0345339,-0.007 -0.1672878,-0.002 -0.3345762,-0.006 -0.5018633,-0.005 -0.1764498,0.002 -0.3527501,0.011 -0.529168,0.0148 -0.2834039,0.006 -0.7891899,0.011 -1.0746258,0.0142 -0.8658654,0.008 -1.7315252,0.0283 -2.5972125,0.0471 -0.5916449,0.009 -1.1831929,0.0244 -1.7747683,0.0375 -0.3616006,0.004 -0.7230716,0.0156 -1.0846294,0.0217 -0.041466,0.0504 -0.1313051,-0.0335 -0.1760409,0.005 -0.014116,0.012 0.00161,0.041 0.015427,0.0534 0.1146845,0.10245 0.2420156,0.1898 0.3630234,0.2847 0,0 0.049222,0.0343 0.049222,0.0343 v 0 c 0.1414524,0.0908 0.279154,0.18783 0.4243573,0.27255 0.034509,0.0201 0.073252,0.0345 0.1126986,0.0408 0.047111,0.008 0.091763,-0.0505 0.1409821,-0.0248 0.3286551,-0.0441 0.6601122,-0.0635 0.9908358,-0.085 0.5636734,-0.0329 1.1273796,-0.0649 1.6910463,-0.0977 0.3739579,-0.0216 0.7477969,-0.0463 1.1219122,-0.065 0.1448345,-0.007 0.2897738,-0.0123 0.434607,-0.0196 1.2894914,-0.0649 -0.4465503,0.0163 0.9214279,-0.0465 0.4368252,-0.0131 0.6211964,-0.0222 1.0633774,-0.0209 0.1867593,5.3e-4 0.3734586,0.007 0.5602152,0.009 0.1639308,9.7e-4 0.3278624,-0.002 0.4917962,-0.002 0.5160467,-5e-4 0.5160247,10e-4 1.0363677,0.008 0.334623,0.009 0.669367,0.0133 1.003871,0.0256 0.151628,0.006 0.303011,0.0169 0.454646,0.0223 0.315047,0.0112 0.63039,0.005 0.945515,0.0111 0.08663,8.5e-4 0.173259,0.003 0.259893,0.003 0.258668,-0.001 0.517465,-0.0232 0.776088,-0.005 z" />
    <path
       style="fill:#000000;fill-opacity:1;stroke-width:0.264583"
       id="path6"
       d="m 9.4705926,282.8724 c -0.067491,0.0604 -0.1453491,0.10734 -0.2215287,0.15558 -0.040475,0.0256 -0.080338,0.0523 -0.1216266,0.0766 -0.1106704,0.0651 -0.1857126,0.10101 -0.3008847,0.15962 -0.1099172,0.062 -0.2257687,0.11287 -0.3363743,0.17358 -0.061552,0.0338 -0.1209818,0.0713 -0.1819323,0.10618 -0.1974421,0.11292 -0.3966927,0.22287 -0.5959491,0.33255 -0.364054,0.19924 -0.7288969,0.39645 -1.1013607,0.57957 -0.056903,0.0298 -0.1130686,0.0611 -0.1707081,0.0894 -0.056158,0.0276 -0.1139926,0.0517 -0.1705713,0.0785 -0.2245037,0.10613 -0.448019,0.21434 -0.6687561,0.3281 -0.2239521,0.11481 -0.4456592,0.23402 -0.6719546,0.34422 -0.055913,0.0272 -0.1113648,0.0555 -0.1683642,0.0804 -0.056831,0.0248 -0.1152864,0.0457 -0.1729296,0.0685 -0.2213253,0.0805 -0.451404,0.13076 -0.6877764,0.12717 -0.150521,-0.002 -0.2018549,-0.0154 -0.3497006,-0.0382 -0.057901,-0.0152 -0.1168207,-0.0269 -0.1737016,-0.0455 -0.1164625,-0.0382 -0.2541641,-0.10164 -0.3624427,-0.15779 -0.057247,-0.0297 -0.2248217,-0.12644 -0.1687912,-0.0945 0.928157,0.52879 1.1354213,0.68262 0.7281191,0.39393 -0.1397847,-0.11079 -0.2740809,-0.23248 -0.3763812,-0.37986 -0.052959,-0.0763 -0.071511,-0.11875 -0.113924,-0.20088 -0.081536,-0.19001 -0.1347706,-0.39514 -0.1313358,-0.60331 6.615e-4,-0.0402 0.00627,-0.0803 0.0094,-0.12038 0.024916,-0.16056 0.069351,-0.31939 0.1537227,-0.4596 0.068473,-0.11378 0.085608,-0.12331 0.1751587,-0.22378 0.090406,-0.0792 0.1280202,-0.11981 0.2328568,-0.1807 0.1438389,-0.0835 0.3063449,-0.1382 0.4676093,-0.17589 0.056817,-0.0133 0.1145508,-0.0223 0.1718262,-0.0334 0.2229726,-0.0321 0.4481389,-0.0426 0.6725542,-0.0209 0.1455986,0.014 0.1843593,0.0241 0.3291584,0.05 0.3359679,0.0649 0.659856,0.17553 0.9792531,0.29599 0.327593,0.13058 0.6502786,0.27338 0.9671304,0.42814 0.058071,0.0304 0.1164876,0.0601 0.1742138,0.0912 0.05962,0.0321 0.2362849,0.13225 0.1778048,0.0981 -1.5404386,-0.89835 -0.9004083,-0.52393 -0.6157611,-0.34962 0.06017,0.0368 0.1201065,0.0741 0.1799286,0.11148 0.057505,0.036 0.1146998,0.0724 0.1720498,0.10862 0.2470777,0.1529 0.487944,0.31653 0.7392784,0.46254 0.3967149,0.23047 0.7944146,0.45923 1.191622,0.68885 0.2719173,0.15109 0.5526892,0.28497 0.8327638,0.41996 0.2069662,0.0954 0.4093992,0.20094 0.6188762,0.29091 0.117026,0.0503 0.257179,0.10334 0.375433,0.1492 0.06819,0.0237 0.135776,0.0492 0.204582,0.0711 0.07192,0.0229 0.144692,0.043 0.217449,0.063 0.122024,0.0336 0.298557,0.0795 0.424581,0.10145 0.162741,0.0283 0.216256,0.0265 0.377938,0.035 0.112781,-0.005 0.21296,-0.004 0.323828,-0.0278 0.04926,-0.0106 0.09697,-0.0276 0.144654,-0.0438 0.08184,-0.0279 0.191158,-0.0725 0.268592,-0.11198 0.03987,-0.0203 0.07774,-0.0444 0.116614,-0.0666 0.137667,-0.0892 0.266372,-0.19166 0.37818,-0.31197 0.0254,-0.0273 0.05068,-0.0549 0.07316,-0.0847 0.02241,-0.0297 0.04081,-0.0622 0.06122,-0.0933 0.06635,-0.12137 0.126658,-0.25125 0.152336,-0.38833 0.01196,-0.0638 0.01703,-0.15762 0.02178,-0.22214 0.0067,-0.15616 -0.0172,-0.30944 -0.05757,-0.45978 -0.01,-0.0372 -0.01843,-0.075 -0.03232,-0.11089 -0.01627,-0.0421 -0.0386,-0.0815 -0.0579,-0.12227 -0.114118,-0.21441 -0.291533,-0.38223 -0.491458,-0.51659 -0.03915,-0.0263 -0.08008,-0.0499 -0.120121,-0.0748 -0.473633,-0.25529 -0.952606,-0.64446 -1.50342,-0.76848 -0.101625,-0.0229 -0.128638,-0.0237 -0.230688,-0.0361 -0.10859,-0.001 -0.218242,-0.005 -0.326626,0.005 -0.03884,0.003 -0.07727,0.0106 -0.115964,0.0153 -0.09847,0.0122 -0.151885,0.0173 -0.250859,0.0276 -0.04117,0.005 -0.08248,0.008 -0.123521,0.0136 -0.04268,0.006 -0.08494,0.0144 -0.127569,0.0205 -0.164799,0.0237 -0.330769,0.0397 -0.4962585,0.0576 -0.2295832,0.0283 -0.4585211,0.0616 -0.6878672,0.0918 -0.1500791,0.0255 -0.3026177,0.041 -0.4511514,0.0752 -0.03213,0.007 -0.092423,-0.007 -0.095407,0.0261 -0.00486,0.0535 0.053553,0.0932 0.08033,0.13979 0.073831,0.0759 0.1476616,0.15185 0.2214923,0.22778 0,0 0.049038,0.0346 0.049038,0.0346 v 0 c 0.1315103,0.0677 0.2630204,0.1353 0.3945305,0.20296 0.091195,0.035 0.1784466,0.0829 0.2735868,0.10496 0.036726,0.009 0.074939,-0.009 0.1120746,-0.0153 0.1424319,-0.0251 0.281436,-0.0696 0.4259259,-0.0841 0.221832,-0.0357 0.443572,-0.0721 0.665968,-0.10409 0.160431,-0.0226 0.320658,-0.0492 0.481445,-0.0691 0.04489,-0.006 0.09006,-0.009 0.134974,-0.014 0.03911,-0.005 0.07805,-0.0107 0.11708,-0.0161 0.103201,-0.0118 0.145747,-0.0182 0.250183,-0.0238 0.04123,-0.002 0.08254,-0.002 0.123801,-0.004 0.104222,-0.003 0.208643,-0.007 0.312112,0.0105 0.112194,0.0171 0.2137,0.0373 0.321275,0.0757 0.385736,0.13752 0.97349,0.55271 -0.659423,-0.41887 0.04183,0.0229 0.08438,0.0445 0.125498,0.0686 0.194259,0.11411 0.371554,0.25656 0.490469,0.45077 0.01869,0.0336 0.03998,0.0658 0.05606,0.10069 0.07356,0.15962 0.09339,0.34736 0.09499,0.52097 -0.0018,0.0336 -0.0015,0.0674 -0.0055,0.10082 -0.01028,0.0869 -0.03618,0.18795 -0.07102,0.26832 -0.02917,0.0673 -0.05519,0.10177 -0.09506,0.16339 -0.04913,0.0633 -0.07444,0.0984 -0.128597,0.15806 -0.102335,0.11268 -0.219301,0.21073 -0.353553,0.28342 -0.08269,0.0435 -0.142653,0.0781 -0.230442,0.11197 -0.181216,0.0699 -0.376054,0.0935 -0.569294,0.0893 -0.05614,-0.004 -0.112483,-0.005 -0.168431,-0.0112 -0.342879,-0.0367 -0.675691,-0.13869 -0.995834,-0.26323 -0.065813,-0.0272 -0.1320746,-0.0534 -0.1974391,-0.0817 -0.275654,-0.11936 -0.5441064,-0.25492 -0.8152585,-0.38393 -0.2805134,-0.137 -0.560636,-0.27555 -0.8318596,-0.43035 1.9394912,1.12312 0.5655231,0.33603 0.1332633,0.0574 -0.1842498,-0.11498 -0.367351,-0.23256 -0.555089,-0.34182 -0.394212,-0.22945 -0.7888523,-0.45816 -1.1843862,-0.68532 -0.06335,-0.0364 -0.1275445,-0.0713 -0.1922203,-0.10527 -0.055963,-0.0294 -0.1130879,-0.0565 -0.1696318,-0.0848 -0.3279534,-0.16048 -0.6586704,-0.31651 -1.0025245,-0.44047 -0.3213709,-0.11468 -0.6481937,-0.21809 -0.9861037,-0.27148 -0.1263629,-0.017 -0.207159,-0.0309 -0.3347471,-0.0358 -0.052425,-0.002 -0.1049465,-6.5e-4 -0.1573935,7.2e-4 -0.1733466,0.005 -0.3467791,0.0187 -0.5170004,0.053 -0.060258,0.0129 -0.1210966,0.0233 -0.1807747,0.0387 -0.1728351,0.0445 -0.3499017,0.10689 -0.5033651,0.19938 -0.1145823,0.0691 -0.1514514,0.11254 -0.2479924,0.20239 -0.075182,0.0809 -0.1448207,0.14883 -0.2055804,0.24183 -0.024339,0.0373 -0.042857,0.0781 -0.062135,0.11817 -0.058525,0.12177 -0.1028916,0.24874 -0.1191907,0.3835 -0.01134,0.17591 -0.019859,0.35099 0.00452,0.52632 0.00579,0.0417 0.011524,0.0835 0.021767,0.12428 0.00988,0.0393 0.025616,0.077 0.038424,0.11544 0.01608,0.0376 0.030134,0.0762 0.048241,0.11287 0.1073596,0.21756 0.2756573,0.39216 0.4629006,0.54318 0.4976165,0.3794 0.1566212,0.12857 1.3258687,0.80127 0.1646409,0.0947 0.3757673,0.18316 0.5581571,0.23484 0.062978,0.0178 0.1277466,0.0286 0.1916199,0.0429 0.1665531,0.0187 0.2002904,0.0287 0.3679971,0.0224 0.2450891,-0.009 0.4825992,-0.067 0.7081721,-0.16228 0.1044927,-0.0446 0.24867,-0.10487 0.3507494,-0.15411 0.2258777,-0.10896 0.441833,-0.23798 0.6685712,-0.34532 0.1681887,-0.0804 0.3364328,-0.1607 0.5045527,-0.24126 0.056883,-0.0273 0.1143622,-0.0533 0.1709108,-0.0812 0.054995,-0.0272 0.108607,-0.0571 0.1636797,-0.0841 0.059675,-0.0293 0.12034,-0.0565 0.1805099,-0.0847 0.2351826,-0.12481 0.467745,-0.25404 0.6972512,-0.38906 0.059847,-0.0352 0.1186273,-0.0722 0.1784411,-0.10747 0.063376,-0.0374 0.1274096,-0.0736 0.1911144,-0.1104 0.1997874,-0.11092 0.4000862,-0.22198 0.6044922,-0.32428 0.064831,-0.0324 0.1310127,-0.0621 0.1962605,-0.0937 0.3189645,-0.15447 0.026321,-0.017 0.3464724,-0.16567 0.1516997,-0.0719 0.1701877,-0.0815 0.3219507,-0.15038 0.04869,-0.0221 0.09815,-0.0425 0.146412,-0.0655 0.20411,-0.0974 0.01787,-0.0164 0.194303,-0.0991 0.02339,-0.011 0.04747,-0.0204 0.07121,-0.0306 z" />
  </g>
</svg>
