<?xml version="1.0" encoding="UTF-8" standalone="no"?>
<!-- Created with Inkscape (http://www.inkscape.org/) -->

<svg
   width="64"
   height="64"
   viewBox="0 0 16.933333 16.933334"
   version="1.1"
   id="svg8"
   inkscape:version="1.3.2 (091e20ef0f, 2023-11-25, custom)"
   sodipodi:docname="workbench.svg"
   inkscape:export-filename="C:\Users\Ali\Documents\inkscape\freecad\pyrate\pyrate_logo_3_256x256.png"
   inkscape:export-xdpi="1536"
   inkscape:export-ydpi="1536"
   xmlns:inkscape="http://www.inkscape.org/namespaces/inkscape"
   xmlns:sodipodi="http://sodipodi.sourceforge.net/DTD/sodipodi-0.dtd"
   xmlns:xlink="http://www.w3.org/1999/xlink"
   xmlns="http://www.w3.org/2000/svg"
   xmlns:svg="http://www.w3.org/2000/svg"
   xmlns:rdf="http://www.w3.org/1999/02/22-rdf-syntax-ns#"
   xmlns:cc="http://creativecommons.org/ns#"
   xmlns:dc="http://purl.org/dc/elements/1.1/">
  <defs
     id="defs2">
    <linearGradient
       id="linearGradient1245"
       inkscape:collect="always">
      <stop
         id="stop1241"
         offset="0"
         style="stop-color:#aaccff;stop-opacity:1" />
      <stop
         id="stop1243"
         offset="1"
         style="stop-color:#d5f6ff;stop-opacity:1" />
    </linearGradient>
    <linearGradient
       id="linearGradient1167"
       inkscape:collect="always">
      <stop
         id="stop1161"
         offset="0"
         style="stop-color:#00112b;stop-opacity:1" />
      <stop
         id="stop1163"
         offset="1"
         style="stop-color:#2a7fff;stop-opacity:1" />
    </linearGradient>
    <linearGradient
       inkscape:collect="always"
       id="linearGradient1166">
      <stop
         style="stop-color:#41dcff;stop-opacity:1"
         offset="0"
         id="stop1162" />
      <stop
         style="stop-color:#40e0ff;stop-opacity:1"
         offset="1"
         id="stop1164" />
    </linearGradient>
    <linearGradient
       inkscape:collect="always"
       id="linearGradient1058">
      <stop
         style="stop-color:#5175ff;stop-opacity:1"
         offset="0"
         id="stop1054" />
      <stop
         style="stop-color:#40e0ff;stop-opacity:1"
         offset="1"
         id="stop1056" />
    </linearGradient>
    <linearGradient
       id="linearGradient1045"
       inkscape:collect="always">
      <stop
         id="stop1041"
         offset="0"
         style="stop-color:#293449;stop-opacity:1" />
      <stop
         id="stop1043"
         offset="1"
         style="stop-color:#485c80;stop-opacity:1" />
    </linearGradient>
    <linearGradient
       inkscape:collect="always"
       id="linearGradient2480">
      <stop
         style="stop-color:#cc0a08;stop-opacity:1"
         offset="0"
         id="stop2476" />
      <stop
         style="stop-color:#f67d89;stop-opacity:1"
         offset="1"
         id="stop2478" />
    </linearGradient>
    <linearGradient
       id="linearGradient942-5"
       inkscape:collect="always">
      <stop
         id="stop938"
         offset="0"
         style="stop-color:#002076;stop-opacity:1" />
      <stop
         id="stop940"
         offset="1"
         style="stop-color:#40e0ff;stop-opacity:1" />
    </linearGradient>
    <linearGradient
       gradientUnits="userSpaceOnUse"
       y2="31.377413"
       x2="86.543877"
       y1="282.62048"
       x1="20.010984"
       id="linearGradient944"
       xlink:href="#linearGradient942-5"
       inkscape:collect="always" />
    <linearGradient
       gradientUnits="userSpaceOnUse"
       y2="112.66277"
       x2="98.204803"
       y1="257.94366"
       x1="13.302045"
       id="linearGradient952"
       xlink:href="#linearGradient2480"
       inkscape:collect="always" />
    <linearGradient
       gradientTransform="translate(0,1.5875)"
       gradientUnits="userSpaceOnUse"
       y2="133.50244"
       x2="146.68025"
       y1="272.83194"
       x1="101.05925"
       id="linearGradient960"
       xlink:href="#linearGradient2480"
       inkscape:collect="always" />
    <filter
       id="filter1495"
       inkscape:label="Drop Shadow"
       style="color-interpolation-filters:sRGB">
      <feFlood
         id="feFlood1485"
         result="flood"
         flood-color="rgb(0,0,0)"
         flood-opacity="0.498039" />
      <feComposite
         id="feComposite1487"
         result="composite1"
         operator="in"
         in2="SourceGraphic"
         in="flood" />
      <feGaussianBlur
         id="feGaussianBlur1489"
         result="blur"
         stdDeviation="4"
         in="composite1" />
      <feOffset
         id="feOffset1491"
         result="offset"
         dy="4"
         dx="2" />
      <feComposite
         id="feComposite1493"
         result="composite2"
         operator="over"
         in2="offset"
         in="SourceGraphic" />
    </filter>
    <filter
       id="filter2066"
       inkscape:label="Drop Shadow"
       style="color-interpolation-filters:sRGB">
      <feFlood
         id="feFlood2056"
         result="flood"
         flood-color="rgb(0,0,0)"
         flood-opacity="0.498039" />
      <feComposite
         id="feComposite2058"
         result="composite1"
         operator="in"
         in2="SourceGraphic"
         in="flood" />
      <feGaussianBlur
         id="feGaussianBlur2060"
         result="blur"
         stdDeviation="20"
         in="composite1" />
      <feOffset
         id="feOffset2062"
         result="offset"
         dy="20"
         dx="6" />
      <feComposite
         id="feComposite2064"
         result="composite2"
         operator="over"
         in2="offset"
         in="SourceGraphic" />
    </filter>
    <filter
       id="filter2474"
       inkscape:label="Drop Shadow"
       style="color-interpolation-filters:sRGB">
      <feFlood
         id="feFlood2464"
         result="flood"
         flood-color="rgb(0,0,0)"
         flood-opacity="0.498039" />
      <feComposite
         id="feComposite2466"
         result="composite1"
         operator="in"
         in2="SourceGraphic"
         in="flood" />
      <feGaussianBlur
         id="feGaussianBlur2468"
         result="blur"
         stdDeviation="4"
         in="composite1" />
      <feOffset
         id="feOffset2470"
         result="offset"
         dy="4.8"
         dx="1.5" />
      <feComposite
         id="feComposite2472"
         result="composite2"
         operator="over"
         in2="offset"
         in="SourceGraphic" />
    </filter>
    <linearGradient
       gradientTransform="translate(0,290.28571)"
       gradientUnits="userSpaceOnUse"
       y2="398.20157"
       x2="-973.7356"
       y1="746.96252"
       x1="-1123.2253"
       id="linearGradient1033"
       xlink:href="#linearGradient1058"
       inkscape:collect="always" />
    <linearGradient
       gradientTransform="translate(0,213.65424)"
       gradientUnits="userSpaceOnUse"
       y2="851.35718"
       x2="-987.59387"
       y1="1234.0872"
       x1="-1127.1049"
       id="linearGradient1047"
       xlink:href="#linearGradient1045"
       inkscape:collect="always" />
    <linearGradient
       gradientTransform="translate(-19.199562,-44.652005)"
       gradientUnits="userSpaceOnUse"
       y2="1157.111"
       x2="-544.48077"
       y1="1495.4609"
       x1="-689.72717"
       id="linearGradient1134"
       xlink:href="#linearGradient1045"
       inkscape:collect="always" />
    <linearGradient
       y2="851.35718"
       x2="-987.59387"
       y1="1234.0872"
       x1="-1127.1049"
       gradientTransform="translate(0,213.65424)"
       gradientUnits="userSpaceOnUse"
       id="linearGradient1160"
       xlink:href="#linearGradient1166"
       inkscape:collect="always" />
    <linearGradient
       id="linearGradient3682-0">
      <stop
         style="stop-color:#a40000;stop-opacity:1"
         offset="0"
         id="stop3684-0" />
      <stop
         style="stop-color:#ef2929;stop-opacity:1"
         offset="1"
         id="stop3686-0" />
    </linearGradient>
    <linearGradient
       id="linearGradient3864-9">
      <stop
         id="stop3866-1"
         offset="0"
         style="stop-color:#204a87;stop-opacity:1" />
      <stop
         id="stop3868-1"
         offset="1"
         style="stop-color:#729fcf;stop-opacity:1" />
    </linearGradient>
    <linearGradient
       id="linearGradient3682-0-3">
      <stop
         style="stop-color:#ff390f;stop-opacity:1"
         offset="0"
         id="stop3684-0-7" />
      <stop
         style="stop-color:#ff1000;stop-opacity:1;"
         offset="1"
         id="stop3686-0-5" />
    </linearGradient>
    <linearGradient
       id="linearGradient3864-9-7">
      <stop
         id="stop3866-1-7"
         offset="0"
         style="stop-color:#316cab;stop-opacity:1" />
      <stop
         id="stop3868-1-4"
         offset="1"
         style="stop-color:#002ca8;stop-opacity:1" />
    </linearGradient>
    <linearGradient
       id="linearGradient3682">
      <stop
         id="stop3684"
         offset="0"
         style="stop-color:#ff6d0f;stop-opacity:1;" />
      <stop
         id="stop3686"
         offset="1"
         style="stop-color:#ff1000;stop-opacity:1;" />
    </linearGradient>
    <linearGradient
       id="linearGradient3864">
      <stop
         style="stop-color:#71b2f8;stop-opacity:1;"
         offset="0"
         id="stop3866" />
      <stop
         style="stop-color:#002795;stop-opacity:1;"
         offset="1"
         id="stop3868" />
    </linearGradient>
    <linearGradient
       gradientTransform="matrix(0.79118995,0,0,0.96421064,-462.08318,3.6442021)"
       gradientUnits="userSpaceOnUse"
       y2="-97.402824"
       x2="-2013.709"
       y1="301.0498"
       x1="-2412.1616"
       id="linearGradient1169"
       xlink:href="#linearGradient1167"
       inkscape:collect="always" />
    <linearGradient
       gradientUnits="userSpaceOnUse"
       y2="-9.260396"
       x2="-2055.4119"
       y1="284.23495"
       x1="-2302.6389"
       id="linearGradient1239"
       xlink:href="#linearGradient1245"
       inkscape:collect="always" />
    <linearGradient
       gradientUnits="userSpaceOnUse"
       y2="1276.7333"
       x2="4327.0557"
       y1="2126.7334"
       x1="3477.0554"
       id="linearGradient3835"
       xlink:href="#linearGradient1045"
       inkscape:collect="always" />
    <mask
       id="mask5747"
       maskUnits="userSpaceOnUse">
      <path
         inkscape:connector-curvature="0"
         id="path5749"
         d="m -1081.0913,3822.7064 -30.9051,-17.7313 -13.6473,4.7355 -13.0203,33.2785 -20.4811,-1.0774 -9.3432,-34.4101 -13.0752,-6.2608 -32.6113,14.2658 -13.7762,-15.3072 17.7314,-30.9049 -4.8453,-13.606 -33.2766,-13.0222 1.1905,-20.5206 34.4107,-9.3432 6.2607,-13.0752 -14.3755,-32.5713 15.3071,-13.7747 30.9051,17.7313 13.7154,-4.8866 12.9107,-33.2346 20.6323,1.1528 9.2335,34.4501 13.0752,6.2606 32.681,-14.4151 13.7747,15.3067 -17.7319,30.9052 4.7754,13.7554 33.2372,12.9128 -1.0398,20.5901 -34.4501,9.2334 -6.2622,13.0752 14.3073,32.721 z m -46.2858,-50.6793 6.3443,-3.6809 5.4951,-4.9832 4.4016,-5.9473 3.1652,-6.6122 1.8707,-7.1279 0.3036,-7.3064 -1.0584,-7.3012 -2.4077,-6.9339 -3.8305,-6.4135 -4.8341,-5.4277 -5.9468,-4.3992 -6.6122,-3.1652 -7.1283,-1.8709 -7.3452,-0.4154 -7.3041,1.0583 -6.9313,2.4077 -6.414,3.8307 -5.3875,4.9432 -4.441,5.8375 -3.1652,6.6122 -1.8143,7.2377 -0.4155,7.3456 1.0579,7.302 2.4078,6.9334 3.7905,6.3042 4.8741,5.5367 5.9468,4.3995 6.6122,3.1652 7.238,1.8142 7.3058,0.3038 7.302,-1.0584 6.9333,-2.4079 z"
         style="display:inline;overflow:visible;visibility:visible;fill:#ffffff;fill-opacity:1;fill-rule:evenodd;stroke:none;stroke-width:9.9998951;stroke-linecap:round;stroke-linejoin:round;stroke-miterlimit:4;stroke-dasharray:none;stroke-dashoffset:0;stroke-opacity:1;marker:none;enable-background:accumulate" />
    </mask>
    <mask
       id="mask2314"
       maskUnits="userSpaceOnUse">
      <path
         inkscape:connector-curvature="0"
         sodipodi:nodetypes="ccccccccccc"
         id="path2316"
         d="m -1868.9759,3355.7772 h -288.3976 v 59.668 h 119.3385 v 59.6685 h 59.668 v -59.6685 h 49.7232 v 99.4479 h 59.6679 z"
         style="display:inline;overflow:visible;visibility:visible;fill:#ffffff;fill-opacity:1;fill-rule:evenodd;stroke:none;stroke-width:9.99989414;stroke-linecap:butt;stroke-linejoin:miter;stroke-miterlimit:4;stroke-dasharray:none;stroke-dashoffset:0;stroke-opacity:1;marker:none;enable-background:accumulate" />
    </mask>
  </defs>
  <sodipodi:namedview
     id="base"
     pagecolor="#ffffff"
     bordercolor="#666666"
     borderopacity="1.0"
     inkscape:pageopacity="0.0"
     inkscape:pageshadow="2"
     inkscape:zoom="7.9195959"
     inkscape:cx="41.605658"
     inkscape:cy="35.165936"
     inkscape:document-units="px"
     inkscape:current-layer="layer1"
     showgrid="false"
     inkscape:window-width="1276"
     inkscape:window-height="2093"
     inkscape:window-x="1280"
     inkscape:window-y="0"
     inkscape:window-maximized="1"
     units="px"
     inkscape:showpageshadow="2"
     inkscape:pagecheckerboard="0"
     inkscape:deskcolor="#d1d1d1" />
  <metadata
     id="metadata5">
    <rdf:RDF>
      <cc:Work
         rdf:about="">
        <dc:format>image/svg+xml</dc:format>
        <dc:type
           rdf:resource="http://purl.org/dc/dcmitype/StillImage" />
        <dc:title />
      </cc:Work>
    </rdf:RDF>
  </metadata>
  <g
     inkscape:label="Layer 1"
     inkscape:groupmode="layer"
     id="layer1"
     transform="translate(0,-280.06666)">
    <path
       style="fill:#000000;stroke-width:0.264583"
       id="path4"
       d="m 14.000746,289.70965 c 0.132275,0.19027 0.219665,0.40445 0.261167,0.63271 0.01624,0.0893 0.03168,0.17953 0.03358,0.27031 0.0027,0.12872 -0.01325,0.25716 -0.01987,0.38574 -0.112184,0.81667 -0.436246,1.58114 -0.818472,2.30524 -0.07556,0.14314 -0.157329,0.28293 -0.235994,0.4244 -0.187305,0.32384 -0.248421,0.3976 -0.377871,0.7364 -0.03736,0.0978 -0.0623,0.19988 -0.09345,0.29981 0,0 0.01728,0.0101 0.01728,0.0101 v 0 c 0.07853,-0.0725 0.163357,-0.13864 0.235578,-0.21739 0.244721,-0.26685 0.278637,-0.36589 0.466875,-0.68614 0.163516,-0.29946 0.317963,-0.57233 0.464144,-0.88142 0.278285,-0.58841 0.500901,-1.20611 0.617087,-1.84777 0.01536,-0.12648 0.04185,-0.2521 0.04607,-0.37944 0.003,-0.0904 -0.01222,-0.18055 -0.02455,-0.27012 -0.03016,-0.21903 -0.09116,-0.42992 -0.204531,-0.62049 z" />
    <path
       style="fill:#000000;stroke-width:0.264583"
       id="path5"
       d="m 5.3727182,292.22602 c 0.4989489,-0.24897 1.0136492,-0.46336 1.5264498,-0.68164 0.6382721,-0.28138 1.2884955,-0.53407 1.9345424,-0.79663 0.4574648,-0.18593 0.5391708,-0.22341 0.9891758,-0.41624 0.8219448,-0.3433 1.6386458,-0.69912 2.4661338,-1.02895 0.89176,-0.37123 -0.15315,0.092 0.584654,-0.31465 0.08687,-0.0479 0.183264,-0.0759 0.274896,-0.11393 0,0 -0.01663,-0.0111 -0.01663,-0.0111 v 0 c -0.09163,0.038 -0.179878,0.0855 -0.274889,0.11392 -0.980838,0.29399 0.181252,-0.13524 -0.73011,0.21731 -0.383668,0.15876 -0.76733,0.3175 -1.146564,0.48669 -0.447264,0.19954 -0.356799,0.16705 -0.814769,0.37341 -0.15158,0.0683 -0.3041651,0.13435 -0.4562481,0.20152 -0.9839207,0.40402 -1.9735137,0.79414 -2.9618081,1.1873 -0.5363745,0.21333 -1.0702526,0.43406 -1.6166574,0.62089 z" />
    <path
       style="fill:#000000;stroke-width:0.264583"
       id="path6"
       d="m 5.314099,292.82471 c 0.4491815,-0.10962 0.9092134,-0.17004 1.366774,-0.23284 0.9145455,-0.12536 1.8376012,-0.16302 2.7587695,-0.20535 0.5526667,-0.009 1.0921265,-0.13197 1.6357145,-0.21537 0.104604,-0.0161 0.209599,-0.0294 0.314399,-0.0442 0.117267,-0.0122 0.234535,-0.0244 0.351802,-0.0365 0.121483,-0.0109 0.243114,-0.0202 0.36445,-0.0326 0.114931,-0.0118 0.231232,-0.0161 0.344289,-0.0399 0.08874,-0.0187 0.1719,-0.0578 0.25785,-0.0867 0,0 -0.01626,-0.0116 -0.01626,-0.0116 v 0 c -0.145301,-0.0136 -0.290055,-0.0357 -0.435902,-0.0406 -0.127422,-0.004 -0.25495,0.006 -0.38226,0.013 -0.28836,0.0155 -0.441865,0.0347 -0.726873,0.0639 -0.644422,0.10005 -1.2853549,0.23362 -1.9384947,0.26446 -0.9159979,0.0561 -1.8326868,0.10663 -2.7441489,0.21815 -0.3939482,0.0439 -0.7959077,0.0708 -1.1842086,0.15489 -0.074267,0.0161 -0.1448255,0.0386 -0.2172147,0.0605 z" />
    <path
       style="fill:#000000;stroke-width:0.264583"
       id="path7"
       d="m 5.4304572,293.20422 c 0.3844568,0.18021 0.7768767,0.34279 1.1690784,0.50522 0.6586969,0.26965 1.3318787,0.50192 2.0042153,0.7348 0.4400641,0.14703 0.8844818,0.28077 1.3302751,0.40926 0.102111,0.0294 0.201615,0.0713 0.306744,0.0869 0.07843,0.0116 0.158492,-0.004 0.237737,-0.006 0.1231,0.0305 0.2462,0.061 0.3693,0.0916 0,0 -0.01588,-0.0122 -0.01588,-0.0122 v 0 c -0.12677,-0.0333 -0.253539,-0.0667 -0.380309,-0.10001 -0.167832,-0.066 -0.333272,-0.13846 -0.5034977,-0.19803 -0.098793,-0.0346 -0.2018186,-0.0556 -0.3025495,-0.084 C 9.2029581,294.50629 8.7617731,294.37551 8.3260723,294.22807 7.6602647,294.0001 6.9927284,293.7745 6.3418428,293.5062 5.9457263,293.34004 5.5533326,293.16586 5.1613045,292.99039 Z" />
    <path
       style="fill:#000000;stroke-width:0.264583"
       id="path8"
       d="m 13.368569,289.52719 c -0.270694,-0.3968 -0.570284,-0.77206 -0.875475,-1.14254 -0.09099,-0.10786 -0.181801,-0.21587 -0.272975,-0.32357 -0.2877,-0.33985 -0.575802,-0.67852 -0.848422,-1.03077 -0.220616,-0.28505 -0.361373,-0.48033 -0.575193,-0.77119 -0.592343,-0.78143 -1.2012749,-1.55006 -1.8011734,-2.32567 -0.1636072,-0.21197 -0.3543692,-0.46692 -0.5328566,-0.66674 -0.097988,-0.10969 -0.2039736,-0.21198 -0.3059604,-0.31797 0,0 -0.018362,-0.008 -0.018362,-0.008 v 0 c 0.032535,0.076 0.057552,0.15574 0.097603,0.22809 0.1101403,0.19897 0.3053046,0.4483 0.4373111,0.62645 0.6081056,0.76892 1.2239011,1.5323 1.8015703,2.32465 0.156325,0.21398 0.405551,0.55762 0.567171,0.76911 0.354046,0.46329 0.734425,0.90538 1.110585,1.35061 0.314433,0.37971 0.629906,0.75854 0.918431,1.15865 z" />
    <path
       style="fill:#000000;stroke-width:0.264583"
       id="path9"
       d="m 13.086006,292.50926 c -0.22009,-0.32231 -0.443545,-0.64237 -0.666172,-0.96295 -0.383125,-0.56237 -0.786242,-1.11052 -1.18899,-1.65885 -0.286541,-0.37474 -0.52589,-0.78145 -0.78114,-1.17724 -0.211843,-0.32848 -0.183912,-0.28313 -0.402223,-0.60321 -0.3429922,-0.49623 -0.7228262,-0.9654 -1.0955492,-1.43927 -0.1539251,-0.18677 -0.2896947,-0.39034 -0.4626785,-0.56105 -0.3695668,-0.36472 -0.1478542,-0.0809 -0.3686082,-0.38746 0,0 -0.018352,-0.008 -0.018352,-0.008 v 0 c 0.3571748,0.49612 -0.022027,-0.0917 0.1214805,0.28147 0.023032,0.0599 0.065603,0.11051 0.1030398,0.16263 0.018095,0.0252 0.2867991,0.35841 0.298127,0.37249 0.381635,0.47763 0.7645691,0.95463 1.1241688,1.44925 0.4169778,0.59099 0.7998908,1.2047 1.2166988,1.79586 0.404552,0.54694 0.812373,1.09194 1.190052,1.65803 0.205578,0.31303 0.411027,0.62614 0.615479,0.93989 z" />
    <path
       style="fill:#000000;stroke-width:0.264583"
       id="path10"
       d="m 12.087318,294.5141 c -0.192502,-0.2763 -0.382373,-0.55431 -0.56964,-0.8342 -0.3813,-0.56036 -0.798481,-1.09525 -1.199972,-1.64118 -0.401464,-0.53588 -0.7656677,-1.09793 -1.1433483,-1.65042 -0.2258438,-0.34062 -0.4792371,-0.66014 -0.74373,-0.97104 -0.2552832,-0.29263 -0.4868299,-0.60412 -0.7076263,-0.92321 -0.1313817,-0.18394 -0.2605426,-0.36957 -0.3964612,-0.55022 -0.039405,-0.0524 -0.072302,-0.11085 -0.1201235,-0.15568 -0.080994,-0.0759 -0.1755949,-0.13587 -0.2633921,-0.2038 0,0 -0.018383,-0.008 -0.018383,-0.008 v 0 c -0.016587,0.023 -0.057731,0.0419 -0.049761,0.0691 0.017881,0.0611 0.076568,0.10177 0.1146773,0.15278 0.1339442,0.1793 0.2659682,0.36003 0.3900736,0.54635 0.2239383,0.31783 0.4481296,0.63671 0.7074437,0.92721 0.2792807,0.32212 0.5604648,0.64335 0.8048549,0.9935 0.3891595,0.54938 0.7607096,1.11102 1.1554299,1.65652 0.397109,0.5395 0.806202,1.07094 1.176725,1.62936 0.183759,0.28255 0.358883,0.57251 0.569304,0.83641 z" />
    <path
       style="fill:#000000;stroke-width:0.264583"
       id="path11"
       d="m 4.7753451,292.2109 c -0.011618,-0.0424 -0.032269,-0.12379 -0.050268,-0.16108 -0.059725,-0.12374 -0.1578576,-0.23941 -0.2630417,-0.32671 -0.042483,-0.0353 -0.08998,-0.064 -0.1349705,-0.096 -0.2554314,-0.14423 -0.3219816,-0.22109 -0.5603481,-0.27167 -0.1831544,-0.0389 -0.3782603,-0.0373 -0.5626145,-0.008 -0.064196,0.0102 -0.1269641,0.028 -0.1904458,0.042 -0.3058086,0.088 -0.5863901,0.25187 -0.7762589,0.51224 -0.030563,0.0419 -0.054544,0.0882 -0.081817,0.13237 -0.1065829,0.21863 -0.1313881,0.4643 -0.055441,0.69753 0.016146,0.0496 0.039776,0.0964 0.059664,0.14462 0.095216,0.19092 0.2178231,0.36814 0.3676856,0.52043 0.089643,0.0911 0.1378907,0.12655 0.2353904,0.20663 0.2353352,0.16759 0.4846873,0.32409 0.7670343,0.39459 0.1125056,0.0281 0.1338656,0.0272 0.246739,0.0408 0.1587476,0.007 0.3215362,0.0226 0.4801471,0.002 0.1006012,-0.0128 0.1681133,-0.0363 0.2653913,-0.0643 0.19709,-0.0716 0.3803026,-0.18416 0.5011992,-0.35997 0.023482,-0.0341 0.040542,-0.0723 0.060813,-0.10843 0.014499,-0.0424 0.03242,-0.0838 0.043494,-0.12715 0.037056,-0.14523 0.059973,-0.33487 0.049842,-0.48433 -0.00409,-0.0604 -0.00364,-0.12385 -0.027434,-0.17951 -0.035278,-0.0825 -0.097335,-0.15083 -0.1460029,-0.22624 0,0 -0.017963,-0.009 -0.017963,-0.009 v 0 c -0.030741,0.0357 -0.076779,0.0625 -0.092224,0.10697 -0.017711,0.051 -8.467e-4,0.10798 -0.00116,0.16196 -0.00116,0.20327 -3.969e-4,0.40945 -0.081271,0.60033 -0.018852,0.0347 -0.034597,0.0713 -0.056553,0.1041 -0.1146249,0.17136 -0.3060576,0.27446 -0.49509,0.34099 -0.044235,0.0116 -0.087831,0.0259 -0.1327057,0.0347 -0.2026645,0.0396 -0.4120213,0.0223 -0.6162048,0.009 -0.1225727,-0.0164 -0.2417064,-0.0339 -0.3586972,-0.0764 -0.042168,-0.0153 -0.1481609,-0.0901 -0.1239663,-0.0524 0.030978,0.0484 0.092976,0.071 0.1474861,0.0891 0.046482,0.0154 -0.081787,-0.0539 -0.1226804,-0.0809 -0.039743,-0.0315 -0.080949,-0.0613 -0.1192143,-0.0946 -0.1946852,-0.16939 -0.3515336,-0.37824 -0.4679748,-0.60791 -0.018815,-0.0458 -0.040809,-0.0904 -0.056446,-0.13741 -0.074539,-0.22398 -0.054799,-0.46088 0.042754,-0.67407 0.025076,-0.0435 0.046752,-0.089 0.075227,-0.13034 0.067348,-0.0977 0.1433805,-0.17486 0.2327078,-0.25275 0.1530467,-0.13345 0.2981637,-0.21494 0.4963584,-0.26479 0.1999498,-0.0431 0.3536143,-0.0724 0.5606481,-0.0536 0.060339,0.005 0.120609,0.0145 0.1794446,0.0289 0.056631,0.0139 0.1093042,0.0705 0.1657708,0.0559 0.042141,-0.0109 -0.073341,-0.0469 -0.1100114,-0.0703 0.044502,0.0301 0.091506,0.0568 0.1335074,0.0903 0.098872,0.0788 0.1980518,0.1893 0.2519733,0.3052 0.01809,0.0389 0.029354,0.10683 0.037913,0.15014 z" />
    <path
       style="fill:#000000;stroke-width:0.264583"
       id="path12"
       d="m 4.5544842,290.99308 c 0.010403,-0.15666 0.019727,-0.0673 -0.067666,-0.26088 0,0 -0.017656,-0.009 -0.017656,-0.009 v 0 c -0.1399615,0.0763 -0.097688,0.0224 -0.1483297,0.14217 z" />
    <path
       style="fill:#000000;stroke-width:0.264583"
       id="path13"
       d="m 4.6431704,290.78008 c 0.016317,-0.0544 0.087283,-0.19696 0.079573,-0.24568 -0.00928,-0.0586 -0.045181,-0.10976 -0.067772,-0.16464 0,0 -0.017492,-0.01 -0.017492,-0.01 v 0 c -0.048162,0.0154 -0.1029997,0.0173 -0.1444848,0.0462 -0.037159,0.0259 -0.084692,0.18547 -0.101315,0.23429 z" />
    <path
       style="fill:#000000;stroke-width:0.264583"
       id="path14"
       d="m 3.3437185,291.02789 c -0.015542,-0.0564 -0.042623,-0.16491 -0.070328,-0.21002 -0.039907,-0.065 -0.093445,-0.12052 -0.1401681,-0.18078 0,0 -0.018063,-0.009 -0.018063,-0.009 v 0 c -0.022109,0.0273 -0.056739,0.0482 -0.066328,0.082 -0.00523,0.0184 0.02331,0.16099 0.02839,0.18806 z" />
    <path
       style="fill:#000000;stroke-width:0.264583"
       id="path15"
       d="m 2.2658695,291.54294 c -0.021899,-0.0287 -0.1314828,-0.17372 -0.1469239,-0.18705 -0.081029,-0.0699 -0.1774521,-0.12055 -0.2586741,-0.19027 -0.038598,-0.0331 -0.065763,-0.0776 -0.098645,-0.11642 0,0 -0.018414,-0.008 -0.018414,-0.008 v 0 c 0.03289,0.0388 0.089888,0.0663 0.098671,0.11637 0.00488,0.0278 -0.068171,0.0197 -0.069863,0.0479 -1.128e-4,0.002 0.1009792,0.15739 0.1096599,0.17078 z" />
    <path
       style="fill:#000000;stroke-width:0.264583"
       id="path16"
       d="m 1.3834276,292.89899 c -0.066482,0.0238 -0.2103468,0.0406 -0.2442691,0.11322 -0.0155,0.0332 -0.00315,0.0732 -0.00473,0.10981 0,0 0.01645,0.0114 0.01645,0.0114 v 0 c 0.079462,0.0174 0.1578318,0.0408 0.2383853,0.0521 0.1255868,0.0175 0.2469546,-0.004 0.36978,-0.0254 z" />
    <path
       style="fill:#000000;stroke-width:0.264583"
       id="path17"
       d="m 2.0099115,293.89705 c -0.094825,0.0557 -0.1920179,0.11711 -0.2736076,0.19143 -0.038621,0.0352 -0.087883,0.0657 -0.1073948,0.11414 -0.022876,0.0568 -0.00825,0.12221 -0.012375,0.18332 0,0 0.016915,0.0107 0.016915,0.0107 v 0 c 0.086792,-0.009 0.1759484,-0.004 0.2603758,-0.0263 0.056999,-0.0148 0.1055558,-0.0525 0.1564647,-0.0821 0.096296,-0.056 0.1874396,-0.12312 0.279441,-0.18579 z" />
    <path
       style="fill:#000000;stroke-width:0.264583"
       id="path18"
       d="m 3.4291062,294.72429 c 0.00667,0.17734 -0.010509,0.0394 0.078934,0.27252 0.022294,0.0581 0.03953,0.11803 0.059295,0.17705 0,0 0.017738,0.009 0.017738,0.009 v 0 c 0.028121,-0.0339 0.052651,-0.0712 0.084363,-0.10182 0.1391928,-0.13436 0.079462,-0.0132 0.1317967,-0.15975 z" />
    <path
       style="fill:#000000;stroke-width:0.264583"
       id="path19"
       d="m 4.8833972,294.376 c 0.1039038,0.11374 0.2406235,0.19387 0.3666104,0.28007 0,0 0.018455,0.008 0.018455,0.008 v 0 c 0.058689,-0.0674 0.033857,-0.0697 -0.022598,-0.13547 z" />
    <path
       style="fill:#000000;stroke-width:0.264583"
       id="path20"
       d="m 8.1565395,281.69984 c -0.1772595,0.3386 -0.3499168,0.67959 -0.5260226,1.01879 -0.3069347,0.5613 -0.6251581,1.11615 -0.9305592,1.67831 -0.2948983,0.5641 -0.5963127,1.12473 -0.8970738,1.6857 -0.1634556,0.31779 -0.3355959,0.63135 -0.4909992,0.95325 -0.081009,0.1678 -0.1559206,0.33848 -0.2347749,0.50731 -0.1707017,0.37132 -0.333756,0.74618 -0.4774105,1.12883 -0.057791,0.14131 -0.1128328,0.28439 -0.1749361,0.42385 -0.00929,0.0196 -0.016505,0.0399 -0.026104,0.0594 0.00404,0.005 0.00345,2.1e-4 0.00414,0.0114 0.1174218,0.0503 0.232782,0.10574 0.3522652,0.15094 0.011247,0.004 -0.016013,-0.0179 -0.024138,-0.0268 -0.011642,-0.0127 -0.023439,-0.0252 -0.035159,-0.0379 -0.1375378,-0.1513 -0.2875368,-0.29016 -0.4489736,-0.41544 -0.2276811,-0.16134 -0.4730054,-0.29544 -0.7161403,-0.43173 0.1022514,0.0589 0.2044319,0.11785 0.3067539,0.1766 0.00445,0.003 -0.00858,-0.006 -0.013129,-0.008 -0.018661,-0.01 -0.016346,0.003 -0.011732,-0.0366 0.0059,-0.0506 0.024249,-0.10792 0.037332,-0.15558 0.1233731,-0.35311 0.2942542,-0.68857 0.4634486,-1.02159 0.1280184,-0.26758 0.2749373,-0.52605 0.3967705,-0.79666 0.2037967,-0.45265 -0.043424,0.0635 0.1749878,-0.3849 0.1853525,-0.34656 0.3811029,-0.68767 0.6110592,-1.00675 0.093269,-0.11762 0.1764064,-0.24276 0.25909,-0.36789 0.024638,-0.0373 0.046244,-0.0767 0.073251,-0.1123 0.1245407,-0.14332 0.065695,-0.0693 0.1766626,-0.22189 0.1654196,-0.22421 0.323619,-0.45313 0.4767585,-0.68586 0.139419,-0.21763 0.2738454,-0.43829 0.397645,-0.6652 0.1110514,-0.19705 0.2244262,-0.39294 0.3415652,-0.58643 0.1162354,-0.16844 0.2108358,-0.35021 0.32341,-0.52089 0.085104,-0.11382 0.1528797,-0.23943 0.2223002,-0.36316 0.042484,-0.0509 0.042928,-0.12758 0.088172,-0.17546 0.0075,-0.002 0.00748,-0.012 0.013062,-0.016 0.014711,-0.0106 0.00254,0.0245 0.00262,0.0247 0.00283,0.007 0.011512,0.0108 0.017269,0.0163 0.011134,0.007 0.044732,0.0269 0.033398,0.0204 -0.1070364,-0.0611 -0.2137084,-0.12295 -0.3205205,-0.18449 -0.026353,-0.0152 0.052776,0.0302 0.07914,0.0454 0.033605,0.0193 0.066252,0.0404 0.1007684,0.0581 0.3352623,0.17144 0.1686002,0.0611 0.3575023,0.19491 0,0 0.01859,0.007 0.01859,0.007 v 0 c -0.2430447,-0.18723 -0.004,0.0214 -0.00362,-0.0583 1.426e-4,-0.03 -0.05008,-0.0331 -0.075509,-0.049 -0.1709401,-0.10708 -0.3463475,-0.20767 -0.5238874,-0.3032 -0.031853,0.002 -0.026576,0.0318 -0.030698,0.0542 -0.014282,0.0641 -0.065702,0.11335 -0.08586,0.1757 -0.067629,0.12541 -0.1615151,0.23383 -0.2237827,0.36193 -0.087245,0.18531 -0.2022893,0.35406 -0.2958275,0.53613 -0.1104836,0.19758 -0.2318027,0.38893 -0.3358885,0.59015 -0.1308547,0.22184 -0.2412294,0.45612 -0.3920014,0.66593 -0.1521994,0.23268 -0.3025857,0.46643 -0.4611804,0.69485 -0.2569078,0.42965 0.108417,-0.19121 -0.1310378,0.24892 -0.021304,0.0392 -0.047887,0.0752 -0.07215,0.11259 -0.081383,0.12543 -0.1649564,0.24967 -0.2339822,0.38262 -0.203999,0.33712 -0.4400203,0.65317 -0.6215285,1.00375 -0.067072,0.1235 -0.1378879,0.24496 -0.2038768,0.36904 -0.139206,0.26175 -0.2547665,0.53559 -0.3988713,0.79484 -0.1725922,0.33178 -0.3477755,0.66216 -0.5092623,0.99954 -0.011512,0.0226 -0.104997,0.18268 -0.097007,0.21202 0.00177,0.007 0.010864,0.008 0.016296,0.0122 0.1182021,0.0682 0.2364044,0.1365 0.3546065,0.20475 0.1076534,0.0574 0.294119,0.16507 -0.1758678,-0.1054 -0.025802,-0.0149 0.051316,0.0302 0.076717,0.0457 0.087763,0.0536 0.089957,0.0563 0.1777177,0.11465 0.1578359,0.11718 0.3058639,0.24566 0.4294098,0.39955 0.092379,0.10882 0.3906086,0.35463 0.4286266,0.23471 -0.014068,2e-4 -0.00433,-0.0449 -0.00257,-0.0529 0.041664,-0.14767 0.1036762,-0.29011 0.1543098,-0.43476 0.1434211,-0.38259 0.2921376,-0.76332 0.4572728,-1.13716 0.2243693,-0.49472 0.4816686,-0.97304 0.7321751,-1.45485 0.2903765,-0.56647 0.588332,-1.12898 0.8884121,-1.69036 0.2971649,-0.56661 0.6077747,-1.12597 0.9148998,-1.68722 0.1844543,-0.3335 0.3636378,-0.67103 0.5700377,-0.99163 z" />
    <path
       style="fill:#000000;stroke-width:0.264583"
       id="path21"
       d="m 12.848696,281.42788 c -0.08873,-0.048 -0.169165,-0.11637 -0.266175,-0.14409 -0.05264,-0.015 0.08621,0.0676 0.126879,0.10429 0.05021,0.0453 0.09958,0.0916 0.145534,0.1412 0.203024,0.21895 0.368508,0.46679 0.537329,0.71191 0.285939,0.42484 0.569351,0.85136 0.853006,1.27771 0.145806,0.22694 0.32159,0.42969 0.510786,0.62074 0.173308,0.18625 0.35344,0.36706 0.517297,0.56185 0.07671,0.0765 0.178058,0.12176 0.271226,0.17463 0,0 0.01826,0.008 0.01826,0.008 v 0 c 0.02673,0.006 0.05315,0.0142 0.08018,0.0191 0.07783,0.014 0.0692,0.0209 0.04341,-0.0281 -0.175404,-0.18481 -0.339229,-0.38066 -0.516778,-0.56361 -0.189902,-0.19866 -0.379029,-0.39838 -0.537446,-0.6241 -0.305273,-0.42948 -0.604974,-0.86295 -0.901266,-1.29866 -0.118601,-0.17388 -0.231021,-0.34332 -0.35727,-0.5115 -0.111635,-0.14872 -0.163348,-0.21348 -0.29005,-0.33755 -0.03672,-0.036 -0.07184,-0.0746 -0.114513,-0.10327 -0.147575,-0.0991 -0.303035,-0.18596 -0.454552,-0.27894 z" />
    <path
       style="fill:#000000;stroke-width:0.264583"
       id="path22"
       d="m 8.2068196,289.16149 c -0.2066293,-0.22882 -0.09941,-0.10401 -0.3189523,-0.37675 0,0 -0.018381,-0.008 -0.018381,-0.008 v 0 c 0.1854091,0.24788 0.1140738,0.13283 0.2270921,0.33669 z" />
    <path
       style="fill:#000000;stroke-width:0.264583"
       id="path23"
       d="m 2.9138846,281.01633 c -0.1422228,0.19334 -0.3077359,0.36777 -0.4661456,0.54755 -0.1593923,0.18089 -0.1617603,0.18696 -0.3142156,0.37233 -0.2617164,0.31214 -0.4740362,0.66002 -0.6898424,1.00418 -0.1407341,0.23999 -0.3006588,0.46788 -0.47300336,0.68606 -0.10667662,0.12695 -0.20972095,0.25687 -0.30924787,0.38948 -0.06091,0.0721 -0.11193997,0.15248 -0.17303848,0.22431 -0.12871643,0.0721 -0.0363611,0.0165 0.35308877,0.19155 0.011816,0.005 -0.0177808,-0.0198 -0.0220279,-0.032 -0.008627,-0.0249 -0.0124381,-0.0512 -0.0159147,-0.0773 -0.0168942,-0.12676 -0.0130195,-0.17602 -0.0148435,-0.31033 -0.0171676,-0.31638 -0.00921,-0.63348 -0.0186753,-0.95001 -0.004475,-0.14964 -0.0142874,-0.29907 -0.0202902,-0.44866 -0.006868,-0.22022 -0.0134079,-0.44134 -0.0541647,-0.65848 -0.0137865,-0.0734 -0.032023,-0.146 -0.047167,-0.21918 -0.0370638,-0.1827 -0.10215079,-0.35808 -0.15106777,-0.53785 -0.0204515,-0.0723 -0.0362188,-0.14514 -0.0457693,-0.2196 -0.002413,-0.0188 -0.0122076,-0.0619 -9.8689e-4,-0.0835 0.003251,-0.006 0.0119502,-0.008 0.0179253,-0.0113 0.176074,0.018 0.35283853,0.0227 0.52968831,0.0284 0.37338369,0.0151 0.74564869,0.0495 1.11921949,0.0594 0.237711,1.5e-4 0.4753477,-0.006 0.7130402,-0.009 0.1461207,-0.018 0.2931086,-0.0143 0.4397947,-0.0192 0.024646,-0.003 0.053427,0.006 0.073935,-0.008 0.047939,-0.0325 -0.029465,-0.13154 -0.033537,-0.13925 0,0 -0.016235,-0.0117 -0.016235,-0.0117 v 0 c -0.1348544,-0.0582 -0.2716625,-0.13543 -0.4232277,-0.1292 -0.1427314,0.004 -0.2852162,0.0161 -0.4271806,0.0312 -0.2155145,0.0362 -0.4348622,0.0454 -0.6531016,0.0465 -0.3692604,-0.006 -0.7376842,-0.0268 -1.10614457,-0.0511 -0.0954896,-0.006 -0.19095313,-0.0121 -0.28645983,-0.0177 -0.0638551,-0.004 -0.16041567,-0.0211 -0.2239471,0.003 -0.0136664,0.005 -0.0237327,0.0172 -0.0355991,0.0257 -0.003748,0.0132 -0.0111545,0.0259 -0.0112426,0.0397 -3.2596e-4,0.0508 0.0391865,0.1272 0.0540147,0.17424 0.008057,0.0256 0.0142304,0.0517 0.0209273,0.0776 0.007089,0.0275 0.0136195,0.0551 0.0204293,0.0826 0.0538774,0.18413 0.11678853,0.36567 0.17535622,0.54833 0.080754,0.28474 0.0978252,0.58481 0.11716626,0.87876 -0.002143,0.43345 0.00263,-0.0231 -0.0102674,0.43247 -0.008706,0.30755 -0.007424,0.61556 -0.0337873,0.92242 -0.003532,0.0564 -0.006366,0.11281 -0.0105968,0.16914 -0.0118539,0.15785 -0.0978443,0.72992 0.40129659,0.45206 0.0781,-0.0612 0.13969093,-0.13735 0.20210743,-0.21398 0.1076527,-0.12604 0.1966481,-0.26715 0.3035258,-0.39401 0.1671563,-0.22363 0.3258653,-0.45419 0.4661618,-0.69573 0.2067359,-0.34712 0.4123413,-0.69577 0.6694289,-1.00914 0.1218275,-0.14894 0.18334,-0.22724 0.3115086,-0.37139 0.161575,-0.18172 0.3352277,-0.35211 0.50041,-0.53047 z" />
    <path
       style="fill:#000000;stroke-width:0.264583"
       id="path24"
       d="m 12.908137,281.29813 c 0.286328,-0.0294 0.574503,-0.0381 0.862112,-0.0458 0.305405,-0.01 0.610627,-0.0223 0.915385,-0.0446 0.201542,-0.0155 0.403788,-0.0161 0.60559,-0.026 0.159431,-0.0121 0.318172,-0.0312 0.477159,-0.0478 0.107083,-0.0111 0.213939,-0.0244 0.321366,-0.0317 0.146505,-0.0133 0.405741,0.0997 -0.298623,-0.1922 -0.01606,-0.007 0.007,0.0341 0.01048,0.0511 0.01365,0.27897 -0.01595,0.55881 -0.03218,0.83731 -0.0032,0.0694 -0.0065,0.13878 -0.0095,0.20818 -0.0071,0.16037 -0.01293,0.25385 -0.01051,0.41493 0.0033,0.2208 0.02278,0.44083 0.04021,0.66081 0.03046,0.36117 0.06358,0.72209 0.08487,1.08394 0.0089,0.27232 0.01356,0.54466 0.04094,0.81589 0.0205,0.19759 0.02317,0.39634 0.04106,0.59415 0.03786,0.28064 -0.01953,0.16549 0.384657,0.32785 -0.06002,-0.10191 -0.09765,-0.21487 -0.146825,-0.32201 -0.03353,-0.0731 -0.09244,-0.18876 -0.128008,-0.25962 -0.198172,-0.23898 -0.09262,-0.12019 -0.317855,-0.3553 0,0 -0.01825,-0.008 -0.01825,-0.008 v 0 c -0.03119,0.12829 -0.02367,0.0607 -0.01828,0.20305 0.0926,0.18794 0.17578,0.37922 0.24893,0.57557 0.47531,0.24444 0.404554,0.31588 0.368255,0.0234 -0.02573,-0.19951 -0.03693,-0.40051 -0.05648,-0.60068 -0.01831,-0.27181 -0.03115,-0.54363 -0.04235,-0.81579 -0.02678,-0.36413 -0.05447,-0.7283 -0.0974,-1.09097 -0.03736,-0.42482 -0.05883,-0.8518 -0.02068,-1.27759 0.02224,-0.27545 0.05507,-0.55006 0.07032,-0.82602 -4.23e-4,-0.0192 0.01366,-0.0456 -0.0013,-0.0578 -0.260247,-0.21152 -0.255932,-0.25882 -0.454601,-0.24918 -0.104867,0.0109 -0.209225,0.0261 -0.3139,0.0386 -0.157939,0.0203 -0.316473,0.0354 -0.475365,0.046 -0.197677,0.0131 -0.395994,0.0158 -0.593229,0.0359 -0.298901,0.0245 -0.598278,0.0416 -0.897876,0.0552 -0.281786,0.0147 -0.564187,0.0235 -0.843994,0.0625 z" />
    <path
       style="fill:#000000;stroke-width:0.264583"
       id="path25"
       d="m 15.732085,292.67536 c 0.06737,0.30435 0.05456,0.61969 0.04095,0.92893 -0.02369,0.35997 -0.05858,0.71911 -0.09804,1.07766 -0.0306,0.25426 -0.02599,0.51066 -0.03085,0.76619 -0.0067,0.15203 -0.0051,0.30398 -8.2e-4,0.456 -0.0043,0.0523 0.0086,0.10571 0.005,0.15782 -0.02766,-0.0264 -0.106661,-0.0179 -0.136665,-0.0194 -0.165359,-0.008 -0.07256,-0.003 -0.26113,-0.0153 -0.422748,-0.0336 -0.844618,-0.0776 -1.268624,-0.091 -0.336171,-0.008 -0.671297,0.024 -1.007268,0.0283 -0.205796,-0.002 -0.410887,-0.0208 -0.616255,-0.0324 -0.12295,-0.0113 -0.245327,0.005 -0.367902,0.0119 -0.01324,-6.3e-4 -0.02704,0.002 -0.03971,-0.002 -0.0059,-0.002 -0.01728,-0.017 -0.01193,-0.014 0.121223,0.068 0.230573,0.16013 0.360518,0.20941 0.02298,0.009 0.03231,-0.0372 0.05081,-0.0534 0.07798,-0.0682 0.165559,-0.12534 0.250107,-0.18451 0.375756,-0.25046 0.734474,-0.52537 1.097884,-0.79318 0.331354,-0.23937 0.659007,-0.48326 0.974053,-0.74378 0.310987,-0.25318 0.6193,-0.50961 0.924856,-0.76931 0.183746,-0.15966 0.371369,-0.31478 0.554119,-0.47558 0.0089,-0.008 0.07894,-0.0701 0.08255,-0.0892 0.01215,-0.064 -0.07019,-0.12521 -0.09871,-0.15701 0,0 -0.01715,-0.0103 -0.01715,-0.0103 v 0 c -0.161607,-0.0481 -0.192638,-0.0805 -0.312928,0.0433 -0.165877,0.17341 -0.343633,0.33405 -0.524695,0.49148 -0.300497,0.2647 -0.608201,0.52069 -0.921484,0.77015 -0.317108,0.25549 -0.634478,0.51058 -0.966555,0.74667 -0.360636,0.27361 -0.720767,0.54831 -1.107516,0.78485 -0.06687,0.0431 -0.200336,0.12836 -0.270646,0.17685 -0.0265,0.0183 -0.09857,0.0321 -0.07801,0.0569 0.15144,0.18254 0.227926,0.31136 0.38069,0.2419 0.108976,-0.0321 0.222109,-0.0298 0.334845,-0.026 0.202057,0.009 0.403977,0.025 0.606348,0.022 0.329572,-0.0102 0.658093,-0.0481 0.988269,-0.0398 0.426464,0.0139 0.851025,0.0523 1.275227,0.0976 0.0789,0.007 0.189893,0.0159 0.271311,0.0223 0.04378,0.003 0.147199,0.0316 0.166588,-0.0288 -0.0025,-0.0543 -0.0033,-0.10856 -0.01019,-0.1626 -0.01101,-0.15331 -0.01152,-0.30701 -0.01248,-0.46065 -0.0021,-0.25649 -0.0105,-0.51369 0.01851,-0.76918 0.03175,-0.36177 0.06314,-0.72361 0.0851,-1.08614 0.01624,-0.31146 0.03352,-0.62639 -0.03126,-0.93401 z" />
    <path
       style="fill:#000000;stroke-width:0.264583"
       id="path26"
       d="m 0.56861542,292.99555 c 5.2388e-4,0.34021 0.0071,0.68032 0.0255053,1.02004 0.0227774,0.37701 0.0284671,0.75489 0.0117668,1.13222 -0.008585,0.18852 -0.0178189,0.37651 -0.0147796,0.56527 0.007155,0.18298 0.008275,0.36641 0.0233971,0.54899 0.008485,0.0315 -0.001881,0.0573 -0.007444,0.0863 -0.0276019,0.14378 0.22625053,0.21501 0.35660537,0.1975 0.28894931,-0.0264 0.57866401,0.0222 0.86427301,0.0618 0.3528935,0.0502 0.6974503,0.0917 1.054226,0.0758 0.044685,-0.004 0.089223,-0.0104 0.1340564,-0.0123 0.1344528,-0.006 0.2700218,0.004 0.4045773,0.003 0.080239,-6.1e-4 0.1306608,-0.004 0.2092331,-0.008 0.026051,-0.004 0.052853,-0.005 0.078155,-0.0128 0.086463,-0.0257 0.1869099,-0.0954 0.2458299,-0.16357 0.017264,-0.0183 0.038754,-0.0351 0.042665,-0.0625 0.01479,-0.10364 -0.1136163,-0.2213 -0.173778,-0.28651 C 3.46864,295.81576 3.1006318,295.50717 2.7480758,295.1809 2.476183,294.93248 2.2439069,294.6462 1.9941734,294.37667 1.821325,294.19915 1.6611115,294.01011 1.4962602,293.82531 c -0.109339,-0.12286 -0.2063243,-0.2558 -0.3117945,-0.38182 -0.1024626,-0.1287 -0.1823024,-0.15721 -0.33646353,-0.23719 0,0 -0.0184666,-0.008 -0.0184666,-0.008 v 0 c -0.0427904,-0.0113 -0.0841983,-0.0312 -0.12837113,-0.0339 -0.009853,-6.1e-4 0.007278,0.0185 0.0126788,0.0268 0.0163785,0.0251 0.051403,0.0619 0.0700089,0.0826 0.11677301,0.13114 0.23598516,0.25988 0.34583336,0.39707 0.1696152,0.18719 0.3360297,0.37746 0.5124139,0.55835 0.2639116,0.27721 0.5168348,0.56549 0.7982192,0.82547 0.354776,0.32134 0.7239007,0.62657 1.0720037,0.95522 0.08423,0.089 0.211292,0.19569 0.1955692,0.33158 -0.075807,0.0999 -0.1606085,0.16144 -0.2896243,0.17182 -0.2542162,0.0172 -0.5106073,0.0155 -0.7648456,0.004 -0.364124,-0.0147 -0.7276636,-0.0449 -1.0873178,-0.10542 -0.2932537,-0.0415 -0.58679323,-0.0868 -0.88399504,-0.0708 -0.14788245,-0.0223 -0.0583766,-0.014 0.24713428,0.17435 0.004755,0.003 -0.008012,-0.004 -0.0136715,-0.0296 -0.005689,-0.0254 -0.002312,-0.0452 -7.8846e-4,-0.0713 0.009227,-0.18046 -0.007555,-0.36106 -0.009264,-0.54154 -0.001074,-0.18889 0.0143653,-0.37709 0.0105479,-0.56599 0.002954,-0.38231 -0.00775,-0.76399 -0.0326777,-1.14565 -7.6994e-4,-0.0178 -0.0200467,-0.45654 -0.0201766,-0.48126 -9.234e-4,-0.1757 0.0195987,-0.35162 0.0139681,-0.52753 z" />
  </g>
</svg>
